<?xml version="1.0" encoding="UTF-8"?>
<svg id="TEXTS" xmlns="http://www.w3.org/2000/svg" xmlns:xlink="http://www.w3.org/1999/xlink" viewBox="0 0 180 180">
  <defs>
    <style>
      .cls-1 {
        fill: url(#Degradado_sin_nombre_4-10);
      }

      .cls-2 {
        fill: url(#Degradado_sin_nombre_4-4);
      }

      .cls-3 {
        filter: url(#drop-shadow-6);
      }

      .cls-4 {
        fill: url(#Degradado_sin_nombre_4-6);
      }

      .cls-5 {
        fill: url(#Degradado_sin_nombre_4-2);
      }

      .cls-6 {
        fill: none;
      }

      .cls-7 {
        fill: url(#Degradado_sin_nombre_4);
      }

      .cls-8 {
        fill: url(#Degradado_sin_nombre_4-7);
      }

      .cls-9 {
        fill: url(#Degradado_sin_nombre_4-3);
      }

      .cls-10 {
        fill: url(#Degradado_sin_nombre_4-12);
      }

      .cls-11 {
        fill: url(#Degradado_sin_nombre_4-5);
      }

      .cls-12 {
        fill: url(#Degradado_sin_nombre_4-9);
      }

      .cls-13 {
        fill: url(#Degradado_sin_nombre_4-8);
      }

      .cls-14 {
        fill: url(#Degradado_sin_nombre_4-11);
      }
    </style>
    <filter id="drop-shadow-6" x="25.39" y="25.32" width="119.26" height="119.26" filterUnits="userSpaceOnUse">
      <feOffset dx="5" dy="5"/>
      <feGaussianBlur result="blur" stdDeviation="10"/>
      <feFlood flood-color="#3d3d3d" flood-opacity=".5"/>
      <feComposite in2="blur" operator="in"/>
      <feComposite in="SourceGraphic"/>
    </filter>
    <linearGradient id="Degradado_sin_nombre_4" data-name="Degradado sin nombre 4" x1="51.23" y1="85.16" x2="118.81" y2="85.16" gradientUnits="userSpaceOnUse">
      <stop offset="0" stop-color="#0556a2"/>
      <stop offset="1" stop-color="#35b2a8"/>
    </linearGradient>
    <linearGradient id="Degradado_sin_nombre_4-2" data-name="Degradado sin nombre 4" x1="60.24" y1="85.73" x2="69.26" y2="85.73" xlink:href="#Degradado_sin_nombre_4"/>
    <linearGradient id="Degradado_sin_nombre_4-3" data-name="Degradado sin nombre 4" x1="73.76" y1="85.73" x2="82.78" y2="85.73" xlink:href="#Degradado_sin_nombre_4"/>
    <linearGradient id="Degradado_sin_nombre_4-4" data-name="Degradado sin nombre 4" x1="87.27" y1="85.73" x2="96.29" y2="85.73" xlink:href="#Degradado_sin_nombre_4"/>
    <linearGradient id="Degradado_sin_nombre_4-5" data-name="Degradado sin nombre 4" x1="100.79" y1="85.73" x2="109.81" y2="85.73" xlink:href="#Degradado_sin_nombre_4"/>
    <linearGradient id="Degradado_sin_nombre_4-6" data-name="Degradado sin nombre 4" x1="73.76" y1="106.01" x2="82.78" y2="106.01" xlink:href="#Degradado_sin_nombre_4"/>
    <linearGradient id="Degradado_sin_nombre_4-7" data-name="Degradado sin nombre 4" x1="60.24" y1="106.01" x2="69.26" y2="106.01" xlink:href="#Degradado_sin_nombre_4"/>
    <linearGradient id="Degradado_sin_nombre_4-8" data-name="Degradado sin nombre 4" x1="60.24" y1="95.87" x2="69.26" y2="95.87" xlink:href="#Degradado_sin_nombre_4"/>
    <linearGradient id="Degradado_sin_nombre_4-9" data-name="Degradado sin nombre 4" x1="73.76" y1="95.87" x2="82.78" y2="95.87" xlink:href="#Degradado_sin_nombre_4"/>
    <linearGradient id="Degradado_sin_nombre_4-10" data-name="Degradado sin nombre 4" x1="87.26" y1="95.86" x2="95.15" y2="95.86" xlink:href="#Degradado_sin_nombre_4"/>
    <linearGradient id="Degradado_sin_nombre_4-11" data-name="Degradado sin nombre 4" x1="89.52" y1="106.56" x2="118.81" y2="106.56" xlink:href="#Degradado_sin_nombre_4"/>
    <linearGradient id="Degradado_sin_nombre_4-12" data-name="Degradado sin nombre 4" x1="96.02" y1="107.43" x2="112.58" y2="107.43" xlink:href="#Degradado_sin_nombre_4"/>
  </defs>
  <g id="shape" class="cls-3">
    <path class="cls-6" d="M38.64,25.32h92.75c7.31,0,13.25,5.94,13.25,13.25v92.75c0,7.31-5.94,13.25-13.25,13.25H38.64c-7.31,0-13.25-5.94-13.25-13.25V38.57c0-7.31,5.94-13.25,13.25-13.25Z"/>
  </g>
  <path class="cls-7" d="M118.81,95.21c0,.8-.5,1.17-1.06,1.21-.62.04-1.19-.4-1.19-1.13v-19.14s-63.06,0-63.06,0v34.88c0,1.94,1.5,3.34,3.4,3.41h31.35c.76,0,1.24.4,1.28,1.06.03.6-.39,1.19-1.14,1.19h-31.51c-3.05,0-5.63-2.41-5.63-5.51l-.02-45.15c0-3.23,2.6-5.67,5.77-5.66h5.49s.02-2.54.02-2.54c.02-2.4,2.13-4.18,4.42-4.22,2.36-.03,4.41,1.77,4.56,4.22l.02,2.55h9s.02-2.55.02-2.55c.02-2.4,2.13-4.18,4.42-4.22,2.36-.03,4.41,1.77,4.56,4.22l.02,2.55h9s.02-2.55.02-2.55c.02-2.39,2.12-4.18,4.42-4.21s4.34,1.69,4.55,4.08l.03,2.68h5.63c3.13,0,5.63,2.48,5.63,5.65v29.17ZM69.25,64.83v-6.68c0-1.31-1.08-2.28-2.31-2.25s-2.19.97-2.19,2.25v6.74c0,1.31,1.08,2.28,2.3,2.25s2.19-.97,2.19-2.31ZM87.27,64.83v-6.68c0-1.31-1.08-2.28-2.31-2.25s-2.19.97-2.19,2.25v6.74c0,1.31,1.08,2.28,2.3,2.25,1.18-.03,2.19-.97,2.19-2.31ZM105.29,64.83v-6.68c0-1.31-1.08-2.28-2.31-2.25-1.19.03-2.19.97-2.19,2.25v6.74c0,1.31,1.08,2.28,2.3,2.25s2.19-.97,2.19-2.31ZM98.51,62.64h-8.98s-.01,2.41-.01,2.41c-.01,2.45-2.07,4.32-4.43,4.36-2.36.04-4.54-1.77-4.56-4.21l-.02-2.55h-9s-.01,2.4-.01,2.4c-.01,2.45-2.07,4.32-4.43,4.36-2.36.04-4.54-1.77-4.56-4.21l-.02-2.55h-5.62c-1.88.05-3.38,1.49-3.38,3.39v7.87s63.06,0,63.06,0l-.02-8c0-1.85-1.55-3.23-3.36-3.26h-5.62s0,2.4,0,2.4c0,2.45-2.07,4.32-4.43,4.36s-4.53-1.77-4.56-4.21l-.04-2.55Z"/>
  <path class="cls-5" d="M66.94,89.67h-4.46c-1.26,0-2.25-.99-2.25-2.25v-3.4c0-1.25.99-2.24,2.25-2.24h4.66c1.27.02,2.12,1.16,2.12,2.38v3.11c0,1.3-.92,2.39-2.32,2.39ZM67,84.04h-4.5v3.38h4.5v-3.38Z"/>
  <path class="cls-9" d="M80.46,89.67h-4.46c-1.26,0-2.25-.99-2.25-2.25v-3.4c0-1.25.99-2.24,2.25-2.24h4.66c1.27.02,2.12,1.16,2.12,2.38v3.11c0,1.3-.92,2.39-2.32,2.39ZM80.51,84.04h-4.5v3.38h4.5v-3.38Z"/>
  <path class="cls-2" d="M93.97,89.67h-4.46c-1.26,0-2.25-.99-2.25-2.25v-3.4c0-1.25.99-2.24,2.25-2.24h4.66c1.27.02,2.12,1.16,2.12,2.38v3.11c0,1.3-.92,2.39-2.32,2.39ZM94.03,84.04h-4.5v3.38h4.5v-3.38Z"/>
  <path class="cls-11" d="M107.49,89.67h-4.46c-1.26,0-2.25-.99-2.25-2.25v-3.4c0-1.25.99-2.24,2.25-2.24h4.66c1.27.02,2.12,1.16,2.12,2.38v3.11c0,1.3-.92,2.39-2.32,2.39ZM107.54,84.04h-4.5v3.38h4.5v-3.38Z"/>
  <path class="cls-4" d="M80.46,109.95h-4.46c-1.26,0-2.25-.99-2.25-2.25v-3.4c0-1.25.99-2.24,2.25-2.24h4.66c1.27.02,2.12,1.16,2.12,2.38v3.11c0,1.3-.92,2.39-2.32,2.39ZM80.51,104.31h-4.5v3.38h4.5v-3.38Z"/>
  <path class="cls-8" d="M66.94,109.95h-4.46c-1.26,0-2.25-.99-2.25-2.25v-3.4c0-1.25.99-2.24,2.25-2.24h4.66c1.27.02,2.12,1.16,2.12,2.38v3.11c0,1.3-.92,2.39-2.32,2.39ZM67,104.31h-4.5v3.38h4.5v-3.38Z"/>
  <path class="cls-13" d="M66.94,99.81h-4.46c-1.26,0-2.25-.99-2.25-2.25v-3.4c0-1.25.99-2.24,2.25-2.24h4.66c1.27.02,2.12,1.16,2.12,2.38v3.11c0,1.3-.92,2.39-2.32,2.39ZM67,94.18h-4.5v3.38h4.5v-3.38Z"/>
  <path class="cls-12" d="M80.46,99.81h-4.46c-1.26,0-2.25-.99-2.25-2.25v-3.4c0-1.25.99-2.24,2.25-2.24h4.66c1.27.02,2.12,1.16,2.12,2.38v3.11c0,1.3-.92,2.39-2.32,2.39ZM80.51,94.18h-4.5v3.38h4.5v-3.38Z"/>
  <path class="cls-1" d="M89.5,97.53c.77.09,1.18.61,1.14,1.22s-.56,1.1-1.26,1.05c-1.27-.09-2.13-1.12-2.12-2.39v-3.25c.01-1.26.99-2.24,2.26-2.25h4.37c.71-.01,1.23.43,1.26,1.06.04.7-.5,1.21-1.26,1.2h-4.37s-.02,3.34-.02,3.34Z"/>
  <path class="cls-14" d="M118.81,106.56c0,8.09-6.56,14.64-14.64,14.64s-14.64-6.56-14.64-14.64,6.56-14.64,14.64-14.64,14.64,6.56,14.64,14.64ZM116.54,106.56c0-6.83-5.54-12.37-12.37-12.37s-12.37,5.54-12.37,12.37,5.54,12.37,12.37,12.37,12.37-5.54,12.37-12.37Z"/>
  <path class="cls-10" d="M101.23,113.08l-4.84-4.79c-.44-.44-.48-1.09-.14-1.55.32-.44,1.13-.64,1.6-.18l4.07,4.03,8.68-8.69c.47-.47,1.16-.49,1.62-.08s.5,1.18,0,1.69l-9.42,9.42c-.39.39-1.1.62-1.57.15Z"/>
</svg>