<?xml version="1.0" encoding="UTF-8"?>
<svg id="TEXTS" xmlns="http://www.w3.org/2000/svg" xmlns:xlink="http://www.w3.org/1999/xlink" viewBox="0 0 180 180">
  <defs>
    <style>
      .cls-1 {
        fill: url(#Degradado_sin_nombre_4-4);
      }

      .cls-2 {
        fill: url(#Degradado_sin_nombre_4-2);
      }

      .cls-3 {
        fill: none;
      }

      .cls-4 {
        filter: url(#drop-shadow-4);
      }

      .cls-5 {
        fill: url(#Degradado_sin_nombre_4);
      }

      .cls-6 {
        fill: url(#Degradado_sin_nombre_4-3);
      }
    </style>
    <filter id="drop-shadow-4" x="25.38" y="25.32" width="119.26" height="119.25" filterUnits="userSpaceOnUse">
      <feOffset dx="5" dy="5"/>
      <feGaussianBlur result="blur" stdDeviation="10"/>
      <feFlood flood-color="#3d3d3d" flood-opacity=".5"/>
      <feComposite in2="blur" operator="in"/>
      <feComposite in="SourceGraphic"/>
    </filter>
    <linearGradient id="Degradado_sin_nombre_4" data-name="Degradado sin nombre 4" x1="67.83" y1="91.98" x2="124.26" y2="91.98" gradientUnits="userSpaceOnUse">
      <stop offset="0" stop-color="#0556a2"/>
      <stop offset="1" stop-color="#35b2a8"/>
    </linearGradient>
    <linearGradient id="Degradado_sin_nombre_4-2" data-name="Degradado sin nombre 4" x1="72.76" y1="80.54" x2="99.34" y2="80.54" xlink:href="#Degradado_sin_nombre_4"/>
    <linearGradient id="Degradado_sin_nombre_4-3" data-name="Degradado sin nombre 4" x1="45.76" y1="87.08" y2="87.08" xlink:href="#Degradado_sin_nombre_4"/>
    <linearGradient id="Degradado_sin_nombre_4-4" data-name="Degradado sin nombre 4" x1="50.67" y1="82.48" x2="77.69" y2="82.48" xlink:href="#Degradado_sin_nombre_4"/>
  </defs>
  <g id="shape" class="cls-4">
    <path class="cls-3" d="M38.63,25.32h92.75c7.31,0,13.25,5.94,13.25,13.25v92.75c0,7.31-5.94,13.25-13.25,13.25H38.63c-7.31,0-13.25-5.94-13.25-13.25V38.57c0-7.31,5.94-13.25,13.25-13.25Z"/>
  </g>
  <path class="cls-5" d="M124.26,112.07v1.63c-.24.81-.54,1.64-1.18,2.27l-3.16,3.15c-.59.59-1.41.81-2.11,1.09h-1.75s-.13-.11-.21-.13c-1.11-.22-1.91-.9-2.65-1.72l-13.08-14.56c-1.05-1.16-1.29-2.25-1.23-3.78l-2.46-2.5c-3.15,2.11-6.77,3.11-10.44,3.07-10.02-.11-18.07-8.24-18.17-18.23-.1-10.37,8.31-18.81,18.81-18.6,5.07.1,9.84,2.28,13.24,6.03,5.66,6.25,6.33,15.57,1.69,22.59l2.5,2.5c1.6-.27,2.95.41,4.12,1.47l14.73,13.29c.71.64,1.04,1.6,1.34,2.43ZM102.17,82.17c0-8.8-7.13-15.93-15.93-15.93s-15.93,7.13-15.93,15.93,7.13,15.93,15.93,15.93,15.93-7.13,15.93-15.93ZM100.05,94.36l-1.63,1.63,1.63,1.63,1.63-1.63-1.63-1.63ZM118.46,117.09l2.81-2.83c.74-.74.74-2.08-.08-2.82l-14.89-13.44c-.93-.84-2.17-.96-3.1-.02l-1.08,1.08c-.94.85-.99,2.14-.14,3.08l13.51,14.99c.81.89,2.17.76,2.97-.05Z"/>
  <path class="cls-2" d="M96.09,87.66l-9.71-9.72c-1.86,1.56-4.55,1.59-6.41,0l-6.95,6.95c-.22-1.08-.3-2.19-.23-3.29l5.75-5.74c-.71-2.06-.06-4.3,1.68-5.6s4.14-1.31,5.88-.02,2.45,3.52,1.7,5.6l10.05,10.05c.49-.24.94-.48,1.49-.54-.57,2.44-1.8,4.62-3.62,6.45-.5-1.35-.36-2.83.37-4.15ZM85.6,74.2c0-1.35-1.09-2.44-2.44-2.44s-2.44,1.09-2.44,2.44,1.09,2.44,2.44,2.44,2.44-1.09,2.44-2.44Z"/>
  <path class="cls-6" d="M120.26,58.86s.12.09.22.11c1.83.44,3.23,1.84,3.68,3.67.03.12.04.22.11.29v43.39l-.33.98-4.04-3.64,1.9-.03v-39.94c-.01-1.2-1.08-2.36-2.31-2.36H50.78c-1.42-.05-2.57,1.07-2.56,2.49v39.83s48.91,0,48.91,0c.42.86,1.04,1.64,1.74,2.34.04.03.05.05.06.07.03.04.01.09-.02.1-.03,0-.06,0-.14-.05h-50.43c.23.97,1.15,1.82,2.19,1.82h50.06s2.23,2.48,2.23,2.48h-8.58s0,2.45,0,2.45l6.3.02c.44,0,.79.38.97.71.1.42.12.76-.09,1.15-.17.22-.46.58-.89.58h-31.08c-.61-.01-.99-.73-1-1.19,0-.56.36-1.23.99-1.23l6.36-.04v-2.44s-25.5,0-25.5,0c-2.17-.18-3.96-1.7-4.42-3.81-.04-.1-.06-.16-.12-.21v-43.45c.2-.59.36-1.19.7-1.73.71-1.14,1.79-1.91,3.09-2.23.11-.03.22-.04.28-.11h70.43ZM91.75,110.4h-13.48s0,2.45,0,2.45h13.48s0-2.45,0-2.45Z"/>
  <path class="cls-1" d="M53.13,84.53v14.2s20.45,0,20.45,0c1.27.98,2.63,1.78,4.11,2.47h-25.91c-.57-.05-1.11-.48-1.11-1.1v-35.28c0-.65.67-1.05,1.19-1.06.56-.01,1.24.4,1.24,1.06l.02,16.44,7.78,6.42c1.41-1.2,3.26-1.56,5.02-.9.52,2.3,1.42,4.54,2.75,6.58-1.06,2.42-3.84,3.55-6.28,2.61-2.45-.94-3.75-3.65-2.87-6.2l-6.38-5.24ZM66.59,91.38c0-1.35-1.09-2.44-2.44-2.44s-2.44,1.09-2.44,2.44,1.09,2.44,2.44,2.44,2.44-1.09,2.44-2.44Z"/>
</svg>