<?xml version="1.0" encoding="UTF-8"?>
<svg id="TEXTS" xmlns="http://www.w3.org/2000/svg" xmlns:xlink="http://www.w3.org/1999/xlink" viewBox="0 0 179.52 180">
  <defs>
    <style>
      .cls-1 {
        fill: url(#Degradado_sin_nombre_4-10);
      }

      .cls-2 {
        filter: url(#drop-shadow-2);
      }

      .cls-3 {
        fill: url(#Degradado_sin_nombre_4-4);
      }

      .cls-4 {
        fill: url(#Degradado_sin_nombre_4-6);
      }

      .cls-5 {
        fill: url(#Degradado_sin_nombre_4-2);
      }

      .cls-6 {
        fill: none;
      }

      .cls-7 {
        fill: url(#Degradado_sin_nombre_4);
      }

      .cls-8 {
        fill: url(#Degradado_sin_nombre_4-7);
      }

      .cls-9 {
        fill: url(#Degradado_sin_nombre_4-3);
      }

      .cls-10 {
        fill: url(#Degradado_sin_nombre_4-5);
      }

      .cls-11 {
        fill: url(#Degradado_sin_nombre_4-9);
      }

      .cls-12 {
        fill: url(#Degradado_sin_nombre_4-8);
      }
    </style>
    <filter id="drop-shadow-2" x="25.21" y="25.32" width="119.26" height="119.26" filterUnits="userSpaceOnUse">
      <feOffset dx="5" dy="5"/>
      <feGaussianBlur result="blur" stdDeviation="10"/>
      <feFlood flood-color="#3d3d3d" flood-opacity=".5"/>
      <feComposite in2="blur" operator="in"/>
      <feComposite in="SourceGraphic"/>
    </filter>
    <linearGradient id="Degradado_sin_nombre_4" data-name="Degradado sin nombre 4" x1="56.04" y1="90.2" x2="121.88" y2="90.2" gradientUnits="userSpaceOnUse">
      <stop offset="0" stop-color="#0556a2"/>
      <stop offset="1" stop-color="#35b2a8"/>
    </linearGradient>
    <linearGradient id="Degradado_sin_nombre_4-2" data-name="Degradado sin nombre 4" x1="47.8" y1="74.48" x2="54.56" y2="74.48" xlink:href="#Degradado_sin_nombre_4"/>
    <linearGradient id="Degradado_sin_nombre_4-3" data-name="Degradado sin nombre 4" x1="89.41" y1="63.4" x2="95.63" y2="63.4" xlink:href="#Degradado_sin_nombre_4"/>
    <linearGradient id="Degradado_sin_nombre_4-4" data-name="Degradado sin nombre 4" x1="59.9" y1="55.31" x2="64.63" y2="55.31" xlink:href="#Degradado_sin_nombre_4"/>
    <linearGradient id="Degradado_sin_nombre_4-5" data-name="Degradado sin nombre 4" x1="82.05" y1="55.3" x2="86.78" y2="55.3" xlink:href="#Degradado_sin_nombre_4"/>
    <linearGradient id="Degradado_sin_nombre_4-6" data-name="Degradado sin nombre 4" x1="51.05" y1="63.41" x2="57.28" y2="63.41" xlink:href="#Degradado_sin_nombre_4"/>
    <linearGradient id="Degradado_sin_nombre_4-7" data-name="Degradado sin nombre 4" x1="89.41" y1="85.56" x2="95.63" y2="85.56" xlink:href="#Degradado_sin_nombre_4"/>
    <linearGradient id="Degradado_sin_nombre_4-8" data-name="Degradado sin nombre 4" x1="51.05" y1="85.54" x2="57.28" y2="85.54" xlink:href="#Degradado_sin_nombre_4"/>
    <linearGradient id="Degradado_sin_nombre_4-9" data-name="Degradado sin nombre 4" x1="72.02" y1="52.33" x2="74.68" y2="52.33" xlink:href="#Degradado_sin_nombre_4"/>
    <linearGradient id="Degradado_sin_nombre_4-10" data-name="Degradado sin nombre 4" x1="98.13" y1="107.18" x2="113.96" y2="107.18" xlink:href="#Degradado_sin_nombre_4"/>
  </defs>
  <g id="shape" class="cls-2">
    <path class="cls-6" d="M38.46,25.32h92.75c7.31,0,13.25,5.94,13.25,13.25v92.75c0,7.31-5.94,13.25-13.25,13.25H38.46c-7.31,0-13.25-5.94-13.25-13.25V38.57c0-7.31,5.94-13.25,13.25-13.25Z"/>
  </g>
  <path class="cls-7" d="M109.01,123.09h-6.2c-1.4-1.64.49-3.53-1.62-4.1-.39-.1-.81-.46-1.23-.3-.7.26-2.09,2.72-3.24,1.6l-3.69-3.62-.56-1.29h-19.16c-.72-.01-1.29-.67-1.29-1.34l.05-11.4c-2.79-.05-3.76-2.13-4.71-4.22-.49-1.09-1.96-1.61-1.96-3.46v-3.98c-.01-.66-.41-1.21-.91-1.5-9.33-5.57-11.24-18.08-4.26-26.17,6.96-8.07,19.49-7.99,26.34.16,6.82,8.12,4.86,20.47-4.39,26-.61.36-.93,1.02-.93,1.79v3.69c.01,1.84-1.44,2.38-1.94,3.47-.96,2.08-1.9,4.16-4.71,4.2l.05,10.13,19.38-.06c.45,0,.14-1.2-.17-1.47-.83-.73-3.66.25-3.66-1.33v-5.47c.01-1.53,2.68-.72,3.51-1.17.24-.13.96-1.78.83-2.17-.23-.67-2.74-2.1-1.6-3.24l3.79-3.79c1.13-1.13,2.59,1.38,3.24,1.61.37.13,2.03-.56,2.17-.82.47-.85-.26-2.39.54-3.18.43-.42,1.06-.5,2.02-.35l.05-15.52-11.39-.02c-.73,0-1.29-.72-1.29-1.3s.56-1.31,1.29-1.31h12.82c.62,0,1.16.57,1.17,1.19l.06,16.97c1.07-.18,1.77-.03,2.15.52.59.83-.05,2.21.41,3.01.14.24,1.78.95,2.17.82.66-.22,2.11-2.66,3.06-1.73l3.97,3.91c1.14,1.13-1.37,2.58-1.6,3.24-.13.39.58,2.04.83,2.17.84.45,3.5-.36,3.5,1.17v5.48c0,1.53-2.66.73-3.5,1.18-.24.13-.96,1.78-.82,2.17.23.66,2.74,2.1,1.6,3.24l-3.78,3.79c-1.13,1.13-2.51-1.3-3.24-1.6-.41-.17-.84.22-1.2.32-2.17.56-.24,2.42-1.92,4.09ZM73.81,78.31l.1-3.37c.08-2.74,3-4.4,5.58-3.54,2.34.78,3.74,3.67,2.33,6.01-1.12,1.85-3.02,2.83-5.27,3.38v11.25c.88.17,1.46.16,2.11-.09-.28-2.19.64-3.79,2.34-4.85,7.81-4.82,9.34-15.38,3.32-22.2s-16.5-6.61-22.28.4c-5.64,6.83-3.98,17.27,3.85,21.94,1.63.97,2.34,2.7,2.18,4.67.59.33,1.55.38,2.11-.04l-.02-11.09c-2.05-.52-3.72-1.32-4.94-2.84s-1.15-3.62-.04-5.08c1.14-1.51,3.06-2.11,4.92-1.42,1.56.58,2.69,2.14,2.74,4.05l.06,2.9c.09.22.91.2.92-.09ZM70.07,78l.1-2.5c.03-.9-.54-1.49-1.3-1.65-.67-.14-1.41.23-1.69.78-.72,1.39.75,2.75,2.9,3.37ZM76.69,77.97c2.22-.66,3.52-2.02,2.83-3.34-.29-.56-1.03-.92-1.69-.79-1.46.3-1.57,1.96-1.14,4.12ZM72.81,81.16v10.95h1.06v-10.95h-1.06ZM107.14,120.1c.1-.99-.26-2.34.6-2.72,1.3-.57,2.66-.89,3.9-1.66,1.38-.87,2.43,1.63,3.12,1.5.23-.04,1.41-1.15,1.32-1.52-.14-.59-2.33-1.6-1.5-2.92.78-1.23,1.05-2.6,1.68-3.91.4-.82,1.94-.62,2.82-.47.41-.76.43-1.66-.02-2.42-.79.15-2.47.35-2.8-.46l-1.8-4.38c-.36-.89,1.04-1.8,1.63-2.3-.23-.8-.89-1.47-1.7-1.69-.49.58-1.42,1.99-2.3,1.62l-4.52-1.89c-.67-.39-.43-1.99-.33-2.73-.76-.42-1.65-.42-2.41,0,.15.88.36,2.43-.46,2.82-1.32.64-2.68.9-3.92,1.69-1.39.88-2.41-1.63-3.11-1.5-.23.04-1.41,1.16-1.32,1.52.16.63,2.13,1.45,1.57,2.72l-1.85,4.24c-.36.83-2.05.29-2.68.46-.56.4-.46,1.73-.05,2.27.84-.08,2.44-.34,2.81.5.63,1.42,1,2.8,1.77,4.15.65,1.15-1.69,2.2-1.58,2.88.04.22,1.16,1.41,1.52,1.32.57-.15,1.59-2.19,2.69-1.58,1.35.76,2.74,1.14,4.15,1.77.84.37.56,1.98.51,2.81.45.44,2.05.54,2.26-.11ZM77.67,95.92c.69-.07,1.08-.57.87-1.18h-10.39c-.21.71.31,1.19.97,1.19h8.55Z"/>
  <path class="cls-5" d="M47.8,75.14c.06-.59.03-.97,0-1.38.3-.18.69-.54,1.18-.55l4.08-.05c.93-.01,1.5.54,1.5,1.32s-.57,1.33-1.5,1.32l-4.08-.05c-.49,0-.88-.37-1.18-.62Z"/>
  <path class="cls-9" d="M91.45,65.56c-.77.44-1.51.13-1.85-.45s-.2-1.42.55-1.86l3.51-2.03c.68-.39,1.45-.09,1.76.4.45.71.21,1.54-.54,1.97l-3.42,1.96Z"/>
  <path class="cls-3" d="M64.42,56.39c.44.77.13,1.51-.45,1.85s-1.41.2-1.85-.56l-2.03-3.5c-.4-.68-.11-1.46.39-1.77.7-.44,1.55-.21,1.98.55l1.96,3.43Z"/>
  <path class="cls-10" d="M84.63,57.59c-.45.78-1.15.97-1.72.74-.72-.28-1.12-1.1-.69-1.85l2.01-3.52c.39-.68,1.1-.95,1.79-.64.6.26,1.02,1.1.58,1.86l-1.97,3.42Z"/>
  <path class="cls-4" d="M56.45,63.19c.77.45.97,1.15.74,1.72-.28.7-1.1,1.11-1.85.68l-3.67-2.13c-.69-.4-.78-1.24-.4-1.85.32-.51,1.08-.8,1.77-.39l3.41,1.97Z"/>
  <path class="cls-8" d="M94.88,85.37c.68.38.93,1.1.63,1.78-.27.6-1.1,1.03-1.85.59l-3.5-2.03c-.68-.4-.88-1.09-.66-1.66.29-.72,1.1-1.12,1.86-.69l3.52,2.01Z"/>
  <path class="cls-12" d="M53.3,87.6c-.88.51-1.61.31-2.02-.28-.48-.68-.19-1.52.54-1.94l3.51-2.02c.65-.38,1.42-.05,1.76.51.37.61.19,1.41-.56,1.85l-3.23,1.89Z"/>
  <path class="cls-11" d="M74.68,54.06c0,1.08-.56,1.63-1.33,1.64s-1.33-.57-1.33-1.49v-3.81c0-.9.57-1.44,1.33-1.44s1.32.54,1.32,1.45v3.66Z"/>
  <path class="cls-1" d="M113.96,107.18c0,4.37-3.54,7.92-7.92,7.92s-7.92-3.54-7.92-7.92,3.54-7.92,7.92-7.92,7.92,3.54,7.92,7.92ZM111.31,107.18c0-2.91-2.36-5.27-5.27-5.27s-5.27,2.36-5.27,5.27,2.36,5.27,5.27,5.27,5.27-2.36,5.27-5.27Z"/>
</svg>