<?xml version="1.0" encoding="UTF-8"?>
<svg id="TEXTS" xmlns="http://www.w3.org/2000/svg" viewBox="0 0 125.61 126.39">
  <defs>
    <style>
      .cls-1 {
        fill: #0056a1;
      }

      .cls-2 {
        fill: #008ed4;
      }
    </style>
  </defs>
  <g id="nEtcCc">
    <g>
      <path class="cls-2" d="M67.22,45.28c-1.88-2.77-2.66-5.77-2.66-9.01v-18.59s-29.59.07-29.59.07c-3.33,0-5.99,2.69-6.4,5.79l-.04,2.75h-6.04s.04-3.15.04-3.15c.62-6.16,5.47-10.78,11.69-11.46l38.1-.03,33.49,34.48-.03,20.87h-6.01s0-14.29,0-14.29l-19.09-.04c-5.44-.01-10.41-2.87-13.48-7.38ZM81.14,46.24l16.33-.03-26.37-27.12-.05,17.7c-.01,5.16,4.86,9.46,10.09,9.45Z"/>
      <g>
        <path class="cls-2" d="M57.28,59.71H22.08c-1.23,0-2.22,0-3.4,0l-5.35-.05c-1.4-.01-2.76-1.24-2.76-2.73l.03-25.23c0-1.76,1.77-2.68,3.33-2.68l44.14.06c1.1,0,2.41,1.42,2.42,2.42l.09,13.19v9.96c.01,1.2.06,2.32-.26,3.45-.79.9-1.68,1.63-3.05,1.61ZM27.3,39.91c-.15-1.81-1.02-3.42-2.63-4.35-1.16-.59-2.4-.56-3.67-.57l-6.23-.03v18.79s4.14,0,4.14,0v-6.99c1.5-.01,2.93.04,4.34-.22,3.23-.59,4.32-3.46,4.05-6.64ZM42.01,39.34c-.75-1.96-2.24-3.49-4.22-3.94-1.02-.23-1.98-.46-3.01-.41-1.72.08-3.39.07-5.17,0-.31.79-.09,1.57-.09,2.41l-.02,16.35,6.57-.04c6.29-.04,8-8.98,5.94-14.36ZM49.79,43.13v-4.99s7.02-.03,7.02-.03c.26-1.08.13-2.04-.02-3.02-2.32-.12-4.86-.19-7.2-.09-1.31.05-2.56-.17-3.96.03v18.74s4.13-.02,4.13-.02l.05-7.45h4.92c.35,0,.59-.32.56-.63l-.03-2.5h-5.48Z"/>
        <g>
          <path class="cls-2" d="M37.7,39.87c1.17,2.44,1.07,7.17-.39,9.57-.65,1.07-2.28,1.25-3.71,1.09v-12.42s1.61.04,1.61.04c1.16.03,2,.71,2.49,1.72Z"/>
          <path class="cls-2" d="M22.7,39.17c.69,1.7.28,4.36-1.62,4.39l-2.17.03-.02-5.68,1.59-.06c.96-.03,1.85.39,2.23,1.32Z"/>
        </g>
      </g>
      <g>
        <path class="cls-1" d="M95.15,121.34l-8.34-9.2-2.27-2.43-3.32-3.66-2.27-2.46-.99-1.15-1.91-2.14-2.23-2.41,9.73-.1-.03-25.04c0-1.37,1.22-2.31,2.7-2.31l18.85-.06c.75,0,1.2-.03,1.85.33s1.32.88,1.32,1.83l.03,25.24,9.44.02c.22.21-.02.69-.45.84l-14.7,16.18-6.61,7.26c-.45-.09-.51-.42-.79-.73Z"/>
        <path class="cls-2" d="M78.17,108.41l5.53,6.04-49.21-.02c-6.31-.52-11.32-5.23-11.96-11.53v-40.49s5.99.02,5.99.02l.09,39.88c0,3.42,3.13,5.77,6.36,6.1h43.21Z"/>
      </g>
      <g>
        <path class="cls-2" d="M61.54,66.54c-.57.51,2.18.31,3.8.31h7.39s3.38.04,3.38.04v5.78s-39.64.02-39.64.02l.03-5.79,9.21.02c.11-.08.22-.4.28-.35s.12.22.25.23c1.98.23,4.9.19,4.52-.24l.26.29c1.01.22,1.97.02,2.95.02h3.66c1.59,0,3.27.26,3.92-.32Z"/>
        <rect class="cls-2" x="36.48" y="76.97" width="39.63" height="5.76"/>
        <rect class="cls-2" x="36.42" y="87" width="39.69" height="5.79"/>
      </g>
    </g>
  </g>
</svg>