<?xml version="1.0" encoding="UTF-8"?>
<svg id="TEXTS" xmlns="http://www.w3.org/2000/svg" xmlns:xlink="http://www.w3.org/1999/xlink" viewBox="0 0 179.52 180">
  <defs>
    <style>
      .cls-1 {
        fill: url(#Degradado_sin_nombre_4-4);
      }

      .cls-2 {
        fill: url(#Degradado_sin_nombre_4-2);
      }

      .cls-3 {
        fill: none;
      }

      .cls-4 {
        fill: url(#Degradado_sin_nombre_4);
      }

      .cls-5 {
        fill: url(#Degradado_sin_nombre_4-3);
      }

      .cls-6 {
        filter: url(#drop-shadow-3);
      }

      .cls-7 {
        fill: url(#Degradado_sin_nombre_4-5);
      }
    </style>
    <filter id="drop-shadow-3" x="25.05" y="25.32" width="119.26" height="119.26" filterUnits="userSpaceOnUse">
      <feOffset dx="5" dy="5"/>
      <feGaussianBlur result="blur" stdDeviation="10"/>
      <feFlood flood-color="#3d3d3d" flood-opacity=".5"/>
      <feComposite in2="blur" operator="in"/>
      <feComposite in="SourceGraphic"/>
    </filter>
    <linearGradient id="Degradado_sin_nombre_4" data-name="Degradado sin nombre 4" x1="51.97" y1="96.19" x2="127.26" y2="96.19" gradientUnits="userSpaceOnUse">
      <stop offset="0" stop-color="#0556a2"/>
      <stop offset="1" stop-color="#35b2a8"/>
    </linearGradient>
    <linearGradient id="Degradado_sin_nombre_4-2" data-name="Degradado sin nombre 4" x1="62.51" y1="77.43" x2="104.71" y2="77.43" xlink:href="#Degradado_sin_nombre_4"/>
    <linearGradient id="Degradado_sin_nombre_4-3" data-name="Degradado sin nombre 4" x1="71.54" y1="66.88" x2="95.65" y2="66.88" xlink:href="#Degradado_sin_nombre_4"/>
    <linearGradient id="Degradado_sin_nombre_4-4" data-name="Degradado sin nombre 4" x1="71.54" y1="81.85" x2="95.65" y2="81.85" xlink:href="#Degradado_sin_nombre_4"/>
    <linearGradient id="Degradado_sin_nombre_4-5" data-name="Degradado sin nombre 4" x1="71.54" y1="74.32" x2="95.65" y2="74.32" xlink:href="#Degradado_sin_nombre_4"/>
  </defs>
  <g id="shape" class="cls-6">
    <path class="cls-3" d="M38.3,25.32h92.75c7.31,0,13.25,5.94,13.25,13.25v92.75c0,7.31-5.94,13.25-13.25,13.25H38.3c-7.31,0-13.25-5.94-13.25-13.25V38.57c0-7.31,5.94-13.25,13.25-13.25Z"/>
  </g>
  <path class="cls-4" d="M111.45,87.95h12.12c1.87,0,3.57,1.43,3.68,3.39.05.8-.08,1.6-.48,2.33l-12.03,22.49-.68,1.26c-.31.57-.64,1.11-1.09,1.56-.52.52-1.05.93-1.68,1.31-.51.31-1.63.71-2.26.71h-25.65c-.12.01-.19.16-.31.01h-25.63c-1.43,0-2.78-.6-3.78-1.56-1.16-1.1-1.69-2.52-1.69-4.11v-17.09s0-1.46,0-1.46v-20.36c.23-2.98,2.78-5.25,5.77-5.12l3.57-.03v3.02s-3.74,0-3.74,0c-1.3,0-2.58,1.03-2.58,2.43l-.02,29.27v.47s0,8.96,0,8.96c0,1.23.82,2.24,1.99,2.49.48.1.94.11,1.44.03l13.76-26.79c.59-1.15,1.46-2.09,2.59-2.67.58-.29,1.15-.54,1.84-.54h31.85s.01-4.7.01-4.7c-.15-1.12-1.01-1.92-2.11-2.02l.3-3.04c1.05.17,1.94.5,2.74,1.1.53.33.88.83,1.25,1.34.56.83.83,1.81.83,2.83v4.47ZM94.05,117.99h14.85c.92-.19,1.6-.73,2.19-1.4-.04-.15.11-.18.17-.3l12.94-24.18c.14-.25.1-.59,0-.8-.09-.18-.35-.34-.65-.34h-46.56c-.5,0-.77.13-1.14.39-.33.23-.62.51-.82.88l-1.61,3.08-11.12,21.66-.49,1.01h31.66s.59,0,.59,0Z"/>
  <path class="cls-2" d="M101.67,85.99v-22.71s-6.62-7.32-6.62-7.32l-1.81-1.98h-26.17c-.85.35-1.55,1.17-1.55,2.15v47.76s-3.01-.02-3.01-.02v-47.75c0-1.6.79-3.02,1.93-4.06.76-.62,1.64-1.08,2.66-1.08l13.32-.02h.53s12.57.02,12.57.02c.52,0,.97.27,1.43.44l.29.27,2.16,2.36,4.85,5.34,1.32,1.47c.54.6,1.09,1.27,1.09,2.16v22.81c.03.09.06.13.05.15-.02.05-.12.07-.18.02h-2.85Z"/>
  <path class="cls-5" d="M79.8,68.36c.05.15-.12.18-.12.03-.17-.05-.38-.09-.59-.09l-6.19-.03c-.86,0-1.39-.82-1.35-1.59.04-.86.73-1.41,1.62-1.41h10.66s.46,0,.46,0h9.63c.68,0,1.34.24,1.6.87.19.46.17.95-.07,1.4-.18.33-.63.74-1.13.74h-14.11s-.41.07-.41.07Z"/>
  <path class="cls-1" d="M73.21,83.36c-.56,0-.96-.14-1.3-.51-.61-.67-.45-1.82.33-2.29.18-.11.44-.21.67-.21h21.15c.87,0,1.5.52,1.59,1.37.08.69-.45,1.62-1.33,1.62l-21.1.02Z"/>
  <path class="cls-7" d="M95.38,75.23c-.21.35-.79.6-1.25.6l-21.26-.02c-.81,0-1.33-.8-1.33-1.49s.52-1.49,1.34-1.49h21.39c.58,0,1.03.42,1.22.81.27.54.17,1.1-.11,1.59Z"/>
</svg>