<?xml version="1.0" encoding="UTF-8"?>
<svg id="TEXTS" xmlns="http://www.w3.org/2000/svg" xmlns:xlink="http://www.w3.org/1999/xlink" viewBox="0 0 180 180">
  <defs>
    <style>
      .cls-1 {
        fill: none;
      }

      .cls-2 {
        filter: url(#drop-shadow-8);
      }

      .cls-3 {
        fill: url(#Degradado_sin_nombre_10);
        stroke: url(#Degradado_sin_nombre_4);
      }

      .cls-3, .cls-4, .cls-5, .cls-6 {
        stroke-miterlimit: 10;
        stroke-width: .5px;
      }

      .cls-4 {
        fill: url(#Degradado_sin_nombre_10-3);
        stroke: url(#Degradado_sin_nombre_4-3);
      }

      .cls-5 {
        fill: url(#Degradado_sin_nombre_10-4);
        stroke: url(#Degradado_sin_nombre_4-4);
      }

      .cls-6 {
        fill: url(#Degradado_sin_nombre_10-2);
        stroke: url(#Degradado_sin_nombre_4-2);
      }
    </style>
    <filter id="drop-shadow-8" x="25.41" y="25.32" width="119.26" height="119.26" filterUnits="userSpaceOnUse">
      <feOffset dx="5" dy="5"/>
      <feGaussianBlur result="blur" stdDeviation="10"/>
      <feFlood flood-color="#3d3d3d" flood-opacity=".5"/>
      <feComposite in2="blur" operator="in"/>
      <feComposite in="SourceGraphic"/>
    </filter>
    <linearGradient id="Degradado_sin_nombre_10" data-name="Degradado sin nombre 10" x1="50.39" y1="93.11" x2="101.45" y2="93.11" gradientUnits="userSpaceOnUse">
      <stop offset="0" stop-color="#0556a2"/>
      <stop offset="1" stop-color="#35b2a8"/>
    </linearGradient>
    <linearGradient id="Degradado_sin_nombre_4" data-name="Degradado sin nombre 4" x1="50.14" y1="93.11" x2="101.7" y2="93.11" gradientUnits="userSpaceOnUse">
      <stop offset="0" stop-color="#0556a2"/>
      <stop offset="1" stop-color="#35b2a8"/>
    </linearGradient>
    <linearGradient id="Degradado_sin_nombre_10-2" data-name="Degradado sin nombre 10" x1="86.66" y1="64.39" x2="119.69" y2="64.39" xlink:href="#Degradado_sin_nombre_10"/>
    <linearGradient id="Degradado_sin_nombre_4-2" data-name="Degradado sin nombre 4" x1="86.41" y1="64.39" x2="119.94" y2="64.39" xlink:href="#Degradado_sin_nombre_4"/>
    <linearGradient id="Degradado_sin_nombre_10-3" data-name="Degradado sin nombre 10" x1="100.38" y1="65.32" x2="105.93" y2="65.32" xlink:href="#Degradado_sin_nombre_10"/>
    <linearGradient id="Degradado_sin_nombre_4-3" data-name="Degradado sin nombre 4" x1="100.13" y1="65.32" x2="106.18" y2="65.32" xlink:href="#Degradado_sin_nombre_4"/>
    <linearGradient id="Degradado_sin_nombre_10-4" data-name="Degradado sin nombre 10" x1="100.4" y1="56.1" x2="105.96" y2="56.1" xlink:href="#Degradado_sin_nombre_10"/>
    <linearGradient id="Degradado_sin_nombre_4-4" data-name="Degradado sin nombre 4" x1="100.15" y1="56.1" x2="106.21" y2="56.1" xlink:href="#Degradado_sin_nombre_4"/>
  </defs>
  <g id="shape" class="cls-2">
    <path class="cls-1" d="M38.66,25.32h92.75c7.31,0,13.25,5.94,13.25,13.25v92.75c0,7.31-5.94,13.25-13.25,13.25H38.66c-7.31,0-13.25-5.94-13.25-13.25V38.57c0-7.31,5.94-13.25,13.25-13.25Z"/>
  </g>
  <path class="cls-3" d="M89.87,121.41h-38.71c-.44-.01-.78-.35-.78-.77l.03-13.82c.01-4.32,3-7.65,6.95-9.01l11.28-4.23v-4.16c-.95-1.3-1.46-2.78-1.68-4.39l-.03-3.24c-2.32-2.45-3.12-5.19-2.13-8.44.31-1.02.4-2.01.78-3.01.9-2.34,2.68-4.05,5.15-4.7,1.77-.47,3.56-.84,5.44-.84,3.07-.01,6.9,1.23,8.98,3.49,3.32,3.59,2.88,9.64.21,13.58v3.04c-.23,1.93-.94,3.71-2.24,5.18v3.48s11.87,4.49,11.87,4.49c3.55,1.34,5.84,4.16,6.44,7.94v14.77c.01.47-.51.67-.92.67l-10.65-.02ZM72.92,74.52c2.24.69,4.47.61,6.65-.05,1.67-.5,3.4.45,3.8,2.14.27,1.16.57,2.28,1.3,3.28,2.01-4.25,1.73-9.5-2.44-11.86-2.5-1.41-5.36-1.91-8.2-1.45-2.78.45-5.09.9-6.51,3.47-.65,1.18-.88,2.44-1.12,3.77-.11.62-.42,1.2-.42,1.87.02,1.63.55,3.17,1.66,4.38.48-.99,1.05-1.9,1.19-2.96.14-.97.6-1.74,1.31-2.23.84-.57,1.76-.68,2.77-.37ZM83.75,84.52v-2.78c-.67-1.15-1.26-2.29-1.68-3.56l-.26-1.19c-.19-.88-1.12-1.2-1.96-.93-2.38.76-4.87.78-7.26.03-.74-.23-1.71-.16-1.93.65l-.45,1.72c-.45,1.16-1,2.19-1.63,3.29l.07,3.29c.47,3.68,3.54,6.49,7.28,6.61,4.08.13,7.53-3.02,7.81-7.13ZM81.51,93.73v-2.15c-3.42,2.36-7.93,2.26-11.16-.36v2.54s5.58,4.95,5.58,4.95l5.58-4.98ZM71.91,102.26l2.77-2.5-5.33-4.72-2.6,1.03,5.17,6.2ZM79.95,102.24l5.15-6.21-2.58-1.01-5.37,4.76,2.79,2.46ZM59.99,119.79h12.39s1.67-14.2,1.67-14.2l-1.05-2.11-.57.53c-.46.38-.97.27-1.34-.17l-5.98-7.2-7.43,2.83c-1.09.42-2.11.87-2.94,1.7-1.71,1.47-2.63,3.48-2.73,5.77l-.02,12.85h6.37s0-10.17,0-10.17c.1-.44.46-.69.86-.66.31.03.75.23.75.65l.02,10.18ZM91.89,109.54c0-.54.72-.68,1.02-.57.38.13.69.51.56.99l.02,9.83h6.26s.02-8.43.02-8.43l.04-4.17c-.03-3.37-2.06-6.33-5.22-7.54l-7.89-3.01-5.91,7.12c-.34.41-.72.63-1.25.37l-.7-.66-1.07,2.14,1.67,14.19h12.4s.03-10.25.03-10.25ZM76.47,104.5l1.09-2.14-1.61-1.43c-.62.45-1.15.91-1.65,1.49l1.08,2.16c.29.05.88.15,1.1-.08ZM77.82,119.76l-1.55-13.29c-.15-.25-.44-.3-.69-.13l-1.56,13.42h3.8Z"/>
  <path class="cls-6" d="M90.23,78.14c-.55.06-.96-.01-1.15-.36s-.16-.91.22-1.1c2-1,3.16-2.7,4.35-4.69-1.71-.91-3.22-1.92-4.47-3.35-3-3.43-3.41-7.8-.76-11.57,1-1.43,2.24-2.52,3.73-3.46,3.91-2.47,8.66-3.3,13.25-2.88,4.77.44,9.72,2.46,12.55,6.37,2.2,3.04,2.31,6.97.29,10.12-1.05,1.64-2.43,2.87-4.07,3.95-4.46,2.73-9.48,3.34-14.61,2.69-2.62,2.41-5.78,3.9-9.34,4.29ZM98.52,72.58c.31-.29.57-.48.98-.38,5.05.86,10.69-.02,14.8-3.1,3.14-2.35,4.82-6.08,3.1-9.73-2.21-4.67-8.33-6.97-13.33-7.08-4.32-.22-8.75.86-12.16,3.49-3.09,2.38-4.65,6.13-2.88,9.72,1.29,2.62,3.63,4.24,6.24,5.44.45.33.37.82.14,1.25-.69,1.29-1.46,2.43-2.4,3.66,2.15-.62,3.92-1.78,5.51-3.27Z"/>
  <path class="cls-4" d="M105.93,68.83c0,1.69-1.58,2.75-3.06,2.6-1.59-.17-2.49-1.55-2.48-3.16v-6.2c.01-1.52,1.15-2.76,2.62-2.86s2.93,1.05,2.93,2.61v7.01ZM104.32,68.67l.02-6.58c0-.7-.47-1.22-1.14-1.24-.55-.02-1.17.45-1.18,1.11v6.68c-.02.7.54,1.19,1.17,1.18.58,0,1.12-.44,1.12-1.15Z"/>
  <path class="cls-5" d="M105.96,56.1c0,1.54-1.25,2.78-2.78,2.78s-2.78-1.25-2.78-2.78,1.25-2.78,2.78-2.78,2.78,1.25,2.78,2.78ZM103.64,55.08c-.3-.11-.67-.11-.93,0-.52.2-.78.79-.64,1.31.13.45.59.88,1.13.87.47-.01.96-.36,1.09-.9.11-.45-.06-1.05-.66-1.27Z"/>
</svg>