<?xml version="1.0" encoding="UTF-8"?>
<svg id="TEXTS" xmlns="http://www.w3.org/2000/svg" viewBox="0 0 623.15 897.15">
  <defs>
    <style>
      .cls-1 {
        fill: #74c3b5;
      }

      .cls-1, .cls-2, .cls-3, .cls-4 {
        stroke: #fff;
        stroke-miterlimit: 10;
        stroke-width: 2.25px;
      }

      .cls-2 {
        fill: #caeae4;
      }

      .cls-5 {
        fill: #038dd3;
      }

      .cls-3 {
        fill: #0056a1;
      }

      .cls-4 {
        fill: #8383fd;
      }
    </style>
  </defs>
  <polygon class="cls-2" points="520.58 789.44 516.39 789.44 513.43 793.88 512.45 801.77 508.5 806.45 501.6 814.09 494.21 825.18 482.87 833.07 497.91 843.42 517.38 859.44 525.02 859.44 539.07 855.49 546.21 843.17 541.53 830.6 548.68 828.63 558.04 824.44 555.33 812.86 548.68 811.13 542.02 808.17 533.4 804.72 527.97 790.68 524.77 795.11 520.58 789.44"/>
  <polygon class="cls-4" points="527.97 790.68 533.89 782.54 520.46 772.68 520.46 761.1 514.17 752.72 507.52 752.72 498.4 751.24 498.4 763.81 493.72 766.52 492.73 773.18 481.64 773.42 474.99 784.51 469.81 791.91 475.97 800.04 470.8 811.38 476.22 816.55 476.22 828.38 482.87 833.07 494.21 825.18 501.6 814.09 508.5 806.45 512.45 801.77 513.43 793.88 516.39 789.44 520.58 789.44 524.77 795.11 527.97 790.68"/>
  <polygon class="cls-1" points="498.4 751.24 489.53 721.67 491.99 713.54 489.53 705.16 491.5 701.21 491.99 696.04 484.6 690.12 489.53 687.41 494.7 678.29 499.88 665.23 497.41 660.55 499.88 651.67 505.55 650.2 510.48 638.86 518.61 628.75 520.46 616.18 552.13 630.23 581.46 616.18 581.46 639.6 577.27 646.01 580.22 651.92 586.38 666.95 586.38 671.88 580.47 670.9 580.47 679.77 570.36 689.63 569.38 693.57 565.44 696.78 563.96 701.46 565.19 709.1 574.31 717.97 566.18 723.89 564.2 730.29 548.68 717.23 539.56 724.63 546.95 737.44 547.2 740.4 541.78 736.21 538.82 733.99 533.89 739.17 539.31 747.55 543.25 749.27 543.5 742.62 547.2 747.79 552.13 750.26 560.75 751.24 560.75 760.85 567.9 764.8 577.76 766.03 577.76 770.96 576.28 774.41 578.5 782.54 555.33 812.86 548.68 811.13 533.4 804.72 527.97 790.68 533.89 782.54 520.46 772.68 520.46 761.1 514.17 752.72 507.52 752.72 498.4 751.24"/>
  <polygon class="cls-1" points="470.8 811.38 449.85 801.77 435.8 792.15 433.58 786.73 413.62 780.57 384.04 765.04 370.24 762.09 356.93 751.24 334.51 739.17 311.83 728.08 317.75 718.46 326.87 712.55 332.29 714.52 337.71 715.75 345.1 727.83 350.28 729.55 354.22 726.84 357.43 733.99 364.82 726.84 378.13 725.12 384.29 723.39 389.22 725.36 391.31 719.7 397.11 720.19 401.79 711.07 402.04 697.76 407.7 697.76 411.4 692.59 416.33 691.35 422.49 692.83 427.42 691.35 428.41 697.76 433.09 698.99 440.24 696.78 445.41 699.98 445.41 690.12 455.02 701.21 454.28 707.87 463.4 711.56 468.83 707.62 473.75 707.37 476.47 710.58 481.64 709.1 484.6 715.51 489.53 721.67 498.4 751.24 498.4 763.81 493.72 766.52 492.73 773.18 481.64 773.42 474.99 784.51 469.81 791.91 475.97 800.04 470.8 811.38"/>
  <polygon class="cls-2" points="311.83 728.08 305.42 717.48 297.29 711.07 293.35 702.2 279.55 697.76 265.5 678.78 262.3 670.65 256.87 670.65 260.08 664.49 253.92 656.36 260.82 656.36 261.8 642.31 259.83 631.47 266.48 622.1 276.1 616.18 282.87 617.42 282.87 627.03 278.81 631.96 282.87 635.65 291.38 636.64 293.35 642.31 289.9 646.5 290.64 658.58 299.26 660.05 302.96 664.74 310.6 666.95 310.11 681.25 312.82 683.71 311.83 687.16 314.3 690.12 319.23 687.66 324.16 694.06 327.36 701.71 329.08 706.39 326.87 712.55 317.75 718.46 311.83 728.08"/>
  <polygon class="cls-2" points="282.87 617.42 291.5 604.36 295.81 597.45 301.48 591.79 310.6 583.16 309.12 573.55 311.83 570.1 315.78 572.81 329.08 570.1 338.45 575.27 335.74 580.7 334.01 590.06 339.93 593.76 342.89 604.36 345.6 616.18 339.68 617.42 339.68 622.84 337.22 625.3 329.08 626.54 330.07 632.45 322.18 630.97 318.24 633.68 321.94 639.11 325.63 656.36 326.13 661.53 318.24 665.72 310.6 666.95 302.96 664.74 299.26 660.05 290.64 658.58 289.9 646.5 293.35 642.31 291.38 636.64 282.87 635.65 278.81 631.96 282.87 627.03 282.87 617.42"/>
  <polygon class="cls-2" points="338.45 575.27 343.13 580.7 348.31 585.13 361.62 582.91 366.05 597.45 375.66 603.62 379.85 621.36 390.45 631.22 393.16 636.15 387 636.15 377.64 633.19 371.72 627.77 365.81 629.25 365.81 639.84 370.98 653.65 379.61 672.13 379.12 684.7 381.09 687.66 377.39 694.8 379.61 699.24 389.22 693.82 397.85 693.08 402.53 690.12 410.37 694.03 407.7 697.76 402.04 697.76 401.79 711.07 397.11 720.19 391.31 719.7 389.22 725.36 384.29 723.39 378.13 725.12 364.82 726.84 357.43 733.99 354.22 726.84 350.28 729.55 345.1 727.83 337.71 715.75 332.29 714.52 326.87 712.55 329.08 706.39 327.36 701.71 324.16 694.06 319.23 687.66 314.3 690.12 311.83 687.16 312.82 683.71 310.11 681.25 310.6 666.95 318.24 665.72 326.13 661.53 325.63 656.36 321.94 639.11 318.24 633.68 322.18 630.97 330.07 632.45 329.08 626.54 337.22 625.3 339.68 622.84 339.68 617.42 345.6 616.18 342.89 604.36 339.93 593.76 334.01 590.06 335.74 580.7 338.45 575.27"/>
  <polygon class="cls-2" points="393.16 636.15 399.32 637.87 405.12 634.42 413.87 636.15 425.45 641.82 435.55 648.22 440.24 650.94 443.69 661.04 438.26 675.33 434.81 679.03 424.22 684.21 427.42 691.35 422.49 692.83 416.33 691.35 411.4 692.59 410.37 694.03 402.53 690.12 397.85 693.08 389.22 693.82 379.61 699.24 377.39 694.8 381.09 687.66 379.12 684.7 379.61 672.13 370.98 653.65 365.81 639.84 365.81 629.25 371.72 627.77 377.64 633.19 387 636.15 393.16 636.15"/>
  <polygon class="cls-1" points="361.62 582.91 369.5 581.43 376.4 577 376.4 570.1 382.57 559.25 379.61 555.31 372.09 553.09 376.16 548.9 379.36 548.9 382.57 540.52 393.66 538.55 403.02 535.59 407.7 540.52 417.07 541.02 421.01 543.73 428.16 538.3 437.77 537.07 437.77 543.97 432.6 550.38 430.13 559.25 430.38 569.11 438.76 575.27 442.45 583.9 447.38 585.38 451.57 592.28 450.09 600.66 457.24 608.05 469.32 609.04 485.83 616.18 511.95 621.11 509.74 614.21 520.46 616.18 518.61 628.75 510.48 638.86 505.55 650.2 499.88 651.67 497.41 660.55 499.88 665.23 494.7 678.29 489.53 687.41 484.6 690.12 491.99 696.04 491.5 701.21 489.53 705.16 491.99 713.54 489.53 721.67 484.6 715.51 481.64 709.1 476.47 710.58 473.75 707.37 468.83 707.62 463.4 711.56 454.28 707.87 455.02 701.21 445.41 690.12 445.41 699.98 440.24 696.78 433.09 698.99 428.41 697.76 427.42 691.35 424.22 684.21 434.81 679.03 438.26 675.33 443.69 661.04 440.24 650.94 425.45 641.82 413.87 636.15 405.12 634.42 399.32 637.87 393.16 636.15 390.45 631.22 379.85 621.36 375.66 603.62 366.05 597.45 361.62 582.91"/>
  <polygon class="cls-2" points="437.77 537.07 443.69 526.72 440.73 518.1 453.54 522.78 466.61 514.4 478.93 510.95 495.94 497.89 499.14 487.78 499.14 483.1 509 475.46 509 524.26 513.93 521.05 520.46 527.71 524.77 527.71 538.33 521.05 556.07 522.53 567.41 540.03 584.66 572.56 593.04 589.57 595.01 596.96 590.57 602.88 582.44 608.54 581.46 616.18 552.13 630.23 520.46 616.18 509.74 614.21 511.95 621.11 485.83 616.18 469.32 609.04 457.24 608.05 450.09 600.66 451.57 592.28 447.38 585.38 442.45 583.9 438.76 575.27 430.38 569.11 430.13 559.25 432.6 550.38 437.77 543.97 437.77 537.07"/>
  <polygon class="cls-5" points="259.83 631.47 248.99 619.64 247.51 610.27 241.59 606.08 230.75 585.87 223.6 580.7 220.64 567.39 220.64 563.44 215.71 557.04 218.67 554.32 213 545.95 205.12 542.74 200.43 544.96 193.53 542.74 196.49 535.59 183.68 509.22 186.14 501.83 187.37 497.29 191.07 497.89 191.56 501.58 189.34 505.77 194.27 507.74 196.24 514.15 201.17 514.4 210.79 505.03 215.71 499.61 220.4 494.93 228.04 494.93 233.71 503.55 242.83 526.97 246.28 539.78 252.19 551.37 257.37 554.08 258.84 563.2 267.22 572.32 273.88 572.32 284.72 576.51 283.49 582.42 289.9 592.03 286.69 596.71 293.35 601.4 291.5 604.36 282.87 617.42 276.1 616.18 266.48 622.1 259.83 631.47"/>
  <polygon class="cls-1" points="200.43 544.96 207.21 549.03 212.63 558.02 216.7 569.24 217.32 575.27 210.79 580.82 213.25 582.05 218.06 578.97 223.6 580.7 220.64 567.39 220.64 563.44 215.71 557.04 218.67 554.32 213 545.95 205.12 542.74 200.43 544.96"/>
  <polygon class="cls-1" points="242.83 526.97 253.92 529.49 256.93 521.92 267.66 519.51 285.59 518.22 291.5 514.89 304.44 513.97 310.11 509.53 321.63 516.37 333.27 518.22 337.16 525.98 341.78 525.98 343.81 523.58 360.24 522.29 365.99 513.23 373.02 512.86 379.85 520.99 379.85 530.42 378.38 534.48 382.57 540.52 379.36 548.9 376.16 548.9 372.09 553.09 379.61 555.31 382.57 559.25 376.4 570.1 376.4 577 369.5 581.43 361.62 582.91 348.31 585.13 343.13 580.7 338.45 575.27 329.08 570.1 315.78 572.81 311.83 570.1 309.12 573.55 310.6 583.16 301.48 591.79 295.81 597.45 293.35 601.4 286.69 596.71 289.9 592.03 283.49 582.42 284.72 576.51 273.88 572.32 267.22 572.32 258.84 563.2 257.37 554.08 252.19 551.37 246.28 539.78 242.83 526.97"/>
  <polygon class="cls-1" points="232.08 501.08 238.51 496.59 245.47 491.79 251.76 491.79 256.2 497.89 271.35 497.89 277.64 494.93 273.76 484.21 275.79 476.81 298.71 473.67 307.21 467.94 312.7 469.42 322.55 467.94 332.35 461.84 336.6 469.05 338.63 478.48 340.48 491.42 340.48 498.63 348.99 502.51 345.6 506.2 333.27 518.22 321.63 516.37 310.11 509.53 304.44 513.97 291.5 514.89 285.59 518.22 267.66 519.51 256.93 521.92 253.92 529.49 242.83 526.97 233.71 503.55 232.08 501.08"/>
  <polygon class="cls-1" points="144.74 433.19 148.43 442.43 153.98 446.68 153.05 450.2 157.3 455.74 164.51 471.08 166.55 477.92 175.05 499.18 183.68 509.22 186.14 501.83 187.37 497.29 191.07 497.89 191.56 501.58 189.34 505.77 194.27 507.74 196.24 514.15 201.17 514.4 210.79 505.03 215.71 499.61 220.4 494.93 224.59 494.93 224.59 490.12 226.07 485.87 217.75 469.98 226.07 456.85 226.99 448.35 232.08 443.17 215.53 431.71 207.21 412.86 198.52 400.84 192.42 396.04 191.5 391.05 178.93 393.45 172.83 401.21 167.66 407.5 162.85 419.7 150.65 426.17 144.74 433.19"/>
  <polygon class="cls-4" points="207.21 412.86 215.35 414.52 218.49 410.83 221.26 415.63 225.14 416.56 228.28 414.71 239.56 416.56 249.36 415.08 250.47 406.39 253.79 407.68 257.12 417.48 261.37 420.44 265.25 416.56 269.5 423.58 270.8 430.97 274.49 436.52 274.49 443.73 278.38 447.61 282.26 452.72 289.47 448.72 299.45 442.25 304.81 432.45 310.72 423.58 322 416.37 330.5 416 332.72 419.14 328.47 425.61 326.44 436.89 324.96 449.46 327.54 455.74 332.35 461.84 322.55 467.94 312.7 469.42 307.21 467.94 298.71 473.67 275.79 476.81 273.76 484.21 277.64 494.93 271.35 497.89 256.2 497.89 251.76 491.79 245.47 491.79 238.51 496.59 232.08 501.08 228.04 494.93 224.59 494.93 224.59 490.12 226.07 485.87 217.75 469.98 226.07 456.85 226.99 448.35 232.08 443.17 215.53 431.71 207.21 412.86"/>
  <polygon class="cls-3" points="265.25 416.56 274.13 413.84 283.49 403.25 290.53 409.9 287.93 399.06 294.83 393.14 305.42 393.14 312.7 388.46 325.88 384.02 330.32 376.63 327.85 356.67 337.22 358.89 356.93 366.53 363.59 376.63 370 378.6 367.04 386.61 373.2 389.45 379.12 406.39 385.28 407.44 387.99 416.56 399.82 426.41 405.98 438.74 393.9 449.83 398.59 452.72 409.43 450.32 421.01 454.76 432.1 456.73 437.77 469.54 441.04 477.43 476.96 479.4 489.03 471.02 505.05 457.22 510.97 452.72 513.68 455 509.74 461.84 513.68 467.08 509 475.46 499.14 483.1 499.14 487.78 495.94 497.89 478.93 510.95 466.61 514.4 453.54 522.78 440.73 518.1 443.69 526.72 437.77 537.07 428.16 538.3 421.01 543.73 417.07 541.02 407.7 540.52 403.02 535.59 393.66 538.55 382.57 540.52 378.38 534.48 379.85 530.42 379.85 520.99 373.02 512.86 365.99 513.23 360.24 522.29 343.81 523.58 341.78 525.98 337.16 525.98 333.27 518.22 345.6 506.2 348.99 502.51 340.48 498.63 340.48 491.42 338.63 478.48 336.6 469.05 332.35 461.84 327.54 455.74 324.96 449.46 326.44 436.89 328.47 425.61 332.72 419.14 330.5 416 322 416.37 310.72 423.58 304.81 432.45 299.45 442.25 289.47 448.72 282.26 452.72 278.38 447.61 274.49 443.73 274.49 436.52 270.8 430.97 269.5 423.58 265.25 416.56"/>
  <polygon class="cls-1" points="144.74 433.19 141.04 417.3 134.63 411.63 132.41 401.77 114.18 387.23 102.1 366.28 97.17 352.72 102.1 346.56 109.99 343.85 113.19 353.71 109.99 359.62 120.95 364.8 125.76 368.5 126.74 377.12 135.12 371.45 144.74 369.48 158.54 375.89 163.71 379.34 168.15 375.15 175.54 375.15 178.75 366.53 185.15 364.8 178.99 351.98 173.57 343.85 187.13 343.85 189.59 350.26 193.78 353.71 190.82 357.9 193.78 365.29 198.96 367.76 198.96 373.18 198.96 378.6 203.15 386.24 203.15 391.05 207.21 393.88 216.95 393.64 225.57 401.03 228.28 414.71 225.14 416.56 221.26 415.63 218.49 410.83 215.35 414.52 207.21 412.86 198.52 400.84 192.42 396.04 191.5 391.05 178.93 393.45 172.83 401.21 167.66 407.5 162.85 419.7 150.65 426.17 144.74 433.19"/>
  <polygon class="cls-4" points="187.13 343.85 183.18 337.69 185.15 328.08 189.84 323.15 196.98 327.09 203.89 323.15 210.54 315.51 209.06 302.69 194.52 297.52 186.88 286.43 185.15 272.63 189.84 269.42 196.86 274.6 203.15 277.06 209.31 284.21 224.34 283.22 228.28 291.85 232.08 298.5 240.85 299.24 246.03 293.57 250.96 293.57 256.38 300.72 263.03 303.19 269.97 300.47 280.53 302.94 286.94 309.1 288.42 318.71 287.19 329.06 283 337.69 278.31 338.18 269.97 329.8 261.56 336.95 260.32 356.67 267.72 379.34 275.11 391.05 274.86 398.07 269.97 406.39 265.25 416.56 261.37 420.44 257.12 417.48 253.79 407.68 250.47 406.39 249.36 415.08 239.56 416.56 228.28 414.71 225.57 401.03 216.95 393.64 207.21 393.88 203.15 391.05 203.15 386.24 198.96 378.6 198.96 373.18 198.96 367.76 193.78 365.29 190.82 357.9 193.78 353.71 189.59 350.26 187.13 343.85"/>
  <polygon class="cls-1" points="97.17 352.72 84.6 335.96 71.05 325.12 54.78 317.73 61.43 303.93 67.84 295.05 82.38 291.6 82.88 279.53 89.04 281.01 92.98 286.18 94.95 292.59 105.06 296.78 116.89 299 116.89 303.68 113.44 304.91 113.93 309.1 106.78 314.28 107.52 321.67 112.94 330.79 119.84 331.53 113.93 339.91 114.18 343.85 109.99 343.85 102.1 346.56 97.17 352.72"/>
  <polygon class="cls-1" points="54.78 317.73 29.39 306.39 27.18 297.02 31.61 292.83 36.79 294.81 42.46 290.12 39.75 277.8 27.18 265.72 27.18 258.58 31.37 255.62 19.78 239.6 21.75 222.35 32.11 211.5 37.28 215.45 49.85 216.19 57.24 209.04 58.48 217.91 63.65 218.41 58.97 225.8 61.93 229.74 68.58 228.26 71.54 221.86 76.96 220.13 86.08 226.78 91.75 229.5 97.17 227.77 104.56 232.7 104.56 239.6 108.26 245.76 115.9 251.18 108.51 258.82 109.99 265.97 112.7 270.9 109.25 277.55 106.78 285.44 110.72 293.33 105.06 296.78 94.95 292.59 92.98 286.18 89.04 281.01 82.88 279.53 82.38 291.6 67.84 295.05 61.43 303.93 54.78 317.73"/>
  <polygon class="cls-2" points="32.11 211.5 41.22 199.18 47.39 193.02 58.48 188.34 66.12 179.22 70.31 184.39 70.31 195.36 73.51 200.66 70.8 206.82 57.24 209.04 49.85 216.19 37.28 215.45 32.11 211.5"/>
  <polygon class="cls-1" points="115.9 251.18 127.48 252.42 130.69 239.6 140.55 234.92 144.74 245.52 144.74 255.87 143.75 263.38 147.2 272.87 143.26 281.01 138.08 289.88 147.2 304.42 156.57 307.62 158.29 314.28 169.38 323.89 172.59 332.27 173.57 343.85 178.99 351.98 185.15 364.8 178.75 366.53 175.54 375.15 168.15 375.15 163.71 379.34 158.54 375.89 144.74 369.48 135.12 371.45 126.74 377.12 125.76 368.5 120.95 364.8 109.99 359.62 113.19 353.71 109.99 343.85 114.18 343.85 113.93 339.91 119.84 331.53 112.94 330.79 107.52 321.67 106.78 314.28 113.93 309.1 113.44 304.91 116.89 303.68 116.89 299 105.06 296.78 110.72 293.33 106.78 285.44 109.25 277.55 112.7 270.9 109.99 265.97 108.51 258.82 115.9 251.18"/>
  <polygon class="cls-2" points="140.55 234.92 145.11 229.25 141.78 221.12 148.43 207.81 148.43 201.89 154.59 197.7 154.59 182.42 158.54 179.22 162.73 185.63 165.19 177.25 174.56 164.18 180.72 160.98 183.18 172.32 188.11 186.37 188.11 196.22 193.04 201.65 192.06 212.49 190.82 229.25 183.18 242.8 183.18 254.39 185.15 260.55 189.84 269.42 185.15 272.63 186.88 286.43 194.52 297.52 209.06 302.69 210.54 315.51 203.89 323.15 196.98 327.09 189.84 323.15 185.15 328.08 183.18 337.69 187.13 343.85 173.57 343.85 172.59 332.27 169.38 323.89 158.29 314.28 156.57 307.62 147.2 304.42 138.08 289.88 143.26 281.01 147.2 272.87 143.75 263.38 144.74 255.87 144.74 245.52 140.55 234.92"/>
  <polygon class="cls-2" points="180.72 160.98 223.36 145.45 259.83 123.77 281.03 98.13 290.53 64.12 300.25 64.12 297.29 49.83 288.42 39.97 280.53 27.16 293.35 30.11 300.25 27.16 314.05 34.06 320.95 34.06 324.89 39.48 339.19 49.34 344.61 69.55 373.69 84.33 380.1 94.07 380.1 104.05 394.4 107.5 399.32 120.32 394.89 127.22 406.23 136.09 434.81 134.12 452.56 130.67 460.45 122.29 475.73 130.67 491.99 127.22 498.4 124.26 519.1 137.57 534.88 146.44 505.79 191.3 507.27 195.24 517.62 197.7 522.55 195.73 529.95 203.12 539.8 216.19 533.89 219.88 522.06 213.48 501.36 212.49 494.46 222.35 470.3 226.29 450.59 226.29 430.87 242.06 408.2 256.36 403.27 279.53 392.42 300.72 396.37 316.12 389.47 322.9 378.62 327.34 364.82 343.85 370.74 356.67 356.93 366.53 337.22 358.89 327.85 356.67 330.32 376.63 325.88 384.02 312.7 388.46 305.42 393.14 294.83 393.14 287.93 399.06 290.53 409.9 283.49 403.25 274.13 413.84 265.25 416.56 269.97 406.39 274.86 398.07 275.11 391.05 267.72 379.34 260.32 356.67 261.56 336.95 269.97 329.8 278.31 338.18 283 337.69 287.19 329.06 288.42 318.71 286.94 309.1 280.53 302.94 269.97 300.47 263.03 303.19 256.38 300.72 250.96 293.57 246.03 293.57 240.85 299.24 232.08 298.5 228.28 291.85 224.34 283.22 209.31 284.21 203.15 277.06 196.86 274.6 189.84 269.42 185.15 260.55 183.18 254.39 183.18 242.8 190.82 229.25 192.06 212.49 193.04 201.65 188.11 196.22 188.11 186.37 183.18 172.32 180.72 160.98"/>
</svg>