<?xml version="1.0" encoding="UTF-8"?>
<svg id="TEXTS" xmlns="http://www.w3.org/2000/svg" xmlns:xlink="http://www.w3.org/1999/xlink" viewBox="0 0 179.52 180">
  <defs>
    <style>
      .cls-1 {
        fill: url(#Degradado_sin_nombre_4-4);
      }

      .cls-2 {
        fill: url(#Degradado_sin_nombre_4-2);
      }

      .cls-3 {
        fill: none;
      }

      .cls-4 {
        fill: url(#Degradado_sin_nombre_4);
      }

      .cls-5 {
        filter: url(#drop-shadow-1);
      }

      .cls-6 {
        fill: url(#Degradado_sin_nombre_4-3);
      }
    </style>
    <filter id="drop-shadow-1" x="25.04" y="25.32" width="119.26" height="119.25" filterUnits="userSpaceOnUse">
      <feOffset dx="5" dy="5"/>
      <feGaussianBlur result="blur" stdDeviation="10"/>
      <feFlood flood-color="#3d3d3d" flood-opacity=".5"/>
      <feComposite in2="blur" operator="in"/>
      <feComposite in="SourceGraphic"/>
    </filter>
    <linearGradient id="Degradado_sin_nombre_4" data-name="Degradado sin nombre 4" x1="79.83" y1="67.98" x2="120.96" y2="67.98" gradientUnits="userSpaceOnUse">
      <stop offset="0" stop-color="#0556a2"/>
      <stop offset="1" stop-color="#35b2a8"/>
    </linearGradient>
    <linearGradient id="Degradado_sin_nombre_4-2" data-name="Degradado sin nombre 4" x1="48.37" y1="87.48" x2="113.36" y2="87.48" xlink:href="#Degradado_sin_nombre_4"/>
    <linearGradient id="Degradado_sin_nombre_4-3" data-name="Degradado sin nombre 4" x1="58.64" y1="87.5" x2="103.09" y2="87.5" xlink:href="#Degradado_sin_nombre_4"/>
    <linearGradient id="Degradado_sin_nombre_4-4" data-name="Degradado sin nombre 4" x1="68.9" y1="87.5" x2="92.82" y2="87.5" xlink:href="#Degradado_sin_nombre_4"/>
  </defs>
  <g id="shape" class="cls-5">
    <path class="cls-3" d="M38.29,25.32h92.75c7.31,0,13.25,5.94,13.25,13.25v92.75c0,7.31-5.94,13.25-13.25,13.25H38.29c-7.31,0-13.25-5.94-13.25-13.25V38.57c0-7.31,5.94-13.25,13.25-13.25Z"/>
  </g>
  <path class="cls-4" d="M108.78,47.4c1.55.39,2.79,1.68,2.8,3.41l.02,5.98h5.95c1.36.02,2.52.8,3.04,1.9s.57,2.73-.39,3.69l-10.38,10.42c-.99.82-2.08,1.32-3.38,1.33h-9.76s-13.89,13.89-13.89,13.89c-.74.74-1.88.66-2.49-.01s-.65-1.7.06-2.42l13.88-13.89v-9.77c0-1.33.56-2.43,1.4-3.45l9.76-9.77c.65-.65,1.3-1.06,2.1-1.32h1.28ZM97.73,68.2l10.41-10.4-.02-6.95-10,9.99c-.27.42-.42.83-.47,1.3l.08,6.06ZM106.32,70.71c.48,0,.94-.27,1.29-.53l9.92-9.93-6.94-.02-10.44,10.44,6.17.03Z"/>
  <path class="cls-2" d="M82.8,119.95h-3.81s-.94-.07-.94-.07c-15.7-1.28-28.2-13.87-29.56-29.54-.88-10.11,2.97-19.96,10.46-26.81,8.38-7.67,20.17-10.43,31.09-7.17.87.26,1.17,1.41.93,2.09-.27.78-1.13,1.36-2.03,1.11-3.04-.82-6.08-1.22-9.17-1.1-15.84.63-28.3,13.88-27.96,29.64.34,15.91,13.52,28.7,29.51,28.47,12.32-.18,23.25-8.25,27.16-20.01,1.84-5.54,1.9-11.47.33-17.12-.25-.91.36-1.76,1.12-2.03.69-.25,1.83.06,2.09.93,3.27,10.96.46,22.85-7.31,31.23-5.73,6.18-13.55,9.88-21.89,10.39Z"/>
  <path class="cls-6" d="M98.36,80.59c-.37-.94.21-1.89.93-2.19.79-.33,1.85-.04,2.19.79,4.02,9.94.33,21.18-8.5,26.94-8.92,5.81-20.68,4.45-28.06-3.17-7.38-7.61-8.38-19.46-2.23-28.2,5.93-8.43,16.89-11.76,26.5-7.86.86.35,1.12,1.38.84,2.11-.31.82-1.27,1.38-2.15,1.03-8.32-3.29-17.68-.32-22.59,6.99-5.01,7.44-4.03,17.39,2.28,23.73,6.28,6.31,16.14,7.37,23.62,2.46,7.38-4.84,10.47-14.22,7.19-22.63Z"/>
  <path class="cls-1" d="M81.72,78.98c-4.99-.41-9.21,3.33-9.4,8.2-.19,4.89,3.84,8.99,8.73,8.86,4.94-.12,8.74-4.36,8.33-9.34-.08-.99.78-1.75,1.59-1.78.96-.04,1.73.63,1.81,1.6.58,6.87-4.76,12.69-11.47,12.94-6.88.26-12.6-5.41-12.41-12.27.18-6.8,6.05-12.2,12.97-11.62.92.08,1.59.81,1.61,1.7.02.81-.67,1.79-1.76,1.7Z"/>
</svg>