<?xml version="1.0" encoding="UTF-8"?>
<svg id="TEXTS" xmlns="http://www.w3.org/2000/svg" xmlns:xlink="http://www.w3.org/1999/xlink" viewBox="0 0 179.52 180">
  <defs>
    <style>
      .cls-1 {
        fill: url(#Degradado_sin_nombre_4-4);
      }

      .cls-2 {
        fill: url(#Degradado_sin_nombre_4-6);
      }

      .cls-3 {
        fill: url(#Degradado_sin_nombre_4-2);
      }

      .cls-4 {
        fill: none;
      }

      .cls-5 {
        fill: url(#Degradado_sin_nombre_4);
      }

      .cls-6 {
        filter: url(#drop-shadow-7);
      }

      .cls-7 {
        fill: url(#Degradado_sin_nombre_4-7);
      }

      .cls-8 {
        fill: url(#Degradado_sin_nombre_4-3);
      }

      .cls-9 {
        fill: url(#Degradado_sin_nombre_4-5);
      }
    </style>
    <filter id="drop-shadow-7" x="25.24" y="25.32" width="119.26" height="119.25" filterUnits="userSpaceOnUse">
      <feOffset dx="5" dy="5"/>
      <feGaussianBlur result="blur" stdDeviation="10"/>
      <feFlood flood-color="#3d3d3d" flood-opacity=".5"/>
      <feComposite in2="blur" operator="in"/>
      <feComposite in="SourceGraphic"/>
    </filter>
    <linearGradient id="Degradado_sin_nombre_4" data-name="Degradado sin nombre 4" x1="48.93" y1="88.81" x2="120.06" y2="88.81" gradientUnits="userSpaceOnUse">
      <stop offset="0" stop-color="#0556a2"/>
      <stop offset="1" stop-color="#35b2a8"/>
    </linearGradient>
    <linearGradient id="Degradado_sin_nombre_4-2" data-name="Degradado sin nombre 4" x1="86.11" y1="86.56" x2="116.5" y2="86.56" xlink:href="#Degradado_sin_nombre_4"/>
    <linearGradient id="Degradado_sin_nombre_4-3" data-name="Degradado sin nombre 4" x1="53.69" y1="83.94" x2="78.34" y2="83.94" xlink:href="#Degradado_sin_nombre_4"/>
    <linearGradient id="Degradado_sin_nombre_4-4" data-name="Degradado sin nombre 4" x1="70.44" y1="81.2" x2="84.73" y2="81.2" xlink:href="#Degradado_sin_nombre_4"/>
    <linearGradient id="Degradado_sin_nombre_4-5" data-name="Degradado sin nombre 4" x1="64.44" y1="74.58" x2="78.98" y2="74.58" xlink:href="#Degradado_sin_nombre_4"/>
    <linearGradient id="Degradado_sin_nombre_4-6" data-name="Degradado sin nombre 4" x1="88.38" y1="71.52" x2="114.22" y2="71.52" xlink:href="#Degradado_sin_nombre_4"/>
    <linearGradient id="Degradado_sin_nombre_4-7" data-name="Degradado sin nombre 4" x1="88.39" y1="67" x2="114.22" y2="67" xlink:href="#Degradado_sin_nombre_4"/>
  </defs>
  <g id="shape" class="cls-6">
    <path class="cls-4" d="M38.49,25.32h92.75c7.31,0,13.25,5.94,13.25,13.25v92.75c0,7.31-5.94,13.25-13.25,13.25H38.49c-7.31,0-13.25-5.94-13.25-13.25V38.57c0-7.31,5.94-13.25,13.25-13.25Z"/>
  </g>
  <path class="cls-5" d="M116.1,60c.07.12.21.23.41.29,1.54.49,2.65,1.62,3.21,3.13.09.23.16.44.34.53v41.49c-.56.6-.64,1.57-1.24,2.14-1.18,1.1-2.42,1.81-4.04,1.79l-21.77.03,2.4,6.09,7.14.1c.47,0,.63.68.65.97.02.38-.25.76-.49,1.06h-36.4c-.19-.34-.51-.64-.47-1.07.03-.32.26-.97.75-.97l7.09-.08,2.39-6.04c-.41-.04-.72-.07-1.13-.07l-21.04-.06c-2.22,0-3.93-1.58-4.61-3.5-.1-.28-.15-.46-.34-.56v-41.16c.13-.08.23-.21.3-.41.49-1.54,1.61-2.78,3.13-3.34.24-.09.44-.16.52-.36h63.23ZM118,99.31v-33.85c.01-1.86-1.24-3.19-3.08-3.41h-60.7c-1.76.12-3.19,1.42-3.19,3.25v34.02s66.97,0,66.97,0ZM117.97,104.43c.06-.97.11-1.96-.03-2.99H51.14c-.29.76-.06,1.28-.13,2.09-.15,1.61,1.09,3.76,3.05,3.76l60.69.03c1.76,0,3.14-1.6,3.22-2.9ZM93.07,115.51l-2.39-6.11-12.25-.02-2.47,6.16,17.1-.03Z"/>
  <path class="cls-3" d="M95.2,84.6c.68,0,1.11.38,1.11,1.08l.02,8.25c0,.31.87.33.87.02l.03-11.23c0-.53.4-.93.94-.93l6.09-.02c.56,0,1.05.35,1.05.96l.04,11.22c0,.29.81.28.81-.04v-15.95c.01-.73.54-1.11,1.21-1.11l5.92.02c.5,0,.93.38.93.91v16.27c.41.14.73.11,1.06.09.75-.04,1.16.35,1.22,1.02.05.54-.37,1.09-1.1,1.09h-28.08c-.76.01-1.23-.46-1.21-1.08.03-.7.62-1.12,1.34-1.02.16.02.73.03.73-.21l.02-8.26c0-.62.45-1.07,1.06-1.07h5.93ZM112.21,94.07l-.02-15.14-3.91.04v15.15c1.38.01,2.59.11,3.93-.05ZM103.18,84.46c.87-1.06-3.42-.58-3.84-.54l.02,10.19h3.82c.13-3.1.17-6.58,0-9.65ZM94.29,94.08l-.05-7.4c-1.36-.03-2.56-.07-3.89.05v7.4c1.38.02,2.57.09,3.95-.04Z"/>
  <path class="cls-8" d="M77.75,88.88c.51.31.76.94.47,1.44-3.53,6.11-11.29,8.28-17.54,4.97-6.42-3.39-8.85-11.42-5.45-17.88,1.6-3.04,4.29-5.24,7.53-6.33.65-.1,1.15.09,1.36.71l3.64,11.16,10,5.94ZM66.04,84.23l-3.64-10.73c-4.32,1.81-6.95,6.35-6.64,10.93.31,4.53,3.48,8.46,7.74,9.8,4.48,1.41,9.36-.16,12.26-3.98l-9.72-6.01Z"/>
  <path class="cls-1" d="M81.4,89.43l-9.95-5.88c-.46-.27-1.21-.76-.96-1.39.23-.59.86-1.15,1.3-1.58l1.88-1.77,5.52-5.35c.38-.37,1.17-.96,1.69-.45,4.25,4.2,5.06,10.87,2,16-.27.45-.92.75-1.48.41ZM73.44,82.28l8.07,4.77c1.77-3.81,1.37-8.26-1.3-11.53-1.74,1.38-3.11,2.92-4.65,4.37-.5.47-1.01.83-1.42,1.42-.22.32-.94.38-.71.98Z"/>
  <path class="cls-9" d="M70.06,81.32c-.37.36-1.44.61-1.67-.08l-3.9-11.85c-.23-.69.3-1.16.84-1.32,4.67-1.39,9.71-.24,13.14,3.2.29.29.49.52.5.85,0,.36-.12.64-.4.92l-4.83,4.69-3.68,3.59ZM69.75,78.68l6.65-6.47c-2.66-2.33-6.17-3.12-9.59-2.37l2.94,8.84Z"/>
  <path class="cls-2" d="M113.57,72.52l-23.95.06c-.67,0-1.1-.28-1.22-.88-.09-.46.2-1.24.9-1.24h24.12c.49,0,.7.57.77.85.08.31-.06,1.21-.63,1.21Z"/>
  <path class="cls-7" d="M113.36,68.04h-24.07c-.62,0-.9-.61-.9-1.05s.26-1.05.9-1.04h24.15c.57.01.81.7.79,1.04s-.19,1.05-.86,1.05Z"/>
</svg>