<?xml version="1.0" encoding="UTF-8"?>
<svg id="Capa_1" xmlns="http://www.w3.org/2000/svg" version="1.1" viewBox="0 0 214.73 150">
  <!-- Generator: Adobe Illustrator 30.1.0, SVG Export Plug-In . SVG Version: 2.1.1 Build 136)  -->
  <defs>
    <style>
      .st0 {
        fill: none;
      }

      .st1 {
        fill: #038dd3;
      }

      .st2 {
        fill: #caeae4;
      }

      .st2, .st3, .st4, .st5 {
        stroke: #fff;
        stroke-miterlimit: 10;
        stroke-width: 2.25px;
      }

      .st6 {
        fill: #fff;
      }

      .st3 {
        fill: #8383fd;
      }

      .st4 {
        fill: #0056a1;
      }

      .st5 {
        fill: #74c3b5;
      }

      .st7 {
        fill: #31579e;
      }
    </style>
  </defs>
  <g id="siFJ2E">
    <path class="st7" d="M-756.76,144.89c-.79.52-1.57.58-2.52.58h-67.58c-1.56,0-3.01-1.01-3.01-2.65l-.03-29.98-31.5-.02c-1.59,0-2.63-1.21-2.79-2.73l.07-34.14c.02-9.98,4.53-19.44,11.7-26.19-7.22-10.96-6.21-25.38,2.37-35.23,8.46-9.71,22.43-12.77,34.29-7.27,11.42,5.3,18.36,17.56,16.59,30.39,3.62-.63,7.14-.64,10.73,0-1.74-12.64,4.96-24.73,16.1-30.16,11.62-5.66,25.48-2.98,34.15,6.34,8.81,9.47,10.33,23.61,3.74,34.79,7.68,6.67,12.84,16.14,12.88,26.38l.14,35.34c-.31,1.59-1.47,2.51-3.07,2.51h-31.21s0,29.62,0,29.62c0,.98-.34,1.79-1.06,2.43ZM-814.63,45.91c0-.48.36-.41.57-.6,2.59-2.39,5.49-4.42,8.78-5.78,2.25-8.76-.76-17.9-7.53-23.69-9.66-8.26-23.96-7.3-32.5,1.94-8.97,9.7-8.2,24.83,1.81,33.61,6.06,5.31,14.52,7.21,22.37,4.78,1.44-3.85,3.62-7.32,6.5-10.25ZM-766.43,56.18c8.18,2.48,16.82.37,22.89-5.27,9.18-8.54,10.06-22.65,2.07-32.23-7.37-8.84-20.07-11.12-30.03-5.19-8.93,5.33-13.42,15.89-10.79,26.03,7.36,3.13,13.05,9.14,15.86,16.66ZM-774.51,79.73c6.42-9.17,5.39-21.49-2.17-29.5-9.26-9.81-24.68-9.89-34.02-.2-8.38,8.68-8.87,22.37-.87,31.62,4.82,5.57,11.93,8.63,19.43,8.12,6.95-.47,13.53-4.17,17.63-10.04ZM-755.76,107.16h28.66s0-30.5,0-30.5c0-8.32-3.39-16.26-9.26-22.05-.53-.44-.84-1-1.5-1.36-6.84,7.55-17,10.97-27.02,9.12.87,6.64-.45,13.16-3.84,18.87,5.11,4.33,8.87,9.93,11.03,16.19,1.09,3.22,1.66,6.25,1.94,9.73ZM-820.19,84.48l2.01-2.16c-3.86-5.91-5.42-12.84-4.52-19.94-8.09,1.44-16.14-.42-22.65-5.19-1.22-.92-2.31-1.9-3.49-2.98-5.99,5.72-9.45,13.52-9.65,21.85v31.09s28.67,0,28.67,0c.55-8.27,3.77-15.99,9.13-22.15.17-.19.12-.49.5-.52ZM-824.23,139.77h62.87s-.05-31.22-.05-31.22c-.02-8.79-4.14-16.91-10.66-22.73-11.25,12.45-30.67,12.94-42.48.97-5.8,5.65-9.58,13.19-9.6,21.38l-.07,31.59Z"/>
  </g>
  <g>
    <path class="st7" d="M-334.73,100.81v5.3l-1.36,3.63c-2.37,5.72-7.68,9.2-13.87,9.2h-12.49c.17,4.68-.32,9.12.17,13.68.33,3.09.7,6.09-1.13,8.86-.92,1.9-2.96,3.1-5.13,3.1h-8.32c-2.29.01-4.45-1.18-5.36-3.23-1.81-2.75-1.34-5.72-1.01-8.76.5-4.52-.03-8.95.19-13.68l-12.72-.03c-5.04-.01-9.47-2.23-12.28-6.45-3-4.66-4.04-10.88-1.07-15.81l11.71-19.37v-17.58c0-9.54,7.24-17.65,16.91-17.87,5.29-.12,10.28-.15,15.58.01,9.44.29,16.7,8.18,16.71,17.51l.03,17.99,12.23,19.63c.74,1.19.29,2.89,1.2,3.85Z"/>
    <path class="st7" d="M-371.99,5.4c9.02.12,15.51,8.09,15.13,16.46-.4,8.83-7.82,15.54-16.53,15.19-8.74-.35-15.82-7.81-15.19-16.8.6-8.62,7.69-14.97,16.6-14.86Z"/>
  </g>
  <g>
    <path class="st7" d="M-580.67,4.41c8.16,1.69,14.06,8.4,13.68,16.68-.39,8.38-7.14,14.87-15.25,15.19-8.49.33-15.62-6-16.47-14.26-.85-8.26,4.75-15.76,13.01-17.3.24-.05.34-.23.39-.31h4.64Z"/>
    <path class="st7" d="M-572.04,145.57l-21.4.02c-6.15-.84-9.79-5.57-9.78-11.59l.03-33.41c-5.28-1.84-9.75-6.31-9.78-12.08l-.15-29.22c1.76-10.14,9.93-16.91,20.06-16.88l21.67.06c10.45.03,18.68,8.56,18.92,18.96l-.04,25.52c-.01,6.28-4.13,11.54-10.14,13.48v34.23c-.01,5.59-3.7,9.8-9.38,10.9Z"/>
  </g>
  <g id="ppDZWZ">
    <path class="st7" d="M-386.77,338.23c-.01,2.62-2.31,4.43-4.75,4.43l-15.83-.02c-2.51,0-4.58-2.08-4.59-4.57l-.07-18.58c-1.58-.2-2.9-.03-4.35-.09-1.08-.04-2.12-.94-2.04-2.19l1.3-20.04c-1.85,1.62-1.92,4.21-4.45,5.25-.1.8.37,1.37.37,2.18v36.1c0,1.24-1.12,1.94-2.13,1.97s-2.19-.82-2.19-2.1l-.04-35.38c0-1.66-1.34-2.87-2.81-2.99-1.54-.13-2.99.96-3.29,2.61-.21,1.15.03,2.33-.1,3.51-.14,1.21-1.02,1.75-2.13,1.78-.98.03-2.01-.63-2.08-1.78-.25-3.85-.22-6.89,3.35-9.31-1.19-1.71-1-3.5.13-5.11,2.77-3.93,4.45-8.32,6.01-12.86l2.97-8.65c1.88-5.48,6.49-8.85,11.62-11.31l-.89-3.58c-4.61-1.8-6.82-6.87-5.21-11.44,1.6-4.56,6.54-7.04,11.36-5.51,1.83-2.36,4.44-3.61,7.27-3.62,2.8,0,5.45,1.24,7.34,3.62,4.75-1.49,9.65.91,11.32,5.46,1.66,4.53-.57,9.69-5.23,11.51-.27,1.22-.41,2.26-.94,3.56,4.25,2.18,7.8,5.07,10.58,9.36.84-4.78.26-6.98,3.05-11.03,2.44-3.53,5.98-5.83,10.34-6.75-.4-2-.74-3.89-.63-5.98l-3.5-.1c-1.13-.03-1.84-1.23-1.78-2.21.18-2.78,3.48-1.91,5.22-2.21l.11-5.91c.08-4.68,4.1-8.58,8.88-8.82,3.1-.16,6.03-.13,9.12,0,4.89.2,8.87,4.15,8.94,8.94l.09,5.81c1.81.34,4.79-.62,5.21,1.99.17,1.07-.54,2.4-1.77,2.43l-3.48.1c.02,2.02-.01,3.86-.68,5.93,2.55.73,4.94,1.68,6.85,3.5,1.75,1.67,3.1,3.47,3.92,5.8l11.87,33.55c.3.86,0,1.66-.01,2.65,3.17,1.2,5.16,4.07,4.98,7.47-.05.93.09,1.82-.04,2.74-.15,1.07-1.14,1.7-2.09,1.72s-2.08-.66-2.11-1.72l-.08-3.35c-.04-1.65-1.58-2.9-3.13-2.84s-3.02,1.34-3.02,3.05v35.08c0,1.27-.77,2.16-1.87,2.3-1.04.13-2.46-.54-2.46-1.87l-.05-35.95c-2.52.44-4.6-.79-5.52-2.97-1.49-3.53-2.36-7.18-4.23-10.75l3.5,46.71c.17,2.26-.94,4.56-3.41,4.77-3.37.28-6.7.08-10.15.1-1.93,0-3.83-1.45-3.97-3.5l-1.52-22.42-.3-2.62-.3,3.11-1.34,21.23c-.16,2.53-1.89,4.23-4.41,4.23l-8.67.02c-2.62,0-4.71-1.69-4.6-4.48l2.39-31.46-14.03-.12.69,10.24c.2,1.38-.72,2.51-2.09,2.57l-4.3.09-.1,18.75ZM-340.84,242.25v-4.97c0-3.08-2.36-5.57-5.48-5.6-2.7-.03-5.24-.11-7.97.06-2.46.16-4.64,2.34-4.83,4.81-.14,1.93-.04,3.66,0,5.7h18.28ZM-394.6,249.61c.62.22.89.71,1.2,1.38,1.18,2.54,4.14,3.48,6.42,2.22,2.42-1.33,3.19-4.35,1.73-6.57-1.5-2.28-4.37-2.82-6.64-1.28-.6.41-1.41.27-2.1.05-1.18-.38-1.24-3.38-4.39-4.01-4.44-.88-5.09,3.56-6.32,4.02-.78.29-1.55.3-2.22-.15-2.31-1.55-5.34-.72-6.67,1.66-1.29,2.31-.33,5.27,2.17,6.41,2.32,1.06,5.19.07,6.21-2.46.47-1.18,1.9-1.9,3.1-1.16,4.06,2.5,5.06-.99,7.53-.11ZM-343.17,254.29c1.79-1.92,2.7-4.7,2.25-7.65h-18.16c-.4,3.04.48,5.95,2.58,7.94,4.06,3.85,9.84,3.47,13.33-.28ZM-390.67,258.09c-2.31-.56-4.4-1.84-5.79-3.53-1.78.43-3.99.4-5.72.04-1.69,1.66-3.43,3.09-5.99,3.42,1.24,5.76,7.17,8.68,12.32,6.56,2.32-.96,5.08-3.59,5.19-6.49ZM-360.65,282.65h21.4s-.57-7.94-.57-7.94c-.08-1.05.71-1.97,1.56-2.16s2.14.03,2.52,1.05l10.03,26.99,7.03-3.77-11.47-32.49c-1.3-4.28-4.94-7.27-9.36-7.55-5.57,6.5-15.44,6.44-21.02,0-3.02.16-5.66,1.47-7.76,3.58-1.81,1.85-3.06,4.19-3.2,6.86-.23,4.27-1.17,8.44-1.08,12.76.09,4.24.59,8.22-.11,12.5-.54,3.3-1.14,6.45-2.04,9.78l8.08.03,2.1-27.65c.07-1.43,1.16-2.27,2.4-2.17,1.34.11,2.04,1.26,1.95,2.63-.18,2.55-.54,5.01-.48,7.53ZM-385.45,306.61c-1.47-.04-2.58-.45-3.24-1.3-.64-.82-1.11-2.1-.81-3.19,2.27-8.39,3.14-15.41-.21-23.72-.44-1.09.24-2.27,1.13-2.62.99-.38,2.33-.19,2.8.85,3.55,7.95,3.08,17.29.77,25.62h5.73c4.19-14.01,5.23-30-9.81-37.35-5.52,6.4-15.12,6.22-20.51-.02-5.32,2.57-8.46,4.83-10.37,10.51l-3.3,9.83c-1.33,3.95-3.14,7.47-5.39,11.02l5.62,1.87c2.36-3.66,4.31-7.42,5.98-11.44l3.97-9.59c.51-1.23,1.62-1.75,2.88-1.37,1.16.35,1.61,1.63,1.26,2.9l-3.22,7.8-1.7,28.62h29.13s-.68-8.42-.68-8.42ZM-345.95,306.99l2.01,31.28h8.95s-3.88-51.19-3.88-51.19h-20.55c-.64,0-1.17-.33-1.69.31l-3.85,50.87h8.96s1.97-31.13,1.97-31.13c.14-2.22,1.8-3.6,3.92-3.63,2.04-.03,4.03,1.14,4.18,3.49ZM-401.48,338.23v-18.78s-6.14,0-6.14,0l.03,18.78c2.12.12,4.01.17,6.11,0ZM-391.06,337.44l-.02-17.96c-2.14-.13-4.03-.11-6.1-.02v18.81c1.85.13,3.55.03,5.36.06.45,0,.77-.29.77-.89Z"/>
  </g>
  <g id="BoYXXD.tif">
    <g>
      <path class="st7" d="M-90.54,99.6v13.18l-2.11,3.53c-.63,3.89.08,7.81-.31,11.72-.08.8-.8,1.19-1.13,1.74h-1.75c-.38-.56-1.23-.96-1.24-1.81l-.11-10.07h-7.31s-.11,10.07-.11,10.07c0,.85-.86,1.25-1.24,1.81h-1.74c-.25-.55-1.16-.94-1.17-1.75l-.05-19.12c0-1.31.91-2.2,2.04-2.25,3.34-.15,1.81,4.68,2.31,6.92,2.48.11,4.75.05,7.17.04,1.38,0,2.5-1.15,2.5-2.5l.02-8.98c0-3.47-2.19-6.39-5.52-7.28l-5.61-1.51c-3.38,9.22-12.08,15.34-21.76,15.36-9.71.03-18.48-6-21.88-15.34l-5.53,1.46c-3.1.82-5.56,3.43-5.57,6.73l-.02,9.61c0,1.28,1.07,2.39,2.36,2.43,2.51.06,4.87.08,7.37-.02l.03-4.68c0-1.29.86-2.19,2.07-2.24,1.02-.04,2.16.75,2.16,2.04v19.22c-.01.88-.91,1.28-1.25,1.86h-1.75c-.28-.55-1.16-.92-1.16-1.72l-.09-10.15h-7.38s-.1,10.15-.1,10.15c0,.79-.88,1.17-1.16,1.72h-1.75c-.37-.57-1.22-.97-1.23-1.83l-.07-11.73c-1.51-1.45-2.32-3.25-2.31-5.33v-9.05c.02-5.32,3.6-9.72,8.68-11.11,2.44-.67,4.71-1.15,7.19-2.06-3.31-1.92-9.77-2.85-7.97-8.23.94-2.83,1.45-5.72,1.45-8.77l.02-21.38c.01-15.51,12.71-27.79,27.92-27.75,15.28.04,27.76,12.51,27.75,28.02v20.83c0,3.28.57,6.31,1.53,9.37.68,2.15-.38,4.36-2.32,5.26l-5.7,2.65c2.41.88,4.54,1.39,6.83,1.97,4.26,1.08,7.56,4.12,8.64,8.44.07.26.22.43.36.53ZM-113.37,45.93c1.17.19,1.74,1.13,1.8,2.08.24,3.68,4.35,2.06,7.43,2.92.33-13.47-10.61-24.25-23.76-24.15-12.92.1-23.71,10.81-23.38,24.17,2.84-.88,7.34.76,7.43-2.98.09-3.83,3.38-6.57,7.19-5.93l23.3,3.89ZM-111.12,61.97c.01-1.38,1.17-2.06,2.2-2.06h2.01c1.72,0,2.87-1.26,2.75-2.79s-1.68-2.49-3.31-2.33c-3.69.37-6.97-1.29-8.13-4.95l-22.05-3.65c-.98-.16-1.93.74-1.94,1.67-.06,3.97-3.12,7.03-7.13,6.94-.83-.02-1.67-.07-2.5.11-1.37.31-2.21,1.47-2.05,2.76.14,1.09,1.04,2.18,2.33,2.2l2.54.04c1.22.02,2.09.92,2.1,2.19.08,9.18,7.6,16.52,16.63,16.48,9-.03,16.46-7.29,16.55-16.62ZM-139.29,79.31c-5.12-3.47-8.4-8.81-9.11-14.98-.95-.31-1.73-.32-2.86-.57l-.03,6.23c-.02,4.18-.43,8.08-1.77,12.13,4.05,1.93,7.98,3.6,12.28,4.26,2.17.34,1.61-5.92,1.5-7.08ZM-114.41,86.4c4.35-.85,8.18-2.36,12.07-4.3-1.17-3.39-1.74-6.74-1.77-10.31l-.08-8.03-2.81.57c-.75,6.19-4.01,11.52-9.18,15.01.03,1.16-.79,7.55,1.78,7.05ZM-110.07,92.26l-5.5-1.58c-3.16-.95-5.11-3.84-4.92-7.15.03-.59.12-1.13-.25-1.89-4.55,1.58-9.27,1.6-13.86.02-.44.19-.39,1.11-.35,1.56.31,3.62-1.79,6.66-5.23,7.57-1.73.46-3.39.83-5.21,1.49,2.87,7.48,10.01,12.23,17.77,12.19,7.66-.04,14.82-4.81,17.55-12.21Z"/>
      <path class="st7" d="M-175.91,129.78h-1.75c-.89-.77-1.28-1.53-1.28-2.85v-41.17c-2-.63-3.64-1.11-5.5-1.47l-10.1,10.33c-1.91,1.95-4.78,1.84-6.64-.07l-10.07-10.3-5.49,1.53-.04,42.23c0,.86-.97,1.2-1.18,1.77h-1.74c-.64-.67-1.3-1.17-1.3-2.31v-40.43c-1.73.17-3.04.67-4.55,1.1-2.98.84-5.2,3.53-5.21,6.76l-.05,32.9c0,.98-.83,1.37-1.24,1.98h-1.73c-.33-.61-1.3-1.01-1.29-1.98l.23-34.32c.03-4.49,3.91-8.23,7.86-9.32l15.77-4.37c1.09-.3,1.89-1.3,1.88-2.47-.03-2.45.11-4.76-.08-7.15-5.23-3.52-8.43-8.9-9.19-15.15-3.54.02-6.24-2.27-6.92-5.32-.74-3.31.97-6.45,4.1-7.8.49-.21.46-.98.42-1.56-.62-9.65,6.06-18.56,16.06-19.72,4.56-.53,9.46-.5,14.05,0,10.02,1.08,16.81,10.06,16.16,19.73-.05.69-.03,1.1.33,1.55,3.17,1.25,4.89,4.51,4.22,7.7-.68,3.22-3.47,5.47-6.97,5.45-.68,6.34-4.04,11.63-9.18,15.2l-.06,6.83c-.01,1.33.71,2.42,2,2.78l15.05,4.1c2.05.56,6.84,2.63,4.92,5.23-1.67,2.26-3.5-.46-5.86-1.08l-4.42-1.17-.02,40.87c0,.99-.83,1.37-1.22,2ZM-178.72,50.73c.95.02,1.84.11,2.65-.12,1.45-.41,2.08-1.91,1.67-3.2-.37-1.16-1.65-1.95-3.05-1.78-5.64.67-10.79-3.15-10.81-8.92l-.04-11.11c-1.43-.73-3.05-.94-4.69-.94h-9.59c-1.63-.01-3.25.24-4.79.86l-.17,12.03c-.08,5.36-5.38,8.64-10.55,8.09-1.72-.19-3.14.76-3.31,2.23-.19,1.63,1,2.91,2.73,2.9.75,0,1.47-.03,2.17.01,1.29.08,2.05,1.01,2.07,2.3.13,9.11,7.61,16.35,16.52,16.37,9.01.02,16.48-7.2,16.62-16.36.02-1.45.97-2.37,2.56-2.34ZM-179.04,41.36c.64-5.08-.97-10-4.9-13.28l-.1,8.08c-.03,2.85,2.01,5.3,5,5.2ZM-211.67,36.43c-.03-2.69.19-5.24-.15-8.13-4.08,3.16-5.44,8.3-4.8,13.12,2.95-.07,4.98-2.29,4.95-4.98ZM-188.5,82.34c-3.15-3.59-1.73-5.72-2.2-9.92-4.75,1.65-9.48,1.68-14.23,0-.56,4.16.91,6.43-2.26,9.9l9.32,9.52,9.38-9.5Z"/>
      <path class="st7" d="M-130.43,66.78c4.44,2.23,6.62-2.13,8.36.69.58.95.39,2.32-.73,2.94-3.11,1.71-6.83,1.71-9.92-.07-1.06-.61-1.21-1.99-.6-2.93s1.8-1.18,2.89-.63Z"/>
      <path class="st7" d="M-118.6,59.7c-.06,1.31-1,2.04-2,2.09-1.12.05-2.12-.73-2.21-1.98-.06-.84-.04-1.65,0-2.5.05-1.18.96-1.99,1.99-2.05,1.14-.06,2.16.77,2.22,2.04.03.76.05,1.51,0,2.4Z"/>
      <path class="st7" d="M-132.61,59.44c.01,1.45-.91,2.32-2.08,2.35-1.11.03-2.08-.77-2.15-2.06-.1-1.83-.29-4.28,1.92-4.47,1.04-.09,2.08.56,2.25,1.75.11.75.05,1.5.06,2.42Z"/>
      <path class="st7" d="M-200.77,57.56c4.85,2.32,6.85-2.07,8.57.75.51.84.45,2.23-.56,2.83-3.12,1.85-6.95,1.85-10.09.06-1-.57-1.16-1.82-.78-2.64.49-1.06,1.75-1.53,2.86-1Z"/>
      <path class="st7" d="M-202.37,50.58c-.93.9-1.06,2.05-2.34,2.1-1.48.06-1.74-1.05-2.56-2.06-.68-.83-2.13-.89-2.04-2.26.08-1.21.75-2.27,2.24-2.27h4.51c1.35,0,2.02,1,2.17,2.01.2,1.45-1.09,1.64-1.96,2.48Z"/>
      <path class="st7" d="M-188.32,50.54c-.96.76-.96,2.08-2.29,2.13-1.5.06-1.78-.98-2.61-2.06-.63-.81-2.19-.88-2.07-2.31.1-1.21.82-2.23,2.33-2.23h4.23c1.32,0,2.13.75,2.34,1.8.3,1.47-.9,1.85-1.92,2.66Z"/>
      <path class="st7" d="M-195.43,33.94l-4.57.03c-1.28,0-2.19-.87-2.26-1.93-.1-1.29.85-2.31,2.23-2.31h4.54c1.23.02,2.06.95,2.1,2.05.03,1.02-.7,2.15-2.02,2.16Z"/>
    </g>
  </g>
  <g id="SyXYPi">
    <g>
      <path class="st7" d="M-862.49,339.32c-1.5-.04-2.36-1.16-2.32-2.55.12-3.87.76-7.68,2.11-11.31,1.55-4.19,3.71-8.09,6.92-11.15l1.69-1.61c-6.65-13.83-6.83-30.92-.63-44.96,4.15-9.38,11.19-17.51,20.54-21.88,8.96-4.19,19.27-4.23,28.25-.08,3.64,1.68,6.95,3.89,9.94,6.67,2.25-6.58,6.35-11.62,12.91-14.01,3.24-1.17,6.63-1.58,10.07-1.38,1.26-2.57,3.06-3.92,5.61-5.04,7.06-2.74,16.05-1.03,22.46,2.72,3.64,2.13,7.79,6.03,8.07,10.45.13,2.04.06,3.95.06,5.98l.02,19.57c-.16,2.81-1.27,5.36-3.32,7.25-1.49,1.21-3.21,1.98-5.22,1.9.01,7.69-3.95,14.78-10.51,18.84.46,1.48,1.09,2.9,1.97,4.19.24.29.41.63.76.8l5.61.05c3.76.03,7.32,1.29,10.6,3.13,6.95,3.91,11.79,10.68,14.24,18.2,1.24,3.8,1.8,7.68,1.87,11.68.02,1.32-.83,2.53-2.26,2.53h-139.44ZM-789.48,260.02c.19-.59.01-.97.09-1.42.05-.9.71-1.61,1.42-1.89.93-.37,1.74-.07,2.47.5.67.52,1.43.87,2.25,1.19,4.08,1.61,8.33,2.66,12.74,2.96,2.59.18,5.14.2,7.63-.52l14.34-4.11c.85-.24,1.56-.28,2.29.27,1.27.95.83,2.22.98,3.54,1.44-.11,2.6.35,3.94.97l-.05-15.9c0-1.22-.74-2.34-1.46-3.26-1.32-1.69-2.98-2.94-4.86-3.98-4.59-2.52-10.67-3.84-15.85-2.76-2.01.42-4.75,1.53-5.39,3.71,1.92,4.01,6.22,5.42,10.44,5.25,1.35-.06,2.47.9,2.51,2.19s-.96,2.36-2.31,2.38c-2.18.03-4.27-.16-6.35-.8-3.56-1.09-6.52-3.43-8.23-6.72-4.4-.5-9.99.8-13.22,3.78l-.32.3c-3.33,3.08-4.76,6.18-5.92,10.58l2.87,3.74ZM-818.28,261.48c-.26,1.64-.64,3.19-1.05,4.88,3.98-.16,7.84-.7,11.65-1.68,1.18-.3,2.15-.69,3.28-1.14,1.27-.51,2.95.49,2.95,1.97l-.04,20.48c-.01,6.77-3.91,12.86-9.55,16.5.46,1.59,1.19,3.08,2.24,4.33l4.81.04c.55,0,1.05.05,1.6.12,4.37.52,8.37,2.26,11.85,4.99,5.45-10.54,6.62-23.09,3.87-34.43-2.83-11.68-10.25-22.73-21.42-27.73-7.87-3.52-16.79-3.38-24.54.36-3.34,1.61-6.36,3.77-9.02,6.38-13.72,13.45-16.59,36.21-8.69,53.44,3.51-2.04,7.29-3.11,11.25-3.15h4.11c1.07-1.28,1.75-2.75,2.26-4.34-3.57-2.25-6.33-5.43-7.95-9.25-.46-1.09.08-2.12.95-2.77,1.65-1.24,3.07-2.63,4.46-4.15l.39-.43c2.2-2.4,4.02-5.07,5.72-7.84l.21-.33c3.16-5.14,5.09-10.88,6.16-16.83.24-1.33,1.31-2.18,2.64-1.96,1.14.18,2.06,1.29,1.86,2.55ZM-751.72,287.74l.14-.33c.95-2.21,1.68-4.48,1.69-6.91l.03-6.41c-.16-.21-.02-.39-.02-.61v-11.65s-11.76,3.38-11.76,3.38c-6.81,1.96-16.59.15-23.22-2.57l.03,5.94c3,7.46,4.27,14.63,4.09,22.68,3.96,4.61,9.89,6.88,15.98,5.97,5.48-.81,10.74-4.21,13.02-9.5ZM-742.65,274.08c2.23-1.88,1.78-5.78-.18-7.91-.68-.74-1.5-1.2-2.47-1.1v10.31c.95,0,1.7-.5,2.31-1.01l.34-.29ZM-828.6,299.53c4.1,1.93,8.76,1.99,12.93.22,5.82-2.45,9.66-8.21,9.69-14.56v-16.25c-4.9,1.32-9.81,1.91-14.8,2.02-2.39,6.68-5.95,12.71-10.61,17.92-1.35,1.52-2.72,2.86-4.3,4.2,1.63,2.82,4.19,5.15,7.09,6.45ZM-781.38,303.57c1.21-1.43,1.89-3.1,2.48-4.8l-2.31-1.63c-.33,2.29-.75,4.38-1.31,6.55.36.05.87.2,1.14-.12ZM-757.79,314.68c.66-.45,1.1-.95,1.57-1.53,1.15-1.4,1.47-3.26.57-4.89-.48-.93-1.15-1.68-1.78-2.53-1.12-1.52-1.87-3.19-2.55-5-4.86,1.7-9.99,1.67-14.8,0-.81,2.45-2.02,4.52-3.6,6.38-.69,1.04-1.28,2.02-1.25,3.28.3,4,5.34,6.3,8.92,6.3h6.69c2.25,0,4.34-.73,6.22-2.02ZM-818.73,318.7c2.8,0,6.39-1.6,7.56-4.21.49-1.08.41-2.22-.14-3.27-.35-.5-.61-1.04-1.01-1.52-1.28-1.54-2.18-3.3-2.89-5.24-4.34,1.48-9.01,1.48-13.38,0-.67,1.78-1.44,3.41-2.59,4.86-.3.37-.59.69-.77,1.13-1.12,1.28-1.31,3.04-.45,4.51,1.41,2.38,4.77,3.76,7.49,3.75h6.16ZM-784.11,308.82c-1.02,2.28-1.85,4.38-3.04,6.42,4.86,5.47,7.47,12.35,8.07,19.52h53.65c-.48-8.19-4.05-16.51-10.51-21.74-3.25-2.62-7.08-4.3-11.25-4.66-1.24-.11-2.37-.07-3.63-.05.72,3.25-.31,6.05-2.44,8.43-.17.18-.26.3-.45.47-2.66,2.41-6.04,3.86-9.69,4.01-2.51.11-4.89.05-7.4.02-3.47-.04-6.7-1.23-9.41-3.34-1.11-.94-2.05-1.96-2.75-3.22-1.07-1.79-1.28-3.71-1.15-5.85ZM-806.46,311.42c.4,2.31-.07,4.34-1.21,6.13-.56.91-1.24,1.61-2.03,2.35-2.59,2.16-5.79,3.37-9.2,3.36l-6.6-.03c-3.18-.01-6.12-1.29-8.54-3.29-2.45-2.12-3.94-5.12-3.28-8.53-4.22-.34-8.33.82-11.83,3.21-6.5,4.42-10.33,12.28-10.98,20.13h76.47c-.64-7.26-3.86-14.37-9.43-18.97l-1.34-.99c-3.49-2.5-7.74-3.73-12.03-3.37Z"/>
      <path class="st7" d="M-759.15,288.05c-.11,1.34-.74,2.44-1.71,3.3-2.39,2.13-6.27,2.52-9.28,1.84-2.59-.58-5.15-2.22-5.45-5.08-.14-1.34.74-2.48,2.06-2.61,1.27-.12,2.41.85,2.5,2.2.04.69,3.41,2,6.39.71.27-.12.81-.34.89-.64.09-1.32,1.07-2.35,2.38-2.31,1.32.04,2.32,1.16,2.2,2.59Z"/>
      <path class="st7" d="M-771.76,271.86c.46.31.84.98.88,1.55.2,2.77-1.94,5.08-4.61,5.3-2.74.22-5.15-1.82-5.41-4.59-.13-1.38.69-2.54,2.04-2.68,1.26-.12,2.45.83,2.48,2.18,0,.31.24.51.52.49.86-.05,0-1.52,1.62-2.39.79-.42,1.67-.39,2.47.15Z"/>
      <path class="st7" d="M-758.41,273.82c.03-1.38,1.05-2.43,2.36-2.4,1.31.03,2.29,1.12,2.23,2.48-.13,2.74-2.36,4.81-5.04,4.82-2.69,0-4.95-2.16-5.01-4.92-.03-1.35.95-2.35,2.22-2.38,1.25-.04,2.31.96,2.33,2.27,0,.24.23.36.4.4.13.04.51-.02.52-.27Z"/>
      <path class="st7" d="M-815.62,290.48c.74,2.18-1.25,3.78-3.25,4.31-2.04.54-4.17.52-6.19-.05-1.52-.42-2.99-1.41-3.24-3.08-.17-1.14.5-2.17,1.5-2.52,1.1-.38,2.26.09,2.83,1.18,1.34.41,2.81.4,4.16,0,.45-.86,1.25-1.35,2.16-1.31.85.03,1.72.57,2.02,1.46Z"/>
      <path class="st7" d="M-814.13,279.71c.97.13.14-1.35,1.41-2.2.74-.5,1.56-.65,2.4-.25.69.33,1.25,1.02,1.28,1.94.07,2.78-2.11,5.02-4.81,5.13-2.75.11-5.11-2.02-5.23-4.82-.04-1.03.49-1.91,1.36-2.28,1.81-.77,2.87.95,2.88.72v.19c.02-.64.17,1.49.71,1.56Z"/>
    </g>
  </g>
  <g id="yqPFq1.tif">
    <g>
      <path class="st7" d="M-522.53,541.39v15.79h-117.47c-1.83-1.01-3.11-2.59-3.06-4.87.18-3.65-.2-7.21.16-10.78.58-5.77,3.59-10.61,8.85-13.54-5.75-3.8-8.11-10.59-5.97-16.96,1.99-5.93,7.69-10.02,14.34-9.81,2.05-6.55,7.92-10.48,14.55-10.4,2.01-6.52,7.88-10.46,14.49-10.36,1.92-6.32,7.63-10.38,13.97-10.33,6.25.05,11.86,4.08,13.75,10.33,6.72-.13,12.53,3.95,14.52,10.39,6.72-.16,12.5,3.93,14.52,10.36,6.72-.21,12.44,3.98,14.4,9.99,2.06,6.35-.41,13.02-5.99,16.79,5.02,2.94,8.93,7.81,8.93,13.39ZM-581.83,489.88c1.53-4.13,4.72-7,8.8-8.64-1.52-4.37-5.55-7.01-9.88-6.96-4.22.05-8.15,2.66-9.64,6.97,4.1,1.63,7.25,4.52,8.79,8.56.22.57.28,1.04.85,1.08.69.05.81-.28,1.08-1.01ZM-596.31,500.17c1.56-4.08,4.73-6.97,8.78-8.55-1.49-4.28-5.44-6.95-9.72-6.97s-8.34,2.68-9.78,6.97c4.18,1.65,7.35,4.66,8.83,8.74.2.56.42.87.97.87s.68-.44.92-1.06ZM-567.39,500.44c1.5-4.17,4.68-7.16,8.86-8.81-1.44-4.29-5.48-6.99-9.78-6.97-4.28.02-8.22,2.69-9.72,6.97,4.12,1.6,7.32,4.58,8.82,8.65.2.53.33.97.88.96.46-.01.72-.2.94-.8ZM-611.81,514.4c.84-6.02,4.4-10.4,9.79-12.43-1.62-4.41-5.63-7.02-9.97-6.94-4.24.08-8.19,2.8-9.57,7.01,5.66,1.98,9.03,6.83,9.74,12.37ZM-582.79,513.5c1.43-5.6,4.58-9.67,9.79-11.47-1.49-4.28-5.49-7.05-9.87-7.02-4.33.04-8.23,2.79-9.7,7.02,5.27,1.81,8.42,6.01,9.78,11.47ZM-553.76,514.4c.83-6.02,4.4-10.41,9.79-12.42-1.61-4.39-5.64-7.03-9.96-6.95-4.27.08-8.21,2.78-9.58,7.01,5.66,1.99,9.02,6.83,9.74,12.36ZM-616.09,517.12c.51-3.73-1.04-7.2-3.7-9.37-2.75-2.24-6.41-2.99-9.84-1.84-5,1.68-7.84,6.69-6.83,11.85.94,4.82,5.31,8.44,10.41,8.3,4.91-.13,9.25-3.74,9.96-8.94ZM-598.33,505.46c-5.89.6-9.84,5.86-9.23,11.45.61,5.56,5.65,9.59,11.12,9.11,5.76-.5,9.96-5.56,9.42-11.24-.53-5.57-5.44-9.93-11.32-9.32ZM-569.17,505.45c-5.92.52-9.91,5.75-9.38,11.3.53,5.63,5.53,9.7,11.02,9.29,5.79-.44,10.08-5.49,9.55-11.21-.51-5.55-5.35-9.89-11.19-9.38ZM-529.01,517.21c.6-4.14-1.23-7.92-4.41-10.08-3.24-2.19-7.38-2.37-10.87-.41-4.35,2.45-6.33,7.57-4.76,12.32,1.46,4.42,5.85,7.45,10.68,7.03,4.62-.4,8.64-3.88,9.36-8.86ZM-605.1,527.98c-2.88-2.12-4.81-4.43-5.81-7.45-.16-.46-.51-.7-.9-.7s-.74.24-.9.71c-1.01,3.11-3.08,5.45-5.86,7.49,3.05,1.64,5.01,3.81,6.81,6.57,1.71-3,3.84-4.85,6.66-6.62ZM-576.04,527.97c-2.98-2.08-4.94-4.56-5.94-7.73-.42-.55-1.17-.55-1.59,0-1.01,3.24-3.11,5.74-5.97,7.76,2.97,1.67,5.02,3.74,6.78,6.62,1.72-2.91,3.83-4.9,6.73-6.65ZM-547.04,527.99c-2.89-2.14-4.82-4.43-5.82-7.45-.15-.47-.5-.71-.89-.71s-.75.23-.91.7c-.99,3.11-3.08,5.46-5.85,7.49,2.92,1.66,4.96,3.62,6.72,6.58,1.75-2.8,3.8-4.87,6.75-6.61ZM-613.88,553.03v-10.19c.01-7.23-6.05-13.09-13.36-12.54-6.23.47-11.44,5.56-11.46,11.8l-.03,10.95h24.85ZM-584.86,552.99v-10.89c-.39-6.53-5.64-11.65-12.14-11.86-7.14-.11-12.77,5.73-12.75,12.87l.04,9.94,24.85-.05ZM-555.83,553.02l-.02-10.52c-.01-6.75-5.65-12.24-12.41-12.25-6.68,0-12.42,5.37-12.42,12.09v10.7s24.84-.02,24.84-.02ZM-526.81,553.03l-.04-10.93c-.02-6.29-5.23-11.28-11.46-11.83-7.31-.47-13.38,5.3-13.37,12.58l.02,10.19h24.85Z"/>
      <path class="st7" d="M-580.71,457.45c0,1.36-.88,2.2-1.96,2.26-1.01.06-2.14-.7-2.15-1.93l-.08-17.59c-1.49.7-3.46,4.51-5.55,2.31-.8-.84-.78-2.13.08-2.99l6.05-6.04c.86-.86,2.23-.86,3.08,0l6.06,6.04c.88.87.89,2.14.19,2.94-.79.91-2.09.91-3.01.14-.91-.76-1.49-1.75-2.66-2.39l-.04,17.26Z"/>
      <path class="st7" d="M-539.26,480.45c0,1.33-1.08,2.08-2.1,2.06-1.09-.02-2.02-.87-2.02-2.11l-.03-17.57c-1.57.96-3.38,4.52-5.5,2.53-.78-.73-.94-2.07-.06-2.95l6.14-6.15c.9-.9,2.24-.81,3.11.05l5.95,5.94c.84.84,1.02,2.03.29,2.94s-2.02,1.03-2.99.23c-.91-.75-1.46-1.75-2.7-2.4l-.08,17.43Z"/>
      <path class="st7" d="M-622.17,480.29c0,1.46-1.06,2.29-2.25,2.21-1.16-.08-1.91-1.07-1.91-2.37l-.04-17.11c-1.63.7-3.26,4.33-5.44,2.36-.85-.77-.94-2.13-.06-3.01l6.05-6.06c.87-.87,2.21-.94,3.11-.05l6.04,6.03c.87.87.92,2.13.16,2.96-2.06,2.28-4.13-1.5-5.62-2.42l-.03,17.45Z"/>
    </g>
  </g>
  <g id="_x33_2V8PR">
    <g>
      <path class="st7" d="M-569.8,280.76c-8.93-3.83-10.36,5.79-12.78,6.18-.59.09-2.3-.38-2.11-1.4,1.38-7.44,9.04-11.37,15.98-8.54,5.64,2.31,11.82,3.62,17.94,2.71,3.31-.49,6.35.8,9.39.54,2.76-.23,4.99-2.34,7.96-.26,3.02,2.12,5.68,4.99,6.91,8.69,1.24,3.72-.57,6.79-4.53,8.35l5.16,13.77c1.48,3.93-.49,8.15-4.02,10.31l-25.33,15.5c-1.02.62-2.56.32-3.02,1.14-1.09,1.91.44,5.3-1.02,6.74-.57.57-1.48.66-2.16.36-2.22-.97-.26-5.91-1.52-8.05-4.93-3.01-6.81-8.46-3.5-13.83-7.51-6.34-13.07,6.83-28.21-.95-2.53-1.3-5.52-1.12-8.05.48,2.17,5.52.51,10.53-4.08,13.78-1.3,2.01.65,7.88-1.57,8.62-.83.27-2.4.2-2.51-1.04l-.59-6.32c-4-.16-6.99-1.76-9.05-4.81l-17.5-26.05c-2.58-3.84-2.97-7.87-.86-12.09l12.97-25.9c4.28-8.55,14.98-10.49,23.47-7.03,15.7,6.39,24.04-3.83,27.19-1.98.75.44,1.28,2.31.11,2.96-10.35,5.67-18.39,6.58-29.64,2.35-6.8-2.56-14.81-.42-18.15,6.33l-12.86,26.01c-1.16,2.34-.57,4.72.81,6.76l18.06,26.86c1.95,2.9,5.88,3.31,8.54,1.51,2.5-1.7,3.79-5.39,1.85-8.31l-16.29-24.55,9.5-19.65c.58-1.21,1.82-1.61,2.83-1.13.97.46,1.24,1.75.67,2.91l-8.56,17.48,13.24,19.86c4.19-1.94,8.43-2.56,12.3-.53,13.85,7.28,16.84-7.12,29.55,1.65l17.36-10.54c-.54-3.74-5.73-10.37-2.6-11.97.8-.41,2.15-.09,2.62,1.16,1.54,4.07,3.43,7.79,4.65,12.37l-20.56,12.84c-2.53,1.58-2.94,4.67-1.73,6.86,1.28,2.3,4.42,3.54,6.95,1.98l25.29-15.57c4.99-3.08-2.52-14.55-3.97-19.48-11.46-3.44-8.04-12.78-9.03-13.65-2.38-2.12-12.25,2.25-25.5-3.44ZM-530.31,290.63c-.44-3.39-3.36-6.93-6.36-7.51-1.83-.36-3.05,1.99-3.39,3.15-.93,3.08,2.37,7.82,5.82,7.5,1.27-.12,4.26-.62,3.94-3.13Z"/>
      <path class="st7" d="M-595.65,225.29c10.43-1.99,19.74,4.94,21.57,14.63,1.9,10.07-4.66,19.71-14.88,21.59-9.61,1.77-19.19-4.46-21.27-14.32-2.05-9.68,3.93-19.87,14.58-21.9ZM-596.36,229.48c-8.26,2.5-12.08,11.11-9.63,18.41,2.54,7.55,10.46,11.59,17.79,9.45,7.88-2.3,12.21-10.4,9.93-18.08-2.21-7.44-9.98-12.23-18.08-9.78Z"/>
      <path class="st7" d="M-558.15,246.08c9.07-.49,15.98,6.46,16.55,14.53.64,9.04-6.12,16.39-14.82,16.9-8.54.5-15.91-5.92-16.61-14.4-.71-8.61,5.6-16.52,14.88-17.03ZM-560.11,250.28c-6.84,1.71-10.34,8.51-8.66,14.62,1.68,6.15,7.98,9.83,13.93,8.49,6.59-1.49,10.46-7.77,9.08-14.19-1.31-6.1-7.52-10.63-14.35-8.92Z"/>
      <path class="st7" d="M-587.63,288.29c8.61-1.6,16.12,4.23,17.48,12.15,1.37,8-3.98,15.64-11.86,17.13-8.15,1.54-15.97-3.6-17.55-11.89-1.46-7.65,3.29-15.78,11.93-17.39ZM-588.31,292.51c-6.37,2.13-9,8.84-6.91,14.33,2.11,5.54,8.16,8.35,13.49,6.67,6.04-1.9,9.18-8.15,7.35-13.83-1.82-5.66-7.78-9.23-13.94-7.18Z"/>
      <path class="st7" d="M-596.48,336c.21,3.17.79,8.83-1.6,9.03-.97.08-1.99-.38-2.08-1.72-.21-3.19-.81-8.78,1.56-9.05,1.02-.11,2.02.37,2.11,1.73Z"/>
      <path class="st7" d="M-569.64,336c.2,3.36.79,8.8-1.61,9.03-.96.09-1.98-.39-2.07-1.71-.21-3.15-.8-8.77,1.55-9.05,1.03-.12,2.05.37,2.13,1.73Z"/>
    </g>
  </g>
  <g id="ViAgwP">
    <g>
      <path class="st7" d="M-781.68,550.67c-.01,2.75-1.5,5.13-3.61,6.61-3.54,2.48-8.18,1.38-10.56-2.35-1.35,2.04-3.4,3.38-5.63,3.62-4.83.52-8.61-3.75-8.61-8.12l-.02-69.04c0-1.45-.41-3.51-1.87-3.93-.73-.21-1.52-.14-2.17.31l-6.52,4.6c-.03.32-.31.25-.47.36l-8.45,5.97c3.06,1.68,4.9,4.73,4.9,8.19,0,.78-.61,1.3-1.28,1.36s-1.46-.45-1.47-1.29c-.03-3.35-2.56-6.36-6.05-6.45-4.11-.11-6.89,2.68-6.89,6.75l.02,59.85c0,.86-.47,1.36-1.23,1.48-.57.09-1.53-.3-1.53-1.17l.02-60.95c0-2.84,1.57-5.24,3.61-6.96-1.9-1.4-2.78-3.63-2.46-5.91.37-2.6,1.85-4.72,3.96-6.28l23.01-17.11c1.06-.38,2.2-.95,3.26-.97l4.92-.12c-1.66-2.45-2.75-5.07-3.05-7.95-.91-8.85,6.38-16.21,15.16-15.48,8.57.71,14.63,8.99,12.42,17.55-.53,2.06-1.37,3.98-2.69,5.87l5.5.1c2.49.05,4.6,1.55,6.07,3.65,1.59-.61,3.17-.66,4.78-.24l3.89,1.03c2.21.58,8.45.31,10.01-.26,1.81-.66,3.61-.53,5.04.96,1.29,1.35,2.1,3.25,2.13,5.25l.16,14.45c.03,2.92-1.89,5.33-4.86,5.86,1.4,10.75,3.73,21.14,7,31.35.51,1.6,1.31,2.86,2.2,4.19s.62,3.08-.58,4.16c-2.14,1.92-6.45,2.67-9.37,3.2v19.26c0,1.65-.59,3.04-1.57,4.28-.12.35-.36.42-.61.64-2.92,2.55-7.34,2.27-9.84-.89-1.95,2.47-5.12,3.23-7.91,2.09-2.78-1.14-4.15-3.84-4.14-6.92l.05-18.44c-1.65-.23-3.03-.55-4.6-1.04l-.08,18.91ZM-791.02,461.03l.59-.34c3.53-2,5.49-6.07,5.81-10.18.54-6.85-5.16-12.5-11.89-12.12-6.58.37-11.59,6.4-10.51,13.08.54,3.33,2.2,6.32,4.74,8.49,3.22,2.74,7.56,3.15,11.25,1.06ZM-784.4,488.24c-1.39-.19-2.39-.47-3.36-1.18-2.3-1.65-3.42-4.51-2.73-7.27.81-3.24,4.1-4.97,7.23-3.78,3.04,1.16,4.8,4.35,4.27,7.56-.28,1.68-1.2,2.97-2.62,3.91l.02,12.76c0,1.22.63,2.31,1.48,3.06,1.25,1.09,2.93,1.07,4.21,0,.81-.77,1.47-1.85,1.47-3.06v-11.13c-1.74-1.21-2.72-3.01-2.7-5,.02-2,.98-3.79,2.73-4.94l-.04-11.35c0-1.43-.7-2.71-1.49-3.8-1.16-1.43-2.78-2.15-4.62-2.14l-6.96.04c-5.06,4.38-11.72,4.36-16.69-.02l-7,.04c-.87,0-1.58.51-2.47.71l-23.1,17.23c-1.26.94-2.04,2.31-2.37,3.75-.48,2.08.83,3.88,2.91,4.18,1.81.27,3.5-.32,5.01-1.39l15.52-10.96c2.4-1.69,5.76-1.03,7.24,1.44.71,1.19,1.1,2.51,1.1,3.97l.03,69.37c0,1.92.97,3.61,2.4,4.68,1.72,1.28,3.96,1.14,5.58-.24,1.3-1.1,2.08-2.71,2.09-4.51l.04-36.43c0-.92.89-1.31,1.59-1.2.74.11,1.15.67,1.15,1.52v36.18c0,1.57.66,2.93,1.65,4.01,1.73,1.9,4.53,2.08,6.44.35,1.21-1.09,1.98-2.62,1.98-4.37v-62.02ZM-756.3,478.36c-.42-4.16-.71-7.91-.81-11.83-2.87.37-5.58.27-8.31-.21l-3.9-1.05c-.94-.15-1.85-.34-2.76.14.36,1.26.46,2.43.47,3.69v9.28s15.32-.02,15.32-.02ZM-771.75,487.11l19.15-.02c1.42,0,2.47-1.59,2.46-2.89l-.14-14.47c-.02-1.8-1.37-4.61-2.91-3.91-.7.32-1.17.87-1.13,1.69.19,3.74.38,7.4.9,11.11.07.48.71,1.02.39,1.57-.19.33-.38.92-1.03.92l-17.72.09c-1.56,0-2.58,1.58-2.58,2.93s.96,2.99,2.62,2.99ZM-781.7,482.91c.2-1.72-.72-3.39-2.19-4.15-.85-.44-1.79-.51-2.62-.02-.61.36-1.19,1.01-1.36,1.9-.37,1.9.7,3.85,2.5,4.59.86.35,1.75.23,2.53-.29.53-.36,1.02-1.1,1.13-2.02ZM-771.27,530.39c3.09.16,5.95.48,8.99.43,4.02-.06,7.91-.55,11.81-1.37,1.03-.22,5.01-1.22,5.22-2.37-1.06-1.51-1.99-3.06-2.58-4.9-3.38-10.51-5.75-21.18-7.19-32.28h-16.59s-.03,10.24-.03,10.24c-.09,2.02-.89,3.84-2.36,5.18-1.87,1.61-4.24,2.02-6.68.94-.18,1.77-.86,3.35-.86,5.12l-.08,17.32c3.35,1.55,6.72,1.5,10.36,1.69ZM-766.36,551.97v-18.51s-7.88-.42-7.88-.42v18.99c.09,2.22,1.83,3.86,3.94,3.86,2.07,0,3.89-1.64,3.94-3.93ZM-755.74,552.04l-.03-18.91c-2.76.34-5.2.52-7.84.45v18.47c.09,2.21,1.84,3.88,3.93,3.86,2.1-.02,3.86-1.64,3.94-3.86Z"/>
      <path class="st7" d="M-771.86,447.44c-2.64,4.46.44,9.83,4.84,11.64,2.65,1.09,5.56.72,7.78-1.06,2.59-2.08,4.05-5.32,3.57-8.63-.13-.88.24-1.67,1.13-1.8.77-.12,1.5.4,1.62,1.33.64,4.81-1.65,9.7-5.89,12.16-2.97,1.72-6.34,1.3-9.55.38l-1.33-.38c-8.46-2.43-11.23-13.5-7.2-21.3,4.03-7.8,13.76-10.74,21.44-6.49,7.71,4.27,10.39,14.03,5.85,21.75-.68,1.15-1.8,3.05-3.21,2.05-.45-.32-.82-1.27-.39-1.77,5.12-6.15,3.6-15.2-3.13-19.33-6.75-4.14-15.67-1.21-18.63,6.26.39.21.77.07,1,.25,3.9,3.52,8.91,5.41,14.2,4.93.83-.08,1.42.59,1.45,1.29.03.73-.47,1.39-1.29,1.46-4.25.39-8.39-.51-12.26-2.73ZM-774.24,445.85l-1.42-1.13c-.26,1.65-.35,3.19.11,4.73.36-1.33.69-2.39,1.31-3.6Z"/>
    </g>
  </g>
  <g id="NNvlIG.tif">
    <g>
      <path class="st7" d="M-171.29,343.2h-62.15v-7.31c0-3.92,1.36-15.1,2.45-19.57,2.39-9.77,11.34-16.84,21.28-15.37.04-.8.5-2.11-.13-2.65-4.05-3.46-6.37-8.2-6.64-13.58-.12-2.35.18-4.64-.15-7-.48-3.37-1.38-6.85-.39-10.22,1.29-4.39,4.86-7.5,8.88-9.45,5.2-2.51,10.82-3.49,16.41-2.17,4.99,1.18,4.22,4.67,6.11,6.05,2.43,1.77,4.14,4.31,4.69,7.31.7,3.85-2.33,7.15-2.58,8.54-.42,2.38-.05,4.77-.21,7.18-.36,5.58-2.89,10.5-7.31,13.85-.35.67-.09,1.7.25,2.41,1.18-.6,2.33-.58,3.66-.48,8.93.71,15.86,7.27,17.85,15.99,1.59,6.93,1.93,13.82,2.14,20.98.11,3.58-1.64,4.48-4.19,5.49ZM-186.7,273.8c.76-.8,1.46-2.13,1.41-3.4-.07-2.03-1.43-3.76-2.99-4.94-3.61-2.72-1.65-4.72-4.82-5.38-6.87-1.42-17.04,1.77-19.58,8.3-.67,1.73-.17,3.62-.12,5.43,1.73-.1,2.48-3.36,5.25-1.51,2.59,1.73,5.71,2.26,8.84,2.15,7.63-.27,8.64-4.76,12-.65ZM-188.14,278.88c-.03-.68-1.28-2.03-1.98-1.86-6.51,2.2-12.35,2.82-18.64-.29l-3.29,1.96c-.25,6.16-.21,11.76,4.88,16.01,4.21,3.51,9.97,3.5,14.18-.01,4.98-4.16,5.13-9.67,4.85-15.8ZM-194.65,303.95c-.43-1.19-.48-2.01-.94-2.9-3.22,1.02-6.32.81-9.5-.08-.41,1.13-.55,1.97-.77,3.02l5.41,4,5.79-4.04ZM-180.11,323.85l-.02,14.63h8.58c-.12-7.16-.47-13.85-1.97-20.6-1.6-7.21-7.34-12.61-14.83-12.79l-10.64,7.32c-.78.54-1.84.75-2.66.16l-10.4-7.49c-7.44.26-13.12,5.5-14.74,12.63-1.55,6.79-1.92,13.57-1.99,20.77h8.53s0-14.79,0-14.79c0-1.42.89-2.43,2.2-2.44,1.13,0,2.19.78,2.2,2.13l.11,15.16,31.18-.04.05-15.1c0-1.42,1.24-2.27,2.41-2.15,1.24.12,2,1.07,2,2.58Z"/>
      <path class="st7" d="M-96.34,343.2h-57.89c-2.54-1.01-4.28-1.93-4.18-5.49.2-7.07.55-13.88,2.09-20.75,2.25-10.04,10.94-17.34,21.34-16.07.2-.63.61-1.99.03-2.49-4.11-3.59-6.52-8.44-6.7-13.98-.08-2.24.19-4.43-.13-6.66-.48-3.4-1.4-6.93-.37-10.34,1.3-4.3,4.8-7.37,8.74-9.31,5.18-2.55,10.79-3.53,16.38-2.28,5.22,1.18,3.94,4.3,6.65,6.41,2.77,2.16,4.56,5.43,4.37,8.94-.14,2.49-1.89,4.21-2.57,6.47-1,3.34,2.14,13.58-7.54,21.14-.59.46-.04,1.97.24,2.36,1.08-.48,1.98-.52,3.14-.46,8.58.45,15.61,6.44,17.96,14.67,1.3,4.53,1.9,8.99,2.17,13.69l.35,6.17c.24,4.1.43,6.17-4.08,7.96ZM-111.8,273.83c.76-.97,1.49-2.37,1.34-3.72-.23-2.04-1.56-3.58-3.08-4.74-3.47-2.65-1.61-4.63-4.62-5.26-4.55-.96-9.09-.1-13.28,1.97-4.88,2.41-7.85,6.11-6.43,11.75,1.93-.44,2.48-3.31,5.23-1.49,2.53,1.68,5.54,2.19,8.58,2.12,7.71-.16,8.8-4.84,12.25-.63ZM-113.35,278.62c-.07-.66-1.24-1.52-1.9-1.65-6.26,2.26-12.44,2.86-18.62-.21l-3.34,1.92c-.28,6.24-.19,11.98,5.09,16.19,3.94,3.14,9.22,3.29,13.3.31,5.33-3.91,6.15-10.25,5.46-16.57ZM-119.81,303.96c-.44-1.3-.48-1.93-.94-2.88-3.17.9-6.25.9-9.52-.18-.36,1.11-.57,2.09-.76,3.13l5.45,3.96,5.77-4.04ZM-105.27,323.7v14.77s8.54,0,8.54,0c-.08-7.18-.45-13.96-1.99-20.76-1.63-7.2-7.48-12.54-14.86-12.61l-10.5,7.26c-1.09.75-2.17.67-3.22-.09l-9.91-7.18c-7.45.21-13.2,5.59-14.79,12.78-1.5,6.75-1.86,13.46-1.97,20.61l8.54.07.07-15.16c0-1.33,1.06-2.16,2.25-2.13,1.05.03,2.11.85,2.12,2.16l.06,15.11h31.17s.21-15.66.21-15.66c.02-1.31,1.71-1.77,2.65-1.54,1.02.25,1.64,1.15,1.64,2.37Z"/>
      <path class="st7" d="M-152.52,231.55l-9.03-.02c-2.16,0-3.92,1.37-4.44,3.31-.53,2.01.4,4.12,2.36,5.14,1.05.54,1.4,1.71,1.01,2.79-.32.89-1.58,1.73-2.77,1.2-3.78-1.68-5.78-5.71-5.01-9.72.74-3.82,3.93-6.78,8.18-7.19,3.33-.33,6.84-.35,10.17,0,4.41.47,7.64,3.66,8.19,7.73.56,4.14-1.85,8.15-5.9,9.54-1.21.41-2.38-.31-2.74-1.28-.45-1.21.14-2.43,1.4-2.92,2.03-.8,3.17-2.76,2.84-4.88-.3-1.89-1.91-3.69-4.27-3.7Z"/>
      <path class="st7" d="M-159.49,243.56c1.15-5.07-4.96-4.49-3.83-7.78.39-1.13,1.61-1.84,2.87-1.33,4.01,1.61,6.17,5.86,5.3,10-.86,4.04-4.46,7.02-8.81,7.02h-8.86c-4.35,0-7.91-3.02-8.74-7.09-.85-4.17,1.36-8.46,5.48-10.01,1.19-.45,2.37.06,2.86,1.19.39.91.07,2.3-1.13,2.82-2.07.89-3.29,2.84-2.88,5.08.36,1.93,2.16,3.6,4.42,3.6l9.15-.02c2.13,0,3.75-1.6,4.18-3.47Z"/>
      <path class="st7" d="M-197.85,236.84c-.28,3.06-.02,5.91-.13,8.89-.05,1.29-1.02,2.2-2.13,2.22-1.2.02-2.25-.86-2.25-2.19v-11.29c.02-1.17.99-2.03,2.12-2.03l10.98-.03c1.41,0,2.4.95,2.4,2.21,0,1.24-.99,2.23-2.4,2.2h-8.6Z"/>
      <path class="st7" d="M-123.13,245.45c0,1.47-.91,2.53-2.28,2.5-1.44-.03-2.2-1.29-2.17-2.8.06-2.79.07-5.44-.02-8.28l-8.66-.02c-1.41,0-2.4-.95-2.4-2.22,0-1.26.98-2.22,2.41-2.21l10.97.03c1.32,0,2.14,1.06,2.14,2.32l.02,10.68Z"/>
    </g>
  </g>
  <g>
    <polygon class="st2" points="204.38 1401.3 199.18 1401.3 195.52 1406.8 194.29 1416.57 189.41 1422.38 180.85 1431.85 171.69 1445.6 157.63 1455.37 176.27 1468.2 200.4 1488.06 209.88 1488.06 227.29 1483.17 236.15 1467.9 230.34 1452.32 239.2 1449.87 250.81 1444.68 247.45 1430.32 239.2 1428.18 230.96 1424.51 220.26 1420.24 213.54 1402.82 209.57 1408.32 204.38 1401.3"/>
    <polygon class="st3" points="213.54 1402.82 220.87 1392.74 204.22 1380.52 204.22 1366.16 196.43 1355.77 188.18 1355.77 176.88 1353.94 176.88 1369.52 171.08 1372.88 169.85 1381.13 156.11 1381.44 147.86 1395.19 141.44 1404.35 149.08 1414.43 142.66 1428.49 149.38 1434.9 149.38 1449.57 157.63 1455.37 171.69 1445.6 180.85 1431.85 189.41 1422.38 194.29 1416.57 195.52 1406.8 199.18 1401.3 204.38 1401.3 209.57 1408.32 213.54 1402.82"/>
    <polygon class="st5" points="176.88 1353.94 165.88 1317.28 168.94 1307.2 165.88 1296.81 168.33 1291.92 168.94 1285.51 159.77 1278.17 165.88 1274.81 172.3 1263.51 178.71 1247.32 175.66 1241.51 178.71 1230.51 185.74 1228.68 191.85 1214.63 201.93 1202.1 204.22 1186.52 243.48 1203.94 279.84 1186.52 279.84 1215.54 274.64 1223.49 278.31 1230.82 285.95 1249.46 285.95 1255.57 278.62 1254.34 278.62 1265.34 266.09 1277.56 264.87 1282.45 259.98 1286.42 258.15 1292.23 259.67 1301.7 270.98 1312.7 260.9 1320.03 258.45 1327.97 239.2 1311.78 227.9 1320.95 237.07 1336.83 237.37 1340.5 230.65 1335.31 226.98 1332.56 220.87 1338.97 227.6 1349.36 232.48 1351.5 232.79 1343.25 237.37 1349.66 243.48 1352.72 254.17 1353.94 254.17 1365.86 263.03 1370.74 275.25 1372.27 275.25 1378.38 273.42 1382.66 276.17 1392.74 247.45 1430.32 239.2 1428.18 220.26 1420.24 213.54 1402.82 220.87 1392.74 204.22 1380.52 204.22 1366.16 196.43 1355.77 188.18 1355.77 176.88 1353.94"/>
    <polygon class="st5" points="142.66 1428.49 116.69 1416.57 99.28 1404.66 96.53 1397.94 71.78 1390.3 35.12 1371.05 18.01 1367.38 1.52 1353.94 -26.29 1338.97 -54.39 1325.22 -47.06 1313.31 -35.76 1305.98 -29.03 1308.42 -22.31 1309.95 -13.15 1324.92 -6.73 1327.06 -1.84 1323.7 2.13 1332.56 11.29 1323.7 27.79 1321.56 35.43 1319.42 41.54 1321.86 44.14 1314.84 51.31 1315.45 57.12 1304.14 57.42 1287.65 64.45 1287.65 69.03 1281.23 75.14 1279.7 82.78 1281.54 88.89 1279.7 90.11 1287.65 95.92 1289.17 104.78 1286.42 111.2 1290.4 111.2 1278.17 123.11 1291.92 122.19 1300.17 133.5 1304.75 140.22 1299.87 146.33 1299.56 149.69 1303.53 156.11 1301.7 159.77 1309.64 165.88 1317.28 176.88 1353.94 176.88 1369.52 171.08 1372.88 169.85 1381.13 156.11 1381.44 147.86 1395.19 141.44 1404.35 149.08 1414.43 142.66 1428.49"/>
    <polygon class="st2" points="-54.39 1325.22 -62.34 1312.09 -72.42 1304.14 -77.31 1293.14 -94.41 1287.65 -111.83 1264.12 -115.8 1254.04 -122.52 1254.04 -118.55 1246.4 -126.19 1236.32 -117.63 1236.32 -116.41 1218.91 -118.86 1205.46 -110.61 1193.85 -98.69 1186.52 -90.29 1188.05 -90.29 1199.96 -95.33 1206.07 -90.29 1210.66 -79.75 1211.88 -77.31 1218.91 -81.58 1224.1 -80.67 1239.07 -69.97 1240.9 -65.39 1246.71 -55.92 1249.46 -56.53 1267.18 -53.17 1270.23 -54.39 1274.51 -51.34 1278.17 -45.23 1275.12 -39.12 1283.06 -35.15 1292.53 -33.01 1298.34 -35.76 1305.98 -47.06 1313.31 -54.39 1325.22"/>
    <polygon class="st2" points="-90.29 1188.05 -79.6 1171.86 -74.25 1163.3 -67.22 1156.28 -55.92 1145.58 -57.75 1133.67 -54.39 1129.39 -49.5 1132.75 -33.01 1129.39 -21.4 1135.81 -24.76 1142.53 -26.9 1154.14 -19.56 1158.72 -15.9 1171.86 -12.54 1186.52 -19.87 1188.05 -19.87 1194.77 -22.92 1197.82 -33.01 1199.35 -31.78 1206.68 -41.56 1204.85 -46.45 1208.21 -41.87 1214.93 -37.28 1236.32 -36.67 1242.74 -46.45 1247.93 -55.92 1249.46 -65.39 1246.71 -69.97 1240.9 -80.67 1239.07 -81.58 1224.1 -77.31 1218.91 -79.75 1211.88 -90.29 1210.66 -95.33 1206.07 -90.29 1199.96 -90.29 1188.05"/>
    <polygon class="st2" points="-21.4 1135.81 -15.59 1142.53 -9.18 1148.03 7.32 1145.28 12.82 1163.3 24.74 1170.94 29.93 1192.94 43.07 1205.16 46.43 1211.27 38.79 1211.27 27.18 1207.6 19.85 1200.88 12.51 1202.71 12.51 1215.85 18.93 1232.96 29.62 1255.87 29.01 1271.45 31.46 1275.12 26.87 1283.98 29.62 1289.48 41.54 1282.76 52.23 1281.84 58.04 1278.17 67.75 1283.02 64.45 1287.65 57.42 1287.65 57.12 1304.14 51.31 1315.45 44.14 1314.84 41.54 1321.86 35.43 1319.42 27.79 1321.56 11.29 1323.7 2.13 1332.56 -1.84 1323.7 -6.73 1327.06 -13.15 1324.92 -22.31 1309.95 -29.03 1308.42 -35.76 1305.98 -33.01 1298.34 -35.15 1292.53 -39.12 1283.06 -45.23 1275.12 -51.34 1278.17 -54.39 1274.51 -53.17 1270.23 -56.53 1267.18 -55.92 1249.46 -46.45 1247.93 -36.67 1242.74 -37.28 1236.32 -41.87 1214.93 -46.45 1208.21 -41.56 1204.85 -31.78 1206.68 -33.01 1199.35 -22.92 1197.82 -19.87 1194.77 -19.87 1188.05 -12.54 1186.52 -15.9 1171.86 -19.56 1158.72 -26.9 1154.14 -24.76 1142.53 -21.4 1135.81"/>
    <polygon class="st2" points="46.43 1211.27 54.06 1213.41 61.24 1209.13 72.09 1211.27 86.45 1218.29 98.97 1226.24 104.78 1229.6 109.06 1242.12 102.34 1259.84 98.06 1264.43 84.92 1270.84 88.89 1279.7 82.78 1281.54 75.14 1279.7 69.03 1281.23 67.75 1283.02 58.04 1278.17 52.23 1281.84 41.54 1282.76 29.62 1289.48 26.87 1283.98 31.46 1275.12 29.01 1271.45 29.62 1255.87 18.93 1232.96 12.51 1215.85 12.51 1202.71 19.85 1200.88 27.18 1207.6 38.79 1211.27 46.43 1211.27"/>
    <polygon class="st5" points="7.32 1145.28 17.1 1143.44 25.65 1137.94 25.65 1129.39 33.29 1115.95 29.62 1111.06 20.31 1108.31 25.35 1103.12 29.32 1103.12 33.29 1092.73 47.04 1090.28 58.65 1086.62 64.45 1092.73 76.06 1093.34 80.95 1096.7 89.81 1089.98 101.72 1088.45 101.72 1097.01 95.31 1104.95 92.25 1115.95 92.56 1128.17 102.95 1135.81 107.53 1146.5 113.64 1148.33 118.83 1156.89 117 1167.27 125.86 1176.44 140.83 1177.66 161.3 1186.52 193.68 1192.63 190.93 1184.08 204.22 1186.52 201.93 1202.1 191.85 1214.63 185.74 1228.68 178.71 1230.51 175.66 1241.51 178.71 1247.32 172.3 1263.51 165.88 1274.81 159.77 1278.17 168.94 1285.51 168.33 1291.92 165.88 1296.81 168.94 1307.2 165.88 1317.28 159.77 1309.64 156.11 1301.7 149.69 1303.53 146.33 1299.56 140.22 1299.87 133.5 1304.75 122.19 1300.17 123.11 1291.92 111.2 1278.17 111.2 1290.4 104.78 1286.42 95.92 1289.17 90.11 1287.65 88.89 1279.7 84.92 1270.84 98.06 1264.43 102.34 1259.84 109.06 1242.12 104.78 1229.6 86.45 1218.29 72.09 1211.27 61.24 1209.13 54.06 1213.41 46.43 1211.27 43.07 1205.16 29.93 1192.94 24.74 1170.94 12.82 1163.3 7.32 1145.28"/>
    <polygon class="st2" points="101.72 1088.45 109.06 1075.62 105.39 1064.93 121.28 1070.73 137.47 1060.34 152.74 1056.07 173.83 1039.88 177.8 1027.35 177.8 1021.54 190.02 1012.07 190.02 1072.57 196.13 1068.59 204.22 1076.84 209.57 1076.84 226.37 1068.59 248.37 1070.43 262.42 1092.12 283.81 1132.45 294.2 1153.53 296.64 1162.69 291.14 1170.02 281.06 1177.05 279.84 1186.52 243.48 1203.94 204.22 1186.52 190.93 1184.08 193.68 1192.63 161.3 1186.52 140.83 1177.66 125.86 1176.44 117 1167.27 118.83 1156.89 113.64 1148.33 107.53 1146.5 102.95 1135.81 92.56 1128.17 92.25 1115.95 95.31 1104.95 101.72 1097.01 101.72 1088.45"/>
    <polygon class="st1" points="-118.86 1205.46 -132.3 1190.8 -134.13 1179.19 -141.46 1174 -154.91 1148.94 -163.77 1142.53 -167.43 1126.03 -167.43 1121.14 -173.54 1113.2 -169.88 1109.84 -176.9 1099.45 -186.68 1095.48 -192.48 1098.23 -201.04 1095.48 -197.37 1086.62 -213.26 1053.93 -210.2 1044.76 -208.68 1039.14 -204.09 1039.88 -203.48 1044.46 -206.23 1049.65 -200.12 1052.1 -197.68 1060.04 -191.57 1060.34 -179.65 1048.74 -173.54 1042.01 -167.74 1036.21 -158.27 1036.21 -151.24 1046.9 -139.94 1075.93 -135.66 1091.81 -128.33 1106.17 -121.91 1109.53 -120.08 1120.84 -109.69 1132.14 -101.44 1132.14 -88 1137.33 -89.53 1144.67 -81.58 1156.58 -85.55 1162.39 -77.31 1168.19 -79.6 1171.86 -90.29 1188.05 -98.69 1186.52 -110.61 1193.85 -118.86 1205.46"/>
    <polygon class="st5" points="-192.48 1098.23 -184.08 1103.27 -177.36 1114.42 -172.32 1128.32 -171.56 1135.81 -179.65 1142.68 -176.6 1144.21 -170.64 1140.39 -163.77 1142.53 -167.43 1126.03 -167.43 1121.14 -173.54 1113.2 -169.88 1109.84 -176.9 1099.45 -186.68 1095.48 -192.48 1098.23"/>
    <polygon class="st5" points="-139.94 1075.93 -126.19 1079.06 -122.45 1069.66 -109.16 1066.68 -86.93 1065.08 -79.6 1060.96 -63.56 1059.81 -56.53 1054.31 -42.25 1062.79 -27.81 1065.08 -23 1074.7 -17.27 1074.7 -14.75 1071.72 5.61 1070.12 12.74 1058.89 21.45 1058.44 29.93 1068.52 29.93 1080.2 28.1 1085.24 33.29 1092.73 29.32 1103.12 25.35 1103.12 20.31 1108.31 29.62 1111.06 33.29 1115.95 25.65 1129.39 25.65 1137.94 17.1 1143.44 7.32 1145.28 -9.18 1148.03 -15.59 1142.53 -21.4 1135.81 -33.01 1129.39 -49.5 1132.75 -54.39 1129.39 -57.75 1133.67 -55.92 1145.58 -67.22 1156.28 -74.25 1163.3 -77.31 1168.19 -85.55 1162.39 -81.58 1156.58 -89.53 1144.67 -88 1137.33 -101.44 1132.14 -109.69 1132.14 -120.08 1120.84 -121.91 1109.53 -128.33 1106.17 -135.66 1091.81 -139.94 1075.93"/>
    <polygon class="st5" points="-153.25 1043.84 -145.28 1038.27 -136.65 1032.31 -128.86 1032.31 -123.36 1039.88 -104.57 1039.88 -96.78 1036.21 -101.59 1022.92 -99.07 1013.75 -70.66 1009.86 -60.12 1002.76 -53.32 1004.59 -41.1 1002.76 -28.96 995.19 -23.69 1004.13 -21.17 1015.82 -18.88 1031.86 -18.88 1040.79 -8.34 1045.6 -12.54 1050.19 -27.81 1065.08 -42.25 1062.79 -56.53 1054.31 -63.56 1059.81 -79.6 1060.96 -86.93 1065.08 -109.16 1066.68 -122.45 1069.66 -126.19 1079.06 -139.94 1075.93 -151.24 1046.9 -153.25 1043.84"/>
    <polygon class="st5" points="-261.53 959.68 -256.95 971.14 -250.07 976.41 -251.22 980.76 -245.95 987.63 -237.01 1006.65 -234.49 1015.13 -223.95 1041.48 -213.26 1053.93 -210.2 1044.76 -208.68 1039.14 -204.09 1039.88 -203.48 1044.46 -206.23 1049.65 -200.12 1052.1 -197.68 1060.04 -191.57 1060.34 -179.65 1048.74 -173.54 1042.01 -167.74 1036.21 -162.54 1036.21 -162.54 1030.25 -160.71 1024.98 -171.02 1005.28 -160.71 989.01 -159.56 978.47 -153.25 972.05 -173.77 957.85 -184.08 934.47 -194.85 919.58 -202.41 913.62 -203.56 907.44 -219.14 910.41 -226.7 920.04 -233.12 927.83 -239.07 942.95 -254.2 950.97 -261.53 959.68"/>
    <polygon class="st3" points="-184.08 934.47 -174 936.54 -170.11 931.95 -166.67 937.91 -161.86 939.06 -157.96 936.77 -143.98 939.06 -131.84 937.22 -130.46 926.45 -126.34 928.06 -122.22 940.2 -116.95 943.87 -112.13 939.06 -106.86 947.76 -105.26 956.93 -100.68 963.8 -100.68 972.74 -95.87 977.55 -91.05 983.89 -82.12 978.93 -69.74 970.91 -63.1 958.76 -55.77 947.76 -41.79 938.83 -31.25 938.37 -28.5 942.26 -33.77 950.28 -36.29 964.26 -38.12 979.84 -34.92 987.63 -28.96 995.19 -41.1 1002.76 -53.32 1004.59 -60.12 1002.76 -70.66 1009.86 -99.07 1013.75 -101.59 1022.92 -96.78 1036.21 -104.57 1039.88 -123.36 1039.88 -128.86 1032.31 -136.65 1032.31 -145.28 1038.27 -153.25 1043.84 -158.27 1036.21 -162.54 1036.21 -162.54 1030.25 -160.71 1024.98 -171.02 1005.28 -160.71 989.01 -159.56 978.47 -153.25 972.05 -173.77 957.85 -184.08 934.47"/>
    <polygon class="st4" points="-112.13 939.06 -101.14 935.7 -89.53 922.56 -80.79 930.81 -84.03 917.37 -75.47 910.03 -62.34 910.03 -53.32 904.23 -36.98 898.73 -31.48 889.56 -34.53 864.82 -22.92 867.57 1.52 877.04 9.77 889.56 17.71 892.01 14.04 901.94 21.68 905.45 29.01 926.45 36.65 927.75 40.01 939.06 54.68 951.28 62.31 966.55 47.34 980.3 53.15 983.89 66.59 980.91 80.95 986.41 94.7 988.85 101.72 1004.74 105.77 1014.52 150.3 1016.96 165.27 1006.57 185.13 989.47 192.46 983.89 195.82 986.72 190.93 995.19 195.82 1001.69 190.02 1012.07 177.8 1021.54 177.8 1027.35 173.83 1039.88 152.74 1056.07 137.47 1060.34 121.28 1070.73 105.39 1064.93 109.06 1075.62 101.72 1088.45 89.81 1089.98 80.95 1096.7 76.06 1093.34 64.45 1092.73 58.65 1086.62 47.04 1090.28 33.29 1092.73 28.1 1085.24 29.93 1080.2 29.93 1068.52 21.45 1058.44 12.74 1058.89 5.61 1070.12 -14.75 1071.72 -17.27 1074.7 -23 1074.7 -27.81 1065.08 -12.54 1050.19 -8.34 1045.6 -18.88 1040.79 -18.88 1031.86 -21.17 1015.82 -23.69 1004.13 -28.96 995.19 -34.92 987.63 -38.12 979.84 -36.29 964.26 -33.77 950.28 -28.5 942.26 -31.25 938.37 -41.79 938.83 -55.77 947.76 -63.1 958.76 -69.74 970.91 -82.12 978.93 -91.05 983.89 -95.87 977.55 -100.68 972.74 -100.68 963.8 -105.26 956.93 -106.86 947.76 -112.13 939.06"/>
    <polygon class="st5" points="-261.53 959.68 -266.11 939.97 -274.06 932.95 -276.8 920.73 -299.41 902.7 -314.38 876.73 -320.49 859.93 -314.38 852.29 -304.61 848.93 -300.63 861.15 -304.61 868.48 -291.01 874.9 -285.05 879.48 -283.83 890.17 -273.44 883.15 -261.53 880.7 -244.42 888.65 -238 892.92 -232.51 887.73 -223.34 887.73 -219.37 877.04 -211.43 874.9 -219.06 859.01 -225.78 848.93 -208.98 848.93 -205.93 856.87 -200.73 861.15 -204.4 866.34 -200.73 875.51 -194.32 878.57 -194.32 885.29 -194.32 892.01 -189.12 901.48 -189.12 907.44 -184.08 910.95 -172.01 910.64 -161.32 919.81 -157.96 936.77 -161.86 939.06 -166.67 937.91 -170.11 931.95 -174 936.54 -184.08 934.47 -194.85 919.58 -202.41 913.62 -203.56 907.44 -219.14 910.41 -226.7 920.04 -233.12 927.83 -239.07 942.95 -254.2 950.97 -261.53 959.68"/>
    <polygon class="st3" points="-208.98 848.93 -213.87 841.29 -211.43 829.38 -205.62 823.27 -196.76 828.16 -188.21 823.27 -179.96 813.8 -181.79 797.91 -199.82 791.49 -209.29 777.75 -211.43 760.64 -205.62 756.67 -196.91 763.08 -189.12 766.14 -181.49 775 -162.85 773.77 -157.96 784.47 -153.25 792.72 -142.38 793.63 -135.96 786.61 -129.85 786.61 -123.13 795.47 -114.88 798.52 -106.29 795.16 -93.19 798.22 -85.25 805.85 -83.42 817.77 -84.94 830.6 -90.14 841.29 -95.94 841.9 -106.29 831.52 -116.72 840.38 -118.24 864.82 -109.08 892.92 -99.91 907.44 -100.22 916.14 -106.29 926.45 -112.13 939.06 -116.95 943.87 -122.22 940.2 -126.34 928.06 -130.46 926.45 -131.84 937.22 -143.98 939.06 -157.96 936.77 -161.32 919.81 -172.01 910.64 -184.08 910.95 -189.12 907.44 -189.12 901.48 -194.32 892.01 -194.32 885.29 -194.32 878.57 -200.73 875.51 -204.4 866.34 -200.73 861.15 -205.93 856.87 -208.98 848.93"/>
    <polygon class="st5" points="-320.49 859.93 -336.07 839.15 -352.88 825.71 -373.04 816.55 -364.79 799.44 -356.85 788.44 -338.82 784.16 -338.21 769.19 -330.58 771.02 -325.69 777.44 -323.24 785.38 -310.72 790.58 -296.05 793.33 -296.05 799.13 -300.33 800.66 -299.72 805.85 -308.58 812.27 -307.66 821.43 -300.94 832.74 -292.39 833.65 -299.72 844.04 -299.41 848.93 -304.61 848.93 -314.38 852.29 -320.49 859.93"/>
    <polygon class="st5" points="-373.04 816.55 -404.51 802.49 -407.26 790.88 -401.76 785.69 -395.34 788.13 -388.32 782.33 -391.68 767.05 -407.26 752.08 -407.26 743.22 -402.06 739.56 -416.42 719.7 -413.98 698.31 -401.15 684.87 -394.73 689.76 -379.15 690.68 -369.99 681.82 -368.46 692.81 -362.04 693.43 -367.85 702.59 -364.18 707.48 -355.93 705.65 -352.27 697.7 -345.55 695.56 -334.24 703.81 -327.21 707.17 -320.49 705.03 -311.33 711.14 -311.33 719.7 -306.75 727.34 -297.27 734.06 -306.44 743.53 -304.61 752.39 -301.25 758.5 -305.52 766.75 -308.58 776.52 -303.69 786.3 -310.72 790.58 -323.24 785.38 -325.69 777.44 -330.58 771.02 -338.21 769.19 -338.82 784.16 -356.85 788.44 -364.79 799.44 -373.04 816.55"/>
    <polygon class="st2" points="-401.15 684.87 -389.84 669.59 -382.21 661.96 -368.46 656.15 -358.99 644.85 -353.79 651.26 -353.79 664.86 -349.82 671.43 -353.18 679.07 -369.99 681.82 -379.15 690.68 -394.73 689.76 -401.15 684.87"/>
    <polygon class="st5" points="-297.27 734.06 -282.92 735.59 -278.94 719.7 -266.72 713.89 -261.53 727.03 -261.53 739.86 -262.75 749.18 -258.47 760.94 -263.36 771.02 -269.78 782.02 -258.47 800.05 -246.86 804.02 -244.73 812.27 -230.98 824.18 -227.01 834.57 -225.78 848.93 -219.06 859.01 -211.43 874.9 -219.37 877.04 -223.34 887.73 -232.51 887.73 -238 892.92 -244.42 888.65 -261.53 880.7 -273.44 883.15 -283.83 890.17 -285.05 879.48 -291.01 874.9 -304.61 868.48 -300.63 861.15 -304.61 848.93 -299.41 848.93 -299.72 844.04 -292.39 833.65 -300.94 832.74 -307.66 821.43 -308.58 812.27 -299.72 805.85 -300.33 800.66 -296.05 799.13 -296.05 793.33 -310.72 790.58 -303.69 786.3 -308.58 776.52 -305.52 766.75 -301.25 758.5 -304.61 752.39 -306.44 743.53 -297.27 734.06"/>
    <polygon class="st2" points="-266.72 713.89 -261.07 706.87 -265.2 696.79 -256.95 680.29 -256.95 672.96 -249.31 667.76 -249.31 648.82 -244.42 644.85 -239.23 652.79 -236.17 642.4 -224.56 626.21 -216.92 622.24 -213.87 636.29 -207.76 653.71 -207.76 665.93 -201.65 672.65 -202.87 686.09 -204.4 706.87 -213.87 723.67 -213.87 738.03 -211.43 745.67 -205.62 756.67 -211.43 760.64 -209.29 777.75 -199.82 791.49 -181.79 797.91 -179.96 813.8 -188.21 823.27 -196.76 828.16 -205.62 823.27 -211.43 829.38 -213.87 841.29 -208.98 848.93 -225.78 848.93 -227.01 834.57 -230.98 824.18 -244.73 812.27 -246.86 804.02 -258.47 800.05 -269.78 782.02 -263.36 771.02 -258.47 760.94 -262.75 749.18 -261.53 739.86 -261.53 727.03 -266.72 713.89"/>
    <polygon class="st2" points="-216.92 622.24 -164.07 602.99 -118.86 576.11 -92.58 544.34 -80.79 502.17 -68.75 502.17 -72.42 484.45 -83.42 472.23 -93.19 456.35 -77.31 460.01 -68.75 456.35 -51.64 464.9 -43.09 464.9 -38.2 471.62 -20.48 483.84 -13.76 508.9 22.29 527.23 30.23 539.29 30.23 551.67 47.95 555.94 54.06 571.83 48.57 580.39 62.62 591.38 98.06 588.94 120.05 584.66 129.83 574.28 148.77 584.66 168.94 580.39 176.88 576.72 202.54 593.22 222.1 604.22 186.05 659.82 187.88 664.71 200.71 667.76 206.82 665.32 215.99 674.48 228.21 690.68 220.87 695.26 206.21 687.31 180.55 686.09 171.99 698.31 142.05 703.2 117.61 703.2 93.17 722.75 65.06 740.47 58.95 769.19 45.51 795.47 50.4 814.56 41.84 822.96 28.4 828.46 11.29 848.93 18.62 864.82 1.52 877.04 -22.92 867.57 -34.53 864.82 -31.48 889.56 -36.98 898.73 -53.32 904.23 -62.34 910.03 -75.47 910.03 -84.03 917.37 -80.79 930.81 -89.53 922.56 -101.14 935.7 -112.13 939.06 -106.29 926.45 -100.22 916.14 -99.91 907.44 -109.08 892.92 -118.24 864.82 -116.72 840.38 -106.29 831.52 -95.94 841.9 -90.14 841.29 -84.94 830.6 -83.42 817.77 -85.25 805.85 -93.19 798.22 -106.29 795.16 -114.88 798.52 -123.13 795.47 -129.85 786.61 -135.96 786.61 -142.38 793.63 -153.25 792.72 -157.96 784.47 -162.85 773.77 -181.49 775 -189.12 766.14 -196.91 763.08 -205.62 756.67 -211.43 745.67 -213.87 738.03 -213.87 723.67 -204.4 706.87 -202.87 686.09 -201.65 672.65 -207.76 665.93 -207.76 653.71 -213.87 636.29 -216.92 622.24"/>
  </g>
  <g>
    <g>
      <path class="st6" d="M111.29,69.93c-.75-.8-1.67-1.43-2.75-1.87-1.09-.45-2.34-.67-3.75-.67-1.69,0-3.22.4-4.56,1.21-1.35.8-2.42,1.9-3.21,3.29-.79,1.39-1.19,2.98-1.19,4.76s.38,3.28,1.14,4.69c.76,1.41,1.84,2.54,3.23,3.37,1.39.84,3.03,1.26,4.92,1.26,1.22,0,2.34-.18,3.36-.54,1.02-.36,1.91-.86,2.66-1.52.6-.52,1.07-1.12,1.42-1.78.14-.27.03-.6-.24-.73l-3.02-1.43c-.23-.11-.5-.05-.65.16-.32.44-.73.8-1.22,1.08-.62.35-1.36.52-2.23.52-.96,0-1.77-.21-2.44-.64-.67-.42-1.17-1.02-1.5-1.78-.08-.2-.15-.4-.21-.61-.09-.33.17-.66.52-.66h11.41c.26,0,.47-.18.52-.43.03-.13.05-.28.06-.43.03-.34.05-.68.05-1.03,0-1.24-.2-2.39-.59-3.44-.39-1.05-.96-1.98-1.71-2.79M102.61,71.91c.61-.41,1.34-.62,2.18-.62s1.6.21,2.2.64c.6.42,1.02,1,1.26,1.73.01.04.02.08.04.12.1.34-.16.68-.51.68h-6.03c-.37,0-.63-.37-.5-.71,0,0,0,0,0,0,.3-.8.76-1.41,1.37-1.83"/>
      <path class="st6" d="M129.43,68.23c-1.01-.56-2.19-.85-3.54-.85-1.24,0-2.32.26-3.24.77-.31.17-.6.38-.85.62-.34.32-.89.06-.89-.4v-.06c0-.29-.24-.53-.53-.53h-3.5c-.29,0-.53.24-.53.53v16.73c0,.29.24.53.53.53h3.82c.29,0,.53-.24.53-.53v-9.87c0-.7.14-1.29.41-1.79.27-.5.66-.89,1.16-1.17.5-.28,1.06-.42,1.69-.42s1.22.14,1.71.42c.49.28.87.67,1.14,1.17.27.5.41,1.1.41,1.79v9.87c0,.29.24.53.53.53h3.83c.29,0,.53-.24.53-.53v-10.91c0-1.35-.28-2.53-.85-3.54-.57-1.01-1.35-1.8-2.36-2.36"/>
      <path class="st6" d="M140.93,71.69c.36-.26.85-.39,1.48-.39.87,0,1.65.22,2.33.67.53.35.94.78,1.21,1.31.13.25.44.36.7.24l2.67-1.25c.26-.12.38-.43.26-.69-.56-1.25-1.42-2.23-2.59-2.96-1.31-.82-2.84-1.22-4.58-1.22-1.33,0-2.5.23-3.52.7-1.02.47-1.81,1.11-2.38,1.94-.57.83-.85,1.79-.85,2.9,0,1.26.39,2.35,1.17,3.28.78.92,1.9,1.59,3.36,2l3.03.85c.39.11.72.24.98.39.26.15.46.32.59.51.13.19.2.41.2.67,0,.5-.19.89-.55,1.17-.37.28-.9.42-1.6.42-.96,0-1.83-.27-2.61-.81-.66-.46-1.2-1.06-1.63-1.81-.14-.24-.44-.35-.69-.23l-2.68,1.27c-.25.12-.37.42-.27.68.55,1.35,1.48,2.43,2.78,3.26,1.44.92,3.15,1.39,5.1,1.39,1.39,0,2.6-.23,3.62-.7,1.02-.47,1.82-1.11,2.4-1.94.58-.83.86-1.79.86-2.9,0-1.28-.39-2.36-1.17-3.24-.78-.88-1.91-1.54-3.39-1.97l-2.84-.85c-.43-.13-.8-.27-1.09-.42-.29-.15-.5-.33-.64-.52-.13-.2-.2-.41-.2-.65,0-.46.18-.81.54-1.08"/>
      <path class="st6" d="M166.44,68.59c-1.43-.8-3.03-1.21-4.79-1.21s-3.36.4-4.81,1.21c-1.45.8-2.6,1.9-3.46,3.29-.86,1.39-1.29,2.99-1.29,4.79s.43,3.37,1.29,4.78c.86,1.4,2.01,2.5,3.46,3.31,1.45.8,3.05,1.21,4.81,1.21s3.36-.4,4.79-1.21c1.43-.8,2.58-1.91,3.44-3.31.86-1.4,1.29-2.99,1.29-4.78s-.43-3.4-1.29-4.79c-.86-1.39-2-2.49-3.44-3.29M165.54,79.22c-.38.74-.9,1.31-1.56,1.73-.66.41-1.44.62-2.33.62s-1.67-.21-2.35-.62c-.67-.41-1.2-.99-1.58-1.73-.38-.74-.57-1.59-.57-2.54s.19-1.8.57-2.53c.38-.73.91-1.3,1.58-1.73.67-.42,1.46-.64,2.35-.64s1.67.21,2.33.64c.66.42,1.18,1,1.56,1.73.38.73.57,1.57.57,2.53s-.19,1.8-.57,2.54"/>
      <path class="st6" d="M183.16,75.21l-2.84-.85c-.43-.13-.8-.27-1.09-.42-.29-.15-.51-.33-.64-.52-.13-.2-.2-.41-.2-.65,0-.46.18-.81.54-1.08.36-.26.85-.39,1.48-.39.87,0,1.65.22,2.33.67.53.35.94.78,1.21,1.31.13.25.44.36.7.24l2.67-1.25c.26-.12.38-.43.26-.69-.56-1.25-1.42-2.23-2.59-2.96-1.31-.82-2.84-1.22-4.58-1.22-1.33,0-2.5.23-3.52.7-1.02.47-1.81,1.11-2.38,1.94-.57.83-.85,1.79-.85,2.9,0,1.26.39,2.35,1.17,3.28.78.92,1.9,1.59,3.36,2l3.03.85c.39.11.72.24.98.39.26.15.46.32.59.51.13.19.2.41.2.67,0,.5-.19.89-.55,1.17-.37.28-.9.42-1.6.42-.96,0-1.83-.27-2.61-.81-.66-.46-1.2-1.06-1.63-1.81-.14-.24-.44-.35-.69-.23l-2.68,1.27c-.25.12-.37.42-.27.68.55,1.35,1.48,2.43,2.78,3.26,1.45.92,3.15,1.39,5.1,1.39,1.39,0,2.6-.23,3.62-.7,1.02-.47,1.82-1.11,2.4-1.94.58-.83.86-1.79.86-2.9,0-1.28-.39-2.36-1.17-3.24-.78-.88-1.91-1.54-3.39-1.97"/>
      <path class="st6" d="M93.44,79.01l-2.94-1.38c-.39-.18-.86,0-1.04.38-.44.93-1.1,1.72-1.98,2.36-1.01.74-2.26,1.12-3.71,1.12s-2.71-.34-3.81-1.01c-1.09-.67-1.95-1.62-2.55-2.82-.61-1.2-.91-2.63-.91-4.24s.31-3.03.91-4.22c.6-1.18,1.46-2.13,2.55-2.8,1.09-.67,2.37-1.01,3.81-1.01s2.69.38,3.71,1.12c.87.64,1.54,1.43,1.98,2.36.19.39.65.57,1.04.38l2.94-1.38c.38-.18.56-.63.39-1.02-.42-.97-1.05-1.88-1.87-2.71-.96-.97-2.14-1.75-3.51-2.34-1.38-.58-2.95-.88-4.68-.88s-3.35.31-4.82.93c-1.47.62-2.77,1.49-3.86,2.61-1.09,1.12-1.95,2.45-2.54,3.98-.59,1.52-.89,3.2-.89,4.99s.31,3.46.91,4.97c.6,1.51,1.47,2.85,2.56,3.97,1.09,1.12,2.39,2.01,3.85,2.64,1.46.63,3.08.95,4.81.95s3.3-.3,4.68-.88c1.37-.58,2.56-1.37,3.51-2.34.82-.83,1.45-1.74,1.87-2.71.17-.38,0-.84-.39-1.02"/>
      <path class="st6" d="M141.59,103.19v3.28h-13.17v-2.61l6.72-6.35c.71-.68,1.2-1.27,1.44-1.75.25-.49.37-.97.37-1.46,0-.7-.24-1.23-.71-1.61-.47-.37-1.17-.56-2.08-.56-.76,0-1.45.15-2.07.44-.61.29-1.13.73-1.54,1.31l-2.94-1.89c.68-1.01,1.62-1.8,2.81-2.38,1.19-.57,2.56-.86,4.11-.86,1.29,0,2.43.21,3.4.63.97.42,1.73,1.02,2.26,1.79.54.77.81,1.68.81,2.73,0,.95-.2,1.83-.6,2.66-.4.83-1.17,1.78-2.31,2.84l-4.01,3.78h7.49Z"/>
      <path class="st6" d="M146.81,105.7c-1.13-.71-2.01-1.75-2.65-3.1-.64-1.35-.96-2.97-.96-4.84s.32-3.49.96-4.84c.64-1.35,1.52-2.39,2.65-3.1,1.13-.71,2.41-1.07,3.86-1.07s2.73.36,3.86,1.07c1.13.71,2.01,1.75,2.65,3.1.64,1.35.96,2.97.96,4.84s-.32,3.49-.96,4.84c-.64,1.35-1.52,2.38-2.65,3.1-1.13.71-2.41,1.07-3.86,1.07s-2.73-.36-3.86-1.07M153.17,102c.61-.91.91-2.32.91-4.23s-.3-3.32-.91-4.23c-.61-.91-1.44-1.37-2.5-1.37s-1.87.46-2.48,1.37c-.61.91-.91,2.32-.91,4.23s.3,3.32.91,4.23c.61.91,1.43,1.37,2.48,1.37s1.9-.46,2.5-1.37"/>
      <path class="st6" d="M172.97,103.19v3.28h-13.17v-2.61l6.72-6.35c.71-.68,1.2-1.27,1.44-1.75.25-.49.37-.97.37-1.46,0-.7-.24-1.23-.71-1.61-.47-.37-1.17-.56-2.08-.56-.76,0-1.45.15-2.07.44-.61.29-1.13.73-1.54,1.31l-2.94-1.89c.68-1.01,1.62-1.8,2.81-2.38,1.19-.57,2.56-.86,4.11-.86,1.29,0,2.43.21,3.4.63.97.42,1.73,1.02,2.26,1.79.54.77.81,1.68.81,2.73,0,.95-.2,1.83-.6,2.66-.4.83-1.17,1.78-2.32,2.84l-4.01,3.78h7.49Z"/>
      <path class="st6" d="M186.05,97.07c1.17.98,1.75,2.29,1.75,3.93,0,1.06-.27,2.03-.8,2.9-.53.87-1.34,1.57-2.43,2.09-1.09.52-2.43.78-4.02.78-1.23,0-2.43-.16-3.62-.48-1.19-.32-2.2-.78-3.02-1.38l1.59-3.09c.66.5,1.43.88,2.29,1.16.86.27,1.75.41,2.66.41,1.01,0,1.81-.2,2.39-.6.58-.4.87-.95.87-1.67s-.3-1.31-.91-1.69c-.61-.38-1.66-.57-3.15-.57h-4.46l.9-9.81h10.63v3.24h-7.27l-.27,3.31h1.42c2.45,0,4.27.49,5.44,1.47"/>
      <path class="st6" d="M60.22,66.33c-.5-.25-1.12-.41-1.79-.41s-1.29.15-1.79.41c-.73.37-1.21.96-1.21,1.63s.48,1.26,1.21,1.63c.5.25,1.12.41,1.79.41s1.29-.15,1.79-.41c.73-.37,1.21-.96,1.21-1.63s-.48-1.26-1.21-1.63"/>
      <path class="st6" d="M36.24,79.98c-.64,0-1.25-.1-1.79-.28v5.61c0,.99.8,1.79,1.79,1.79s1.79-.8,1.79-1.79v-5.61c-.55.18-1.15.28-1.79.28"/>
      <path class="st6" d="M41.84,83.84v14.55c0,.99.8,1.79,1.79,1.79s1.79-.8,1.79-1.79v-14.55c-.55.18-1.15.28-1.79.28s-1.25-.1-1.79-.28"/>
      <path class="st6" d="M51.03,88.25c-.65-.02-1.25-.15-1.79-.35v13.43c0,.99.8,1.79,1.79,1.79s1.79-.8,1.79-1.79v-13.28c-.49.14-1.02.21-1.57.21-.07,0-.15,0-.22,0"/>
      <path class="st6" d="M56.64,71.29v28.03c0,.99.8,1.79,1.79,1.79s1.79-.8,1.79-1.79v-28.03c-.55.18-1.15.28-1.79.28s-1.25-.1-1.79-.28"/>
      <path class="st6" d="M65.83,83.24c-.64,0-1.25-.1-1.79-.28v6.93c0,.99.8,1.79,1.79,1.79s1.79-.8,1.79-1.79v-6.93c-.55.18-1.15.28-1.79.28"/>
      <path class="st6" d="M52.83,82.92c-.46-.19-1-.3-1.57-.3-.07,0-.15,0-.22,0-.69.03-1.31.22-1.79.52-.61.37-.99.91-.99,1.51s.38,1.13.99,1.51c.48.3,1.11.49,1.79.52.07,0,.15,0,.22,0,.58,0,1.12-.11,1.57-.3.86-.36,1.43-1,1.43-1.73s-.57-1.37-1.43-1.73"/>
      <path class="st6" d="M67.62,78.01c-.5-.25-1.12-.41-1.79-.41s-1.29.15-1.79.41c-.73.37-1.21.96-1.21,1.63s.48,1.26,1.21,1.63c.5.25,1.12.41,1.79.41s1.29-.15,1.79-.41c.73-.37,1.21-.96,1.21-1.63s-.48-1.26-1.21-1.63"/>
      <path class="st6" d="M45.43,78.88c-.5-.25-1.12-.41-1.79-.41s-1.29.15-1.79.41c-.73.37-1.21.96-1.21,1.63s.48,1.26,1.21,1.63c.5.25,1.12.41,1.79.41s1.29-.15,1.79-.41c.73-.37,1.21-.96,1.21-1.63s-.48-1.26-1.21-1.63"/>
      <path class="st6" d="M38.03,74.74c-.5-.25-1.12-.41-1.79-.41s-1.29.15-1.79.41c-.73.37-1.21.96-1.21,1.63s.48,1.26,1.21,1.63c.5.25,1.12.41,1.79.41s1.29-.15,1.79-.41c.73-.37,1.21-.96,1.21-1.63s-.48-1.26-1.21-1.63"/>
      <path class="st6" d="M45.43,77.18v-12.08h-3.59v12.08c.55-.18,1.15-.28,1.79-.28s1.25.1,1.79.28"/>
      <path class="st6" d="M51.25,81.04c.56,0,1.08.07,1.57.21v-16.84h-3.59v16.99c.54-.21,1.15-.33,1.79-.35.07,0,.15,0,.22,0"/>
      <path class="st6" d="M60.22,64.63v-6.93l-3.59,3.59v3.34c.55-.18,1.15-.28,1.79-.28s1.25.1,1.79.28"/>
      <path class="st6" d="M65.83,76.03c.64,0,1.25.1,1.79.28v-26l-3.59,3.59v22.41c.55-.18,1.15-.28,1.79-.28"/>
      <path class="st6" d="M36.24,72.77c.64,0,1.25.1,1.79.28v-6.96c0-.28-3.59,4.49-3.59,4.49v2.47c.55-.18,1.15-.28,1.79-.28"/>
      <path class="st6" d="M81.34,53.54l-2.67-.19-9.3-9.86-18.15,18.15h-13.74l-9.95,11.42c-.65.75-.57,1.88.17,2.53.34.3.76.44,1.18.44.5,0,1-.21,1.35-.62l8.88-10.19,13.72-.13,3.81-3.81,10.98-10.98,1.87-1.87,8.05,7.27,3.77-.15c.54-.02.97-.47.97-1.01s-.41-.97-.94-1.01"/>
    </g>
    <rect class="st0" x="18.83" y="34.84" width="177.08" height="80.32"/>
  </g>
</svg>