<?xml version="1.0" encoding="UTF-8"?>
<svg id="Capa_1" xmlns="http://www.w3.org/2000/svg" version="1.1" viewBox="0 0 150 150">
  <!-- Generator: Adobe Illustrator 30.2.1, SVG Export Plug-In . SVG Version: 2.1.1 Build 1)  -->
  <defs>
    <style>
      .st0 {
        fill: none;
      }

      .st1 {
        fill: #038dd3;
      }

      .st2 {
        fill: #caeae4;
      }

      .st2, .st3, .st4, .st5, .st6 {
        stroke-miterlimit: 10;
      }

      .st2, .st4, .st5, .st6 {
        stroke: #fff;
        stroke-width: 2.25px;
      }

      .st3 {
        stroke: #31579e;
      }

      .st3, .st7 {
        fill: #31579e;
      }

      .st8 {
        fill: #fff;
      }

      .st4 {
        fill: #8383fd;
      }

      .st5 {
        fill: #0056a1;
      }

      .st6 {
        fill: #74c3b5;
      }
    </style>
  </defs>
  <g id="siFJ2E">
    <path class="st7" d="M-893.49-65.11c-.79.52-1.57.58-2.52.58h-67.58c-1.56,0-3.01-1.01-3.01-2.65l-.03-29.98-31.5-.02c-1.59,0-2.63-1.21-2.79-2.73l.07-34.14c.02-9.98,4.53-19.44,11.7-26.19-7.22-10.96-6.21-25.38,2.37-35.23,8.46-9.71,22.43-12.77,34.29-7.27,11.42,5.3,18.36,17.56,16.59,30.39,3.62-.63,7.14-.64,10.73,0-1.74-12.64,4.96-24.73,16.1-30.16,11.62-5.66,25.48-2.98,34.15,6.34,8.81,9.47,10.33,23.61,3.74,34.79,7.68,6.67,12.84,16.14,12.88,26.38l.14,35.34c-.31,1.59-1.47,2.51-3.07,2.51h-31.21s0,29.62,0,29.62c0,.98-.34,1.79-1.06,2.43ZM-951.36-164.09c0-.48.36-.41.57-.6,2.59-2.39,5.49-4.42,8.78-5.78,2.25-8.76-.76-17.9-7.53-23.69-9.66-8.26-23.96-7.3-32.5,1.94-8.97,9.7-8.2,24.83,1.81,33.61,6.06,5.31,14.52,7.21,22.37,4.78,1.44-3.85,3.62-7.32,6.5-10.25ZM-903.16-153.82c8.18,2.48,16.82.37,22.89-5.27,9.18-8.54,10.06-22.65,2.07-32.23-7.37-8.84-20.07-11.12-30.03-5.19-8.93,5.33-13.42,15.89-10.79,26.03,7.36,3.13,13.05,9.14,15.86,16.66ZM-911.24-130.27c6.42-9.17,5.39-21.49-2.17-29.5-9.26-9.81-24.68-9.89-34.02-.2-8.38,8.68-8.87,22.37-.87,31.62,4.82,5.57,11.93,8.63,19.43,8.12,6.95-.47,13.53-4.17,17.63-10.04ZM-892.49-102.84h28.66s0-30.5,0-30.5c0-8.32-3.39-16.26-9.26-22.05-.53-.44-.84-1-1.5-1.36-6.84,7.55-17,10.97-27.02,9.12.87,6.64-.45,13.16-3.84,18.87,5.11,4.33,8.87,9.93,11.03,16.19,1.09,3.22,1.66,6.25,1.94,9.73ZM-956.93-125.52l2.01-2.16c-3.86-5.91-5.42-12.84-4.52-19.94-8.09,1.44-16.14-.42-22.65-5.19-1.22-.92-2.31-1.9-3.49-2.98-5.99,5.72-9.45,13.52-9.65,21.85v31.09s28.67,0,28.67,0c.55-8.27,3.77-15.99,9.13-22.15.17-.19.12-.49.5-.52ZM-960.96-70.23h62.87s-.05-31.22-.05-31.22c-.02-8.79-4.14-16.91-10.66-22.73-11.25,12.45-30.67,12.94-42.48.97-5.8,5.65-9.58,13.19-9.6,21.38l-.07,31.59Z"/>
  </g>
  <g>
    <path class="st7" d="M-471.46-109.19v5.3l-1.36,3.63c-2.37,5.72-7.68,9.2-13.87,9.2h-12.49c.17,4.68-.32,9.12.17,13.68.33,3.09.7,6.09-1.13,8.86-.92,1.9-2.96,3.1-5.13,3.1h-8.32c-2.29.01-4.45-1.18-5.36-3.23-1.81-2.75-1.34-5.72-1.01-8.76.5-4.52-.03-8.95.19-13.68l-12.72-.03c-5.04-.01-9.47-2.23-12.28-6.45-3-4.66-4.04-10.88-1.07-15.81l11.71-19.37v-17.58c0-9.54,7.24-17.65,16.91-17.87,5.29-.12,10.28-.15,15.58.01,9.44.29,16.7,8.18,16.71,17.51l.03,17.99,12.23,19.63c.74,1.19.29,2.89,1.2,3.85Z"/>
    <path class="st7" d="M-508.72-204.6c9.02.12,15.51,8.09,15.13,16.46-.4,8.83-7.82,15.54-16.53,15.19-8.74-.35-15.82-7.81-15.19-16.8.6-8.62,7.69-14.97,16.6-14.86Z"/>
  </g>
  <g>
    <path class="st7" d="M-717.4-205.59c8.16,1.69,14.06,8.4,13.68,16.68-.39,8.38-7.14,14.87-15.25,15.19-8.49.33-15.62-6-16.47-14.26-.85-8.26,4.75-15.76,13.01-17.3.24-.05.34-.23.39-.31h4.64Z"/>
    <path class="st7" d="M-708.77-64.43l-21.4.02c-6.15-.84-9.79-5.57-9.78-11.59l.03-33.41c-5.28-1.84-9.75-6.31-9.78-12.08l-.15-29.22c1.76-10.14,9.93-16.91,20.06-16.88l21.67.06c10.45.03,18.68,8.56,18.92,18.96l-.04,25.52c-.01,6.28-4.13,11.54-10.14,13.48v34.23c-.01,5.59-3.7,9.8-9.38,10.9Z"/>
  </g>
  <g id="ppDZWZ">
    <path class="st7" d="M-523.51,128.23c-.01,2.62-2.31,4.43-4.75,4.43l-15.83-.02c-2.51,0-4.58-2.08-4.59-4.57l-.07-18.58c-1.58-.2-2.9-.03-4.35-.09-1.08-.04-2.12-.94-2.04-2.19l1.3-20.04c-1.85,1.62-1.92,4.21-4.45,5.25-.1.8.37,1.37.37,2.18v36.1c0,1.24-1.12,1.94-2.13,1.97s-2.19-.82-2.19-2.1l-.04-35.38c0-1.66-1.34-2.87-2.81-2.99-1.54-.13-2.99.96-3.29,2.61-.21,1.15.03,2.33-.1,3.51-.14,1.21-1.02,1.75-2.13,1.78-.98.03-2.01-.63-2.08-1.78-.25-3.85-.22-6.89,3.35-9.31-1.19-1.71-1-3.5.13-5.11,2.77-3.93,4.45-8.32,6.01-12.86l2.97-8.65c1.88-5.48,6.49-8.85,11.62-11.31l-.89-3.58c-4.61-1.8-6.82-6.87-5.21-11.44,1.6-4.56,6.54-7.04,11.36-5.51,1.83-2.36,4.44-3.61,7.27-3.62,2.8,0,5.45,1.24,7.34,3.62,4.75-1.49,9.65.91,11.32,5.46,1.66,4.53-.57,9.69-5.23,11.51-.27,1.22-.41,2.26-.94,3.56,4.25,2.18,7.8,5.07,10.58,9.36.84-4.78.26-6.98,3.05-11.03,2.44-3.53,5.98-5.83,10.34-6.75-.4-2-.74-3.89-.63-5.98l-3.5-.1c-1.13-.03-1.84-1.23-1.78-2.21.18-2.78,3.48-1.91,5.22-2.21l.11-5.91c.08-4.68,4.1-8.58,8.88-8.82,3.1-.16,6.03-.13,9.12,0,4.89.2,8.87,4.15,8.94,8.94l.09,5.81c1.81.34,4.79-.62,5.21,1.99.17,1.07-.54,2.4-1.77,2.43l-3.48.1c.02,2.02-.01,3.86-.68,5.93,2.55.73,4.94,1.68,6.85,3.5,1.75,1.67,3.1,3.47,3.92,5.8l11.87,33.55c.3.86,0,1.66-.01,2.65,3.17,1.2,5.16,4.07,4.98,7.47-.05.93.09,1.82-.04,2.74-.15,1.07-1.14,1.7-2.09,1.72s-2.08-.66-2.11-1.72l-.08-3.35c-.04-1.65-1.58-2.9-3.13-2.84s-3.02,1.34-3.02,3.05v35.08c0,1.27-.77,2.16-1.87,2.3-1.04.13-2.46-.54-2.46-1.87l-.05-35.95c-2.52.44-4.6-.79-5.52-2.97-1.49-3.53-2.36-7.18-4.23-10.75l3.5,46.71c.17,2.26-.94,4.56-3.41,4.77-3.37.28-6.7.08-10.15.1-1.93,0-3.83-1.45-3.97-3.5l-1.52-22.42-.3-2.62-.3,3.11-1.34,21.23c-.16,2.53-1.89,4.23-4.41,4.23l-8.67.02c-2.62,0-4.71-1.69-4.6-4.48l2.39-31.46-14.03-.12.69,10.24c.2,1.38-.72,2.51-2.09,2.57l-4.3.09-.1,18.75ZM-477.57,32.25v-4.97c0-3.08-2.36-5.57-5.48-5.6-2.7-.03-5.24-.11-7.97.06-2.46.16-4.64,2.34-4.83,4.81-.14,1.93-.04,3.66,0,5.7h18.28ZM-531.33,39.61c.62.22.89.71,1.2,1.38,1.18,2.54,4.14,3.48,6.42,2.22,2.42-1.33,3.19-4.35,1.73-6.57-1.5-2.28-4.37-2.82-6.64-1.28-.6.41-1.41.27-2.1.05-1.18-.38-1.24-3.38-4.39-4.01-4.44-.88-5.09,3.56-6.32,4.02-.78.29-1.55.3-2.22-.15-2.31-1.55-5.34-.72-6.67,1.66-1.29,2.31-.33,5.27,2.17,6.41,2.32,1.06,5.19.07,6.21-2.46.47-1.18,1.9-1.9,3.1-1.16,4.06,2.5,5.06-.99,7.53-.11ZM-479.91,44.29c1.79-1.92,2.7-4.7,2.25-7.65h-18.16c-.4,3.04.48,5.95,2.58,7.94,4.06,3.85,9.84,3.47,13.33-.28ZM-527.4,48.09c-2.31-.56-4.4-1.84-5.79-3.53-1.78.43-3.99.4-5.72.04-1.69,1.66-3.43,3.09-5.99,3.42,1.24,5.76,7.17,8.68,12.32,6.56,2.32-.96,5.08-3.59,5.19-6.49ZM-497.38,72.65h21.4s-.57-7.94-.57-7.94c-.08-1.05.71-1.97,1.56-2.16s2.14.03,2.52,1.05l10.03,26.99,7.03-3.77-11.47-32.49c-1.3-4.28-4.94-7.27-9.36-7.55-5.57,6.5-15.44,6.44-21.02,0-3.02.16-5.66,1.47-7.76,3.58-1.81,1.85-3.06,4.19-3.2,6.86-.23,4.27-1.17,8.44-1.08,12.76.09,4.24.59,8.22-.11,12.5-.54,3.3-1.14,6.45-2.04,9.78l8.08.03,2.1-27.65c.07-1.43,1.16-2.27,2.4-2.17,1.34.11,2.04,1.26,1.95,2.63-.18,2.55-.54,5.01-.48,7.53ZM-522.19,96.61c-1.47-.04-2.58-.45-3.24-1.3-.64-.82-1.11-2.1-.81-3.19,2.27-8.39,3.14-15.41-.21-23.72-.44-1.09.24-2.27,1.13-2.62.99-.38,2.33-.19,2.8.85,3.55,7.95,3.08,17.29.77,25.62h5.73c4.19-14.01,5.23-30-9.81-37.35-5.52,6.4-15.12,6.22-20.51-.02-5.32,2.57-8.46,4.83-10.37,10.51l-3.3,9.83c-1.33,3.95-3.14,7.47-5.39,11.02l5.62,1.87c2.36-3.66,4.31-7.42,5.98-11.44l3.97-9.59c.51-1.23,1.62-1.75,2.88-1.37,1.16.35,1.61,1.63,1.26,2.9l-3.22,7.8-1.7,28.62h29.13s-.68-8.42-.68-8.42ZM-482.68,96.99l2.01,31.28h8.95s-3.88-51.19-3.88-51.19h-20.55c-.64,0-1.17-.33-1.69.31l-3.85,50.87h8.96s1.97-31.13,1.97-31.13c.14-2.22,1.8-3.6,3.92-3.63,2.04-.03,4.03,1.14,4.18,3.49ZM-538.21,128.23v-18.78s-6.14,0-6.14,0l.03,18.78c2.12.12,4.01.17,6.11,0ZM-527.79,127.44l-.02-17.96c-2.14-.13-4.03-.11-6.1-.02v18.81c1.85.13,3.55.03,5.36.06.45,0,.77-.29.77-.89Z"/>
  </g>
  <g id="BoYXXD.tif">
    <g>
      <path class="st7" d="M-227.27-110.4v13.18l-2.11,3.53c-.63,3.89.08,7.81-.31,11.72-.08.8-.8,1.19-1.13,1.74h-1.75c-.38-.56-1.23-.96-1.24-1.81l-.11-10.07h-7.31s-.11,10.07-.11,10.07c0,.85-.86,1.25-1.24,1.81h-1.74c-.25-.55-1.16-.94-1.17-1.75l-.05-19.12c0-1.31.91-2.2,2.04-2.25,3.34-.15,1.81,4.68,2.31,6.92,2.48.11,4.75.05,7.17.04,1.38,0,2.5-1.15,2.5-2.5l.02-8.98c0-3.47-2.19-6.39-5.52-7.28l-5.61-1.51c-3.38,9.22-12.08,15.34-21.76,15.36-9.71.03-18.48-6-21.88-15.34l-5.53,1.46c-3.1.82-5.56,3.43-5.57,6.73l-.02,9.61c0,1.28,1.07,2.39,2.36,2.43,2.51.06,4.87.08,7.37-.02l.03-4.68c0-1.29.86-2.19,2.07-2.24,1.02-.04,2.16.75,2.16,2.04v19.22c-.01.88-.91,1.28-1.25,1.86h-1.75c-.28-.55-1.16-.92-1.16-1.72l-.09-10.15h-7.38s-.1,10.15-.1,10.15c0,.79-.88,1.17-1.16,1.72h-1.75c-.37-.57-1.22-.97-1.23-1.83l-.07-11.73c-1.51-1.45-2.32-3.25-2.31-5.33v-9.05c.02-5.32,3.6-9.72,8.68-11.11,2.44-.67,4.71-1.15,7.19-2.06-3.31-1.92-9.77-2.85-7.97-8.23.94-2.83,1.45-5.72,1.45-8.77l.02-21.38c.01-15.51,12.71-27.79,27.92-27.75,15.28.04,27.76,12.51,27.75,28.02v20.83c0,3.28.57,6.31,1.53,9.37.68,2.15-.38,4.36-2.32,5.26l-5.7,2.65c2.41.88,4.54,1.39,6.83,1.97,4.26,1.08,7.56,4.12,8.64,8.44.07.26.22.43.36.53ZM-250.11-164.07c1.17.19,1.74,1.13,1.8,2.08.24,3.68,4.35,2.06,7.43,2.92.33-13.47-10.61-24.25-23.76-24.15-12.92.1-23.71,10.81-23.38,24.17,2.84-.88,7.34.76,7.43-2.98.09-3.83,3.38-6.57,7.19-5.93l23.3,3.89ZM-247.85-148.03c.01-1.38,1.17-2.06,2.2-2.06h2.01c1.72,0,2.87-1.26,2.75-2.79s-1.68-2.49-3.31-2.33c-3.69.37-6.97-1.29-8.13-4.95l-22.05-3.65c-.98-.16-1.93.74-1.94,1.67-.06,3.97-3.12,7.03-7.13,6.94-.83-.02-1.67-.07-2.5.11-1.37.31-2.21,1.47-2.05,2.76.14,1.09,1.04,2.18,2.33,2.2l2.54.04c1.22.02,2.09.92,2.1,2.19.08,9.18,7.6,16.52,16.63,16.48,9-.03,16.46-7.29,16.55-16.62ZM-276.03-130.69c-5.12-3.47-8.4-8.81-9.11-14.98-.95-.31-1.73-.32-2.86-.57l-.03,6.23c-.02,4.18-.43,8.08-1.77,12.13,4.05,1.93,7.98,3.6,12.28,4.26,2.17.34,1.61-5.92,1.5-7.08ZM-251.15-123.6c4.35-.85,8.18-2.36,12.07-4.3-1.17-3.39-1.74-6.74-1.77-10.31l-.08-8.03-2.81.57c-.75,6.19-4.01,11.52-9.18,15.01.03,1.16-.79,7.55,1.78,7.05ZM-246.81-117.74l-5.5-1.58c-3.16-.95-5.11-3.84-4.92-7.15.03-.59.12-1.13-.25-1.89-4.55,1.58-9.27,1.6-13.86.02-.44.19-.39,1.11-.35,1.56.31,3.62-1.79,6.66-5.23,7.57-1.73.46-3.39.83-5.21,1.49,2.87,7.48,10.01,12.23,17.77,12.19,7.66-.04,14.82-4.81,17.55-12.21Z"/>
      <path class="st7" d="M-312.64-80.22h-1.75c-.89-.77-1.28-1.53-1.28-2.85v-41.17c-2-.63-3.64-1.11-5.5-1.47l-10.1,10.33c-1.91,1.95-4.78,1.84-6.64-.07l-10.07-10.3-5.49,1.53-.04,42.23c0,.86-.97,1.2-1.18,1.77h-1.74c-.64-.67-1.3-1.17-1.3-2.31v-40.43c-1.73.17-3.04.67-4.55,1.1-2.98.84-5.2,3.53-5.21,6.76l-.05,32.9c0,.98-.83,1.37-1.24,1.98h-1.73c-.33-.61-1.3-1.01-1.29-1.98l.23-34.32c.03-4.49,3.91-8.23,7.86-9.32l15.77-4.37c1.09-.3,1.89-1.3,1.88-2.47-.03-2.45.11-4.76-.08-7.15-5.23-3.52-8.43-8.9-9.19-15.15-3.54.02-6.24-2.27-6.92-5.32-.74-3.31.97-6.45,4.1-7.8.49-.21.46-.98.42-1.56-.62-9.65,6.06-18.56,16.06-19.72,4.56-.53,9.46-.5,14.05,0,10.02,1.08,16.81,10.06,16.16,19.73-.05.69-.03,1.1.33,1.55,3.17,1.25,4.89,4.51,4.22,7.7-.68,3.22-3.47,5.47-6.97,5.45-.68,6.34-4.04,11.63-9.18,15.2l-.06,6.83c-.01,1.33.71,2.42,2,2.78l15.05,4.1c2.05.56,6.84,2.63,4.92,5.23-1.67,2.26-3.5-.46-5.86-1.08l-4.42-1.17-.02,40.87c0,.99-.83,1.37-1.22,2ZM-315.45-159.27c.95.02,1.84.11,2.65-.12,1.45-.41,2.08-1.91,1.67-3.2-.37-1.16-1.65-1.95-3.05-1.78-5.64.67-10.79-3.15-10.81-8.92l-.04-11.11c-1.43-.73-3.05-.94-4.69-.94h-9.59c-1.63-.01-3.25.24-4.79.86l-.17,12.03c-.08,5.36-5.38,8.64-10.55,8.09-1.72-.19-3.14.76-3.31,2.23-.19,1.63,1,2.91,2.73,2.9.75,0,1.47-.03,2.17.01,1.29.08,2.05,1.01,2.07,2.3.13,9.11,7.61,16.35,16.52,16.37,9.01.02,16.48-7.2,16.62-16.36.02-1.45.97-2.37,2.56-2.34ZM-315.78-168.64c.64-5.08-.97-10-4.9-13.28l-.1,8.08c-.03,2.85,2.01,5.3,5,5.2ZM-348.4-173.57c-.03-2.69.19-5.24-.15-8.13-4.08,3.16-5.44,8.3-4.8,13.12,2.95-.07,4.98-2.29,4.95-4.98ZM-325.24-127.66c-3.15-3.59-1.73-5.72-2.2-9.92-4.75,1.65-9.48,1.68-14.23,0-.56,4.16.91,6.43-2.26,9.9l9.32,9.52,9.38-9.5Z"/>
      <path class="st7" d="M-267.17-143.22c4.44,2.23,6.62-2.13,8.36.69.58.95.39,2.32-.73,2.94-3.11,1.71-6.83,1.71-9.92-.07-1.06-.61-1.21-1.99-.6-2.93s1.8-1.18,2.89-.63Z"/>
      <path class="st7" d="M-255.33-150.3c-.06,1.31-1,2.04-2,2.09-1.12.05-2.12-.73-2.21-1.98-.06-.84-.04-1.65,0-2.5.05-1.18.96-1.99,1.99-2.05,1.14-.06,2.16.77,2.22,2.04.03.76.05,1.51,0,2.4Z"/>
      <path class="st7" d="M-269.34-150.56c.01,1.45-.91,2.32-2.08,2.35-1.11.03-2.08-.77-2.15-2.06-.1-1.83-.29-4.28,1.92-4.47,1.04-.09,2.08.56,2.25,1.75.11.75.05,1.5.06,2.42Z"/>
      <path class="st7" d="M-337.5-152.44c4.85,2.32,6.85-2.07,8.57.75.51.84.45,2.23-.56,2.83-3.12,1.85-6.95,1.85-10.09.06-1-.57-1.16-1.82-.78-2.64.49-1.06,1.75-1.53,2.86-1Z"/>
      <path class="st7" d="M-339.1-159.42c-.93.9-1.06,2.05-2.34,2.1-1.48.06-1.74-1.05-2.56-2.06-.68-.83-2.13-.89-2.04-2.26.08-1.21.75-2.27,2.24-2.27h4.51c1.35,0,2.02,1,2.17,2.01.2,1.45-1.09,1.64-1.96,2.48Z"/>
      <path class="st7" d="M-325.05-159.46c-.96.76-.96,2.08-2.29,2.13-1.5.06-1.78-.98-2.61-2.06-.63-.81-2.19-.88-2.07-2.31.1-1.21.82-2.23,2.33-2.23h4.23c1.32,0,2.13.75,2.34,1.8.3,1.47-.9,1.85-1.92,2.66Z"/>
      <path class="st7" d="M-332.17-176.06l-4.57.03c-1.28,0-2.19-.87-2.26-1.93-.1-1.29.85-2.31,2.23-2.31h4.54c1.23.02,2.06.95,2.1,2.05.03,1.02-.7,2.15-2.02,2.16Z"/>
    </g>
  </g>
  <g id="SyXYPi">
    <g>
      <path class="st7" d="M-999.22,129.32c-1.5-.04-2.36-1.16-2.32-2.55.12-3.87.76-7.68,2.11-11.31,1.55-4.19,3.71-8.09,6.92-11.15l1.69-1.61c-6.65-13.83-6.83-30.92-.63-44.96,4.15-9.38,11.19-17.51,20.54-21.88,8.96-4.19,19.27-4.23,28.25-.08,3.64,1.68,6.95,3.89,9.94,6.67,2.25-6.58,6.35-11.62,12.91-14.01,3.24-1.17,6.63-1.58,10.07-1.38,1.26-2.57,3.06-3.92,5.61-5.04,7.06-2.74,16.05-1.03,22.46,2.72,3.64,2.13,7.79,6.03,8.07,10.45.13,2.04.06,3.95.06,5.98l.02,19.57c-.16,2.81-1.27,5.36-3.32,7.25-1.49,1.21-3.21,1.98-5.22,1.9.01,7.69-3.95,14.78-10.51,18.84.46,1.48,1.09,2.9,1.97,4.19.24.29.41.63.76.8l5.61.05c3.76.03,7.32,1.29,10.6,3.13,6.95,3.91,11.79,10.68,14.24,18.2,1.24,3.8,1.8,7.68,1.87,11.68.02,1.32-.83,2.53-2.26,2.53h-139.44ZM-926.21,50.02c.19-.59.01-.97.09-1.42.05-.9.71-1.61,1.42-1.89.93-.37,1.74-.07,2.47.5.67.52,1.43.87,2.25,1.19,4.08,1.61,8.33,2.66,12.74,2.96,2.59.18,5.14.2,7.63-.52l14.34-4.11c.85-.24,1.56-.28,2.29.27,1.27.95.83,2.22.98,3.54,1.44-.11,2.6.35,3.94.97l-.05-15.9c0-1.22-.74-2.34-1.46-3.26-1.32-1.69-2.98-2.94-4.86-3.98-4.59-2.52-10.67-3.84-15.85-2.76-2.01.42-4.75,1.53-5.39,3.71,1.92,4.01,6.22,5.42,10.44,5.25,1.35-.06,2.47.9,2.51,2.19s-.96,2.36-2.31,2.38c-2.18.03-4.27-.16-6.35-.8-3.56-1.09-6.52-3.43-8.23-6.72-4.4-.5-9.99.8-13.22,3.78l-.32.3c-3.33,3.08-4.76,6.18-5.92,10.58l2.87,3.74ZM-955.02,51.48c-.26,1.64-.64,3.19-1.05,4.88,3.98-.16,7.84-.7,11.65-1.68,1.18-.3,2.15-.69,3.28-1.14,1.27-.51,2.95.49,2.95,1.97l-.04,20.48c-.01,6.77-3.91,12.86-9.55,16.5.46,1.59,1.19,3.08,2.24,4.33l4.81.04c.55,0,1.05.05,1.6.12,4.37.52,8.37,2.26,11.85,4.99,5.45-10.54,6.62-23.09,3.87-34.43-2.83-11.68-10.25-22.73-21.42-27.73-7.87-3.52-16.79-3.38-24.54.36-3.34,1.61-6.36,3.77-9.02,6.38-13.72,13.45-16.59,36.21-8.69,53.44,3.51-2.04,7.29-3.11,11.25-3.15h4.11c1.07-1.28,1.75-2.75,2.26-4.34-3.57-2.25-6.33-5.43-7.95-9.25-.46-1.09.08-2.12.95-2.77,1.65-1.24,3.07-2.63,4.46-4.15l.39-.43c2.2-2.4,4.02-5.07,5.72-7.84l.21-.33c3.16-5.14,5.09-10.88,6.16-16.83.24-1.33,1.31-2.18,2.64-1.96,1.14.18,2.06,1.29,1.86,2.55ZM-888.45,77.74l.14-.33c.95-2.21,1.68-4.48,1.69-6.91l.03-6.41c-.16-.21-.02-.39-.02-.61v-11.65s-11.76,3.38-11.76,3.38c-6.81,1.96-16.59.15-23.22-2.57l.03,5.94c3,7.46,4.27,14.63,4.09,22.68,3.96,4.61,9.89,6.88,15.98,5.97,5.48-.81,10.74-4.21,13.02-9.5ZM-879.39,64.08c2.23-1.88,1.78-5.78-.18-7.91-.68-.74-1.5-1.2-2.47-1.1v10.31c.95,0,1.7-.5,2.31-1.01l.34-.29ZM-965.33,89.53c4.1,1.93,8.76,1.99,12.93.22,5.82-2.45,9.66-8.21,9.69-14.56v-16.25c-4.9,1.32-9.81,1.91-14.8,2.02-2.39,6.68-5.95,12.71-10.61,17.92-1.35,1.52-2.72,2.86-4.3,4.2,1.63,2.82,4.19,5.15,7.09,6.45ZM-918.11,93.57c1.21-1.43,1.89-3.1,2.48-4.8l-2.31-1.63c-.33,2.29-.75,4.38-1.31,6.55.36.05.87.2,1.14-.12ZM-894.53,104.68c.66-.45,1.1-.95,1.57-1.53,1.15-1.4,1.47-3.26.57-4.89-.48-.93-1.15-1.68-1.78-2.53-1.12-1.52-1.87-3.19-2.55-5-4.86,1.7-9.99,1.67-14.8,0-.81,2.45-2.02,4.52-3.6,6.38-.69,1.04-1.28,2.02-1.25,3.28.3,4,5.34,6.3,8.92,6.3h6.69c2.25,0,4.34-.73,6.22-2.02ZM-955.47,108.7c2.8,0,6.39-1.6,7.56-4.21.49-1.08.41-2.22-.14-3.27-.35-.5-.61-1.04-1.01-1.52-1.28-1.54-2.18-3.3-2.89-5.24-4.34,1.48-9.01,1.48-13.38,0-.67,1.78-1.44,3.41-2.59,4.86-.3.37-.59.69-.77,1.13-1.12,1.28-1.31,3.04-.45,4.51,1.41,2.38,4.77,3.76,7.49,3.75h6.16ZM-920.85,98.82c-1.02,2.28-1.85,4.38-3.04,6.42,4.86,5.47,7.47,12.35,8.07,19.52h53.65c-.48-8.19-4.05-16.51-10.51-21.74-3.25-2.62-7.08-4.3-11.25-4.66-1.24-.11-2.37-.07-3.63-.05.72,3.25-.31,6.05-2.44,8.43-.17.18-.26.3-.45.47-2.66,2.41-6.04,3.86-9.69,4.01-2.51.11-4.89.05-7.4.02-3.47-.04-6.7-1.23-9.41-3.34-1.11-.94-2.05-1.96-2.75-3.22-1.07-1.79-1.28-3.71-1.15-5.85ZM-943.19,101.42c.4,2.31-.07,4.34-1.21,6.13-.56.91-1.24,1.61-2.03,2.35-2.59,2.16-5.79,3.37-9.2,3.36l-6.6-.03c-3.18-.01-6.12-1.29-8.54-3.29-2.45-2.12-3.94-5.12-3.28-8.53-4.22-.34-8.33.82-11.83,3.21-6.5,4.42-10.33,12.28-10.98,20.13h76.47c-.64-7.26-3.86-14.37-9.43-18.97l-1.34-.99c-3.49-2.5-7.74-3.73-12.03-3.37Z"/>
      <path class="st7" d="M-895.88,78.05c-.11,1.34-.74,2.44-1.71,3.3-2.39,2.13-6.27,2.52-9.28,1.84-2.59-.58-5.15-2.22-5.45-5.08-.14-1.34.74-2.48,2.06-2.61,1.27-.12,2.41.85,2.5,2.2.04.69,3.41,2,6.39.71.27-.12.81-.34.89-.64.09-1.32,1.07-2.35,2.38-2.31,1.32.04,2.32,1.16,2.2,2.59Z"/>
      <path class="st7" d="M-908.5,61.86c.46.31.84.98.88,1.55.2,2.77-1.94,5.08-4.61,5.3-2.74.22-5.15-1.82-5.41-4.59-.13-1.38.69-2.54,2.04-2.68,1.26-.12,2.45.83,2.48,2.18,0,.31.24.51.52.49.86-.05,0-1.52,1.62-2.39.79-.42,1.67-.39,2.47.15Z"/>
      <path class="st7" d="M-895.14,63.82c.03-1.38,1.05-2.43,2.36-2.4,1.31.03,2.29,1.12,2.23,2.48-.13,2.74-2.36,4.81-5.04,4.82-2.69,0-4.95-2.16-5.01-4.92-.03-1.35.95-2.35,2.22-2.38,1.25-.04,2.31.96,2.33,2.27,0,.24.23.36.4.4.13.04.51-.02.52-.27Z"/>
      <path class="st7" d="M-952.36,80.48c.74,2.18-1.25,3.78-3.25,4.31-2.04.54-4.17.52-6.19-.05-1.52-.42-2.99-1.41-3.24-3.08-.17-1.14.5-2.17,1.5-2.52,1.1-.38,2.26.09,2.83,1.18,1.34.41,2.81.4,4.16,0,.45-.86,1.25-1.35,2.16-1.31.85.03,1.72.57,2.02,1.46Z"/>
      <path class="st7" d="M-950.86,69.71c.97.13.14-1.35,1.41-2.2.74-.5,1.56-.65,2.4-.25.69.33,1.25,1.02,1.28,1.94.07,2.78-2.11,5.02-4.81,5.13-2.75.11-5.11-2.02-5.23-4.82-.04-1.03.49-1.91,1.36-2.28,1.81-.77,2.87.95,2.88.72v.19c.02-.64.17,1.49.71,1.56Z"/>
    </g>
  </g>
  <g id="yqPFq1.tif">
    <g>
      <path class="st7" d="M-659.27,331.39v15.79h-117.47c-1.83-1.01-3.11-2.59-3.06-4.87.18-3.65-.2-7.21.16-10.78.58-5.77,3.59-10.61,8.85-13.54-5.75-3.8-8.11-10.59-5.97-16.96,1.99-5.93,7.69-10.02,14.34-9.81,2.05-6.55,7.92-10.48,14.55-10.4,2.01-6.52,7.88-10.46,14.49-10.36,1.92-6.32,7.63-10.38,13.97-10.33,6.25.05,11.86,4.08,13.75,10.33,6.72-.13,12.53,3.95,14.52,10.39,6.72-.16,12.5,3.93,14.52,10.36,6.72-.21,12.44,3.98,14.4,9.99,2.06,6.35-.41,13.02-5.99,16.79,5.02,2.94,8.93,7.81,8.93,13.39ZM-718.56,279.88c1.53-4.13,4.72-7,8.8-8.64-1.52-4.37-5.55-7.01-9.88-6.96-4.22.05-8.15,2.66-9.64,6.97,4.1,1.63,7.25,4.52,8.79,8.56.22.57.28,1.04.85,1.08.69.05.81-.28,1.08-1.01ZM-733.05,290.17c1.56-4.08,4.73-6.97,8.78-8.55-1.49-4.28-5.44-6.95-9.72-6.97s-8.34,2.68-9.78,6.97c4.18,1.65,7.35,4.66,8.83,8.74.2.56.42.87.97.87s.68-.44.92-1.06ZM-704.12,290.44c1.5-4.17,4.68-7.16,8.86-8.81-1.44-4.29-5.48-6.99-9.78-6.97-4.28.02-8.22,2.69-9.72,6.97,4.12,1.6,7.32,4.58,8.82,8.65.2.53.33.97.88.96.46-.01.72-.2.94-.8ZM-748.55,304.4c.84-6.02,4.4-10.4,9.79-12.43-1.62-4.41-5.63-7.02-9.97-6.94-4.24.08-8.19,2.8-9.57,7.01,5.66,1.98,9.03,6.83,9.74,12.37ZM-719.52,303.5c1.43-5.6,4.58-9.67,9.79-11.47-1.49-4.28-5.49-7.05-9.87-7.02-4.33.04-8.23,2.79-9.7,7.02,5.27,1.81,8.42,6.01,9.78,11.47ZM-690.49,304.4c.83-6.02,4.4-10.41,9.79-12.42-1.61-4.39-5.64-7.03-9.96-6.95-4.27.08-8.21,2.78-9.58,7.01,5.66,1.99,9.02,6.83,9.74,12.36ZM-752.82,307.12c.51-3.73-1.04-7.2-3.7-9.37-2.75-2.24-6.41-2.99-9.84-1.84-5,1.68-7.84,6.69-6.83,11.85.94,4.82,5.31,8.44,10.41,8.3,4.91-.13,9.25-3.74,9.96-8.94ZM-735.07,295.46c-5.89.6-9.84,5.86-9.23,11.45.61,5.56,5.65,9.59,11.12,9.11,5.76-.5,9.96-5.56,9.42-11.24-.53-5.57-5.44-9.93-11.32-9.32ZM-705.91,295.45c-5.92.52-9.91,5.75-9.38,11.3.53,5.63,5.53,9.7,11.02,9.29,5.79-.44,10.08-5.49,9.55-11.21-.51-5.55-5.35-9.89-11.19-9.38ZM-665.75,307.21c.6-4.14-1.23-7.92-4.41-10.08-3.24-2.19-7.38-2.37-10.87-.41-4.35,2.45-6.33,7.57-4.76,12.32,1.46,4.42,5.85,7.45,10.68,7.03,4.62-.4,8.64-3.88,9.36-8.86ZM-741.84,317.98c-2.88-2.12-4.81-4.43-5.81-7.45-.16-.46-.51-.7-.9-.7s-.74.24-.9.71c-1.01,3.11-3.08,5.45-5.86,7.49,3.05,1.64,5.01,3.81,6.81,6.57,1.71-3,3.84-4.85,6.66-6.62ZM-712.78,317.97c-2.98-2.08-4.94-4.56-5.94-7.73-.42-.55-1.17-.55-1.59,0-1.01,3.24-3.11,5.74-5.97,7.76,2.97,1.67,5.02,3.74,6.78,6.62,1.72-2.91,3.83-4.9,6.73-6.65ZM-683.77,317.99c-2.89-2.14-4.82-4.43-5.82-7.45-.15-.47-.5-.71-.89-.71s-.75.23-.91.7c-.99,3.11-3.08,5.46-5.85,7.49,2.92,1.66,4.96,3.62,6.72,6.58,1.75-2.8,3.8-4.87,6.75-6.61ZM-750.62,343.03v-10.19c.01-7.23-6.05-13.09-13.36-12.54-6.23.47-11.44,5.56-11.46,11.8l-.03,10.95h24.85ZM-721.59,342.99v-10.89c-.39-6.53-5.64-11.65-12.14-11.86-7.14-.11-12.77,5.73-12.75,12.87l.04,9.94,24.85-.05ZM-692.56,343.02l-.02-10.52c-.01-6.75-5.65-12.24-12.41-12.25-6.68,0-12.42,5.37-12.42,12.09v10.7s24.84-.02,24.84-.02ZM-663.55,343.03l-.04-10.93c-.02-6.29-5.23-11.28-11.46-11.83-7.31-.47-13.38,5.3-13.37,12.58l.02,10.19h24.85Z"/>
      <path class="st7" d="M-717.44,247.45c0,1.36-.88,2.2-1.96,2.26-1.01.06-2.14-.7-2.15-1.93l-.08-17.59c-1.49.7-3.46,4.51-5.55,2.31-.8-.84-.78-2.13.08-2.99l6.05-6.04c.86-.86,2.23-.86,3.08,0l6.06,6.04c.88.87.89,2.14.19,2.94-.79.91-2.09.91-3.01.14-.91-.76-1.49-1.75-2.66-2.39l-.04,17.26Z"/>
      <path class="st7" d="M-676,270.45c0,1.33-1.08,2.08-2.1,2.06-1.09-.02-2.02-.87-2.02-2.11l-.03-17.57c-1.57.96-3.38,4.52-5.5,2.53-.78-.73-.94-2.07-.06-2.95l6.14-6.15c.9-.9,2.24-.81,3.11.05l5.95,5.94c.84.84,1.02,2.03.29,2.94s-2.02,1.03-2.99.23c-.91-.75-1.46-1.75-2.7-2.4l-.08,17.43Z"/>
      <path class="st7" d="M-758.91,270.29c0,1.46-1.06,2.29-2.25,2.21-1.16-.08-1.91-1.07-1.91-2.37l-.04-17.11c-1.63.7-3.26,4.33-5.44,2.36-.85-.77-.94-2.13-.06-3.01l6.05-6.06c.87-.87,2.21-.94,3.11-.05l6.04,6.03c.87.87.92,2.13.16,2.96-2.06,2.28-4.13-1.5-5.62-2.42l-.03,17.45Z"/>
    </g>
  </g>
  <g id="_x33_2V8PR">
    <g>
      <path class="st7" d="M-706.53,70.76c-8.93-3.83-10.36,5.79-12.78,6.18-.59.09-2.3-.38-2.11-1.4,1.38-7.44,9.04-11.37,15.98-8.54,5.64,2.31,11.82,3.62,17.94,2.71,3.31-.49,6.35.8,9.39.54,2.76-.23,4.99-2.34,7.96-.26,3.02,2.12,5.68,4.99,6.91,8.69,1.24,3.72-.57,6.79-4.53,8.35l5.16,13.77c1.48,3.93-.49,8.15-4.02,10.31l-25.33,15.5c-1.02.62-2.56.32-3.02,1.14-1.09,1.91.44,5.3-1.02,6.74-.57.57-1.48.66-2.16.36-2.22-.97-.26-5.91-1.52-8.05-4.93-3.01-6.81-8.46-3.5-13.83-7.51-6.34-13.07,6.83-28.21-.95-2.53-1.3-5.52-1.12-8.05.48,2.17,5.52.51,10.53-4.08,13.78-1.3,2.01.65,7.88-1.57,8.62-.83.27-2.4.2-2.51-1.04l-.59-6.32c-4-.16-6.99-1.76-9.05-4.81l-17.5-26.05c-2.58-3.84-2.97-7.87-.86-12.09l12.97-25.9c4.28-8.55,14.98-10.49,23.47-7.03,15.7,6.39,24.04-3.83,27.19-1.98.75.44,1.28,2.31.11,2.96-10.35,5.67-18.39,6.58-29.64,2.35-6.8-2.56-14.81-.42-18.15,6.33l-12.86,26.01c-1.16,2.34-.57,4.72.81,6.76l18.06,26.86c1.95,2.9,5.88,3.31,8.54,1.51,2.5-1.7,3.79-5.39,1.85-8.31l-16.29-24.55,9.5-19.65c.58-1.21,1.82-1.61,2.83-1.13.97.46,1.24,1.75.67,2.91l-8.56,17.48,13.24,19.86c4.19-1.94,8.43-2.56,12.3-.53,13.85,7.28,16.84-7.12,29.55,1.65l17.36-10.54c-.54-3.74-5.73-10.37-2.6-11.97.8-.41,2.15-.09,2.62,1.16,1.54,4.07,3.43,7.79,4.65,12.37l-20.56,12.84c-2.53,1.58-2.94,4.67-1.73,6.86,1.28,2.3,4.42,3.54,6.95,1.98l25.29-15.57c4.99-3.08-2.52-14.55-3.97-19.48-11.46-3.44-8.04-12.78-9.03-13.65-2.38-2.12-12.25,2.25-25.5-3.44ZM-667.04,80.63c-.44-3.39-3.36-6.93-6.36-7.51-1.83-.36-3.05,1.99-3.39,3.15-.93,3.08,2.37,7.82,5.82,7.5,1.27-.12,4.26-.62,3.94-3.13Z"/>
      <path class="st7" d="M-732.39,15.29c10.43-1.99,19.74,4.94,21.57,14.63,1.9,10.07-4.66,19.71-14.88,21.59-9.61,1.77-19.19-4.46-21.27-14.32-2.05-9.68,3.93-19.87,14.58-21.9ZM-733.1,19.48c-8.26,2.5-12.08,11.11-9.63,18.41,2.54,7.55,10.46,11.59,17.79,9.45,7.88-2.3,12.21-10.4,9.93-18.08-2.21-7.44-9.98-12.23-18.08-9.78Z"/>
      <path class="st7" d="M-694.89,36.08c9.07-.49,15.98,6.46,16.55,14.53.64,9.04-6.12,16.39-14.82,16.9-8.54.5-15.91-5.92-16.61-14.4-.71-8.61,5.6-16.52,14.88-17.03ZM-696.84,40.28c-6.84,1.71-10.34,8.51-8.66,14.62,1.68,6.15,7.98,9.83,13.93,8.49,6.59-1.49,10.46-7.77,9.08-14.19-1.31-6.1-7.52-10.63-14.35-8.92Z"/>
      <path class="st7" d="M-724.37,78.29c8.61-1.6,16.12,4.23,17.48,12.15,1.37,8-3.98,15.64-11.86,17.13-8.15,1.54-15.97-3.6-17.55-11.89-1.46-7.65,3.29-15.78,11.93-17.39ZM-725.04,82.51c-6.37,2.13-9,8.84-6.91,14.33,2.11,5.54,8.16,8.35,13.49,6.67,6.04-1.9,9.18-8.15,7.35-13.83-1.82-5.66-7.78-9.23-13.94-7.18Z"/>
      <path class="st7" d="M-733.22,126c.21,3.17.79,8.83-1.6,9.03-.97.08-1.99-.38-2.08-1.72-.21-3.19-.81-8.78,1.56-9.05,1.02-.11,2.02.37,2.11,1.73Z"/>
      <path class="st7" d="M-706.37,126c.2,3.36.79,8.8-1.61,9.03-.96.09-1.98-.39-2.07-1.71-.21-3.15-.8-8.77,1.55-9.05,1.03-.12,2.05.37,2.13,1.73Z"/>
    </g>
  </g>
  <g id="ViAgwP">
    <g>
      <path class="st7" d="M-918.41,340.67c-.01,2.75-1.5,5.13-3.61,6.61-3.54,2.48-8.18,1.38-10.56-2.35-1.35,2.04-3.4,3.38-5.63,3.62-4.83.52-8.61-3.75-8.61-8.12l-.02-69.04c0-1.45-.41-3.51-1.87-3.93-.73-.21-1.52-.14-2.17.31l-6.52,4.6c-.03.32-.31.25-.47.36l-8.45,5.97c3.06,1.68,4.9,4.73,4.9,8.19,0,.78-.61,1.3-1.28,1.36s-1.46-.45-1.47-1.29c-.03-3.35-2.56-6.36-6.05-6.45-4.11-.11-6.89,2.68-6.89,6.75l.02,59.85c0,.86-.47,1.36-1.23,1.48-.57.09-1.53-.3-1.53-1.17l.02-60.95c0-2.84,1.57-5.24,3.61-6.96-1.9-1.4-2.78-3.63-2.46-5.91.37-2.6,1.85-4.72,3.96-6.28l23.01-17.11c1.06-.38,2.2-.95,3.26-.97l4.92-.12c-1.66-2.45-2.75-5.07-3.05-7.95-.91-8.85,6.38-16.21,15.16-15.48,8.57.71,14.63,8.99,12.42,17.55-.53,2.06-1.37,3.98-2.69,5.87l5.5.1c2.49.05,4.6,1.55,6.07,3.65,1.59-.61,3.17-.66,4.78-.24l3.89,1.03c2.21.58,8.45.31,10.01-.26,1.81-.66,3.61-.53,5.04.96,1.29,1.35,2.1,3.25,2.13,5.25l.16,14.45c.03,2.92-1.89,5.33-4.86,5.86,1.4,10.75,3.73,21.14,7,31.35.51,1.6,1.31,2.86,2.2,4.19s.62,3.08-.58,4.16c-2.14,1.92-6.45,2.67-9.37,3.2v19.26c0,1.65-.59,3.04-1.57,4.28-.12.35-.36.42-.61.64-2.92,2.55-7.34,2.27-9.84-.89-1.95,2.47-5.12,3.23-7.91,2.09-2.78-1.14-4.15-3.84-4.14-6.92l.05-18.44c-1.65-.23-3.03-.55-4.6-1.04l-.08,18.91ZM-927.75,251.03l.59-.34c3.53-2,5.49-6.07,5.81-10.18.54-6.85-5.16-12.5-11.89-12.12-6.58.37-11.59,6.4-10.51,13.08.54,3.33,2.2,6.32,4.74,8.49,3.22,2.74,7.56,3.15,11.25,1.06ZM-921.14,278.24c-1.39-.19-2.39-.47-3.36-1.18-2.3-1.65-3.42-4.51-2.73-7.27.81-3.24,4.1-4.97,7.23-3.78,3.04,1.16,4.8,4.35,4.27,7.56-.28,1.68-1.2,2.97-2.62,3.91l.02,12.76c0,1.22.63,2.31,1.48,3.06,1.25,1.09,2.93,1.07,4.21,0,.81-.77,1.47-1.85,1.47-3.06v-11.13c-1.74-1.21-2.72-3.01-2.7-5,.02-2,.98-3.79,2.73-4.94l-.04-11.35c0-1.43-.7-2.71-1.49-3.8-1.16-1.43-2.78-2.15-4.62-2.14l-6.96.04c-5.06,4.38-11.72,4.36-16.69-.02l-7,.04c-.87,0-1.58.51-2.47.71l-23.1,17.23c-1.26.94-2.04,2.31-2.37,3.75-.48,2.08.83,3.88,2.91,4.18,1.81.27,3.5-.32,5.01-1.39l15.52-10.96c2.4-1.69,5.76-1.03,7.24,1.44.71,1.19,1.1,2.51,1.1,3.97l.03,69.37c0,1.92.97,3.61,2.4,4.68,1.72,1.28,3.96,1.14,5.58-.24,1.3-1.1,2.08-2.71,2.09-4.51l.04-36.43c0-.92.89-1.31,1.59-1.2.74.11,1.15.67,1.15,1.52v36.18c0,1.57.66,2.93,1.65,4.01,1.73,1.9,4.53,2.08,6.44.35,1.21-1.09,1.98-2.62,1.98-4.37v-62.02ZM-893.03,268.36c-.42-4.16-.71-7.91-.81-11.83-2.87.37-5.58.27-8.31-.21l-3.9-1.05c-.94-.15-1.85-.34-2.76.14.36,1.26.46,2.43.47,3.69v9.28s15.32-.02,15.32-.02ZM-908.48,277.11l19.15-.02c1.42,0,2.47-1.59,2.46-2.89l-.14-14.47c-.02-1.8-1.37-4.61-2.91-3.91-.7.32-1.17.87-1.13,1.69.19,3.74.38,7.4.9,11.11.07.48.71,1.02.39,1.57-.19.33-.38.92-1.03.92l-17.72.09c-1.56,0-2.58,1.58-2.58,2.93s.96,2.99,2.62,2.99ZM-918.43,272.91c.2-1.72-.72-3.39-2.19-4.15-.85-.44-1.79-.51-2.62-.02-.61.36-1.19,1.01-1.36,1.9-.37,1.9.7,3.85,2.5,4.59.86.35,1.75.23,2.53-.29.53-.36,1.02-1.1,1.13-2.02ZM-908.01,320.39c3.09.16,5.95.48,8.99.43,4.02-.06,7.91-.55,11.81-1.37,1.03-.22,5.01-1.22,5.22-2.37-1.06-1.51-1.99-3.06-2.58-4.9-3.38-10.51-5.75-21.18-7.19-32.28h-16.59s-.03,10.24-.03,10.24c-.09,2.02-.89,3.84-2.36,5.18-1.87,1.61-4.24,2.02-6.68.94-.18,1.77-.86,3.35-.86,5.12l-.08,17.32c3.35,1.55,6.72,1.5,10.36,1.69ZM-903.1,341.97v-18.51s-7.88-.42-7.88-.42v18.99c.09,2.22,1.83,3.86,3.94,3.86,2.07,0,3.89-1.64,3.94-3.93ZM-892.47,342.04l-.03-18.91c-2.76.34-5.2.52-7.84.45v18.47c.09,2.21,1.84,3.88,3.93,3.86,2.1-.02,3.86-1.64,3.94-3.86Z"/>
      <path class="st7" d="M-908.59,237.44c-2.64,4.46.44,9.83,4.84,11.64,2.65,1.09,5.56.72,7.78-1.06,2.59-2.08,4.05-5.32,3.57-8.63-.13-.88.24-1.67,1.13-1.8.77-.12,1.5.4,1.62,1.33.64,4.81-1.65,9.7-5.89,12.16-2.97,1.72-6.34,1.3-9.55.38l-1.33-.38c-8.46-2.43-11.23-13.5-7.2-21.3,4.03-7.8,13.76-10.74,21.44-6.49,7.71,4.27,10.39,14.03,5.85,21.75-.68,1.15-1.8,3.05-3.21,2.05-.45-.32-.82-1.27-.39-1.77,5.12-6.15,3.6-15.2-3.13-19.33-6.75-4.14-15.67-1.21-18.63,6.26.39.21.77.07,1,.25,3.9,3.52,8.91,5.41,14.2,4.93.83-.08,1.42.59,1.45,1.29.03.73-.47,1.39-1.29,1.46-4.25.39-8.39-.51-12.26-2.73ZM-910.98,235.85l-1.42-1.13c-.26,1.65-.35,3.19.11,4.73.36-1.33.69-2.39,1.31-3.6Z"/>
    </g>
  </g>
  <g id="NNvlIG.tif">
    <g>
      <path class="st7" d="M-308.02,133.2h-62.15v-7.31c0-3.92,1.36-15.1,2.45-19.57,2.39-9.77,11.34-16.84,21.28-15.37.04-.8.5-2.11-.13-2.65-4.05-3.46-6.37-8.2-6.64-13.58-.12-2.35.18-4.64-.15-7-.48-3.37-1.38-6.85-.39-10.22,1.29-4.39,4.86-7.5,8.88-9.45,5.2-2.51,10.82-3.49,16.41-2.17,4.99,1.18,4.22,4.67,6.11,6.05,2.43,1.77,4.14,4.31,4.69,7.31.7,3.85-2.33,7.15-2.58,8.54-.42,2.38-.05,4.77-.21,7.18-.36,5.58-2.89,10.5-7.31,13.85-.35.67-.09,1.7.25,2.41,1.18-.6,2.33-.58,3.66-.48,8.93.71,15.86,7.27,17.85,15.99,1.59,6.93,1.93,13.82,2.14,20.98.11,3.58-1.64,4.48-4.19,5.49ZM-323.43,63.8c.76-.8,1.46-2.13,1.41-3.4-.07-2.03-1.43-3.76-2.99-4.94-3.61-2.72-1.65-4.72-4.82-5.38-6.87-1.42-17.04,1.77-19.58,8.3-.67,1.73-.17,3.62-.12,5.43,1.73-.1,2.48-3.36,5.25-1.51,2.59,1.73,5.71,2.26,8.84,2.15,7.63-.27,8.64-4.76,12-.65ZM-324.88,68.88c-.03-.68-1.28-2.03-1.98-1.86-6.51,2.2-12.35,2.82-18.64-.29l-3.29,1.96c-.25,6.16-.21,11.76,4.88,16.01,4.21,3.51,9.97,3.5,14.18-.01,4.98-4.16,5.13-9.67,4.85-15.8ZM-331.39,93.95c-.43-1.19-.48-2.01-.94-2.9-3.22,1.02-6.32.81-9.5-.08-.41,1.13-.55,1.97-.77,3.02l5.41,4,5.79-4.04ZM-316.84,113.85l-.02,14.63h8.58c-.12-7.16-.47-13.85-1.97-20.6-1.6-7.21-7.34-12.61-14.83-12.79l-10.64,7.32c-.78.54-1.84.75-2.66.16l-10.4-7.49c-7.44.26-13.12,5.5-14.74,12.63-1.55,6.79-1.92,13.57-1.99,20.77h8.53s0-14.79,0-14.79c0-1.42.89-2.43,2.2-2.44,1.13,0,2.19.78,2.2,2.13l.11,15.16,31.18-.04.05-15.1c0-1.42,1.24-2.27,2.41-2.15,1.24.12,2,1.07,2,2.58Z"/>
      <path class="st7" d="M-233.07,133.2h-57.89c-2.54-1.01-4.28-1.93-4.18-5.49.2-7.07.55-13.88,2.09-20.75,2.25-10.04,10.94-17.34,21.34-16.07.2-.63.61-1.99.03-2.49-4.11-3.59-6.52-8.44-6.7-13.98-.08-2.24.19-4.43-.13-6.66-.48-3.4-1.4-6.93-.37-10.34,1.3-4.3,4.8-7.37,8.74-9.31,5.18-2.55,10.79-3.53,16.38-2.28,5.22,1.18,3.94,4.3,6.65,6.41,2.77,2.16,4.56,5.43,4.37,8.94-.14,2.49-1.89,4.21-2.57,6.47-1,3.34,2.14,13.58-7.54,21.14-.59.46-.04,1.97.24,2.36,1.08-.48,1.98-.52,3.14-.46,8.58.45,15.61,6.44,17.96,14.67,1.3,4.53,1.9,8.99,2.17,13.69l.35,6.17c.24,4.1.43,6.17-4.08,7.96ZM-248.54,63.83c.76-.97,1.49-2.37,1.34-3.72-.23-2.04-1.56-3.58-3.08-4.74-3.47-2.65-1.61-4.63-4.62-5.26-4.55-.96-9.09-.1-13.28,1.97-4.88,2.41-7.85,6.11-6.43,11.75,1.93-.44,2.48-3.31,5.23-1.49,2.53,1.68,5.54,2.19,8.58,2.12,7.71-.16,8.8-4.84,12.25-.63ZM-250.08,68.62c-.07-.66-1.24-1.52-1.9-1.65-6.26,2.26-12.44,2.86-18.62-.21l-3.34,1.92c-.28,6.24-.19,11.98,5.09,16.19,3.94,3.14,9.22,3.29,13.3.31,5.33-3.91,6.15-10.25,5.46-16.57ZM-256.54,93.96c-.44-1.3-.48-1.93-.94-2.88-3.17.9-6.25.9-9.52-.18-.36,1.11-.57,2.09-.76,3.13l5.45,3.96,5.77-4.04ZM-242,113.7v14.77s8.54,0,8.54,0c-.08-7.18-.45-13.96-1.99-20.76-1.63-7.2-7.48-12.54-14.86-12.61l-10.5,7.26c-1.09.75-2.17.67-3.22-.09l-9.91-7.18c-7.45.21-13.2,5.59-14.79,12.78-1.5,6.75-1.86,13.46-1.97,20.61l8.54.07.07-15.16c0-1.33,1.06-2.16,2.25-2.13,1.05.03,2.11.85,2.12,2.16l.06,15.11h31.17s.21-15.66.21-15.66c.02-1.31,1.71-1.77,2.65-1.54,1.02.25,1.64,1.15,1.64,2.37Z"/>
      <path class="st7" d="M-289.25,21.55l-9.03-.02c-2.16,0-3.92,1.37-4.44,3.31-.53,2.01.4,4.12,2.36,5.14,1.05.54,1.4,1.71,1.01,2.79-.32.89-1.58,1.73-2.77,1.2-3.78-1.68-5.78-5.71-5.01-9.72.74-3.82,3.93-6.78,8.18-7.19,3.33-.33,6.84-.35,10.17,0,4.41.47,7.64,3.66,8.19,7.73.56,4.14-1.85,8.15-5.9,9.54-1.21.41-2.38-.31-2.74-1.28-.45-1.21.14-2.43,1.4-2.92,2.03-.8,3.17-2.76,2.84-4.88-.3-1.89-1.91-3.69-4.27-3.7Z"/>
      <path class="st7" d="M-296.22,33.56c1.15-5.07-4.96-4.49-3.83-7.78.39-1.13,1.61-1.84,2.87-1.33,4.01,1.61,6.17,5.86,5.3,10-.86,4.04-4.46,7.02-8.81,7.02h-8.86c-4.35,0-7.91-3.02-8.74-7.09-.85-4.17,1.36-8.46,5.48-10.01,1.19-.45,2.37.06,2.86,1.19.39.91.07,2.3-1.13,2.82-2.07.89-3.29,2.84-2.88,5.08.36,1.93,2.16,3.6,4.42,3.6l9.15-.02c2.13,0,3.75-1.6,4.18-3.47Z"/>
      <path class="st7" d="M-334.58,26.84c-.28,3.06-.02,5.91-.13,8.89-.05,1.29-1.02,2.2-2.13,2.22-1.2.02-2.25-.86-2.25-2.19v-11.29c.02-1.17.99-2.03,2.12-2.03l10.98-.03c1.41,0,2.4.95,2.4,2.21,0,1.24-.99,2.23-2.4,2.2h-8.6Z"/>
      <path class="st7" d="M-259.86,35.45c0,1.47-.91,2.53-2.28,2.5-1.44-.03-2.2-1.29-2.17-2.8.06-2.79.07-5.44-.02-8.28l-8.66-.02c-1.41,0-2.4-.95-2.4-2.22,0-1.26.98-2.22,2.41-2.21l10.97.03c1.32,0,2.14,1.06,2.14,2.32l.02,10.68Z"/>
    </g>
  </g>
  <g>
    <polygon class="st2" points="67.64 1191.3 62.45 1191.3 58.78 1196.8 57.56 1206.57 52.67 1212.38 44.12 1221.85 34.95 1235.6 20.9 1245.37 39.54 1258.2 63.67 1278.06 73.14 1278.06 90.56 1273.17 99.42 1257.9 93.61 1242.32 102.47 1239.87 114.08 1234.68 110.72 1220.32 102.47 1218.18 94.22 1214.51 83.53 1210.24 76.81 1192.82 72.84 1198.32 67.64 1191.3"/>
    <polygon class="st4" points="76.81 1192.82 84.14 1182.74 67.49 1170.52 67.49 1156.16 59.7 1145.77 51.45 1145.77 40.15 1143.94 40.15 1159.52 34.34 1162.88 33.12 1171.13 19.37 1171.44 11.12 1185.19 4.71 1194.35 12.34 1204.43 5.93 1218.49 12.65 1224.9 12.65 1239.57 20.9 1245.37 34.95 1235.6 44.12 1221.85 52.67 1212.38 57.56 1206.57 58.78 1196.8 62.45 1191.3 67.64 1191.3 72.84 1198.32 76.81 1192.82"/>
    <polygon class="st6" points="40.15 1143.94 29.15 1107.28 32.2 1097.2 29.15 1086.81 31.59 1081.92 32.2 1075.51 23.04 1068.17 29.15 1064.81 35.56 1053.51 41.98 1037.32 38.92 1031.51 41.98 1020.51 49.01 1018.68 55.12 1004.63 65.2 992.1 67.49 976.52 106.75 993.94 143.1 976.52 143.1 1005.54 137.91 1013.49 141.58 1020.82 149.21 1039.46 149.21 1045.57 141.88 1044.34 141.88 1055.34 129.36 1067.56 128.13 1072.45 123.25 1076.42 121.41 1082.23 122.94 1091.7 134.24 1102.7 124.16 1110.03 121.72 1117.97 102.47 1101.78 91.17 1110.95 100.33 1126.83 100.64 1130.5 93.92 1125.31 90.25 1122.56 84.14 1128.97 90.86 1139.36 95.75 1141.5 96.06 1133.25 100.64 1139.66 106.75 1142.72 117.44 1143.94 117.44 1155.86 126.3 1160.74 138.52 1162.27 138.52 1168.38 136.69 1172.66 139.44 1182.74 110.72 1220.32 102.47 1218.18 83.53 1210.24 76.81 1192.82 84.14 1182.74 67.49 1170.52 67.49 1156.16 59.7 1145.77 51.45 1145.77 40.15 1143.94"/>
    <polygon class="st6" points="5.93 1218.49 -20.04 1206.57 -37.45 1194.66 -40.2 1187.94 -64.95 1180.3 -101.61 1161.05 -118.72 1157.38 -135.22 1143.94 -163.02 1128.97 -191.13 1115.22 -183.79 1103.31 -172.49 1095.98 -165.77 1098.42 -159.05 1099.95 -149.88 1114.92 -143.47 1117.06 -138.58 1113.7 -134.61 1122.56 -125.44 1113.7 -108.94 1111.56 -101.31 1109.42 -95.2 1111.86 -92.6 1104.84 -85.42 1105.45 -79.61 1094.14 -79.31 1077.65 -72.28 1077.65 -67.7 1071.23 -61.59 1069.7 -53.95 1071.54 -47.84 1069.7 -46.62 1077.65 -40.81 1079.17 -31.95 1076.42 -25.54 1080.4 -25.54 1068.17 -13.62 1081.92 -14.54 1090.17 -3.24 1094.75 3.49 1089.87 9.6 1089.56 12.96 1093.53 19.37 1091.7 23.04 1099.64 29.15 1107.28 40.15 1143.94 40.15 1159.52 34.34 1162.88 33.12 1171.13 19.37 1171.44 11.12 1185.19 4.71 1194.35 12.34 1204.43 5.93 1218.49"/>
    <polygon class="st2" points="-191.13 1115.22 -199.07 1102.09 -209.15 1094.14 -214.04 1083.14 -231.15 1077.65 -248.56 1054.12 -252.53 1044.04 -259.26 1044.04 -255.28 1036.4 -262.92 1026.32 -254.37 1026.32 -253.14 1008.91 -255.59 995.46 -247.34 983.85 -235.43 976.52 -227.02 978.05 -227.02 989.96 -232.06 996.07 -227.02 1000.66 -216.48 1001.88 -214.04 1008.91 -218.32 1014.1 -217.4 1029.07 -206.71 1030.9 -202.12 1036.71 -192.65 1039.46 -193.26 1057.18 -189.9 1060.23 -191.13 1064.51 -188.07 1068.17 -181.96 1065.12 -175.85 1073.06 -171.88 1082.53 -169.74 1088.34 -172.49 1095.98 -183.79 1103.31 -191.13 1115.22"/>
    <polygon class="st2" points="-227.02 978.05 -216.33 961.86 -210.98 953.3 -203.96 946.28 -192.65 935.58 -194.49 923.67 -191.13 919.39 -186.24 922.75 -169.74 919.39 -158.13 925.81 -161.49 932.53 -163.63 944.14 -156.3 948.72 -152.63 961.86 -149.27 976.52 -156.6 978.05 -156.6 984.77 -159.66 987.82 -169.74 989.35 -168.52 996.68 -178.29 994.85 -183.18 998.21 -178.6 1004.93 -174.02 1026.32 -173.41 1032.74 -183.18 1037.93 -192.65 1039.46 -202.12 1036.71 -206.71 1030.9 -217.4 1029.07 -218.32 1014.1 -214.04 1008.91 -216.48 1001.88 -227.02 1000.66 -232.06 996.07 -227.02 989.96 -227.02 978.05"/>
    <polygon class="st2" points="-158.13 925.81 -152.33 932.53 -145.91 938.03 -129.41 935.28 -123.91 953.3 -112 960.94 -106.8 982.94 -93.67 995.16 -90.31 1001.27 -97.94 1001.27 -109.55 997.6 -116.89 990.88 -124.22 992.71 -124.22 1005.85 -117.8 1022.96 -107.11 1045.87 -107.72 1061.45 -105.28 1065.12 -109.86 1073.98 -107.11 1079.48 -95.2 1072.76 -84.5 1071.84 -78.7 1068.17 -68.98 1073.02 -72.28 1077.65 -79.31 1077.65 -79.61 1094.14 -85.42 1105.45 -92.6 1104.84 -95.2 1111.86 -101.31 1109.42 -108.94 1111.56 -125.44 1113.7 -134.61 1122.56 -138.58 1113.7 -143.47 1117.06 -149.88 1114.92 -159.05 1099.95 -165.77 1098.42 -172.49 1095.98 -169.74 1088.34 -171.88 1082.53 -175.85 1073.06 -181.96 1065.12 -188.07 1068.17 -191.13 1064.51 -189.9 1060.23 -193.26 1057.18 -192.65 1039.46 -183.18 1037.93 -173.41 1032.74 -174.02 1026.32 -178.6 1004.93 -183.18 998.21 -178.29 994.85 -168.52 996.68 -169.74 989.35 -159.66 987.82 -156.6 984.77 -156.6 978.05 -149.27 976.52 -152.63 961.86 -156.3 948.72 -163.63 944.14 -161.49 932.53 -158.13 925.81"/>
    <polygon class="st2" points="-90.31 1001.27 -82.67 1003.41 -75.49 999.13 -64.64 1001.27 -50.28 1008.29 -37.76 1016.24 -31.95 1019.6 -27.68 1032.12 -34.4 1049.84 -38.68 1054.43 -51.81 1060.84 -47.84 1069.7 -53.95 1071.54 -61.59 1069.7 -67.7 1071.23 -68.98 1073.02 -78.7 1068.17 -84.5 1071.84 -95.2 1072.76 -107.11 1079.48 -109.86 1073.98 -105.28 1065.12 -107.72 1061.45 -107.11 1045.87 -117.8 1022.96 -124.22 1005.85 -124.22 992.71 -116.89 990.88 -109.55 997.6 -97.94 1001.27 -90.31 1001.27"/>
    <polygon class="st6" points="-129.41 935.28 -119.64 933.44 -111.08 927.94 -111.08 919.39 -103.44 905.95 -107.11 901.06 -116.43 898.31 -111.39 893.12 -107.42 893.12 -103.44 882.73 -89.7 880.28 -78.09 876.62 -72.28 882.73 -60.67 883.34 -55.78 886.7 -46.92 879.98 -35.01 878.45 -35.01 887.01 -41.43 894.95 -44.48 905.95 -44.17 918.17 -33.79 925.81 -29.2 936.5 -23.09 938.33 -17.9 946.89 -19.73 957.27 -10.87 966.44 4.1 967.66 24.57 976.52 56.95 982.63 54.2 974.08 67.49 976.52 65.2 992.1 55.12 1004.63 49.01 1018.68 41.98 1020.51 38.92 1031.51 41.98 1037.32 35.56 1053.51 29.15 1064.81 23.04 1068.17 32.2 1075.51 31.59 1081.92 29.15 1086.81 32.2 1097.2 29.15 1107.28 23.04 1099.64 19.37 1091.7 12.96 1093.53 9.6 1089.56 3.49 1089.87 -3.24 1094.75 -14.54 1090.17 -13.62 1081.92 -25.54 1068.17 -25.54 1080.4 -31.95 1076.42 -40.81 1079.17 -46.62 1077.65 -47.84 1069.7 -51.81 1060.84 -38.68 1054.43 -34.4 1049.84 -27.68 1032.12 -31.95 1019.6 -50.28 1008.29 -64.64 1001.27 -75.49 999.13 -82.67 1003.41 -90.31 1001.27 -93.67 995.16 -106.8 982.94 -112 960.94 -123.91 953.3 -129.41 935.28"/>
    <polygon class="st2" points="-35.01 878.45 -27.68 865.62 -31.34 854.93 -15.46 860.73 .74 850.34 16.01 846.07 37.09 829.88 41.06 817.35 41.06 811.54 53.28 802.07 53.28 862.57 59.39 858.59 67.49 866.84 72.84 866.84 89.64 858.59 111.64 860.43 125.69 882.12 147.08 922.45 157.46 943.53 159.91 952.69 154.41 960.02 144.33 967.05 143.1 976.52 106.75 993.94 67.49 976.52 54.2 974.08 56.95 982.63 24.57 976.52 4.1 967.66 -10.87 966.44 -19.73 957.27 -17.9 946.89 -23.09 938.33 -29.2 936.5 -33.79 925.81 -44.17 918.17 -44.48 905.95 -41.43 894.95 -35.01 887.01 -35.01 878.45"/>
    <polygon class="st1" points="-255.59 995.46 -269.03 980.8 -270.86 969.19 -278.2 964 -291.64 938.94 -300.5 932.53 -304.17 916.03 -304.17 911.14 -310.28 903.2 -306.61 899.84 -313.64 889.45 -323.41 885.48 -329.22 888.23 -337.77 885.48 -334.11 876.62 -349.99 843.93 -346.94 834.76 -345.41 829.14 -340.83 829.88 -340.22 834.46 -342.97 839.65 -336.86 842.1 -334.41 850.04 -328.3 850.34 -316.39 838.74 -310.28 832.01 -304.47 826.21 -295 826.21 -287.97 836.9 -276.67 865.93 -272.39 881.81 -265.06 896.17 -258.64 899.53 -256.81 910.84 -246.42 922.14 -238.17 922.14 -224.73 927.33 -226.26 934.67 -218.32 946.58 -222.29 952.39 -214.04 958.19 -216.33 961.86 -227.02 978.05 -235.43 976.52 -247.34 983.85 -255.59 995.46"/>
    <polygon class="st6" points="-329.22 888.23 -320.82 893.27 -314.09 904.42 -309.05 918.32 -308.29 925.81 -316.39 932.68 -313.33 934.21 -307.37 930.39 -300.5 932.53 -304.17 916.03 -304.17 911.14 -310.28 903.2 -306.61 899.84 -313.64 889.45 -323.41 885.48 -329.22 888.23"/>
    <polygon class="st6" points="-276.67 865.93 -262.92 869.06 -259.18 859.66 -245.89 856.68 -223.66 855.08 -216.33 850.96 -200.29 849.81 -193.26 844.31 -178.98 852.79 -164.55 855.08 -159.73 864.7 -154.01 864.7 -151.49 861.72 -131.12 860.12 -123.99 848.89 -115.28 848.44 -106.8 858.52 -106.8 870.2 -108.64 875.24 -103.44 882.73 -107.42 893.12 -111.39 893.12 -116.43 898.31 -107.11 901.06 -103.44 905.95 -111.08 919.39 -111.08 927.94 -119.64 933.44 -129.41 935.28 -145.91 938.03 -152.33 932.53 -158.13 925.81 -169.74 919.39 -186.24 922.75 -191.13 919.39 -194.49 923.67 -192.65 935.58 -203.96 946.28 -210.98 953.3 -214.04 958.19 -222.29 952.39 -218.32 946.58 -226.26 934.67 -224.73 927.33 -238.17 922.14 -246.42 922.14 -256.81 910.84 -258.64 899.53 -265.06 896.17 -272.39 881.81 -276.67 865.93"/>
    <polygon class="st6" points="-289.99 833.84 -282.02 828.27 -273.39 822.31 -265.59 822.31 -260.1 829.88 -241.31 829.88 -233.52 826.21 -238.33 812.92 -235.81 803.75 -207.39 799.86 -196.85 792.76 -190.06 794.59 -177.84 792.76 -165.69 785.19 -160.42 794.13 -157.9 805.82 -155.61 821.86 -155.61 830.79 -145.07 835.6 -149.27 840.19 -164.55 855.08 -178.98 852.79 -193.26 844.31 -200.29 849.81 -216.33 850.96 -223.66 855.08 -245.89 856.68 -259.18 859.66 -262.92 869.06 -276.67 865.93 -287.97 836.9 -289.99 833.84"/>
    <polygon class="st6" points="-398.26 749.68 -393.68 761.14 -386.81 766.41 -387.95 770.76 -382.68 777.63 -373.75 796.65 -371.23 805.13 -360.69 831.48 -349.99 843.93 -346.94 834.76 -345.41 829.14 -340.83 829.88 -340.22 834.46 -342.97 839.65 -336.86 842.1 -334.41 850.04 -328.3 850.34 -316.39 838.74 -310.28 832.01 -304.47 826.21 -299.28 826.21 -299.28 820.25 -297.44 814.98 -307.76 795.28 -297.44 779.01 -296.3 768.47 -289.99 762.05 -310.5 747.85 -320.82 724.47 -331.59 709.58 -339.15 703.62 -340.29 697.44 -355.87 700.41 -363.43 710.04 -369.85 717.83 -375.81 732.95 -390.93 740.97 -398.26 749.68"/>
    <polygon class="st4" points="-320.82 724.47 -310.73 726.54 -306.84 721.95 -303.4 727.91 -298.59 729.06 -294.69 726.77 -280.72 729.06 -268.57 727.22 -267.2 716.45 -263.07 718.06 -258.95 730.2 -253.68 733.87 -248.87 729.06 -243.6 737.76 -241.99 746.93 -237.41 753.8 -237.41 762.74 -232.6 767.55 -227.79 773.89 -218.85 768.93 -206.48 760.91 -199.83 748.76 -192.5 737.76 -178.52 728.83 -167.98 728.37 -165.23 732.26 -170.5 740.28 -173.02 754.26 -174.86 769.84 -171.65 777.63 -165.69 785.19 -177.84 792.76 -190.06 794.59 -196.85 792.76 -207.39 799.86 -235.81 803.75 -238.33 812.92 -233.52 826.21 -241.31 829.88 -260.1 829.88 -265.59 822.31 -273.39 822.31 -282.02 828.27 -289.99 833.84 -295 826.21 -299.28 826.21 -299.28 820.25 -297.44 814.98 -307.76 795.28 -297.44 779.01 -296.3 768.47 -289.99 762.05 -310.5 747.85 -320.82 724.47"/>
    <polygon class="st5" points="-248.87 729.06 -237.87 725.7 -226.26 712.56 -217.53 720.81 -220.76 707.37 -212.21 700.03 -199.07 700.03 -190.06 694.23 -173.71 688.73 -168.21 679.56 -171.27 654.82 -159.66 657.57 -135.22 667.04 -126.97 679.56 -119.03 682.01 -122.69 691.94 -115.05 695.45 -107.72 716.45 -100.08 717.75 -96.72 729.06 -82.06 741.28 -74.42 756.55 -89.39 770.3 -83.59 773.89 -70.14 770.91 -55.78 776.41 -42.04 778.85 -35.01 794.74 -30.96 804.52 13.57 806.96 28.54 796.57 48.4 779.47 55.73 773.89 59.09 776.72 54.2 785.19 59.09 791.69 53.28 802.07 41.06 811.54 41.06 817.35 37.09 829.88 16.01 846.07 .74 850.34 -15.46 860.73 -31.34 854.93 -27.68 865.62 -35.01 878.45 -46.92 879.98 -55.78 886.7 -60.67 883.34 -72.28 882.73 -78.09 876.62 -89.7 880.28 -103.44 882.73 -108.64 875.24 -106.8 870.2 -106.8 858.52 -115.28 848.44 -123.99 848.89 -131.12 860.12 -151.49 861.72 -154.01 864.7 -159.73 864.7 -164.55 855.08 -149.27 840.19 -145.07 835.6 -155.61 830.79 -155.61 821.86 -157.9 805.82 -160.42 794.13 -165.69 785.19 -171.65 777.63 -174.86 769.84 -173.02 754.26 -170.5 740.28 -165.23 732.26 -167.98 728.37 -178.52 728.83 -192.5 737.76 -199.83 748.76 -206.48 760.91 -218.85 768.93 -227.79 773.89 -232.6 767.55 -237.41 762.74 -237.41 753.8 -241.99 746.93 -243.6 737.76 -248.87 729.06"/>
    <polygon class="st6" points="-398.26 749.68 -402.85 729.97 -410.79 722.95 -413.54 710.73 -436.15 692.7 -451.12 666.73 -457.23 649.93 -451.12 642.29 -441.34 638.93 -437.37 651.15 -441.34 658.48 -427.74 664.9 -421.79 669.48 -420.57 680.17 -410.18 673.15 -398.26 670.7 -381.15 678.65 -374.74 682.92 -369.24 677.73 -360.07 677.73 -356.1 667.04 -348.16 664.9 -355.8 649.01 -362.52 638.93 -345.71 638.93 -342.66 646.87 -337.47 651.15 -341.13 656.34 -337.47 665.51 -331.05 668.57 -331.05 675.29 -331.05 682.01 -325.86 691.48 -325.86 697.44 -320.82 700.95 -308.75 700.64 -298.06 709.81 -294.69 726.77 -298.59 729.06 -303.4 727.91 -306.84 721.95 -310.73 726.54 -320.82 724.47 -331.59 709.58 -339.15 703.62 -340.29 697.44 -355.87 700.41 -363.43 710.04 -369.85 717.83 -375.81 732.95 -390.93 740.97 -398.26 749.68"/>
    <polygon class="st4" points="-345.71 638.93 -350.6 631.29 -348.16 619.38 -342.35 613.27 -333.49 618.16 -324.94 613.27 -316.69 603.8 -318.52 587.91 -336.55 581.49 -346.02 567.75 -348.16 550.64 -342.35 546.67 -333.65 553.08 -325.86 556.14 -318.22 565 -299.58 563.77 -294.69 574.47 -289.99 582.72 -279.11 583.63 -272.7 576.61 -266.59 576.61 -259.87 585.47 -251.62 588.52 -243.02 585.16 -229.93 588.22 -221.98 595.85 -220.15 607.77 -221.68 620.6 -226.87 631.29 -232.68 631.9 -243.02 621.52 -253.45 630.38 -254.98 654.82 -245.81 682.92 -236.65 697.44 -236.95 706.14 -243.02 716.45 -248.87 729.06 -253.68 733.87 -258.95 730.2 -263.07 718.06 -267.2 716.45 -268.57 727.22 -280.72 729.06 -294.69 726.77 -298.06 709.81 -308.75 700.64 -320.82 700.95 -325.86 697.44 -325.86 691.48 -331.05 682.01 -331.05 675.29 -331.05 668.57 -337.47 665.51 -341.13 656.34 -337.47 651.15 -342.66 646.87 -345.71 638.93"/>
    <polygon class="st6" points="-457.23 649.93 -472.81 629.15 -489.61 615.71 -509.77 606.55 -501.53 589.44 -493.58 578.44 -475.56 574.16 -474.95 559.19 -467.31 561.02 -462.42 567.44 -459.98 575.38 -447.45 580.58 -432.79 583.33 -432.79 589.13 -437.06 590.66 -436.45 595.85 -445.31 602.27 -444.4 611.43 -437.67 622.74 -429.12 623.65 -436.45 634.04 -436.15 638.93 -441.34 638.93 -451.12 642.29 -457.23 649.93"/>
    <polygon class="st6" points="-509.77 606.55 -541.24 592.49 -543.99 580.88 -538.49 575.69 -532.08 578.13 -525.05 572.33 -528.41 557.05 -543.99 542.08 -543.99 533.22 -538.8 529.56 -553.16 509.7 -550.71 488.31 -537.88 474.87 -531.47 479.76 -515.89 480.68 -506.72 471.82 -505.19 482.81 -498.78 483.43 -504.58 492.59 -500.92 497.48 -492.67 495.65 -489 487.7 -482.28 485.56 -470.97 493.81 -463.95 497.17 -457.23 495.03 -448.06 501.14 -448.06 509.7 -443.48 517.34 -434.01 524.06 -443.17 533.53 -441.34 542.39 -437.98 548.5 -442.26 556.75 -445.31 566.52 -440.42 576.3 -447.45 580.58 -459.98 575.38 -462.42 567.44 -467.31 561.02 -474.95 559.19 -475.56 574.16 -493.58 578.44 -501.53 589.44 -509.77 606.55"/>
    <polygon class="st2" points="-537.88 474.87 -526.58 459.59 -518.94 451.96 -505.19 446.15 -495.72 434.85 -490.53 441.26 -490.53 454.86 -486.56 461.43 -489.92 469.07 -506.72 471.82 -515.89 480.68 -531.47 479.76 -537.88 474.87"/>
    <polygon class="st6" points="-434.01 524.06 -419.65 525.59 -415.68 509.7 -403.46 503.89 -398.26 517.03 -398.26 529.86 -399.49 539.18 -395.21 550.94 -400.1 561.02 -406.51 572.02 -395.21 590.05 -383.6 594.02 -381.46 602.27 -367.71 614.18 -363.74 624.57 -362.52 638.93 -355.8 649.01 -348.16 664.9 -356.1 667.04 -360.07 677.73 -369.24 677.73 -374.74 682.92 -381.15 678.65 -398.26 670.7 -410.18 673.15 -420.57 680.17 -421.79 669.48 -427.74 664.9 -441.34 658.48 -437.37 651.15 -441.34 638.93 -436.15 638.93 -436.45 634.04 -429.12 623.65 -437.67 622.74 -444.4 611.43 -445.31 602.27 -436.45 595.85 -437.06 590.66 -432.79 589.13 -432.79 583.33 -447.45 580.58 -440.42 576.3 -445.31 566.52 -442.26 556.75 -437.98 548.5 -441.34 542.39 -443.17 533.53 -434.01 524.06"/>
    <polygon class="st2" points="-403.46 503.89 -397.8 496.87 -401.93 486.79 -393.68 470.29 -393.68 462.96 -386.04 457.76 -386.04 438.82 -381.15 434.85 -375.96 442.79 -372.91 432.4 -361.3 416.21 -353.66 412.24 -350.6 426.29 -344.49 443.71 -344.49 455.93 -338.38 462.65 -339.6 476.09 -341.13 496.87 -350.6 513.67 -350.6 528.03 -348.16 535.67 -342.35 546.67 -348.16 550.64 -346.02 567.75 -336.55 581.49 -318.52 587.91 -316.69 603.8 -324.94 613.27 -333.49 618.16 -342.35 613.27 -348.16 619.38 -350.6 631.29 -345.71 638.93 -362.52 638.93 -363.74 624.57 -367.71 614.18 -381.46 602.27 -383.6 594.02 -395.21 590.05 -406.51 572.02 -400.1 561.02 -395.21 550.94 -399.49 539.18 -398.26 529.86 -398.26 517.03 -403.46 503.89"/>
    <polygon class="st2" points="-353.66 412.24 -300.8 392.99 -255.59 366.11 -229.31 334.34 -217.53 292.17 -205.49 292.17 -209.15 274.45 -220.15 262.23 -229.93 246.35 -214.04 250.01 -205.49 246.35 -188.38 254.9 -179.82 254.9 -174.93 261.62 -157.21 273.84 -150.49 298.9 -114.44 317.23 -106.5 329.29 -106.5 341.67 -88.78 345.94 -82.67 361.83 -88.17 370.39 -74.11 381.38 -38.68 378.94 -16.68 374.66 -6.9 364.28 12.04 374.66 32.2 370.39 40.15 366.72 65.81 383.22 85.36 394.22 49.31 449.82 51.14 454.71 63.98 457.76 70.09 455.32 79.25 464.48 91.47 480.68 84.14 485.26 69.48 477.31 43.81 476.09 35.26 488.31 5.32 493.2 -19.12 493.2 -43.56 512.75 -71.67 530.47 -77.78 559.19 -91.22 585.47 -86.34 604.56 -94.89 612.96 -108.33 618.46 -125.44 638.93 -118.11 654.82 -135.22 667.04 -159.66 657.57 -171.27 654.82 -168.21 679.56 -173.71 688.73 -190.06 694.23 -199.07 700.03 -212.21 700.03 -220.76 707.37 -217.53 720.81 -226.26 712.56 -237.87 725.7 -248.87 729.06 -243.02 716.45 -236.95 706.14 -236.65 697.44 -245.81 682.92 -254.98 654.82 -253.45 630.38 -243.02 621.52 -232.68 631.9 -226.87 631.29 -221.68 620.6 -220.15 607.77 -221.98 595.85 -229.93 588.22 -243.02 585.16 -251.62 588.52 -259.87 585.47 -266.59 576.61 -272.7 576.61 -279.11 583.63 -289.99 582.72 -294.69 574.47 -299.58 563.77 -318.22 565 -325.86 556.14 -333.65 553.08 -342.35 546.67 -348.16 535.67 -350.6 528.03 -350.6 513.67 -341.13 496.87 -339.6 476.09 -338.38 462.65 -344.49 455.93 -344.49 443.71 -350.6 426.29 -353.66 412.24"/>
  </g>
  <g>
    <g>
      <path class="st8" d="M-25.44-140.07c-.75-.8-1.67-1.43-2.75-1.87-1.09-.45-2.34-.67-3.75-.67-1.69,0-3.22.4-4.56,1.21-1.35.8-2.42,1.9-3.21,3.29-.79,1.39-1.19,2.98-1.19,4.76s.38,3.28,1.14,4.69c.76,1.41,1.84,2.54,3.23,3.37,1.39.84,3.03,1.26,4.92,1.26,1.22,0,2.34-.18,3.36-.54,1.02-.36,1.91-.86,2.66-1.52.6-.52,1.07-1.12,1.42-1.78.14-.27.03-.6-.24-.73l-3.02-1.43c-.23-.11-.5-.05-.65.16-.32.44-.73.8-1.22,1.08-.62.35-1.36.52-2.23.52-.96,0-1.77-.21-2.44-.64-.67-.42-1.17-1.02-1.5-1.78-.08-.2-.15-.4-.21-.61-.09-.33.17-.66.52-.66h11.41c.26,0,.47-.18.52-.43.03-.13.05-.28.06-.43.03-.34.05-.68.05-1.03,0-1.24-.2-2.39-.59-3.44-.39-1.05-.96-1.98-1.71-2.79M-34.13-138.09c.61-.41,1.34-.62,2.18-.62s1.6.21,2.2.64c.6.42,1.02,1,1.26,1.73.01.04.02.08.04.12.1.34-.16.68-.51.68h-6.03c-.37,0-.63-.37-.5-.71,0,0,0,0,0,0,.3-.8.76-1.41,1.37-1.83"/>
      <path class="st8" d="M-7.31-141.77c-1.01-.56-2.19-.85-3.54-.85-1.24,0-2.32.26-3.24.77-.31.17-.6.38-.85.62-.34.32-.89.06-.89-.4v-.06c0-.29-.24-.53-.53-.53h-3.5c-.29,0-.53.24-.53.53v16.73c0,.29.24.53.53.53h3.82c.29,0,.53-.24.53-.53v-9.87c0-.7.14-1.29.41-1.79.27-.5.66-.89,1.16-1.17.5-.28,1.06-.42,1.69-.42s1.22.14,1.71.42c.49.28.87.67,1.14,1.17.27.5.41,1.1.41,1.79v9.87c0,.29.24.53.53.53h3.83c.29,0,.53-.24.53-.53v-10.91c0-1.35-.28-2.53-.85-3.54-.57-1.01-1.35-1.8-2.36-2.36"/>
      <path class="st8" d="M4.2-138.31c.36-.26.85-.39,1.48-.39.87,0,1.65.22,2.33.67.53.35.94.78,1.21,1.31.13.25.44.36.7.24l2.67-1.25c.26-.12.38-.43.26-.69-.56-1.25-1.42-2.23-2.59-2.96-1.31-.82-2.84-1.22-4.58-1.22-1.33,0-2.5.23-3.52.7-1.02.47-1.81,1.11-2.38,1.94-.57.83-.85,1.79-.85,2.9,0,1.26.39,2.35,1.17,3.28.78.92,1.9,1.59,3.36,2l3.03.85c.39.11.72.24.98.39.26.15.46.32.59.51.13.19.2.41.2.67,0,.5-.19.89-.55,1.17-.37.28-.9.42-1.6.42-.96,0-1.83-.27-2.61-.81-.66-.46-1.2-1.06-1.63-1.81-.14-.24-.44-.35-.69-.23l-2.68,1.27c-.25.12-.37.42-.27.68.55,1.35,1.48,2.43,2.78,3.26,1.44.92,3.15,1.39,5.1,1.39,1.39,0,2.6-.23,3.62-.7,1.02-.47,1.82-1.11,2.4-1.94.58-.83.86-1.79.86-2.9,0-1.28-.39-2.36-1.17-3.24-.78-.88-1.91-1.54-3.39-1.97l-2.84-.85c-.43-.13-.8-.27-1.09-.42-.29-.15-.5-.33-.64-.52-.13-.2-.2-.41-.2-.65,0-.46.18-.81.54-1.08"/>
      <path class="st8" d="M29.71-141.41c-1.43-.8-3.03-1.21-4.79-1.21s-3.36.4-4.81,1.21c-1.45.8-2.6,1.9-3.46,3.29-.86,1.39-1.29,2.99-1.29,4.79s.43,3.37,1.29,4.78c.86,1.4,2.01,2.5,3.46,3.31,1.45.8,3.05,1.21,4.81,1.21s3.36-.4,4.79-1.21c1.43-.8,2.58-1.91,3.44-3.31.86-1.4,1.29-2.99,1.29-4.78s-.43-3.4-1.29-4.79c-.86-1.39-2-2.49-3.44-3.29M28.81-130.78c-.38.74-.9,1.31-1.56,1.73-.66.41-1.44.62-2.33.62s-1.67-.21-2.35-.62c-.67-.41-1.2-.99-1.58-1.73-.38-.74-.57-1.59-.57-2.54s.19-1.8.57-2.53c.38-.73.91-1.3,1.58-1.73.67-.42,1.46-.64,2.35-.64s1.67.21,2.33.64c.66.42,1.18,1,1.56,1.73.38.73.57,1.57.57,2.53s-.19,1.8-.57,2.54"/>
      <path class="st8" d="M46.43-134.79l-2.84-.85c-.43-.13-.8-.27-1.09-.42-.29-.15-.51-.33-.64-.52-.13-.2-.2-.41-.2-.65,0-.46.18-.81.54-1.08.36-.26.85-.39,1.48-.39.87,0,1.65.22,2.33.67.53.35.94.78,1.21,1.31.13.25.44.36.7.24l2.67-1.25c.26-.12.38-.43.26-.69-.56-1.25-1.42-2.23-2.59-2.96-1.31-.82-2.84-1.22-4.58-1.22-1.33,0-2.5.23-3.52.7-1.02.47-1.81,1.11-2.38,1.94-.57.83-.85,1.79-.85,2.9,0,1.26.39,2.35,1.17,3.28.78.92,1.9,1.59,3.36,2l3.03.85c.39.11.72.24.98.39.26.15.46.32.59.51.13.19.2.41.2.67,0,.5-.19.89-.55,1.17-.37.28-.9.42-1.6.42-.96,0-1.83-.27-2.61-.81-.66-.46-1.2-1.06-1.63-1.81-.14-.24-.44-.35-.69-.23l-2.68,1.27c-.25.12-.37.42-.27.68.55,1.35,1.48,2.43,2.78,3.26,1.45.92,3.15,1.39,5.1,1.39,1.39,0,2.6-.23,3.62-.7,1.02-.47,1.82-1.11,2.4-1.94.58-.83.86-1.79.86-2.9,0-1.28-.39-2.36-1.17-3.24-.78-.88-1.91-1.54-3.39-1.97"/>
      <path class="st8" d="M-43.3-130.99l-2.94-1.38c-.39-.18-.86,0-1.04.38-.44.93-1.1,1.72-1.98,2.36-1.01.74-2.26,1.12-3.71,1.12s-2.71-.34-3.81-1.01c-1.09-.67-1.95-1.62-2.55-2.82-.61-1.2-.91-2.63-.91-4.24s.31-3.03.91-4.22c.6-1.18,1.46-2.13,2.55-2.8,1.09-.67,2.37-1.01,3.81-1.01s2.69.38,3.71,1.12c.87.64,1.54,1.43,1.98,2.36.19.39.65.57,1.04.38l2.94-1.38c.38-.18.56-.63.39-1.02-.42-.97-1.05-1.88-1.87-2.71-.96-.97-2.14-1.75-3.51-2.34-1.38-.58-2.95-.88-4.68-.88s-3.35.31-4.82.93c-1.47.62-2.77,1.49-3.86,2.61-1.09,1.12-1.95,2.45-2.54,3.98-.59,1.52-.89,3.2-.89,4.99s.31,3.46.91,4.97c.6,1.51,1.47,2.85,2.56,3.97,1.09,1.12,2.39,2.01,3.85,2.64,1.46.63,3.08.95,4.81.95s3.3-.3,4.68-.88c1.37-.58,2.56-1.37,3.51-2.34.82-.83,1.45-1.74,1.87-2.71.17-.38,0-.84-.39-1.02"/>
      <path class="st8" d="M4.85-106.81v3.28h-13.17v-2.61l6.72-6.35c.71-.68,1.2-1.27,1.44-1.75.25-.49.37-.97.37-1.46,0-.7-.24-1.23-.71-1.61-.47-.37-1.17-.56-2.08-.56-.76,0-1.45.15-2.07.44-.61.29-1.13.73-1.54,1.31l-2.94-1.89c.68-1.01,1.62-1.8,2.81-2.38,1.19-.57,2.56-.86,4.11-.86,1.29,0,2.43.21,3.4.63.97.42,1.73,1.02,2.26,1.79.54.77.81,1.68.81,2.73,0,.95-.2,1.83-.6,2.66-.4.83-1.17,1.78-2.31,2.84l-4.01,3.78h7.49Z"/>
      <path class="st8" d="M10.08-104.3c-1.13-.71-2.01-1.75-2.65-3.1-.64-1.35-.96-2.97-.96-4.84s.32-3.49.96-4.84c.64-1.35,1.52-2.39,2.65-3.1,1.13-.71,2.41-1.07,3.86-1.07s2.73.36,3.86,1.07c1.13.71,2.01,1.75,2.65,3.1.64,1.35.96,2.97.96,4.84s-.32,3.49-.96,4.84c-.64,1.35-1.52,2.38-2.65,3.1-1.13.71-2.41,1.07-3.86,1.07s-2.73-.36-3.86-1.07M16.44-108c.61-.91.91-2.32.91-4.23s-.3-3.32-.91-4.23c-.61-.91-1.44-1.37-2.5-1.37s-1.87.46-2.48,1.37c-.61.91-.91,2.32-.91,4.23s.3,3.32.91,4.23c.61.91,1.43,1.37,2.48,1.37s1.9-.46,2.5-1.37"/>
      <path class="st8" d="M36.24-106.81v3.28h-13.17v-2.61l6.72-6.35c.71-.68,1.2-1.27,1.44-1.75.25-.49.37-.97.37-1.46,0-.7-.24-1.23-.71-1.61-.47-.37-1.17-.56-2.08-.56-.76,0-1.45.15-2.07.44-.61.29-1.13.73-1.54,1.31l-2.94-1.89c.68-1.01,1.62-1.8,2.81-2.38,1.19-.57,2.56-.86,4.11-.86,1.29,0,2.43.21,3.4.63.97.42,1.73,1.02,2.26,1.79.54.77.81,1.68.81,2.73,0,.95-.2,1.83-.6,2.66-.4.83-1.17,1.78-2.32,2.84l-4.01,3.78h7.49Z"/>
      <path class="st8" d="M49.32-112.93c1.17.98,1.75,2.29,1.75,3.93,0,1.06-.27,2.03-.8,2.9-.53.87-1.34,1.57-2.43,2.09-1.09.52-2.43.78-4.02.78-1.23,0-2.43-.16-3.62-.48-1.19-.32-2.2-.78-3.02-1.38l1.59-3.09c.66.5,1.43.88,2.29,1.16.86.27,1.75.41,2.66.41,1.01,0,1.81-.2,2.39-.6.58-.4.87-.95.87-1.67s-.3-1.31-.91-1.69c-.61-.38-1.66-.57-3.15-.57h-4.46l.9-9.81h10.63v3.24h-7.27l-.27,3.31h1.42c2.45,0,4.27.49,5.44,1.47"/>
      <path class="st8" d="M-76.51-143.67c-.5-.25-1.12-.41-1.79-.41s-1.29.15-1.79.41c-.73.37-1.21.96-1.21,1.63s.48,1.26,1.21,1.63c.5.25,1.12.41,1.79.41s1.29-.15,1.79-.41c.73-.37,1.21-.96,1.21-1.63s-.48-1.26-1.21-1.63"/>
      <path class="st8" d="M-100.49-130.02c-.64,0-1.25-.1-1.79-.28v5.61c0,.99.8,1.79,1.79,1.79s1.79-.8,1.79-1.79v-5.61c-.55.18-1.15.28-1.79.28"/>
      <path class="st8" d="M-94.89-126.16v14.55c0,.99.8,1.79,1.79,1.79s1.79-.8,1.79-1.79v-14.55c-.55.18-1.15.28-1.79.28s-1.25-.1-1.79-.28"/>
      <path class="st8" d="M-85.7-121.75c-.65-.02-1.25-.15-1.79-.35v13.43c0,.99.8,1.79,1.79,1.79s1.79-.8,1.79-1.79v-13.28c-.49.14-1.02.21-1.57.21-.07,0-.15,0-.22,0"/>
      <path class="st8" d="M-80.1-138.71v28.03c0,.99.8,1.79,1.79,1.79s1.79-.8,1.79-1.79v-28.03c-.55.18-1.15.28-1.79.28s-1.25-.1-1.79-.28"/>
      <path class="st8" d="M-70.91-126.76c-.64,0-1.25-.1-1.79-.28v6.93c0,.99.8,1.79,1.79,1.79s1.79-.8,1.79-1.79v-6.93c-.55.18-1.15.28-1.79.28"/>
      <path class="st8" d="M-83.91-127.08c-.46-.19-1-.3-1.57-.3-.07,0-.15,0-.22,0-.69.03-1.31.22-1.79.52-.61.37-.99.91-.99,1.51s.38,1.13.99,1.51c.48.3,1.11.49,1.79.52.07,0,.15,0,.22,0,.58,0,1.12-.11,1.57-.3.86-.36,1.43-1,1.43-1.73s-.57-1.37-1.43-1.73"/>
      <path class="st8" d="M-69.11-131.99c-.5-.25-1.12-.41-1.79-.41s-1.29.15-1.79.41c-.73.37-1.21.96-1.21,1.63s.48,1.26,1.21,1.63c.5.25,1.12.41,1.79.41s1.29-.15,1.79-.41c.73-.37,1.21-.96,1.21-1.63s-.48-1.26-1.21-1.63"/>
      <path class="st8" d="M-91.3-131.12c-.5-.25-1.12-.41-1.79-.41s-1.29.15-1.79.41c-.73.37-1.21.96-1.21,1.63s.48,1.26,1.21,1.63c.5.25,1.12.41,1.79.41s1.29-.15,1.79-.41c.73-.37,1.21-.96,1.21-1.63s-.48-1.26-1.21-1.63"/>
      <path class="st8" d="M-98.7-135.26c-.5-.25-1.12-.41-1.79-.41s-1.29.15-1.79.41c-.73.37-1.21.96-1.21,1.63s.48,1.26,1.21,1.63c.5.25,1.12.41,1.79.41s1.29-.15,1.79-.41c.73-.37,1.21-.96,1.21-1.63s-.48-1.26-1.21-1.63"/>
      <path class="st8" d="M-91.3-132.82v-12.08h-3.59v12.08c.55-.18,1.15-.28,1.79-.28s1.25.1,1.79.28"/>
      <path class="st8" d="M-85.48-128.96c.56,0,1.08.07,1.57.21v-16.84h-3.59v16.99c.54-.21,1.15-.33,1.79-.35.07,0,.15,0,.22,0"/>
      <path class="st8" d="M-76.51-145.37v-6.93l-3.59,3.59v3.34c.55-.18,1.15-.28,1.79-.28s1.25.1,1.79.28"/>
      <path class="st8" d="M-70.91-133.97c.64,0,1.25.1,1.79.28v-26l-3.59,3.59v22.41c.55-.18,1.15-.28,1.79-.28"/>
      <path class="st8" d="M-100.49-137.23c.64,0,1.25.1,1.79.28v-6.96c0-.28-3.59,4.49-3.59,4.49v2.47c.55-.18,1.15-.28,1.79-.28"/>
      <path class="st8" d="M-55.4-156.46l-2.67-.19-9.3-9.86-18.15,18.15h-13.74l-9.95,11.42c-.65.75-.57,1.88.17,2.53.34.3.76.44,1.18.44.5,0,1-.21,1.35-.62l8.88-10.19,13.72-.13,3.81-3.81,10.98-10.98,1.87-1.87,8.05,7.27,3.77-.15c.54-.02.97-.47.97-1.01s-.41-.97-.94-1.01"/>
    </g>
    <rect class="st0" x="-117.91" y="-175.16" width="177.08" height="80.32"/>
  </g>
  <g id="dceUnh">
    <g>
      <path class="st7" d="M-137.55,82.31c-.21.66-2.68.51-3.5.44l7.86,17.77-4.42,25.32,6.58,2.64c1.74.7,2.52,2.8,2.15,4.5s-1.97,2.91-3.97,2.91h-23.32c-3.04-.02-4.96-2.07-5.16-5.11-.11-1.76.73-3.38,1.05-5.04l4.76-24.68-5.04-22.73-2.89-.75c-.35-.09-1.15-.6-1.35-.89-.25-.37-.16-1.37.08-1.88l13.85-29.77c2.8-6.03,6.72-11.01,12.25-14.72,3.89-2.6,8.92-1.98,12.12,1.51,3.41,3.71,5.55,8.43,5.75,13.59l.33,8.43,8.81,11.15c1.82,2.31,1.62,5.39,0,7.92,2.71,1.82,4.54,4.43,4.54,7.87v53.38c0,.74-1.16,1.73-1.76,1.74s-1.75-.95-1.75-1.7v-53.4c0-3.19-2.38-5.3-5.2-5.43-7.52-.34-4.13,11.46-9.06,5.52.27-3.1,1.17-5.05,3.61-7.34l-10.29-10.21-6.03,18.97ZM-130.63,59.34l11.89,11.76c1.01,1,3,.89,4.07-.07.84-.75,1.2-2.74.32-3.86l-9.64-12.25-.13-8.33c-.07-4.53-1.73-8.73-4.6-12.05-1.95-2.26-4.86-3.01-7.51-1.66-5.04,3.35-8.86,7.85-11.36,13.38l-13.18,28.35,20.63,4.57,6.06-19.6-1.01-15.56c.1-.93,1.11-2.01,1.88-1.96.57.04,1.56,1.04,1.6,1.64l.99,15.64ZM-150.25,124.97l7.39-24.44-2.9-19.07-11.05-2.32,4.79,21.91-4.49,24.04c2.21.14,4.31.15,6.25-.11ZM-141.03,125.19l4.25-24.46-3.41-7.17.84,7.4-7.28,24.13,5.61.09ZM-141.79,132.2c-6.73-3.9-8.75-3.75-15.79-3.39-.41.94-.2,2.78.5,3.55l15.3-.16ZM-132.18,131.96l-7.44-3.15,1.42,3.48c2,.21,3.95.25,6.02-.33Z"/>
      <path class="st7" d="M-75.49,99.11l1.46,3.63-2.11,23.04,6.57,2.73c1.76.73,2.53,2.74,2.14,4.5-.37,1.66-2.01,2.89-3.99,2.89h-23.32c-3.01,0-4.92-2.11-5.12-5.12-.11-1.74.7-3.35,1.02-4.98l4.17-21.76c.27-1.41-.49-3.69-.91-5.02h-4.21c-.98,0-2.23-.83-2.29-1.88l-.59-10.46c-.32-5.7,1.04-11.22,3.46-16.32l11.81-24.85c2.65-5.57,9.29-12.18,16.47-10.32,8.63,2.23,10.09,16.04,10.2,23.5l8.23,9.58c1.97,2.29,1.98,5.25.53,7.93,3.88,1.39,6.04,4.53,6.04,8.56l-.02,49.51c0,.57-1.02,1.52-1.52,1.61-.6.11-1.89-.82-1.89-1.62l-.02-49.91c0-2.94-2.46-5.01-4.96-5.01-6.36,0-4.04,6.78-6.87,6.78-.66,0-1.83-1.11-1.79-1.79.16-2.5,1.04-4.25,2.56-6.11l-10.08-9.73-1.72,11.84c-1.06,7.28,2.6,15.99,1.3,17.98-.53.8-2.62.63-4.55.8ZM-74.31,48.36c-.02-.95,1.37-1.87,2.03-1.67.53.16,1.38,1.19,1.41,1.82l.6,12.95c.06,1.36.74,3.11,1.68,4.03l9.28,9.08c1.18,1.15,3.25,1,4.3-.3.76-.94.79-2.65-.2-3.8l-8.95-10.47c.05-5.84-1.07-19.66-7.52-21.43-5.64-1.55-10.88,4.68-13.03,9.21l-11.42,24.05c-2.54,5.35-3.55,10.9-3.08,16.85l.54,6.89,24.4-.07c-1.09-5.61-1.9-10.26-1.43-15.43s1.81-10.36,1.99-15.63c.18-5.38-.49-10.35-.61-16.07ZM-88.83,125.15l5.02-21.65c.27-1.17-.21-3.13-.48-4.5h-7.57c.29,1.82.95,3.69.71,5l-3.85,21.14h6.17ZM-79.54,125.15l1.87-21.69c.11-1.32-1.23-3.4-2.61-4.72-.23,1.36,0,2.92.14,4.32l-5.04,22.05,5.64.03ZM-80.42,132.17c-6.39-3.82-9.24-3.83-15.61-3.3-.65.74-.23,3.47.65,3.48,5.33.08,9.8.1,14.96-.18ZM-70.75,131.96l-7.4-3.12,1.42,3.45c1.95.18,3.92.2,5.98-.33Z"/>
      <path class="st7" d="M-55.35,21.1c7.62-1.23,14.24,4.14,14.87,11.33.69,7.82-5.73,14.1-13.07,13.74-7.97-.39-13.56-7.55-11.79-15.62-3.61-2.79-4.29-7.69-1.15-10.9s8.47-2.95,11.13,1.45ZM-58.95,22.03c-1.69-1.57-3.94-1.22-5.12.07-1.24,1.35-1.23,3.52-.05,4.76l5.17-4.82ZM-47.28,26.49c-3.59-2.95-8.3-2.63-11.45-.08-3.44,2.78-4.57,7.39-2.35,11.5,4.51-1.86,12.41-6.37,13.8-11.42ZM-58.7,40.71c3.5,2.85,8.28,2.65,11.6-.18,2.91-2.48,4.27-6.82,2.33-10.71-3.45,5.11-8.33,8.13-13.93,10.89Z"/>
      <path class="st7" d="M-112.63,14.12c7.4-.36,12.97,5.42,13.3,12.06.36,7.13-5.13,12.85-11.79,13.32-7.18.51-13.06-4.92-13.59-11.58-.57-7.19,4.65-13.42,12.07-13.79ZM-113.6,17.7c-5.44.93-8.49,6.16-7.5,10.91,1.04,4.98,5.73,8.14,10.63,7.29s8.43-5.64,7.52-10.74c-.84-4.69-5.32-8.38-10.66-7.46Z"/>
      <path class="st7" d="M-78.32,77.56c1.37,1.72,1.1,7.17-.46,9.01-2.1,2.48-7.16,2.54-9.44.35-2.11-2.02-2.27-8.17-.69-9.95l10.6.59ZM-81.38,81.08c-1.34-.46-3.58-.52-4.85-.52-.42,1.63-.21,3.72.97,4.22.84.36,2.64.21,3.52-.15s1.22-3.25.37-3.55Z"/>
    </g>
  </g>
  <path class="st3" d="M117.78,123.89c.77,1.48.7,3.09-.1,4.5-1.16,2.03-3.08,2.86-2.51,4.54.29.87.01,1.78-.73,2.29l-1.18.82c-.22.16-.3.4-.23.64.62,2.11-.76,4.1-2.88,4.43-1.61.25-2.98-.16-4.35-.98l-3.33-1.99c-2.82-1.68-3.33-4.28-4.91-5.49-3.91-3.01-8.55-5.36-12.99-7.5l-6.04-2.92c-1.9-.92-3.68-1.93-5.38-3.18-1.5-1.1-1.49-2.65-3.7-4.03-.83-.52-1.37-1.34-2.08-2-1.41-1.31-2.08-3.03-1.91-4.96.18-2.06,1.03-2.41-.11-4.28l-10.77-17.68c-2.08-3.41-3.63-7.04-5.05-10.75-.65-1.7-1.25-3.28-2.1-4.87-2.31-4.3-4.45-3.99-6.36-8.61-.73-1.78-1.76-3.5-3.43-4.51l-6.92-4.21c-.59-.36-.81-.99-.8-1.64.03-1.96,3.48-1.79,2.36-2.98-.98-1.04-2.45-1.44-1.88-3.05.06-.16.23-.53.12-.69-1.34-.86-2.04-2.29-1.62-3.86,1.14-4.29,4.6-7.91,8.78-9.32.68-.23,1.32.36,1.57.98.57,1.43.51,3.02.13,4.5-.27,1.03-1.18.93-1.91,1.31-.04.09,0,.24.1.12.85-.44,1.94-.59,2.72.01.59.45,1.16.76,1.92.87,1.23.18,2.25.86,2.87,1.93.24.4.49.79.86,1.13.97-.84,1.57-1.9,1.96-3.08l1.02-3.08c.74-2.25,2.13-4.13,3.67-5.92.96-1.12,2.04-1.96,3.35-2.63,4-2.05,9.18-3.35,12.43-6.44,1.41-1.34,2.35-3.03,2.6-4.97.1-.77.33-1.45.74-2.1l.92-1.44c-.6-1.01-1.61-1.76-2.05-2.82-.28-.68-.05-1.33.59-1.68,3.5-1.96,8.01.52,9.88,3.52.52.83.78,1.7,1.38,2.46s1.38,1.4,2.38,1.57c2,.32,2.26,1.96,2.91,2.87.95,1.33,1.89,2.62,2.71,4.04.5.87,1.27,1.42,2.27,1.61,1.66.32,3.29-.15,4.68-1.06,1.18-.78,2.56-.65,3.69.09.71.46,1.59.38,2.4.29.85-.07,1.66-.28,2.49-.01,2.71.86,5.19,2.22,7.51,3.79l-4.31,6.65c-.06.1-.1.17.01.22,2.58.28,2.29,1.25,3.76,3.08.52.65.58,1.46.29,2.22-.38.99-1.41,1.53-2.44,1.14l-3.51-1.34c-.4-.15-.82-.01-1,.39-.92,2-3.88,1.28-5.19,1.61-3.14.79-5.98,2.35-8.39,4.49-.79.7-1.31,1.46-1.56,2.51-.5,2.12-.26,3.87-.72,5.83s-1.83,2.53-3.54,3.27.28,2.46-1.82,4.31c-.38.34-.42.77-.23,1.21.51,1.17,1.18,2.19,1.99,3.18l2.1,2.56c1.49,1.82,2.58,3.89,1.4,6.27,2.22.22,4.99-.32,6.21,1.74.41.68.49,1.42.5,2.27,1.3-.02,2.51-.05,3.72-.23,2.35-.34,3.12-1.77,5.15-3.05.5-.32,1.1-.58,1.68-.36.48.18.74.8.69,1.32l-.22,2.3c-.23,2.41-.05,4.79.15,7.24l4.87-.33c.64-.04,1.22.13,1.7.55l6.31,10.91c.02,1.45-.36,2.73-1.03,3.98-1.15,2.15-1.04,4.02-.49,6.39.48,2.08.23,3.95-1.34,5.47-.44.43-.89.82-1.31,1.26-.27.29-.29.63-.08.96l.59.94c.53.85.33,1.89-.46,2.54s-1.01,1.53-.53,2.45l1.32,2.52ZM114.8,117.12c-1.93-2.18.08-4.5,1.68-6.05.54-.52.86-1.07.75-1.86l-.47-3.32c-.65-4.62,2.17-7.06,1.75-7.95-1.32-2.82-2.92-5.41-4.47-8.1-.39-.67-.85-1.09-1.66-1.18-1.76-.19-3.33.35-5.04.1-1.12-.16-1.92-.95-2.04-2.09-.25-2.24.38-4.79.17-7.06l-1.57.93c-.84.5-1.71.72-2.69.81-1.81.18-3.57.24-5.35-.05-2.16-.34-1.2-2.97-1.68-3.41-.51-.47-3.84.26-5.7-.45-.87-.33-1.28-1.09-1.07-2,.67-2.89,1.88-2.15-1.22-5.99-1.39-1.73-3.39-3.96-4.04-6.02-.86-2.74,1.98-2.73,1.54-5.86-.33-2.36,3.4-2.25,4.1-3.72.64-1.34.02-6.4,2.33-9.01,3.5-3.94,8.48-6.09,13.72-6.23l1.62-1.57c.25-.24.55-.31.92-.47-1.05-1.39.4-3.88,1.24-5.11l2.16-3.18c-1.82-1-3.7-2.09-5.72-2.27-1.62.12-2.42.72-4-.21-.23-.13-.72-.4-.99-.23-1.79,1.05-3.75,1.62-5.82,1.42-1.82-.17-3.52-.89-4.81-2.19-.63-.63-.65-2.09-1.09-2.45-2.54-2.07-2.01-3.59-3.13-4.04l-1.83-.73c-3.03-1.21-2.87-4.14-3.71-4.93-.74-.7-3.53-2.89-4.67-2.46.84,1.09,1.71,2.54,1.06,3.81-.87,1.7-1.42,1.69-1.79,3.86-.69,4.07-4.42,7.08-7.98,8.71l-6.6,3.03c-2.55,1.17-4.64,2.96-6.16,5.32-2.4,3.71-1.86,5.86-4.5,9.38-.53.71-1.27,1.1-2.18.95-1.1-.18-2.09-.83-2.57-1.84-.72-1.55-1.73-1.41-3.44-2.24-.55-.27-1.09-.28-1.65-.06-.97.39-2.25.65-2.76-.55s-.59-2.62-.14-3.86c.63-1.74,2.3-.11,1.76-1.95-2.96,1.93-4.35,3.37-5.61,6.69-.08.21-.16.4-.06.61.22.45,2,.5,1.84,2.27l-.1,1.14c-.04.42.18.72.54.89.89.52,1.24,1.48,1.37,2.46.16,1.19-.25,2.26-1.44,2.88l4.52,2.77c2.26,1.39,4.06,3.26,5.28,5.64.84,1.65,1.82,3.09,3.1,4.45,1.77,1.88,3.16,3.91,4.15,6.31l3.96,9.57c.83,2.02,1.84,3.85,2.98,5.7l5.5,8.97,4.1,6.48c3.05,4.82.37,5.85.99,7.77.99,3.05,4.47,4,5.44,5.89.65,1.26,1.52,2.27,2.74,3.03,1.77,1.09,3.54,2.06,5.44,2.94l5.87,2.7c5.25,2.41,9.42,4.71,13.63,8.72.86.82.51,1.71.89,1.99,2.04,1.53,4.14,2.93,6.48,4.02.62.29,1.61-.39,1.83-.88.31-.67-.77-2.53.81-3.51l.93-.58c.3-.19.43-.53.26-.87-.49-.96-.28-2.01.51-2.78,1.27-1.24,3.13-2.87,2.48-4.77-.9-2.64-3.17-5.27-.67-8.15Z"/>
</svg>