<?xml version="1.0" encoding="UTF-8"?>
<svg id="Capa_1" xmlns="http://www.w3.org/2000/svg" version="1.1" viewBox="0 0 150 150">
  <!-- Generator: Adobe Illustrator 30.1.0, SVG Export Plug-In . SVG Version: 2.1.1 Build 136)  -->
  <defs>
    <style>
      .st0 {
        fill: #038dd3;
      }

      .st1 {
        fill: #caeae4;
      }

      .st1, .st2, .st3, .st4 {
        stroke: #fff;
        stroke-miterlimit: 10;
        stroke-width: 2.25px;
      }

      .st2 {
        fill: #8383fd;
      }

      .st3 {
        fill: #0056a1;
      }

      .st4 {
        fill: #74c3b5;
      }

      .st5 {
        fill: #31579e;
      }
    </style>
  </defs>
  <g id="siFJ2E">
    <path class="st5" d="M-98.96-65.11c-.79.52-1.57.58-2.52.58h-67.58c-1.56,0-3.01-1.01-3.01-2.65l-.03-29.98-31.5-.02c-1.59,0-2.63-1.21-2.79-2.73l.07-34.14c.02-9.98,4.53-19.44,11.7-26.19-7.22-10.96-6.21-25.38,2.37-35.23,8.46-9.71,22.43-12.77,34.29-7.27,11.42,5.3,18.36,17.56,16.59,30.39,3.62-.63,7.14-.64,10.73,0-1.74-12.64,4.96-24.73,16.1-30.16,11.62-5.66,25.48-2.98,34.15,6.34,8.81,9.47,10.33,23.61,3.74,34.79,7.68,6.67,12.84,16.14,12.88,26.38l.14,35.34c-.31,1.59-1.47,2.51-3.07,2.51h-31.21s0,29.62,0,29.62c0,.98-.34,1.79-1.06,2.43ZM-156.83-164.09c0-.48.36-.41.57-.6,2.59-2.39,5.49-4.42,8.78-5.78,2.25-8.76-.76-17.9-7.53-23.69-9.66-8.26-23.96-7.3-32.5,1.94-8.97,9.7-8.2,24.83,1.81,33.61,6.06,5.31,14.52,7.21,22.37,4.78,1.44-3.85,3.62-7.32,6.5-10.25ZM-108.63-153.82c8.18,2.48,16.82.37,22.89-5.27,9.18-8.54,10.06-22.65,2.07-32.23-7.37-8.84-20.07-11.12-30.03-5.19-8.93,5.33-13.42,15.89-10.79,26.03,7.36,3.13,13.05,9.14,15.86,16.66ZM-116.71-130.27c6.42-9.17,5.39-21.49-2.17-29.5-9.26-9.81-24.68-9.89-34.02-.2-8.38,8.68-8.87,22.37-.87,31.62,4.82,5.57,11.93,8.63,19.43,8.12,6.95-.47,13.53-4.17,17.63-10.04ZM-97.96-102.84h28.66s0-30.5,0-30.5c0-8.32-3.39-16.26-9.26-22.05-.53-.44-.84-1-1.5-1.36-6.84,7.55-17,10.97-27.02,9.12.87,6.64-.45,13.16-3.84,18.87,5.11,4.33,8.87,9.93,11.03,16.19,1.09,3.22,1.66,6.25,1.94,9.73ZM-162.4-125.52l2.01-2.16c-3.86-5.91-5.42-12.84-4.52-19.94-8.09,1.44-16.14-.42-22.65-5.19-1.22-.92-2.31-1.9-3.49-2.98-5.99,5.72-9.45,13.52-9.65,21.85v31.09s28.67,0,28.67,0c.55-8.27,3.77-15.99,9.13-22.15.17-.19.12-.49.5-.52ZM-166.43-70.23h62.87s-.05-31.22-.05-31.22c-.02-8.79-4.14-16.91-10.66-22.73-11.25,12.45-30.67,12.94-42.48.97-5.8,5.65-9.58,13.19-9.6,21.38l-.07,31.59Z"/>
  </g>
  <g>
    <path class="st5" d="M323.07-109.19v5.3l-1.36,3.63c-2.37,5.72-7.68,9.2-13.87,9.2h-12.49c.17,4.68-.32,9.12.17,13.68.33,3.09.7,6.09-1.13,8.86-.92,1.9-2.96,3.1-5.13,3.1h-8.32c-2.29.01-4.45-1.18-5.36-3.23-1.81-2.75-1.34-5.72-1.01-8.76.5-4.52-.03-8.95.19-13.68l-12.72-.03c-5.04-.01-9.47-2.23-12.28-6.45-3-4.66-4.04-10.88-1.07-15.81l11.71-19.37v-17.58c0-9.54,7.24-17.65,16.91-17.87,5.29-.12,10.28-.15,15.58.01,9.44.29,16.7,8.18,16.71,17.51l.03,17.99,12.23,19.63c.74,1.19.29,2.89,1.2,3.85Z"/>
    <path class="st5" d="M285.81-204.6c9.02.12,15.51,8.09,15.13,16.46-.4,8.83-7.82,15.54-16.53,15.19-8.74-.35-15.82-7.81-15.19-16.8.6-8.62,7.69-14.97,16.6-14.86Z"/>
  </g>
  <g>
    <path class="st5" d="M77.13-205.59c8.16,1.69,14.06,8.4,13.68,16.68-.39,8.38-7.14,14.87-15.25,15.19-8.49.33-15.62-6-16.47-14.26-.85-8.26,4.75-15.76,13.01-17.3.24-.05.34-.23.39-.31h4.64Z"/>
    <path class="st5" d="M85.76-64.43l-21.4.02c-6.15-.84-9.79-5.57-9.78-11.59l.03-33.41c-5.28-1.84-9.75-6.31-9.78-12.08l-.15-29.22c1.76-10.14,9.93-16.91,20.06-16.88l21.67.06c10.45.03,18.68,8.56,18.92,18.96l-.04,25.52c-.01,6.28-4.13,11.54-10.14,13.48v34.23c-.01,5.59-3.7,9.8-9.38,10.9Z"/>
  </g>
  <g id="ppDZWZ">
    <path class="st5" d="M271.02,128.23c-.01,2.62-2.31,4.43-4.75,4.43l-15.83-.02c-2.51,0-4.58-2.08-4.59-4.57l-.07-18.58c-1.58-.2-2.9-.03-4.35-.09-1.08-.04-2.12-.94-2.04-2.19l1.3-20.04c-1.85,1.62-1.92,4.21-4.45,5.25-.1.8.37,1.37.37,2.18v36.1c0,1.24-1.12,1.94-2.13,1.97s-2.19-.82-2.19-2.1l-.04-35.38c0-1.66-1.34-2.87-2.81-2.99-1.54-.13-2.99.96-3.29,2.61-.21,1.15.03,2.33-.1,3.51-.14,1.21-1.02,1.75-2.13,1.78-.98.03-2.01-.63-2.08-1.78-.25-3.85-.22-6.89,3.35-9.31-1.19-1.71-1-3.5.13-5.11,2.77-3.93,4.45-8.32,6.01-12.86l2.97-8.65c1.88-5.48,6.49-8.85,11.62-11.31l-.89-3.58c-4.61-1.8-6.82-6.87-5.21-11.44,1.6-4.56,6.54-7.04,11.36-5.51,1.83-2.36,4.44-3.61,7.27-3.62,2.8,0,5.45,1.24,7.34,3.62,4.75-1.49,9.65.91,11.32,5.46,1.66,4.53-.57,9.69-5.23,11.51-.27,1.22-.41,2.26-.94,3.56,4.25,2.18,7.8,5.07,10.58,9.36.84-4.78.26-6.98,3.05-11.03,2.44-3.53,5.98-5.83,10.34-6.75-.4-2-.74-3.89-.63-5.98l-3.5-.1c-1.13-.03-1.84-1.23-1.78-2.21.18-2.78,3.48-1.91,5.22-2.21l.11-5.91c.08-4.68,4.1-8.58,8.88-8.82,3.1-.16,6.03-.13,9.12,0,4.89.2,8.87,4.15,8.94,8.94l.09,5.81c1.81.34,4.79-.62,5.21,1.99.17,1.07-.54,2.4-1.77,2.43l-3.48.1c.02,2.02-.01,3.86-.68,5.93,2.55.73,4.94,1.68,6.85,3.5,1.75,1.67,3.1,3.47,3.92,5.8l11.87,33.55c.3.86,0,1.66-.01,2.65,3.17,1.2,5.16,4.07,4.98,7.47-.05.93.09,1.82-.04,2.74-.15,1.07-1.14,1.7-2.09,1.72s-2.08-.66-2.11-1.72l-.08-3.35c-.04-1.65-1.58-2.9-3.13-2.84s-3.02,1.34-3.02,3.05v35.08c0,1.27-.77,2.16-1.87,2.3-1.04.13-2.46-.54-2.46-1.87l-.05-35.95c-2.52.44-4.6-.79-5.52-2.97-1.49-3.53-2.36-7.18-4.23-10.75l3.5,46.71c.17,2.26-.94,4.56-3.41,4.77-3.37.28-6.7.08-10.15.1-1.93,0-3.83-1.45-3.97-3.5l-1.52-22.42-.3-2.62-.3,3.11-1.34,21.23c-.16,2.53-1.89,4.23-4.41,4.23l-8.67.02c-2.62,0-4.71-1.69-4.6-4.48l2.39-31.46-14.03-.12.69,10.24c.2,1.38-.72,2.51-2.09,2.57l-4.3.09-.1,18.75ZM316.96,32.25v-4.97c0-3.08-2.36-5.57-5.48-5.6-2.7-.03-5.24-.11-7.97.06-2.46.16-4.64,2.34-4.83,4.81-.14,1.93-.04,3.66,0,5.7h18.28ZM263.2,39.61c.62.22.89.71,1.2,1.38,1.18,2.54,4.14,3.48,6.42,2.22,2.42-1.33,3.19-4.35,1.73-6.57-1.5-2.28-4.37-2.82-6.64-1.28-.6.41-1.41.27-2.1.05-1.18-.38-1.24-3.38-4.39-4.01-4.44-.88-5.09,3.56-6.32,4.02-.78.29-1.55.3-2.22-.15-2.31-1.55-5.34-.72-6.67,1.66-1.29,2.31-.33,5.27,2.17,6.41,2.32,1.06,5.19.07,6.21-2.46.47-1.18,1.9-1.9,3.1-1.16,4.06,2.5,5.06-.99,7.53-.11ZM314.63,44.29c1.79-1.92,2.7-4.7,2.25-7.65h-18.16c-.4,3.04.48,5.95,2.58,7.94,4.06,3.85,9.84,3.47,13.33-.28ZM267.13,48.09c-2.31-.56-4.4-1.84-5.79-3.53-1.78.43-3.99.4-5.72.04-1.69,1.66-3.43,3.09-5.99,3.42,1.24,5.76,7.17,8.68,12.32,6.56,2.32-.96,5.08-3.59,5.19-6.49ZM297.15,72.65h21.4s-.57-7.94-.57-7.94c-.08-1.05.71-1.97,1.56-2.16s2.14.03,2.52,1.05l10.03,26.99,7.03-3.77-11.47-32.49c-1.3-4.28-4.94-7.27-9.36-7.55-5.57,6.5-15.44,6.44-21.02,0-3.02.16-5.66,1.47-7.76,3.58-1.81,1.85-3.06,4.19-3.2,6.86-.23,4.27-1.17,8.44-1.08,12.76.09,4.24.59,8.22-.11,12.5-.54,3.3-1.14,6.45-2.04,9.78l8.08.03,2.1-27.65c.07-1.43,1.16-2.27,2.4-2.17,1.34.11,2.04,1.26,1.95,2.63-.18,2.55-.54,5.01-.48,7.53ZM272.34,96.61c-1.47-.04-2.58-.45-3.24-1.3-.64-.82-1.11-2.1-.81-3.19,2.27-8.39,3.14-15.41-.21-23.72-.44-1.09.24-2.27,1.13-2.62.99-.38,2.33-.19,2.8.85,3.55,7.95,3.08,17.29.77,25.62h5.73c4.19-14.01,5.23-30-9.81-37.35-5.52,6.4-15.12,6.22-20.51-.02-5.32,2.57-8.46,4.83-10.37,10.51l-3.3,9.83c-1.33,3.95-3.14,7.47-5.39,11.02l5.62,1.87c2.36-3.66,4.31-7.42,5.98-11.44l3.97-9.59c.51-1.23,1.62-1.75,2.88-1.37,1.16.35,1.61,1.63,1.26,2.9l-3.22,7.8-1.7,28.62h29.13s-.68-8.42-.68-8.42ZM311.85,96.99l2.01,31.28h8.95s-3.88-51.19-3.88-51.19h-20.55c-.64,0-1.17-.33-1.69.31l-3.85,50.87h8.96s1.97-31.13,1.97-31.13c.14-2.22,1.8-3.6,3.92-3.63,2.04-.03,4.03,1.14,4.18,3.49ZM256.32,128.23v-18.78s-6.14,0-6.14,0l.03,18.78c2.12.12,4.01.17,6.11,0ZM266.74,127.44l-.02-17.96c-2.14-.13-4.03-.11-6.1-.02v18.81c1.85.13,3.55.03,5.36.06.45,0,.77-.29.77-.89Z"/>
  </g>
  <g id="BoYXXD.tif">
    <g>
      <path class="st5" d="M567.26-110.4v13.18l-2.11,3.53c-.63,3.89.08,7.81-.31,11.72-.08.8-.8,1.19-1.13,1.74h-1.75c-.38-.56-1.23-.96-1.24-1.81l-.11-10.07h-7.31s-.11,10.07-.11,10.07c0,.85-.86,1.25-1.24,1.81h-1.74c-.25-.55-1.16-.94-1.17-1.75l-.05-19.12c0-1.31.91-2.2,2.04-2.25,3.34-.15,1.81,4.68,2.31,6.92,2.48.11,4.75.05,7.17.04,1.38,0,2.5-1.15,2.5-2.5l.02-8.98c0-3.47-2.19-6.39-5.52-7.28l-5.61-1.51c-3.38,9.22-12.08,15.34-21.76,15.36-9.71.03-18.48-6-21.88-15.34l-5.53,1.46c-3.1.82-5.56,3.43-5.57,6.73l-.02,9.61c0,1.28,1.07,2.39,2.36,2.43,2.51.06,4.87.08,7.37-.02l.03-4.68c0-1.29.86-2.19,2.07-2.24,1.02-.04,2.16.75,2.16,2.04v19.22c-.01.88-.91,1.28-1.25,1.86h-1.75c-.28-.55-1.16-.92-1.16-1.72l-.09-10.15h-7.38s-.1,10.15-.1,10.15c0,.79-.88,1.17-1.16,1.72h-1.75c-.37-.57-1.22-.97-1.23-1.83l-.07-11.73c-1.51-1.45-2.32-3.25-2.31-5.33v-9.05c.02-5.32,3.6-9.72,8.68-11.11,2.44-.67,4.71-1.15,7.19-2.06-3.31-1.92-9.77-2.85-7.97-8.23.94-2.83,1.45-5.72,1.45-8.77l.02-21.38c.01-15.51,12.71-27.79,27.92-27.75,15.28.04,27.76,12.51,27.75,28.02v20.83c0,3.28.57,6.31,1.53,9.37.68,2.15-.38,4.36-2.32,5.26l-5.7,2.65c2.41.88,4.54,1.39,6.83,1.97,4.26,1.08,7.56,4.12,8.64,8.44.07.26.22.43.36.53ZM544.42-164.07c1.17.19,1.74,1.13,1.8,2.08.24,3.68,4.35,2.06,7.43,2.92.33-13.47-10.61-24.25-23.76-24.15-12.92.1-23.71,10.81-23.38,24.17,2.84-.88,7.34.76,7.43-2.98.09-3.83,3.38-6.57,7.19-5.93l23.3,3.89ZM546.68-148.03c.01-1.38,1.17-2.06,2.2-2.06h2.01c1.72,0,2.87-1.26,2.75-2.79s-1.68-2.49-3.31-2.33c-3.69.37-6.97-1.29-8.13-4.95l-22.05-3.65c-.98-.16-1.93.74-1.94,1.67-.06,3.97-3.12,7.03-7.13,6.94-.83-.02-1.67-.07-2.5.11-1.37.31-2.21,1.47-2.05,2.76.14,1.09,1.04,2.18,2.33,2.2l2.54.04c1.22.02,2.09.92,2.1,2.19.08,9.18,7.6,16.52,16.63,16.48,9-.03,16.46-7.29,16.55-16.62ZM518.5-130.69c-5.12-3.47-8.4-8.81-9.11-14.98-.95-.31-1.73-.32-2.86-.57l-.03,6.23c-.02,4.18-.43,8.08-1.77,12.13,4.05,1.93,7.98,3.6,12.28,4.26,2.17.34,1.61-5.92,1.5-7.08ZM543.38-123.6c4.35-.85,8.18-2.36,12.07-4.3-1.17-3.39-1.74-6.74-1.77-10.31l-.08-8.03-2.81.57c-.75,6.19-4.01,11.52-9.18,15.01.03,1.16-.79,7.55,1.78,7.05ZM547.72-117.74l-5.5-1.58c-3.16-.95-5.11-3.84-4.92-7.15.03-.59.12-1.13-.25-1.89-4.55,1.58-9.27,1.6-13.86.02-.44.19-.39,1.11-.35,1.56.31,3.62-1.79,6.66-5.23,7.57-1.73.46-3.39.83-5.21,1.49,2.87,7.48,10.01,12.23,17.77,12.19,7.66-.04,14.82-4.81,17.55-12.21Z"/>
      <path class="st5" d="M481.89-80.22h-1.75c-.89-.77-1.28-1.53-1.28-2.85v-41.17c-2-.63-3.64-1.11-5.5-1.47l-10.1,10.33c-1.91,1.95-4.78,1.84-6.64-.07l-10.07-10.3-5.49,1.53-.04,42.23c0,.86-.97,1.2-1.18,1.77h-1.74c-.64-.67-1.3-1.17-1.3-2.31v-40.43c-1.73.17-3.04.67-4.55,1.1-2.98.84-5.2,3.53-5.21,6.76l-.05,32.9c0,.98-.83,1.37-1.24,1.98h-1.73c-.33-.61-1.3-1.01-1.29-1.98l.23-34.32c.03-4.49,3.91-8.23,7.86-9.32l15.77-4.37c1.09-.3,1.89-1.3,1.88-2.47-.03-2.45.11-4.76-.08-7.15-5.23-3.52-8.43-8.9-9.19-15.15-3.54.02-6.24-2.27-6.92-5.32-.74-3.31.97-6.45,4.1-7.8.49-.21.46-.98.42-1.56-.62-9.65,6.06-18.56,16.06-19.72,4.56-.53,9.46-.5,14.05,0,10.02,1.08,16.81,10.06,16.16,19.73-.05.69-.03,1.1.33,1.55,3.17,1.25,4.89,4.51,4.22,7.7-.68,3.22-3.47,5.47-6.97,5.45-.68,6.34-4.04,11.63-9.18,15.2l-.06,6.83c-.01,1.33.71,2.42,2,2.78l15.05,4.1c2.05.56,6.84,2.63,4.92,5.23-1.67,2.26-3.5-.46-5.86-1.08l-4.42-1.17-.02,40.87c0,.99-.83,1.37-1.22,2ZM479.08-159.27c.95.02,1.84.11,2.65-.12,1.45-.41,2.08-1.91,1.67-3.2-.37-1.16-1.65-1.95-3.05-1.78-5.64.67-10.79-3.15-10.81-8.92l-.04-11.11c-1.43-.73-3.05-.94-4.69-.94h-9.59c-1.63-.01-3.25.24-4.79.86l-.17,12.03c-.08,5.36-5.38,8.64-10.55,8.09-1.72-.19-3.14.76-3.31,2.23-.19,1.63,1,2.91,2.73,2.9.75,0,1.47-.03,2.17.01,1.29.08,2.05,1.01,2.07,2.3.13,9.11,7.61,16.35,16.52,16.37,9.01.02,16.48-7.2,16.62-16.36.02-1.45.97-2.37,2.56-2.34ZM478.75-168.64c.64-5.08-.97-10-4.9-13.28l-.1,8.08c-.03,2.85,2.01,5.3,5,5.2ZM446.13-173.57c-.03-2.69.19-5.24-.15-8.13-4.08,3.16-5.44,8.3-4.8,13.12,2.95-.07,4.98-2.29,4.95-4.98ZM469.29-127.66c-3.15-3.59-1.73-5.72-2.2-9.92-4.75,1.65-9.48,1.68-14.23,0-.56,4.16.91,6.43-2.26,9.9l9.32,9.52,9.38-9.5Z"/>
      <path class="st5" d="M527.36-143.22c4.44,2.23,6.62-2.13,8.36.69.58.95.39,2.32-.73,2.94-3.11,1.71-6.83,1.71-9.92-.07-1.06-.61-1.21-1.99-.6-2.93s1.8-1.18,2.89-.63Z"/>
      <path class="st5" d="M539.2-150.3c-.06,1.31-1,2.04-2,2.09-1.12.05-2.12-.73-2.21-1.98-.06-.84-.04-1.65,0-2.5.05-1.18.96-1.99,1.99-2.05,1.14-.06,2.16.77,2.22,2.04.03.76.05,1.51,0,2.4Z"/>
      <path class="st5" d="M525.19-150.56c.01,1.45-.91,2.32-2.08,2.35-1.11.03-2.08-.77-2.15-2.06-.1-1.83-.29-4.28,1.92-4.47,1.04-.09,2.08.56,2.25,1.75.11.75.05,1.5.06,2.42Z"/>
      <path class="st5" d="M457.03-152.44c4.85,2.32,6.85-2.07,8.57.75.51.84.45,2.23-.56,2.83-3.12,1.85-6.95,1.85-10.09.06-1-.57-1.16-1.82-.78-2.64.49-1.06,1.75-1.53,2.86-1Z"/>
      <path class="st5" d="M455.43-159.42c-.93.9-1.06,2.05-2.34,2.1-1.48.06-1.74-1.05-2.56-2.06-.68-.83-2.13-.89-2.04-2.26.08-1.21.75-2.27,2.24-2.27h4.51c1.35,0,2.02,1,2.17,2.01.2,1.45-1.09,1.64-1.96,2.48Z"/>
      <path class="st5" d="M469.48-159.46c-.96.76-.96,2.08-2.29,2.13-1.5.06-1.78-.98-2.61-2.06-.63-.81-2.19-.88-2.07-2.31.1-1.21.82-2.23,2.33-2.23h4.23c1.32,0,2.13.75,2.34,1.8.3,1.47-.9,1.85-1.92,2.66Z"/>
      <path class="st5" d="M462.37-176.06l-4.57.03c-1.28,0-2.19-.87-2.26-1.93-.1-1.29.85-2.31,2.23-2.31h4.54c1.23.02,2.06.95,2.1,2.05.03,1.02-.7,2.15-2.02,2.16Z"/>
    </g>
  </g>
  <g id="SyXYPi">
    <g>
      <path class="st5" d="M-204.69,129.32c-1.5-.04-2.36-1.16-2.32-2.55.12-3.87.76-7.68,2.11-11.31,1.55-4.19,3.71-8.09,6.92-11.15l1.69-1.61c-6.65-13.83-6.83-30.92-.63-44.96,4.15-9.38,11.19-17.51,20.54-21.88,8.96-4.19,19.27-4.23,28.25-.08,3.64,1.68,6.95,3.89,9.94,6.67,2.25-6.58,6.35-11.62,12.91-14.01,3.24-1.17,6.63-1.58,10.07-1.38,1.26-2.57,3.06-3.92,5.61-5.04,7.06-2.74,16.05-1.03,22.46,2.72,3.64,2.13,7.79,6.03,8.07,10.45.13,2.04.06,3.95.06,5.98l.02,19.57c-.16,2.81-1.27,5.36-3.32,7.25-1.49,1.21-3.21,1.98-5.22,1.9.01,7.69-3.95,14.78-10.51,18.84.46,1.48,1.09,2.9,1.97,4.19.24.29.41.63.76.8l5.61.05c3.76.03,7.32,1.29,10.6,3.13,6.95,3.91,11.79,10.68,14.24,18.2,1.24,3.8,1.8,7.68,1.87,11.68.02,1.32-.83,2.53-2.26,2.53h-139.44ZM-131.68,50.02c.19-.59.01-.97.09-1.42.05-.9.71-1.61,1.42-1.89.93-.37,1.74-.07,2.47.5.67.52,1.43.87,2.25,1.19,4.08,1.61,8.33,2.66,12.74,2.96,2.59.18,5.14.2,7.63-.52l14.34-4.11c.85-.24,1.56-.28,2.29.27,1.27.95.83,2.22.98,3.54,1.44-.11,2.6.35,3.94.97l-.05-15.9c0-1.22-.74-2.34-1.46-3.26-1.32-1.69-2.98-2.94-4.86-3.98-4.59-2.52-10.67-3.84-15.85-2.76-2.01.42-4.75,1.53-5.39,3.71,1.92,4.01,6.22,5.42,10.44,5.25,1.35-.06,2.47.9,2.51,2.19s-.96,2.36-2.31,2.38c-2.18.03-4.27-.16-6.35-.8-3.56-1.09-6.52-3.43-8.23-6.72-4.4-.5-9.99.8-13.22,3.78l-.32.3c-3.33,3.08-4.76,6.18-5.92,10.58l2.87,3.74ZM-160.48,51.48c-.26,1.64-.64,3.19-1.05,4.88,3.98-.16,7.84-.7,11.65-1.68,1.18-.3,2.15-.69,3.28-1.14,1.27-.51,2.95.49,2.95,1.97l-.04,20.48c-.01,6.77-3.91,12.86-9.55,16.5.46,1.59,1.19,3.08,2.24,4.33l4.81.04c.55,0,1.05.05,1.6.12,4.37.52,8.37,2.26,11.85,4.99,5.45-10.54,6.62-23.09,3.87-34.43-2.83-11.68-10.25-22.73-21.42-27.73-7.87-3.52-16.79-3.38-24.54.36-3.34,1.61-6.36,3.77-9.02,6.38-13.72,13.45-16.59,36.21-8.69,53.44,3.51-2.04,7.29-3.11,11.25-3.15h4.11c1.07-1.28,1.75-2.75,2.26-4.34-3.57-2.25-6.33-5.43-7.95-9.25-.46-1.09.08-2.12.95-2.77,1.65-1.24,3.07-2.63,4.46-4.15l.39-.43c2.2-2.4,4.02-5.07,5.72-7.84l.21-.33c3.16-5.14,5.09-10.88,6.16-16.83.24-1.33,1.31-2.18,2.64-1.96,1.14.18,2.06,1.29,1.86,2.55ZM-93.92,77.74l.14-.33c.95-2.21,1.68-4.48,1.69-6.91l.03-6.41c-.16-.21-.02-.39-.02-.61v-11.65s-11.76,3.38-11.76,3.38c-6.81,1.96-16.59.15-23.22-2.57l.03,5.94c3,7.46,4.27,14.63,4.09,22.68,3.96,4.61,9.89,6.88,15.98,5.97,5.48-.81,10.74-4.21,13.02-9.5ZM-84.86,64.08c2.23-1.88,1.78-5.78-.18-7.91-.68-.74-1.5-1.2-2.47-1.1v10.31c.95,0,1.7-.5,2.31-1.01l.34-.29ZM-170.8,89.53c4.1,1.93,8.76,1.99,12.93.22,5.82-2.45,9.66-8.21,9.69-14.56v-16.25c-4.9,1.32-9.81,1.91-14.8,2.02-2.39,6.68-5.95,12.71-10.61,17.92-1.35,1.52-2.72,2.86-4.3,4.2,1.63,2.82,4.19,5.15,7.09,6.45ZM-123.58,93.57c1.21-1.43,1.89-3.1,2.48-4.8l-2.31-1.63c-.33,2.29-.75,4.38-1.31,6.55.36.05.87.2,1.14-.12ZM-100,104.68c.66-.45,1.1-.95,1.57-1.53,1.15-1.4,1.47-3.26.57-4.89-.48-.93-1.15-1.68-1.78-2.53-1.12-1.52-1.87-3.19-2.55-5-4.86,1.7-9.99,1.67-14.8,0-.81,2.45-2.02,4.52-3.6,6.38-.69,1.04-1.28,2.02-1.25,3.28.3,4,5.34,6.3,8.92,6.3h6.69c2.25,0,4.34-.73,6.22-2.02ZM-160.94,108.7c2.8,0,6.39-1.6,7.56-4.21.49-1.08.41-2.22-.14-3.27-.35-.5-.61-1.04-1.01-1.52-1.28-1.54-2.18-3.3-2.89-5.24-4.34,1.48-9.01,1.48-13.38,0-.67,1.78-1.44,3.41-2.59,4.86-.3.37-.59.69-.77,1.13-1.12,1.28-1.31,3.04-.45,4.51,1.41,2.38,4.77,3.76,7.49,3.75h6.16ZM-126.31,98.82c-1.02,2.28-1.85,4.38-3.04,6.42,4.86,5.47,7.47,12.35,8.07,19.52h53.65c-.48-8.19-4.05-16.51-10.51-21.74-3.25-2.62-7.08-4.3-11.25-4.66-1.24-.11-2.37-.07-3.63-.05.72,3.25-.31,6.05-2.44,8.43-.17.18-.26.3-.45.47-2.66,2.41-6.04,3.86-9.69,4.01-2.51.11-4.89.05-7.4.02-3.47-.04-6.7-1.23-9.41-3.34-1.11-.94-2.05-1.96-2.75-3.22-1.07-1.79-1.28-3.71-1.15-5.85ZM-148.66,101.42c.4,2.31-.07,4.34-1.21,6.13-.56.91-1.24,1.61-2.03,2.35-2.59,2.16-5.79,3.37-9.2,3.36l-6.6-.03c-3.18-.01-6.12-1.29-8.54-3.29-2.45-2.12-3.94-5.12-3.28-8.53-4.22-.34-8.33.82-11.83,3.21-6.5,4.42-10.33,12.28-10.98,20.13h76.47c-.64-7.26-3.86-14.37-9.43-18.97l-1.34-.99c-3.49-2.5-7.74-3.73-12.03-3.37Z"/>
      <path class="st5" d="M-101.35,78.05c-.11,1.34-.74,2.44-1.71,3.3-2.39,2.13-6.27,2.52-9.28,1.84-2.59-.58-5.15-2.22-5.45-5.08-.14-1.34.74-2.48,2.06-2.61,1.27-.12,2.41.85,2.5,2.2.04.69,3.41,2,6.39.71.27-.12.81-.34.89-.64.09-1.32,1.07-2.35,2.38-2.31,1.32.04,2.32,1.16,2.2,2.59Z"/>
      <path class="st5" d="M-113.97,61.86c.46.31.84.98.88,1.55.2,2.77-1.94,5.08-4.61,5.3-2.74.22-5.15-1.82-5.41-4.59-.13-1.38.69-2.54,2.04-2.68,1.26-.12,2.45.83,2.48,2.18,0,.31.24.51.52.49.86-.05,0-1.52,1.62-2.39.79-.42,1.67-.39,2.47.15Z"/>
      <path class="st5" d="M-100.61,63.82c.03-1.38,1.05-2.43,2.36-2.4,1.31.03,2.29,1.12,2.23,2.48-.13,2.74-2.36,4.81-5.04,4.82-2.69,0-4.95-2.16-5.01-4.92-.03-1.35.95-2.35,2.22-2.38,1.25-.04,2.31.96,2.33,2.27,0,.24.23.36.4.4.13.04.51-.02.52-.27Z"/>
      <path class="st5" d="M-157.83,80.48c.74,2.18-1.25,3.78-3.25,4.31-2.04.54-4.17.52-6.19-.05-1.52-.42-2.99-1.41-3.24-3.08-.17-1.14.5-2.17,1.5-2.52,1.1-.38,2.26.09,2.83,1.18,1.34.41,2.81.4,4.16,0,.45-.86,1.25-1.35,2.16-1.31.85.03,1.72.57,2.02,1.46Z"/>
      <path class="st5" d="M-156.33,69.71c.97.13.14-1.35,1.41-2.2.74-.5,1.56-.65,2.4-.25.69.33,1.25,1.02,1.28,1.94.07,2.78-2.11,5.02-4.81,5.13-2.75.11-5.11-2.02-5.23-4.82-.04-1.03.49-1.91,1.36-2.28,1.81-.77,2.87.95,2.88.72v.19c.02-.64.17,1.49.71,1.56Z"/>
    </g>
  </g>
  <g id="yqPFq1.tif">
    <g>
      <path class="st5" d="M135.26,331.39v15.79H17.8c-1.83-1.01-3.11-2.59-3.06-4.87.18-3.65-.2-7.21.16-10.78.58-5.77,3.59-10.61,8.85-13.54-5.75-3.8-8.11-10.59-5.97-16.96,1.99-5.93,7.69-10.02,14.34-9.81,2.05-6.55,7.92-10.48,14.55-10.4,2.01-6.52,7.88-10.46,14.49-10.36,1.92-6.32,7.63-10.38,13.97-10.33,6.25.05,11.86,4.08,13.75,10.33,6.72-.13,12.53,3.95,14.52,10.39,6.72-.16,12.5,3.93,14.52,10.36,6.72-.21,12.44,3.98,14.4,9.99,2.06,6.35-.41,13.02-5.99,16.79,5.02,2.94,8.93,7.81,8.93,13.39ZM75.97,279.88c1.53-4.13,4.72-7,8.8-8.64-1.52-4.37-5.55-7.01-9.88-6.96-4.22.05-8.15,2.66-9.64,6.97,4.1,1.63,7.25,4.52,8.79,8.56.22.57.28,1.04.85,1.08.69.05.81-.28,1.08-1.01ZM61.48,290.17c1.56-4.08,4.73-6.97,8.78-8.55-1.49-4.28-5.44-6.95-9.72-6.97s-8.34,2.68-9.78,6.97c4.18,1.65,7.35,4.66,8.83,8.74.2.56.42.87.97.87s.68-.44.92-1.06ZM90.41,290.44c1.5-4.17,4.68-7.16,8.86-8.81-1.44-4.29-5.48-6.99-9.78-6.97-4.28.02-8.22,2.69-9.72,6.97,4.12,1.6,7.32,4.58,8.82,8.65.2.53.33.97.88.96.46-.01.72-.2.94-.8ZM45.98,304.4c.84-6.02,4.4-10.4,9.79-12.43-1.62-4.41-5.63-7.02-9.97-6.94-4.24.08-8.19,2.8-9.57,7.01,5.66,1.98,9.03,6.83,9.74,12.37ZM75.01,303.5c1.43-5.6,4.58-9.67,9.79-11.47-1.49-4.28-5.49-7.05-9.87-7.02-4.33.04-8.23,2.79-9.7,7.02,5.27,1.81,8.42,6.01,9.78,11.47ZM104.04,304.4c.83-6.02,4.4-10.41,9.79-12.42-1.61-4.39-5.64-7.03-9.96-6.95-4.27.08-8.21,2.78-9.58,7.01,5.66,1.99,9.02,6.83,9.74,12.36ZM41.71,307.12c.51-3.73-1.04-7.2-3.7-9.37-2.75-2.24-6.41-2.99-9.84-1.84-5,1.68-7.84,6.69-6.83,11.85.94,4.82,5.31,8.44,10.41,8.3,4.91-.13,9.25-3.74,9.96-8.94ZM59.46,295.46c-5.89.6-9.84,5.86-9.23,11.45.61,5.56,5.65,9.59,11.12,9.11,5.76-.5,9.96-5.56,9.42-11.24-.53-5.57-5.44-9.93-11.32-9.32ZM88.62,295.45c-5.92.52-9.91,5.75-9.38,11.3.53,5.63,5.53,9.7,11.02,9.29,5.79-.44,10.08-5.49,9.55-11.21-.51-5.55-5.35-9.89-11.19-9.38ZM128.79,307.21c.6-4.14-1.23-7.92-4.41-10.08-3.24-2.19-7.38-2.37-10.87-.41-4.35,2.45-6.33,7.57-4.76,12.32,1.46,4.42,5.85,7.45,10.68,7.03,4.62-.4,8.64-3.88,9.36-8.86ZM52.7,317.98c-2.88-2.12-4.81-4.43-5.81-7.45-.16-.46-.51-.7-.9-.7s-.74.24-.9.71c-1.01,3.11-3.08,5.45-5.86,7.49,3.05,1.64,5.01,3.81,6.81,6.57,1.71-3,3.84-4.85,6.66-6.62ZM81.75,317.97c-2.98-2.08-4.94-4.56-5.94-7.73-.42-.55-1.17-.55-1.59,0-1.01,3.24-3.11,5.74-5.97,7.76,2.97,1.67,5.02,3.74,6.78,6.62,1.72-2.91,3.83-4.9,6.73-6.65ZM110.76,317.99c-2.89-2.14-4.82-4.43-5.82-7.45-.15-.47-.5-.71-.89-.71s-.75.23-.91.7c-.99,3.11-3.08,5.46-5.85,7.49,2.92,1.66,4.96,3.62,6.72,6.58,1.75-2.8,3.8-4.87,6.75-6.61ZM43.91,343.03v-10.19c.01-7.23-6.05-13.09-13.36-12.54-6.23.47-11.44,5.56-11.46,11.8l-.03,10.95h24.85ZM72.94,342.99v-10.89c-.39-6.53-5.64-11.65-12.14-11.86-7.14-.11-12.77,5.73-12.75,12.87l.04,9.94,24.85-.05ZM101.97,343.02l-.02-10.52c-.01-6.75-5.65-12.24-12.41-12.25-6.68,0-12.42,5.37-12.42,12.09v10.7s24.84-.02,24.84-.02ZM130.98,343.03l-.04-10.93c-.02-6.29-5.23-11.28-11.46-11.83-7.31-.47-13.38,5.3-13.37,12.58l.02,10.19h24.85Z"/>
      <path class="st5" d="M77.09,247.45c0,1.36-.88,2.2-1.96,2.26-1.01.06-2.14-.7-2.15-1.93l-.08-17.59c-1.49.7-3.46,4.51-5.55,2.31-.8-.84-.78-2.13.08-2.99l6.05-6.04c.86-.86,2.23-.86,3.08,0l6.06,6.04c.88.87.89,2.14.19,2.94-.79.91-2.09.91-3.01.14-.91-.76-1.49-1.75-2.66-2.39l-.04,17.26Z"/>
      <path class="st5" d="M118.54,270.45c0,1.33-1.08,2.08-2.1,2.06-1.09-.02-2.02-.87-2.02-2.11l-.03-17.57c-1.57.96-3.38,4.52-5.5,2.53-.78-.73-.94-2.07-.06-2.95l6.14-6.15c.9-.9,2.24-.81,3.11.05l5.95,5.94c.84.84,1.02,2.03.29,2.94s-2.02,1.03-2.99.23c-.91-.75-1.46-1.75-2.7-2.4l-.08,17.43Z"/>
      <path class="st5" d="M35.62,270.29c0,1.46-1.06,2.29-2.25,2.21-1.16-.08-1.91-1.07-1.91-2.37l-.04-17.11c-1.63.7-3.26,4.33-5.44,2.36-.85-.77-.94-2.13-.06-3.01l6.05-6.06c.87-.87,2.21-.94,3.11-.05l6.04,6.03c.87.87.92,2.13.16,2.96-2.06,2.28-4.13-1.5-5.62-2.42l-.03,17.45Z"/>
    </g>
  </g>
  <g id="_x33_2V8PR">
    <g>
      <path class="st5" d="M88,70.76c-8.93-3.83-10.36,5.79-12.78,6.18-.59.09-2.3-.38-2.11-1.4,1.38-7.44,9.04-11.37,15.98-8.54,5.64,2.31,11.82,3.62,17.94,2.71,3.31-.49,6.35.8,9.39.54,2.76-.23,4.99-2.34,7.96-.26,3.02,2.12,5.68,4.99,6.91,8.69,1.24,3.72-.57,6.79-4.53,8.35l5.16,13.77c1.48,3.93-.49,8.15-4.02,10.31l-25.33,15.5c-1.02.62-2.56.32-3.02,1.14-1.09,1.91.44,5.3-1.02,6.74-.57.57-1.48.66-2.16.36-2.22-.97-.26-5.91-1.52-8.05-4.93-3.01-6.81-8.46-3.5-13.83-7.51-6.34-13.07,6.83-28.21-.95-2.53-1.3-5.52-1.12-8.05.48,2.17,5.52.51,10.53-4.08,13.78-1.3,2.01.65,7.88-1.57,8.62-.83.27-2.4.2-2.51-1.04l-.59-6.32c-4-.16-6.99-1.76-9.05-4.81l-17.5-26.05c-2.58-3.84-2.97-7.87-.86-12.09l12.97-25.9c4.28-8.55,14.98-10.49,23.47-7.03,15.7,6.39,24.04-3.83,27.19-1.98.75.44,1.28,2.31.11,2.96-10.35,5.67-18.39,6.58-29.64,2.35-6.8-2.56-14.81-.42-18.15,6.33l-12.86,26.01c-1.16,2.34-.57,4.72.81,6.76l18.06,26.86c1.95,2.9,5.88,3.31,8.54,1.51,2.5-1.7,3.79-5.39,1.85-8.31l-16.29-24.55,9.5-19.65c.58-1.21,1.82-1.61,2.83-1.13.97.46,1.24,1.75.67,2.91l-8.56,17.48,13.24,19.86c4.19-1.94,8.43-2.56,12.3-.53,13.85,7.28,16.84-7.12,29.55,1.65l17.36-10.54c-.54-3.74-5.73-10.37-2.6-11.97.8-.41,2.15-.09,2.62,1.16,1.54,4.07,3.43,7.79,4.65,12.37l-20.56,12.84c-2.53,1.58-2.94,4.67-1.73,6.86,1.28,2.3,4.42,3.54,6.95,1.98l25.29-15.57c4.99-3.08-2.52-14.55-3.97-19.48-11.46-3.44-8.04-12.78-9.03-13.65-2.38-2.12-12.25,2.25-25.5-3.44ZM127.49,80.63c-.44-3.39-3.36-6.93-6.36-7.51-1.83-.36-3.05,1.99-3.39,3.15-.93,3.08,2.37,7.82,5.82,7.5,1.27-.12,4.26-.62,3.94-3.13Z"/>
      <path class="st5" d="M62.14,15.29c10.43-1.99,19.74,4.94,21.57,14.63,1.9,10.07-4.66,19.71-14.88,21.59-9.61,1.77-19.19-4.46-21.27-14.32-2.05-9.68,3.93-19.87,14.58-21.9ZM61.44,19.48c-8.26,2.5-12.08,11.11-9.63,18.41,2.54,7.55,10.46,11.59,17.79,9.45,7.88-2.3,12.21-10.4,9.93-18.08-2.21-7.44-9.98-12.23-18.08-9.78Z"/>
      <path class="st5" d="M99.65,36.08c9.07-.49,15.98,6.46,16.55,14.53.64,9.04-6.12,16.39-14.82,16.9-8.54.5-15.91-5.92-16.61-14.4-.71-8.61,5.6-16.52,14.88-17.03ZM97.69,40.28c-6.84,1.71-10.34,8.51-8.66,14.62,1.68,6.15,7.98,9.83,13.93,8.49,6.59-1.49,10.46-7.77,9.08-14.19-1.31-6.1-7.52-10.63-14.35-8.92Z"/>
      <path class="st5" d="M70.16,78.29c8.61-1.6,16.12,4.23,17.48,12.15,1.37,8-3.98,15.64-11.86,17.13-8.15,1.54-15.97-3.6-17.55-11.89-1.46-7.65,3.29-15.78,11.93-17.39ZM69.49,82.51c-6.37,2.13-9,8.84-6.91,14.33,2.11,5.54,8.16,8.35,13.49,6.67,6.04-1.9,9.18-8.15,7.35-13.83-1.82-5.66-7.78-9.23-13.94-7.18Z"/>
      <path class="st5" d="M61.31,126c.21,3.17.79,8.83-1.6,9.03-.97.08-1.99-.38-2.08-1.72-.21-3.19-.81-8.78,1.56-9.05,1.02-.11,2.02.37,2.11,1.73Z"/>
      <path class="st5" d="M88.16,126c.2,3.36.79,8.8-1.61,9.03-.96.09-1.98-.39-2.07-1.71-.21-3.15-.8-8.77,1.55-9.05,1.03-.12,2.05.37,2.13,1.73Z"/>
    </g>
  </g>
  <g id="ViAgwP">
    <g>
      <path class="st5" d="M-123.88,340.67c-.01,2.75-1.5,5.13-3.61,6.61-3.54,2.48-8.18,1.38-10.56-2.35-1.35,2.04-3.4,3.38-5.63,3.62-4.83.52-8.61-3.75-8.61-8.12l-.02-69.04c0-1.45-.41-3.51-1.87-3.93-.73-.21-1.52-.14-2.17.31l-6.52,4.6c-.03.32-.31.25-.47.36l-8.45,5.97c3.06,1.68,4.9,4.73,4.9,8.19,0,.78-.61,1.3-1.28,1.36s-1.46-.45-1.47-1.29c-.03-3.35-2.56-6.36-6.05-6.45-4.11-.11-6.89,2.68-6.89,6.75l.02,59.85c0,.86-.47,1.36-1.23,1.48-.57.09-1.53-.3-1.53-1.17l.02-60.95c0-2.84,1.57-5.24,3.61-6.96-1.9-1.4-2.78-3.63-2.46-5.91.37-2.6,1.85-4.72,3.96-6.28l23.01-17.11c1.06-.38,2.2-.95,3.26-.97l4.92-.12c-1.66-2.45-2.75-5.07-3.05-7.95-.91-8.85,6.38-16.21,15.16-15.48,8.57.71,14.63,8.99,12.42,17.55-.53,2.06-1.37,3.98-2.69,5.87l5.5.1c2.49.05,4.6,1.55,6.07,3.65,1.59-.61,3.17-.66,4.78-.24l3.89,1.03c2.21.58,8.45.31,10.01-.26,1.81-.66,3.61-.53,5.04.96,1.29,1.35,2.1,3.25,2.13,5.25l.16,14.45c.03,2.92-1.89,5.33-4.86,5.86,1.4,10.75,3.73,21.14,7,31.35.51,1.6,1.31,2.86,2.2,4.19s.62,3.08-.58,4.16c-2.14,1.92-6.45,2.67-9.37,3.2v19.26c0,1.65-.59,3.04-1.57,4.28-.12.35-.36.42-.61.64-2.92,2.55-7.34,2.27-9.84-.89-1.95,2.47-5.12,3.23-7.91,2.09-2.78-1.14-4.15-3.84-4.14-6.92l.05-18.44c-1.65-.23-3.03-.55-4.6-1.04l-.08,18.91ZM-133.22,251.03l.59-.34c3.53-2,5.49-6.07,5.81-10.18.54-6.85-5.16-12.5-11.89-12.12-6.58.37-11.59,6.4-10.51,13.08.54,3.33,2.2,6.32,4.74,8.49,3.22,2.74,7.56,3.15,11.25,1.06ZM-126.6,278.24c-1.39-.19-2.39-.47-3.36-1.18-2.3-1.65-3.42-4.51-2.73-7.27.81-3.24,4.1-4.97,7.23-3.78,3.04,1.16,4.8,4.35,4.27,7.56-.28,1.68-1.2,2.97-2.62,3.91l.02,12.76c0,1.22.63,2.31,1.48,3.06,1.25,1.09,2.93,1.07,4.21,0,.81-.77,1.47-1.85,1.47-3.06v-11.13c-1.74-1.21-2.72-3.01-2.7-5,.02-2,.98-3.79,2.73-4.94l-.04-11.35c0-1.43-.7-2.71-1.49-3.8-1.16-1.43-2.78-2.15-4.62-2.14l-6.96.04c-5.06,4.38-11.72,4.36-16.69-.02l-7,.04c-.87,0-1.58.51-2.47.71l-23.1,17.23c-1.26.94-2.04,2.31-2.37,3.75-.48,2.08.83,3.88,2.91,4.18,1.81.27,3.5-.32,5.01-1.39l15.52-10.96c2.4-1.69,5.76-1.03,7.24,1.44.71,1.19,1.1,2.51,1.1,3.97l.03,69.37c0,1.92.97,3.61,2.4,4.68,1.72,1.28,3.96,1.14,5.58-.24,1.3-1.1,2.08-2.71,2.09-4.51l.04-36.43c0-.92.89-1.31,1.59-1.2.74.11,1.15.67,1.15,1.52v36.18c0,1.57.66,2.93,1.65,4.01,1.73,1.9,4.53,2.08,6.44.35,1.21-1.09,1.98-2.62,1.98-4.37v-62.02ZM-98.5,268.36c-.42-4.16-.71-7.91-.81-11.83-2.87.37-5.58.27-8.31-.21l-3.9-1.05c-.94-.15-1.85-.34-2.76.14.36,1.26.46,2.43.47,3.69v9.28s15.32-.02,15.32-.02ZM-113.95,277.11l19.15-.02c1.42,0,2.47-1.59,2.46-2.89l-.14-14.47c-.02-1.8-1.37-4.61-2.91-3.91-.7.32-1.17.87-1.13,1.69.19,3.74.38,7.4.9,11.11.07.48.71,1.02.39,1.57-.19.33-.38.92-1.03.92l-17.72.09c-1.56,0-2.58,1.58-2.58,2.93s.96,2.99,2.62,2.99ZM-123.9,272.91c.2-1.72-.72-3.39-2.19-4.15-.85-.44-1.79-.51-2.62-.02-.61.36-1.19,1.01-1.36,1.9-.37,1.9.7,3.85,2.5,4.59.86.35,1.75.23,2.53-.29.53-.36,1.02-1.1,1.13-2.02ZM-113.47,320.39c3.09.16,5.95.48,8.99.43,4.02-.06,7.91-.55,11.81-1.37,1.03-.22,5.01-1.22,5.22-2.37-1.06-1.51-1.99-3.06-2.58-4.9-3.38-10.51-5.75-21.18-7.19-32.28h-16.59s-.03,10.24-.03,10.24c-.09,2.02-.89,3.84-2.36,5.18-1.87,1.61-4.24,2.02-6.68.94-.18,1.77-.86,3.35-.86,5.12l-.08,17.32c3.35,1.55,6.72,1.5,10.36,1.69ZM-108.57,341.97v-18.51s-7.88-.42-7.88-.42v18.99c.09,2.22,1.83,3.86,3.94,3.86,2.07,0,3.89-1.64,3.94-3.93ZM-97.94,342.04l-.03-18.91c-2.76.34-5.2.52-7.84.45v18.47c.09,2.21,1.84,3.88,3.93,3.86,2.1-.02,3.86-1.64,3.94-3.86Z"/>
      <path class="st5" d="M-114.06,237.44c-2.64,4.46.44,9.83,4.84,11.64,2.65,1.09,5.56.72,7.78-1.06,2.59-2.08,4.05-5.32,3.57-8.63-.13-.88.24-1.67,1.13-1.8.77-.12,1.5.4,1.62,1.33.64,4.81-1.65,9.7-5.89,12.16-2.97,1.72-6.34,1.3-9.55.38l-1.33-.38c-8.46-2.43-11.23-13.5-7.2-21.3,4.03-7.8,13.76-10.74,21.44-6.49,7.71,4.27,10.39,14.03,5.85,21.75-.68,1.15-1.8,3.05-3.21,2.05-.45-.32-.82-1.27-.39-1.77,5.12-6.15,3.6-15.2-3.13-19.33-6.75-4.14-15.67-1.21-18.63,6.26.39.21.77.07,1,.25,3.9,3.52,8.91,5.41,14.2,4.93.83-.08,1.42.59,1.45,1.29.03.73-.47,1.39-1.29,1.46-4.25.39-8.39-.51-12.26-2.73ZM-116.45,235.85l-1.42-1.13c-.26,1.65-.35,3.19.11,4.73.36-1.33.69-2.39,1.31-3.6Z"/>
    </g>
  </g>
  <g id="NNvlIG.tif">
    <g>
      <path class="st5" d="M486.51,133.2h-62.15v-7.31c0-3.92,1.36-15.1,2.45-19.57,2.39-9.77,11.34-16.84,21.28-15.37.04-.8.5-2.11-.13-2.65-4.05-3.46-6.37-8.2-6.64-13.58-.12-2.35.18-4.64-.15-7-.48-3.37-1.38-6.85-.39-10.22,1.29-4.39,4.86-7.5,8.88-9.45,5.2-2.51,10.82-3.49,16.41-2.17,4.99,1.18,4.22,4.67,6.11,6.05,2.43,1.77,4.14,4.31,4.69,7.31.7,3.85-2.33,7.15-2.58,8.54-.42,2.38-.05,4.77-.21,7.18-.36,5.58-2.89,10.5-7.31,13.85-.35.67-.09,1.7.25,2.41,1.18-.6,2.33-.58,3.66-.48,8.93.71,15.86,7.27,17.85,15.99,1.59,6.93,1.93,13.82,2.14,20.98.11,3.58-1.64,4.48-4.19,5.49ZM471.1,63.8c.76-.8,1.46-2.13,1.41-3.4-.07-2.03-1.43-3.76-2.99-4.94-3.61-2.72-1.65-4.72-4.82-5.38-6.87-1.42-17.04,1.77-19.58,8.3-.67,1.73-.17,3.62-.12,5.43,1.73-.1,2.48-3.36,5.25-1.51,2.59,1.73,5.71,2.26,8.84,2.15,7.63-.27,8.64-4.76,12-.65ZM469.66,68.88c-.03-.68-1.28-2.03-1.98-1.86-6.51,2.2-12.35,2.82-18.64-.29l-3.29,1.96c-.25,6.16-.21,11.76,4.88,16.01,4.21,3.51,9.97,3.5,14.18-.01,4.98-4.16,5.13-9.67,4.85-15.8ZM463.14,93.95c-.43-1.19-.48-2.01-.94-2.9-3.22,1.02-6.32.81-9.5-.08-.41,1.13-.55,1.97-.77,3.02l5.41,4,5.79-4.04ZM477.69,113.85l-.02,14.63h8.58c-.12-7.16-.47-13.85-1.97-20.6-1.6-7.21-7.34-12.61-14.83-12.79l-10.64,7.32c-.78.54-1.84.75-2.66.16l-10.4-7.49c-7.44.26-13.12,5.5-14.74,12.63-1.55,6.79-1.92,13.57-1.99,20.77h8.53s0-14.79,0-14.79c0-1.42.89-2.43,2.2-2.44,1.13,0,2.19.78,2.2,2.13l.11,15.16,31.18-.04.05-15.1c0-1.42,1.24-2.27,2.41-2.15,1.24.12,2,1.07,2,2.58Z"/>
      <path class="st5" d="M561.46,133.2h-57.89c-2.54-1.01-4.28-1.93-4.18-5.49.2-7.07.55-13.88,2.09-20.75,2.25-10.04,10.94-17.34,21.34-16.07.2-.63.61-1.99.03-2.49-4.11-3.59-6.52-8.44-6.7-13.98-.08-2.24.19-4.43-.13-6.66-.48-3.4-1.4-6.93-.37-10.34,1.3-4.3,4.8-7.37,8.74-9.31,5.18-2.55,10.79-3.53,16.38-2.28,5.22,1.18,3.94,4.3,6.65,6.41,2.77,2.16,4.56,5.43,4.37,8.94-.14,2.49-1.89,4.21-2.57,6.47-1,3.34,2.14,13.58-7.54,21.14-.59.46-.04,1.97.24,2.36,1.08-.48,1.98-.52,3.14-.46,8.58.45,15.61,6.44,17.96,14.67,1.3,4.53,1.9,8.99,2.17,13.69l.35,6.17c.24,4.1.43,6.17-4.08,7.96ZM546,63.83c.76-.97,1.49-2.37,1.34-3.72-.23-2.04-1.56-3.58-3.08-4.74-3.47-2.65-1.61-4.63-4.62-5.26-4.55-.96-9.09-.1-13.28,1.97-4.88,2.41-7.85,6.11-6.43,11.75,1.93-.44,2.48-3.31,5.23-1.49,2.53,1.68,5.54,2.19,8.58,2.12,7.71-.16,8.8-4.84,12.25-.63ZM544.45,68.62c-.07-.66-1.24-1.52-1.9-1.65-6.26,2.26-12.44,2.86-18.62-.21l-3.34,1.92c-.28,6.24-.19,11.98,5.09,16.19,3.94,3.14,9.22,3.29,13.3.31,5.33-3.91,6.15-10.25,5.46-16.57ZM537.99,93.96c-.44-1.3-.48-1.93-.94-2.88-3.17.9-6.25.9-9.52-.18-.36,1.11-.57,2.09-.76,3.13l5.45,3.96,5.77-4.04ZM552.53,113.7v14.77s8.54,0,8.54,0c-.08-7.18-.45-13.96-1.99-20.76-1.63-7.2-7.48-12.54-14.86-12.61l-10.5,7.26c-1.09.75-2.17.67-3.22-.09l-9.91-7.18c-7.45.21-13.2,5.59-14.79,12.78-1.5,6.75-1.86,13.46-1.97,20.61l8.54.07.07-15.16c0-1.33,1.06-2.16,2.25-2.13,1.05.03,2.11.85,2.12,2.16l.06,15.11h31.17s.21-15.66.21-15.66c.02-1.31,1.71-1.77,2.65-1.54,1.02.25,1.64,1.15,1.64,2.37Z"/>
      <path class="st5" d="M505.28,21.55l-9.03-.02c-2.16,0-3.92,1.37-4.44,3.31-.53,2.01.4,4.12,2.36,5.14,1.05.54,1.4,1.71,1.01,2.79-.32.89-1.58,1.73-2.77,1.2-3.78-1.68-5.78-5.71-5.01-9.72.74-3.82,3.93-6.78,8.18-7.19,3.33-.33,6.84-.35,10.17,0,4.41.47,7.64,3.66,8.19,7.73.56,4.14-1.85,8.15-5.9,9.54-1.21.41-2.38-.31-2.74-1.28-.45-1.21.14-2.43,1.4-2.92,2.03-.8,3.17-2.76,2.84-4.88-.3-1.89-1.91-3.69-4.27-3.7Z"/>
      <path class="st5" d="M498.31,33.56c1.15-5.07-4.96-4.49-3.83-7.78.39-1.13,1.61-1.84,2.87-1.33,4.01,1.61,6.17,5.86,5.3,10-.86,4.04-4.46,7.02-8.81,7.02h-8.86c-4.35,0-7.91-3.02-8.74-7.09-.85-4.17,1.36-8.46,5.48-10.01,1.19-.45,2.37.06,2.86,1.19.39.91.07,2.3-1.13,2.82-2.07.89-3.29,2.84-2.88,5.08.36,1.93,2.16,3.6,4.42,3.6l9.15-.02c2.13,0,3.75-1.6,4.18-3.47Z"/>
      <path class="st5" d="M459.95,26.84c-.28,3.06-.02,5.91-.13,8.89-.05,1.29-1.02,2.2-2.13,2.22-1.2.02-2.25-.86-2.25-2.19v-11.29c.02-1.17.99-2.03,2.12-2.03l10.98-.03c1.41,0,2.4.95,2.4,2.21,0,1.24-.99,2.23-2.4,2.2h-8.6Z"/>
      <path class="st5" d="M534.67,35.45c0,1.47-.91,2.53-2.28,2.5-1.44-.03-2.2-1.29-2.17-2.8.06-2.79.07-5.44-.02-8.28l-8.66-.02c-1.41,0-2.4-.95-2.4-2.22,0-1.26.98-2.22,2.41-2.21l10.97.03c1.32,0,2.14,1.06,2.14,2.32l.02,10.68Z"/>
    </g>
  </g>
  <g>
    <polygon class="st1" points="862.17 1191.3 856.98 1191.3 853.31 1196.8 852.09 1206.57 847.2 1212.38 838.65 1221.85 829.48 1235.6 815.43 1245.37 834.07 1258.2 858.2 1278.06 867.67 1278.06 885.09 1273.17 893.95 1257.9 888.14 1242.32 897 1239.87 908.61 1234.68 905.25 1220.32 897 1218.18 888.75 1214.51 878.06 1210.24 871.34 1192.82 867.37 1198.32 862.17 1191.3"/>
    <polygon class="st2" points="871.34 1192.82 878.67 1182.74 862.02 1170.52 862.02 1156.16 854.23 1145.77 845.98 1145.77 834.68 1143.94 834.68 1159.52 828.87 1162.88 827.65 1171.13 813.9 1171.44 805.65 1185.19 799.24 1194.35 806.88 1204.43 800.46 1218.49 807.18 1224.9 807.18 1239.57 815.43 1245.37 829.48 1235.6 838.65 1221.85 847.2 1212.38 852.09 1206.57 853.31 1196.8 856.98 1191.3 862.17 1191.3 867.37 1198.32 871.34 1192.82"/>
    <polygon class="st4" points="834.68 1143.94 823.68 1107.28 826.73 1097.2 823.68 1086.81 826.12 1081.92 826.73 1075.51 817.57 1068.17 823.68 1064.81 830.1 1053.51 836.51 1037.32 833.46 1031.51 836.51 1020.51 843.54 1018.68 849.65 1004.63 859.73 992.1 862.02 976.52 901.28 993.94 937.64 976.52 937.64 1005.54 932.44 1013.49 936.11 1020.82 943.75 1039.46 943.75 1045.57 936.41 1044.34 936.41 1055.34 923.89 1067.56 922.67 1072.45 917.78 1076.42 915.94 1082.23 917.47 1091.7 928.78 1102.7 918.69 1110.03 916.25 1117.97 897 1101.78 885.7 1110.95 894.86 1126.83 895.17 1130.5 888.45 1125.31 884.78 1122.56 878.67 1128.97 885.39 1139.36 890.28 1141.5 890.59 1133.25 895.17 1139.66 901.28 1142.72 911.97 1143.94 911.97 1155.86 920.83 1160.74 933.05 1162.27 933.05 1168.38 931.22 1172.66 933.97 1182.74 905.25 1220.32 897 1218.18 878.06 1210.24 871.34 1192.82 878.67 1182.74 862.02 1170.52 862.02 1156.16 854.23 1145.77 845.98 1145.77 834.68 1143.94"/>
    <polygon class="st4" points="800.46 1218.49 774.49 1206.57 757.08 1194.66 754.33 1187.94 729.58 1180.3 692.92 1161.05 675.81 1157.38 659.31 1143.94 631.51 1128.97 603.41 1115.22 610.74 1103.31 622.04 1095.98 628.76 1098.42 635.48 1099.95 644.65 1114.92 651.07 1117.06 655.95 1113.7 659.92 1122.56 669.09 1113.7 685.59 1111.56 693.23 1109.42 699.34 1111.86 701.93 1104.84 709.11 1105.45 714.92 1094.14 715.22 1077.65 722.25 1077.65 726.83 1071.23 732.94 1069.7 740.58 1071.54 746.69 1069.7 747.91 1077.65 753.72 1079.17 762.58 1076.42 768.99 1080.4 768.99 1068.17 780.91 1081.92 779.99 1090.17 791.3 1094.75 798.02 1089.87 804.13 1089.56 807.49 1093.53 813.9 1091.7 817.57 1099.64 823.68 1107.28 834.68 1143.94 834.68 1159.52 828.87 1162.88 827.65 1171.13 813.9 1171.44 805.65 1185.19 799.24 1194.35 806.88 1204.43 800.46 1218.49"/>
    <polygon class="st1" points="603.41 1115.22 595.46 1102.09 585.38 1094.14 580.49 1083.14 563.38 1077.65 545.97 1054.12 542 1044.04 535.28 1044.04 539.25 1036.4 531.61 1026.32 540.16 1026.32 541.39 1008.91 538.94 995.46 547.19 983.85 559.11 976.52 567.51 978.05 567.51 989.96 562.47 996.07 567.51 1000.66 578.05 1001.88 580.49 1008.91 576.21 1014.1 577.13 1029.07 587.82 1030.9 592.41 1036.71 601.88 1039.46 601.27 1057.18 604.63 1060.23 603.41 1064.51 606.46 1068.17 612.57 1065.12 618.68 1073.06 622.65 1082.53 624.79 1088.34 622.04 1095.98 610.74 1103.31 603.41 1115.22"/>
    <polygon class="st1" points="567.51 978.05 578.2 961.86 583.55 953.3 590.57 946.28 601.88 935.58 600.04 923.67 603.41 919.39 608.29 922.75 624.79 919.39 636.4 925.81 633.04 932.53 630.9 944.14 638.23 948.72 641.9 961.86 645.26 976.52 637.93 978.05 637.93 984.77 634.87 987.82 624.79 989.35 626.01 996.68 616.24 994.85 611.35 998.21 615.93 1004.93 620.51 1026.32 621.12 1032.74 611.35 1037.93 601.88 1039.46 592.41 1036.71 587.82 1030.9 577.13 1029.07 576.21 1014.1 580.49 1008.91 578.05 1001.88 567.51 1000.66 562.47 996.07 567.51 989.96 567.51 978.05"/>
    <polygon class="st1" points="636.4 925.81 642.21 932.53 648.62 938.03 665.12 935.28 670.62 953.3 682.53 960.94 687.73 982.94 700.86 995.16 704.22 1001.27 696.59 1001.27 684.98 997.6 677.64 990.88 670.31 992.71 670.31 1005.85 676.73 1022.96 687.42 1045.87 686.81 1061.45 689.25 1065.12 684.67 1073.98 687.42 1079.48 699.34 1072.76 710.03 1071.84 715.83 1068.17 725.55 1073.02 722.25 1077.65 715.22 1077.65 714.92 1094.14 709.11 1105.45 701.93 1104.84 699.34 1111.86 693.23 1109.42 685.59 1111.56 669.09 1113.7 659.92 1122.56 655.95 1113.7 651.07 1117.06 644.65 1114.92 635.48 1099.95 628.76 1098.42 622.04 1095.98 624.79 1088.34 622.65 1082.53 618.68 1073.06 612.57 1065.12 606.46 1068.17 603.41 1064.51 604.63 1060.23 601.27 1057.18 601.88 1039.46 611.35 1037.93 621.12 1032.74 620.51 1026.32 615.93 1004.93 611.35 998.21 616.24 994.85 626.01 996.68 624.79 989.35 634.87 987.82 637.93 984.77 637.93 978.05 645.26 976.52 641.9 961.86 638.23 948.72 630.9 944.14 633.04 932.53 636.4 925.81"/>
    <polygon class="st1" points="704.22 1001.27 711.86 1003.41 719.04 999.13 729.89 1001.27 744.25 1008.29 756.77 1016.24 762.58 1019.6 766.85 1032.12 760.13 1049.84 755.86 1054.43 742.72 1060.84 746.69 1069.7 740.58 1071.54 732.94 1069.7 726.83 1071.23 725.55 1073.02 715.83 1068.17 710.03 1071.84 699.34 1072.76 687.42 1079.48 684.67 1073.98 689.25 1065.12 686.81 1061.45 687.42 1045.87 676.73 1022.96 670.31 1005.85 670.31 992.71 677.64 990.88 684.98 997.6 696.59 1001.27 704.22 1001.27"/>
    <polygon class="st4" points="665.12 935.28 674.9 933.44 683.45 927.94 683.45 919.39 691.09 905.95 687.42 901.06 678.1 898.31 683.14 893.12 687.12 893.12 691.09 882.73 704.84 880.28 716.44 876.62 722.25 882.73 733.86 883.34 738.75 886.7 747.61 879.98 759.52 878.45 759.52 887.01 753.11 894.95 750.05 905.95 750.36 918.17 760.74 925.81 765.33 936.5 771.44 938.33 776.63 946.89 774.8 957.27 783.66 966.44 798.63 967.66 819.1 976.52 851.48 982.63 848.73 974.08 862.02 976.52 859.73 992.1 849.65 1004.63 843.54 1018.68 836.51 1020.51 833.46 1031.51 836.51 1037.32 830.1 1053.51 823.68 1064.81 817.57 1068.17 826.73 1075.51 826.12 1081.92 823.68 1086.81 826.73 1097.2 823.68 1107.28 817.57 1099.64 813.9 1091.7 807.49 1093.53 804.13 1089.56 798.02 1089.87 791.3 1094.75 779.99 1090.17 780.91 1081.92 768.99 1068.17 768.99 1080.4 762.58 1076.42 753.72 1079.17 747.91 1077.65 746.69 1069.7 742.72 1060.84 755.86 1054.43 760.13 1049.84 766.85 1032.12 762.58 1019.6 744.25 1008.29 729.89 1001.27 719.04 999.13 711.86 1003.41 704.22 1001.27 700.86 995.16 687.73 982.94 682.53 960.94 670.62 953.3 665.12 935.28"/>
    <polygon class="st1" points="759.52 878.45 766.85 865.62 763.19 854.93 779.07 860.73 795.27 850.34 810.54 846.07 831.62 829.88 835.59 817.35 835.59 811.54 847.81 802.07 847.81 862.57 853.92 858.59 862.02 866.84 867.37 866.84 884.17 858.59 906.17 860.43 920.22 882.12 941.61 922.45 951.99 943.53 954.44 952.69 948.94 960.02 938.86 967.05 937.64 976.52 901.28 993.94 862.02 976.52 848.73 974.08 851.48 982.63 819.1 976.52 798.63 967.66 783.66 966.44 774.8 957.27 776.63 946.89 771.44 938.33 765.33 936.5 760.74 925.81 750.36 918.17 750.05 905.95 753.11 894.95 759.52 887.01 759.52 878.45"/>
    <polygon class="st0" points="538.94 995.46 525.5 980.8 523.67 969.19 516.33 964 502.89 938.94 494.03 932.53 490.37 916.03 490.37 911.14 484.26 903.2 487.92 899.84 480.9 889.45 471.12 885.48 465.31 888.23 456.76 885.48 460.43 876.62 444.54 843.93 447.59 834.76 449.12 829.14 453.7 829.88 454.32 834.46 451.57 839.65 457.68 842.1 460.12 850.04 466.23 850.34 478.15 838.74 484.26 832.01 490.06 826.21 499.53 826.21 506.56 836.9 517.86 865.93 522.14 881.81 529.47 896.17 535.89 899.53 537.72 910.84 548.11 922.14 556.36 922.14 569.8 927.33 568.27 934.67 576.21 946.58 572.24 952.39 580.49 958.19 578.2 961.86 567.51 978.05 559.11 976.52 547.19 983.85 538.94 995.46"/>
    <polygon class="st4" points="465.31 888.23 473.72 893.27 480.44 904.42 485.48 918.32 486.24 925.81 478.15 932.68 481.2 934.21 487.16 930.39 494.03 932.53 490.37 916.03 490.37 911.14 484.26 903.2 487.92 899.84 480.9 889.45 471.12 885.48 465.31 888.23"/>
    <polygon class="st4" points="517.86 865.93 531.61 869.06 535.35 859.66 548.64 856.68 570.87 855.08 578.2 850.96 594.24 849.81 601.27 844.31 615.55 852.79 629.98 855.08 634.8 864.7 640.53 864.7 643.05 861.72 663.41 860.12 670.54 848.89 679.25 848.44 687.73 858.52 687.73 870.2 685.89 875.24 691.09 882.73 687.12 893.12 683.14 893.12 678.1 898.31 687.42 901.06 691.09 905.95 683.45 919.39 683.45 927.94 674.9 933.44 665.12 935.28 648.62 938.03 642.21 932.53 636.4 925.81 624.79 919.39 608.29 922.75 603.41 919.39 600.04 923.67 601.88 935.58 590.57 946.28 583.55 953.3 580.49 958.19 572.24 952.39 576.21 946.58 568.27 934.67 569.8 927.33 556.36 922.14 548.11 922.14 537.72 910.84 535.89 899.53 529.47 896.17 522.14 881.81 517.86 865.93"/>
    <polygon class="st4" points="504.55 833.84 512.52 828.27 521.15 822.31 528.94 822.31 534.44 829.88 553.22 829.88 561.02 826.21 556.2 812.92 558.72 803.75 587.14 799.86 597.68 792.76 604.47 794.59 616.7 792.76 628.84 785.19 634.11 794.13 636.63 805.82 638.92 821.86 638.92 830.79 649.46 835.6 645.26 840.19 629.98 855.08 615.55 852.79 601.27 844.31 594.24 849.81 578.2 850.96 570.87 855.08 548.64 856.68 535.35 859.66 531.61 869.06 517.86 865.93 506.56 836.9 504.55 833.84"/>
    <polygon class="st4" points="396.27 749.68 400.85 761.14 407.73 766.41 406.58 770.76 411.85 777.63 420.79 796.65 423.31 805.13 433.85 831.48 444.54 843.93 447.59 834.76 449.12 829.14 453.7 829.88 454.32 834.46 451.57 839.65 457.68 842.1 460.12 850.04 466.23 850.34 478.15 838.74 484.26 832.01 490.06 826.21 495.25 826.21 495.25 820.25 497.09 814.98 486.78 795.28 497.09 779.01 498.23 768.47 504.55 762.05 484.03 747.85 473.72 724.47 462.95 709.58 455.38 703.62 454.24 697.44 438.66 700.41 431.1 710.04 424.68 717.83 418.72 732.95 403.6 740.97 396.27 749.68"/>
    <polygon class="st2" points="473.72 724.47 483.8 726.54 487.69 721.95 491.13 727.91 495.94 729.06 499.84 726.77 513.81 729.06 525.96 727.22 527.33 716.45 531.46 718.06 535.58 730.2 540.85 733.87 545.66 729.06 550.93 737.76 552.54 746.93 557.12 753.8 557.12 762.74 561.93 767.55 566.74 773.89 575.68 768.93 588.05 760.91 594.7 748.76 602.03 737.76 616.01 728.83 626.55 728.37 629.3 732.26 624.03 740.28 621.51 754.26 619.67 769.84 622.88 777.63 628.84 785.19 616.7 792.76 604.47 794.59 597.68 792.76 587.14 799.86 558.72 803.75 556.2 812.92 561.02 826.21 553.22 829.88 534.44 829.88 528.94 822.31 521.15 822.31 512.52 828.27 504.55 833.84 499.53 826.21 495.25 826.21 495.25 820.25 497.09 814.98 486.78 795.28 497.09 779.01 498.23 768.47 504.55 762.05 484.03 747.85 473.72 724.47"/>
    <polygon class="st3" points="545.66 729.06 556.66 725.7 568.27 712.56 577 720.81 573.77 707.37 582.33 700.03 595.46 700.03 604.47 694.23 620.82 688.73 626.32 679.56 623.26 654.82 634.87 657.57 659.31 667.04 667.56 679.56 675.51 682.01 671.84 691.94 679.48 695.45 686.81 716.45 694.45 717.75 697.81 729.06 712.47 741.28 720.11 756.55 705.14 770.3 710.95 773.89 724.39 770.91 738.75 776.41 752.5 778.85 759.52 794.74 763.57 804.52 808.1 806.96 823.07 796.57 842.93 779.47 850.26 773.89 853.62 776.72 848.73 785.19 853.62 791.69 847.81 802.07 835.59 811.54 835.59 817.35 831.62 829.88 810.54 846.07 795.27 850.34 779.07 860.73 763.19 854.93 766.85 865.62 759.52 878.45 747.61 879.98 738.75 886.7 733.86 883.34 722.25 882.73 716.44 876.62 704.84 880.28 691.09 882.73 685.89 875.24 687.73 870.2 687.73 858.52 679.25 848.44 670.54 848.89 663.41 860.12 643.05 861.72 640.53 864.7 634.8 864.7 629.98 855.08 645.26 840.19 649.46 835.6 638.92 830.79 638.92 821.86 636.63 805.82 634.11 794.13 628.84 785.19 622.88 777.63 619.67 769.84 621.51 754.26 624.03 740.28 629.3 732.26 626.55 728.37 616.01 728.83 602.03 737.76 594.7 748.76 588.05 760.91 575.68 768.93 566.74 773.89 561.93 767.55 557.12 762.74 557.12 753.8 552.54 746.93 550.93 737.76 545.66 729.06"/>
    <polygon class="st4" points="396.27 749.68 391.69 729.97 383.74 722.95 380.99 710.73 358.38 692.7 343.41 666.73 337.3 649.93 343.41 642.29 353.19 638.93 357.16 651.15 353.19 658.48 366.79 664.9 372.74 669.48 373.97 680.17 384.35 673.15 396.27 670.7 413.38 678.65 419.79 682.92 425.29 677.73 434.46 677.73 438.43 667.04 446.37 664.9 438.73 649.01 432.01 638.93 448.82 638.93 451.87 646.87 457.07 651.15 453.4 656.34 457.07 665.51 463.48 668.57 463.48 675.29 463.48 682.01 468.67 691.48 468.67 697.44 473.72 700.95 485.78 700.64 496.48 709.81 499.84 726.77 495.94 729.06 491.13 727.91 487.69 721.95 483.8 726.54 473.72 724.47 462.95 709.58 455.38 703.62 454.24 697.44 438.66 700.41 431.1 710.04 424.68 717.83 418.72 732.95 403.6 740.97 396.27 749.68"/>
    <polygon class="st2" points="448.82 638.93 443.93 631.29 446.37 619.38 452.18 613.27 461.04 618.16 469.59 613.27 477.84 603.8 476.01 587.91 457.98 581.49 448.51 567.75 446.37 550.64 452.18 546.67 460.88 553.08 468.67 556.14 476.31 565 494.95 563.77 499.84 574.47 504.55 582.72 515.42 583.63 521.83 576.61 527.94 576.61 534.67 585.47 542.91 588.52 551.51 585.16 564.61 588.22 572.55 595.85 574.38 607.77 572.85 620.6 567.66 631.29 561.86 631.9 551.51 621.52 541.08 630.38 539.55 654.82 548.72 682.92 557.88 697.44 557.58 706.14 551.51 716.45 545.66 729.06 540.85 733.87 535.58 730.2 531.46 718.06 527.33 716.45 525.96 727.22 513.81 729.06 499.84 726.77 496.48 709.81 485.78 700.64 473.72 700.95 468.67 697.44 468.67 691.48 463.48 682.01 463.48 675.29 463.48 668.57 457.07 665.51 453.4 656.34 457.07 651.15 451.87 646.87 448.82 638.93"/>
    <polygon class="st4" points="337.3 649.93 321.72 629.15 304.92 615.71 284.76 606.55 293.01 589.44 300.95 578.44 318.97 574.16 319.58 559.19 327.22 561.02 332.11 567.44 334.55 575.38 347.08 580.58 361.75 583.33 361.75 589.13 357.47 590.66 358.08 595.85 349.22 602.27 350.14 611.43 356.86 622.74 365.41 623.65 358.08 634.04 358.38 638.93 353.19 638.93 343.41 642.29 337.3 649.93"/>
    <polygon class="st4" points="284.76 606.55 253.29 592.49 250.54 580.88 256.04 575.69 262.45 578.13 269.48 572.33 266.12 557.05 250.54 542.08 250.54 533.22 255.73 529.56 241.37 509.7 243.82 488.31 256.65 474.87 263.07 479.76 278.65 480.68 287.81 471.82 289.34 482.81 295.75 483.43 289.95 492.59 293.62 497.48 301.87 495.65 305.53 487.7 312.25 485.56 323.56 493.81 330.58 497.17 337.3 495.03 346.47 501.14 346.47 509.7 351.05 517.34 360.52 524.06 351.36 533.53 353.19 542.39 356.55 548.5 352.27 556.75 349.22 566.52 354.11 576.3 347.08 580.58 334.55 575.38 332.11 567.44 327.22 561.02 319.58 559.19 318.97 574.16 300.95 578.44 293.01 589.44 284.76 606.55"/>
    <polygon class="st1" points="256.65 474.87 267.95 459.59 275.59 451.96 289.34 446.15 298.81 434.85 304 441.26 304 454.86 307.98 461.43 304.61 469.07 287.81 471.82 278.65 480.68 263.07 479.76 256.65 474.87"/>
    <polygon class="st4" points="360.52 524.06 374.88 525.59 378.85 509.7 391.07 503.89 396.27 517.03 396.27 529.86 395.05 539.18 399.32 550.94 394.44 561.02 388.02 572.02 399.32 590.05 410.93 594.02 413.07 602.27 426.82 614.18 430.79 624.57 432.01 638.93 438.73 649.01 446.37 664.9 438.43 667.04 434.46 677.73 425.29 677.73 419.79 682.92 413.38 678.65 396.27 670.7 384.35 673.15 373.97 680.17 372.74 669.48 366.79 664.9 353.19 658.48 357.16 651.15 353.19 638.93 358.38 638.93 358.08 634.04 365.41 623.65 356.86 622.74 350.14 611.43 349.22 602.27 358.08 595.85 357.47 590.66 361.75 589.13 361.75 583.33 347.08 580.58 354.11 576.3 349.22 566.52 352.27 556.75 356.55 548.5 353.19 542.39 351.36 533.53 360.52 524.06"/>
    <polygon class="st1" points="391.07 503.89 396.73 496.87 392.6 486.79 400.85 470.29 400.85 462.96 408.49 457.76 408.49 438.82 413.38 434.85 418.57 442.79 421.63 432.4 433.24 416.21 440.87 412.24 443.93 426.29 450.04 443.71 450.04 455.93 456.15 462.65 454.93 476.09 453.4 496.87 443.93 513.67 443.93 528.03 446.37 535.67 452.18 546.67 446.37 550.64 448.51 567.75 457.98 581.49 476.01 587.91 477.84 603.8 469.59 613.27 461.04 618.16 452.18 613.27 446.37 619.38 443.93 631.29 448.82 638.93 432.01 638.93 430.79 624.57 426.82 614.18 413.07 602.27 410.93 594.02 399.32 590.05 388.02 572.02 394.44 561.02 399.32 550.94 395.05 539.18 396.27 529.86 396.27 517.03 391.07 503.89"/>
    <polygon class="st1" points="440.87 412.24 493.73 392.99 538.94 366.11 565.22 334.34 577 292.17 589.05 292.17 585.38 274.45 574.38 262.23 564.61 246.35 580.49 250.01 589.05 246.35 606.16 254.9 614.71 254.9 619.6 261.62 637.32 273.84 644.04 298.9 680.09 317.23 688.03 329.29 688.03 341.67 705.75 345.94 711.86 361.83 706.36 370.39 720.42 381.38 755.86 378.94 777.85 374.66 787.63 364.28 806.57 374.66 826.73 370.39 834.68 366.72 860.34 383.22 879.89 394.22 843.84 449.82 845.68 454.71 858.51 457.76 864.62 455.32 873.78 464.48 886 480.68 878.67 485.26 864.01 477.31 838.34 476.09 829.79 488.31 799.85 493.2 775.41 493.2 750.97 512.75 722.86 530.47 716.75 559.19 703.31 585.47 708.2 604.56 699.64 612.96 686.2 618.46 669.09 638.93 676.42 654.82 659.31 667.04 634.87 657.57 623.26 654.82 626.32 679.56 620.82 688.73 604.47 694.23 595.46 700.03 582.33 700.03 573.77 707.37 577 720.81 568.27 712.56 556.66 725.7 545.66 729.06 551.51 716.45 557.58 706.14 557.88 697.44 548.72 682.92 539.55 654.82 541.08 630.38 551.51 621.52 561.86 631.9 567.66 631.29 572.85 620.6 574.38 607.77 572.55 595.85 564.61 588.22 551.51 585.16 542.91 588.52 534.67 585.47 527.94 576.61 521.83 576.61 515.42 583.63 504.55 582.72 499.84 574.47 494.95 563.77 476.31 565 468.67 556.14 460.88 553.08 452.18 546.67 446.37 535.67 443.93 528.03 443.93 513.67 453.4 496.87 454.93 476.09 456.15 462.65 450.04 455.93 450.04 443.71 443.93 426.29 440.87 412.24"/>
  </g>
</svg>