<?xml version="1.0" encoding="UTF-8"?>
<svg id="Capa_1" xmlns="http://www.w3.org/2000/svg" version="1.1" viewBox="0 0 150 150">
  <!-- Generator: Adobe Illustrator 30.1.0, SVG Export Plug-In . SVG Version: 2.1.1 Build 136)  -->
  <defs>
    <style>
      .st0 {
        fill: #038dd3;
      }

      .st1 {
        fill: #caeae4;
      }

      .st1, .st2, .st3, .st4 {
        stroke: #fff;
        stroke-miterlimit: 10;
        stroke-width: 2.25px;
      }

      .st2 {
        fill: #8383fd;
      }

      .st3 {
        fill: #0056a1;
      }

      .st4 {
        fill: #74c3b5;
      }

      .st5 {
        fill: #31579e;
      }
    </style>
  </defs>
  <g id="siFJ2E">
    <path class="st5" d="M111.04-275.11c-.79.52-1.57.58-2.52.58H40.95c-1.56,0-3.01-1.01-3.01-2.65l-.03-29.98-31.5-.02c-1.59,0-2.63-1.21-2.79-2.73l.07-34.14c.02-9.98,4.53-19.44,11.7-26.19-7.22-10.96-6.21-25.38,2.37-35.23,8.46-9.71,22.43-12.77,34.29-7.27,11.42,5.3,18.36,17.56,16.59,30.39,3.62-.63,7.14-.64,10.73,0-1.74-12.64,4.96-24.73,16.1-30.16,11.62-5.66,25.48-2.98,34.15,6.34,8.81,9.47,10.33,23.61,3.74,34.79,7.68,6.67,12.84,16.14,12.88,26.38l.14,35.34c-.31,1.59-1.47,2.51-3.07,2.51h-31.21s0,29.62,0,29.62c0,.98-.34,1.79-1.06,2.43ZM53.17-374.09c0-.48.36-.41.57-.6,2.59-2.39,5.49-4.42,8.78-5.78,2.25-8.76-.76-17.9-7.53-23.69-9.66-8.26-23.96-7.3-32.5,1.94-8.97,9.7-8.2,24.83,1.81,33.61,6.06,5.31,14.52,7.21,22.37,4.78,1.44-3.85,3.62-7.32,6.5-10.25ZM101.37-363.82c8.18,2.48,16.82.37,22.89-5.27,9.18-8.54,10.06-22.65,2.07-32.23-7.37-8.84-20.07-11.12-30.03-5.19-8.93,5.33-13.42,15.89-10.79,26.03,7.36,3.13,13.05,9.14,15.86,16.66ZM93.29-340.27c6.42-9.17,5.39-21.49-2.17-29.5-9.26-9.81-24.68-9.89-34.02-.2-8.38,8.68-8.87,22.37-.87,31.62,4.82,5.57,11.93,8.63,19.43,8.12,6.95-.47,13.53-4.17,17.63-10.04ZM112.04-312.84h28.66s0-30.5,0-30.5c0-8.32-3.39-16.26-9.26-22.05-.53-.44-.84-1-1.5-1.36-6.84,7.55-17,10.97-27.02,9.12.87,6.64-.45,13.16-3.84,18.87,5.11,4.33,8.87,9.93,11.03,16.19,1.09,3.22,1.66,6.25,1.94,9.73ZM47.6-335.52l2.01-2.16c-3.86-5.91-5.42-12.84-4.52-19.94-8.09,1.44-16.14-.42-22.65-5.19-1.22-.92-2.31-1.9-3.49-2.98-5.99,5.72-9.45,13.52-9.65,21.85v31.09s28.67,0,28.67,0c.55-8.27,3.77-15.99,9.13-22.15.17-.19.12-.49.5-.52ZM43.57-280.23h62.87s-.05-31.22-.05-31.22c-.02-8.79-4.14-16.91-10.66-22.73-11.25,12.45-30.67,12.94-42.48.97-5.8,5.65-9.58,13.19-9.6,21.38l-.07,31.59Z"/>
  </g>
  <g>
    <path class="st5" d="M533.07-319.19v5.3l-1.36,3.63c-2.37,5.72-7.68,9.2-13.87,9.2h-12.49c.17,4.68-.32,9.12.17,13.68.33,3.09.7,6.09-1.13,8.86-.92,1.9-2.96,3.1-5.13,3.1h-8.32c-2.29.01-4.45-1.18-5.36-3.23-1.81-2.75-1.34-5.72-1.01-8.76.5-4.52-.03-8.95.19-13.68l-12.72-.03c-5.04-.01-9.47-2.23-12.28-6.45-3-4.66-4.04-10.88-1.07-15.81l11.71-19.37v-17.58c0-9.54,7.24-17.65,16.91-17.87,5.29-.12,10.28-.15,15.58.01,9.44.29,16.7,8.18,16.71,17.51l.03,17.99,12.23,19.63c.74,1.19.29,2.89,1.2,3.85Z"/>
    <path class="st5" d="M495.81-414.6c9.02.12,15.51,8.09,15.13,16.46-.4,8.83-7.82,15.54-16.53,15.19-8.74-.35-15.82-7.81-15.19-16.8.6-8.62,7.69-14.97,16.6-14.86Z"/>
  </g>
  <g>
    <path class="st5" d="M287.13-415.59c8.16,1.69,14.06,8.4,13.68,16.68-.39,8.38-7.14,14.87-15.25,15.19-8.49.33-15.62-6-16.47-14.26-.85-8.26,4.75-15.76,13.01-17.3.24-.05.34-.23.39-.31h4.64Z"/>
    <path class="st5" d="M295.76-274.43l-21.4.02c-6.15-.84-9.79-5.57-9.78-11.59l.03-33.41c-5.28-1.84-9.75-6.31-9.78-12.08l-.15-29.22c1.76-10.14,9.93-16.91,20.06-16.88l21.67.06c10.45.03,18.68,8.56,18.92,18.96l-.04,25.52c-.01,6.28-4.13,11.54-10.14,13.48v34.23c-.01,5.59-3.7,9.8-9.38,10.9Z"/>
  </g>
  <g id="ppDZWZ">
    <path class="st5" d="M481.02-81.77c-.01,2.62-2.31,4.43-4.75,4.43l-15.83-.02c-2.51,0-4.58-2.08-4.59-4.57l-.07-18.58c-1.58-.2-2.9-.03-4.35-.09-1.08-.04-2.12-.94-2.04-2.19l1.3-20.04c-1.85,1.62-1.92,4.21-4.45,5.25-.1.8.37,1.37.37,2.18v36.1c0,1.24-1.12,1.94-2.13,1.97s-2.19-.82-2.19-2.1l-.04-35.38c0-1.66-1.34-2.87-2.81-2.99-1.54-.13-2.99.96-3.29,2.61-.21,1.15.03,2.33-.1,3.51-.14,1.21-1.02,1.75-2.13,1.78-.98.03-2.01-.63-2.08-1.78-.25-3.85-.22-6.89,3.35-9.31-1.19-1.71-1-3.5.13-5.11,2.77-3.93,4.45-8.32,6.01-12.86l2.97-8.65c1.88-5.48,6.49-8.85,11.62-11.31l-.89-3.58c-4.61-1.8-6.82-6.87-5.21-11.44,1.6-4.56,6.54-7.04,11.36-5.51,1.83-2.36,4.44-3.61,7.27-3.62,2.8,0,5.45,1.24,7.34,3.62,4.75-1.49,9.65.91,11.32,5.46,1.66,4.53-.57,9.69-5.23,11.51-.27,1.22-.41,2.26-.94,3.56,4.25,2.18,7.8,5.07,10.58,9.36.84-4.78.26-6.98,3.05-11.03,2.44-3.53,5.98-5.83,10.34-6.75-.4-2-.74-3.89-.63-5.98l-3.5-.1c-1.13-.03-1.84-1.23-1.78-2.21.18-2.78,3.48-1.91,5.22-2.21l.11-5.91c.08-4.68,4.1-8.58,8.88-8.82,3.1-.16,6.03-.13,9.12,0,4.89.2,8.87,4.15,8.94,8.94l.09,5.81c1.81.34,4.79-.62,5.21,1.99.17,1.07-.54,2.4-1.77,2.43l-3.48.1c.02,2.02-.01,3.86-.68,5.93,2.55.73,4.94,1.68,6.85,3.5,1.75,1.67,3.1,3.47,3.92,5.8l11.87,33.55c.3.86,0,1.66-.01,2.65,3.17,1.2,5.16,4.07,4.98,7.47-.05.93.09,1.82-.04,2.74-.15,1.07-1.14,1.7-2.09,1.72s-2.08-.66-2.11-1.72l-.08-3.35c-.04-1.65-1.58-2.9-3.13-2.84s-3.02,1.34-3.02,3.05v35.08c0,1.27-.77,2.16-1.87,2.3-1.04.13-2.46-.54-2.46-1.87l-.05-35.95c-2.52.44-4.6-.79-5.52-2.97-1.49-3.53-2.36-7.18-4.23-10.75l3.5,46.71c.17,2.26-.94,4.56-3.41,4.77-3.37.28-6.7.08-10.15.1-1.93,0-3.83-1.45-3.97-3.5l-1.52-22.42-.3-2.62-.3,3.11-1.34,21.23c-.16,2.53-1.89,4.23-4.41,4.23l-8.67.02c-2.62,0-4.71-1.69-4.6-4.48l2.39-31.46-14.03-.12.69,10.24c.2,1.38-.72,2.51-2.09,2.57l-4.3.09-.1,18.75ZM526.96-177.75v-4.97c0-3.08-2.36-5.57-5.48-5.6-2.7-.03-5.24-.11-7.97.06-2.46.16-4.64,2.34-4.83,4.81-.14,1.93-.04,3.66,0,5.7h18.28ZM473.2-170.39c.62.22.89.71,1.2,1.38,1.18,2.54,4.14,3.48,6.42,2.22,2.42-1.33,3.19-4.35,1.73-6.57-1.5-2.28-4.37-2.82-6.64-1.28-.6.41-1.41.27-2.1.05-1.18-.38-1.24-3.38-4.39-4.01-4.44-.88-5.09,3.56-6.32,4.02-.78.29-1.55.3-2.22-.15-2.31-1.55-5.34-.72-6.67,1.66-1.29,2.31-.33,5.27,2.17,6.41,2.32,1.06,5.19.07,6.21-2.46.47-1.18,1.9-1.9,3.1-1.16,4.06,2.5,5.06-.99,7.53-.11ZM524.63-165.71c1.79-1.92,2.7-4.7,2.25-7.65h-18.16c-.4,3.04.48,5.95,2.58,7.94,4.06,3.85,9.84,3.47,13.33-.28ZM477.13-161.91c-2.31-.56-4.4-1.84-5.79-3.53-1.78.43-3.99.4-5.72.04-1.69,1.66-3.43,3.09-5.99,3.42,1.24,5.76,7.17,8.68,12.32,6.56,2.32-.96,5.08-3.59,5.19-6.49ZM507.15-137.35h21.4s-.57-7.94-.57-7.94c-.08-1.05.71-1.97,1.56-2.16s2.14.03,2.52,1.05l10.03,26.99,7.03-3.77-11.47-32.49c-1.3-4.28-4.94-7.27-9.36-7.55-5.57,6.5-15.44,6.44-21.02,0-3.02.16-5.66,1.47-7.76,3.58-1.81,1.85-3.06,4.19-3.2,6.86-.23,4.27-1.17,8.44-1.08,12.76.09,4.24.59,8.22-.11,12.5-.54,3.3-1.14,6.45-2.04,9.78l8.08.03,2.1-27.65c.07-1.43,1.16-2.27,2.4-2.17,1.34.11,2.04,1.26,1.95,2.63-.18,2.55-.54,5.01-.48,7.53ZM482.34-113.39c-1.47-.04-2.58-.45-3.24-1.3-.64-.82-1.11-2.1-.81-3.19,2.27-8.39,3.14-15.41-.21-23.72-.44-1.09.24-2.27,1.13-2.62.99-.38,2.33-.19,2.8.85,3.55,7.95,3.08,17.29.77,25.62h5.73c4.19-14.01,5.23-30-9.81-37.35-5.52,6.4-15.12,6.22-20.51-.02-5.32,2.57-8.46,4.83-10.37,10.51l-3.3,9.83c-1.33,3.95-3.14,7.47-5.39,11.02l5.62,1.87c2.36-3.66,4.31-7.42,5.98-11.44l3.97-9.59c.51-1.23,1.62-1.75,2.88-1.37,1.16.35,1.61,1.63,1.26,2.9l-3.22,7.8-1.7,28.62h29.13s-.68-8.42-.68-8.42ZM521.85-113.01l2.01,31.28h8.95s-3.88-51.19-3.88-51.19h-20.55c-.64,0-1.17-.33-1.69.31l-3.85,50.87h8.96s1.97-31.13,1.97-31.13c.14-2.22,1.8-3.6,3.92-3.63,2.04-.03,4.03,1.14,4.18,3.49ZM466.32-81.77v-18.78s-6.14,0-6.14,0l.03,18.78c2.12.12,4.01.17,6.11,0ZM476.74-82.56l-.02-17.96c-2.14-.13-4.03-.11-6.1-.02v18.81c1.85.13,3.55.03,5.36.06.45,0,.77-.29.77-.89Z"/>
  </g>
  <g id="BoYXXD.tif">
    <g>
      <path class="st5" d="M777.26-320.4v13.18l-2.11,3.53c-.63,3.89.08,7.81-.31,11.72-.08.8-.8,1.19-1.13,1.74h-1.75c-.38-.56-1.23-.96-1.24-1.81l-.11-10.07h-7.31s-.11,10.07-.11,10.07c0,.85-.86,1.25-1.24,1.81h-1.74c-.25-.55-1.16-.94-1.17-1.75l-.05-19.12c0-1.31.91-2.2,2.04-2.25,3.34-.15,1.81,4.68,2.31,6.92,2.48.11,4.75.05,7.17.04,1.38,0,2.5-1.15,2.5-2.5l.02-8.98c0-3.47-2.19-6.39-5.52-7.28l-5.61-1.51c-3.38,9.22-12.08,15.34-21.76,15.36-9.71.03-18.48-6-21.88-15.34l-5.53,1.46c-3.1.82-5.56,3.43-5.57,6.73l-.02,9.61c0,1.28,1.07,2.39,2.36,2.43,2.51.06,4.87.08,7.37-.02l.03-4.68c0-1.29.86-2.19,2.07-2.24,1.02-.04,2.16.75,2.16,2.04v19.22c-.01.88-.91,1.28-1.25,1.86h-1.75c-.28-.55-1.16-.92-1.16-1.72l-.09-10.15h-7.38s-.1,10.15-.1,10.15c0,.79-.88,1.17-1.16,1.72h-1.75c-.37-.57-1.22-.97-1.23-1.83l-.07-11.73c-1.51-1.45-2.32-3.25-2.31-5.33v-9.05c.02-5.32,3.6-9.72,8.68-11.11,2.44-.67,4.71-1.15,7.19-2.06-3.31-1.92-9.77-2.85-7.97-8.23.94-2.83,1.45-5.72,1.45-8.77l.02-21.38c.01-15.51,12.71-27.79,27.92-27.75,15.28.04,27.76,12.51,27.75,28.02v20.83c0,3.28.57,6.31,1.53,9.37.68,2.15-.38,4.36-2.32,5.26l-5.7,2.65c2.41.88,4.54,1.39,6.83,1.97,4.26,1.08,7.56,4.12,8.64,8.44.07.26.22.43.36.53ZM754.42-374.07c1.17.19,1.74,1.13,1.8,2.08.24,3.68,4.35,2.06,7.43,2.92.33-13.47-10.61-24.25-23.76-24.15-12.92.1-23.71,10.81-23.38,24.17,2.84-.88,7.34.76,7.43-2.98.09-3.83,3.38-6.57,7.19-5.93l23.3,3.89ZM756.68-358.03c.01-1.38,1.17-2.06,2.2-2.06h2.01c1.72,0,2.87-1.26,2.75-2.79s-1.68-2.49-3.31-2.33c-3.69.37-6.97-1.29-8.13-4.95l-22.05-3.65c-.98-.16-1.93.74-1.94,1.67-.06,3.97-3.12,7.03-7.13,6.94-.83-.02-1.67-.07-2.5.11-1.37.31-2.21,1.47-2.05,2.76.14,1.09,1.04,2.18,2.33,2.2l2.54.04c1.22.02,2.09.92,2.1,2.19.08,9.18,7.6,16.52,16.63,16.48,9-.03,16.46-7.29,16.55-16.62ZM728.5-340.69c-5.12-3.47-8.4-8.81-9.11-14.98-.95-.31-1.73-.32-2.86-.57l-.03,6.23c-.02,4.18-.43,8.08-1.77,12.13,4.05,1.93,7.98,3.6,12.28,4.26,2.17.34,1.61-5.92,1.5-7.08ZM753.38-333.6c4.35-.85,8.18-2.36,12.07-4.3-1.17-3.39-1.74-6.74-1.77-10.31l-.08-8.03-2.81.57c-.75,6.19-4.01,11.52-9.18,15.01.03,1.16-.79,7.55,1.78,7.05ZM757.72-327.74l-5.5-1.58c-3.16-.95-5.11-3.84-4.92-7.15.03-.59.12-1.13-.25-1.89-4.55,1.58-9.27,1.6-13.86.02-.44.19-.39,1.11-.35,1.56.31,3.62-1.79,6.66-5.23,7.57-1.73.46-3.39.83-5.21,1.49,2.87,7.48,10.01,12.23,17.77,12.19,7.66-.04,14.82-4.81,17.55-12.21Z"/>
      <path class="st5" d="M691.89-290.22h-1.75c-.89-.77-1.28-1.53-1.28-2.85v-41.17c-2-.63-3.64-1.11-5.5-1.47l-10.1,10.33c-1.91,1.95-4.78,1.84-6.64-.07l-10.07-10.3-5.49,1.53-.04,42.23c0,.86-.97,1.2-1.18,1.77h-1.74c-.64-.67-1.3-1.17-1.3-2.31v-40.43c-1.73.17-3.04.67-4.55,1.1-2.98.84-5.2,3.53-5.21,6.76l-.05,32.9c0,.98-.83,1.37-1.24,1.98h-1.73c-.33-.61-1.3-1.01-1.29-1.98l.23-34.32c.03-4.49,3.91-8.23,7.86-9.32l15.77-4.37c1.09-.3,1.89-1.3,1.88-2.47-.03-2.45.11-4.76-.08-7.15-5.23-3.52-8.43-8.9-9.19-15.15-3.54.02-6.24-2.27-6.92-5.32-.74-3.31.97-6.45,4.1-7.8.49-.21.46-.98.42-1.56-.62-9.65,6.06-18.56,16.06-19.72,4.56-.53,9.46-.5,14.05,0,10.02,1.08,16.81,10.06,16.16,19.73-.05.69-.03,1.1.33,1.55,3.17,1.25,4.89,4.51,4.22,7.7-.68,3.22-3.47,5.47-6.97,5.45-.68,6.34-4.04,11.63-9.18,15.2l-.06,6.83c-.01,1.33.71,2.42,2,2.78l15.05,4.1c2.05.56,6.84,2.63,4.92,5.23-1.67,2.26-3.5-.46-5.86-1.08l-4.42-1.17-.02,40.87c0,.99-.83,1.37-1.22,2ZM689.08-369.27c.95.02,1.84.11,2.65-.12,1.45-.41,2.08-1.91,1.67-3.2-.37-1.16-1.65-1.95-3.05-1.78-5.64.67-10.79-3.15-10.81-8.92l-.04-11.11c-1.43-.73-3.05-.94-4.69-.94h-9.59c-1.63-.01-3.25.24-4.79.86l-.17,12.03c-.08,5.36-5.38,8.64-10.55,8.09-1.72-.19-3.14.76-3.31,2.23-.19,1.63,1,2.91,2.73,2.9.75,0,1.47-.03,2.17.01,1.29.08,2.05,1.01,2.07,2.3.13,9.11,7.61,16.35,16.52,16.37,9.01.02,16.48-7.2,16.62-16.36.02-1.45.97-2.37,2.56-2.34ZM688.75-378.64c.64-5.08-.97-10-4.9-13.28l-.1,8.08c-.03,2.85,2.01,5.3,5,5.2ZM656.13-383.57c-.03-2.69.19-5.24-.15-8.13-4.08,3.16-5.44,8.3-4.8,13.12,2.95-.07,4.98-2.29,4.95-4.98ZM679.29-337.66c-3.15-3.59-1.73-5.72-2.2-9.92-4.75,1.65-9.48,1.68-14.23,0-.56,4.16.91,6.43-2.26,9.9l9.32,9.52,9.38-9.5Z"/>
      <path class="st5" d="M737.36-353.22c4.44,2.23,6.62-2.13,8.36.69.58.95.39,2.32-.73,2.94-3.11,1.71-6.83,1.71-9.92-.07-1.06-.61-1.21-1.99-.6-2.93s1.8-1.18,2.89-.63Z"/>
      <path class="st5" d="M749.2-360.3c-.06,1.31-1,2.04-2,2.09-1.12.05-2.12-.73-2.21-1.98-.06-.84-.04-1.65,0-2.5.05-1.18.96-1.99,1.99-2.05,1.14-.06,2.16.77,2.22,2.04.03.76.05,1.51,0,2.4Z"/>
      <path class="st5" d="M735.19-360.56c.01,1.45-.91,2.32-2.08,2.35-1.11.03-2.08-.77-2.15-2.06-.1-1.83-.29-4.28,1.92-4.47,1.04-.09,2.08.56,2.25,1.75.11.75.05,1.5.06,2.42Z"/>
      <path class="st5" d="M667.03-362.44c4.85,2.32,6.85-2.07,8.57.75.51.84.45,2.23-.56,2.83-3.12,1.85-6.95,1.85-10.09.06-1-.57-1.16-1.82-.78-2.64.49-1.06,1.75-1.53,2.86-1Z"/>
      <path class="st5" d="M665.43-369.42c-.93.9-1.06,2.05-2.34,2.1-1.48.06-1.74-1.05-2.56-2.06-.68-.83-2.13-.89-2.04-2.26.08-1.21.75-2.27,2.24-2.27h4.51c1.35,0,2.02,1,2.17,2.01.2,1.45-1.09,1.64-1.96,2.48Z"/>
      <path class="st5" d="M679.48-369.46c-.96.76-.96,2.08-2.29,2.13-1.5.06-1.78-.98-2.61-2.06-.63-.81-2.19-.88-2.07-2.31.1-1.21.82-2.23,2.33-2.23h4.23c1.32,0,2.13.75,2.34,1.8.3,1.47-.9,1.85-1.92,2.66Z"/>
      <path class="st5" d="M672.37-386.06l-4.57.03c-1.28,0-2.19-.87-2.26-1.93-.1-1.29.85-2.31,2.23-2.31h4.54c1.23.02,2.06.95,2.1,2.05.03,1.02-.7,2.15-2.02,2.16Z"/>
    </g>
  </g>
  <g id="SyXYPi">
    <g>
      <path class="st5" d="M5.31-80.68c-1.5-.04-2.36-1.16-2.32-2.55.12-3.87.76-7.68,2.11-11.31,1.55-4.19,3.71-8.09,6.92-11.15l1.69-1.61c-6.65-13.83-6.83-30.92-.63-44.96,4.15-9.38,11.19-17.51,20.54-21.88,8.96-4.19,19.27-4.23,28.25-.08,3.64,1.68,6.95,3.89,9.94,6.67,2.25-6.58,6.35-11.62,12.91-14.01,3.24-1.17,6.63-1.58,10.07-1.38,1.26-2.57,3.06-3.92,5.61-5.04,7.06-2.74,16.05-1.03,22.46,2.72,3.64,2.13,7.79,6.03,8.07,10.45.13,2.04.06,3.95.06,5.98l.02,19.57c-.16,2.81-1.27,5.36-3.32,7.25-1.49,1.21-3.21,1.98-5.22,1.9.01,7.69-3.95,14.78-10.51,18.84.46,1.48,1.09,2.9,1.97,4.19.24.29.41.63.76.8l5.61.05c3.76.03,7.32,1.29,10.6,3.13,6.95,3.91,11.79,10.68,14.24,18.2,1.24,3.8,1.8,7.68,1.87,11.68.02,1.32-.83,2.53-2.26,2.53H5.31ZM78.32-159.98c.19-.59.01-.97.09-1.42.05-.9.71-1.61,1.42-1.89.93-.37,1.74-.07,2.47.5.67.52,1.43.87,2.25,1.19,4.08,1.61,8.33,2.66,12.74,2.96,2.59.18,5.14.2,7.63-.52l14.34-4.11c.85-.24,1.56-.28,2.29.27,1.27.95.83,2.22.98,3.54,1.44-.11,2.6.35,3.94.97l-.05-15.9c0-1.22-.74-2.34-1.46-3.26-1.32-1.69-2.98-2.94-4.86-3.98-4.59-2.52-10.67-3.84-15.85-2.76-2.01.42-4.75,1.53-5.39,3.71,1.92,4.01,6.22,5.42,10.44,5.25,1.35-.06,2.47.9,2.51,2.19s-.96,2.36-2.31,2.38c-2.18.03-4.27-.16-6.35-.8-3.56-1.09-6.52-3.43-8.23-6.72-4.4-.5-9.99.8-13.22,3.78l-.32.3c-3.33,3.08-4.76,6.18-5.92,10.58l2.87,3.74ZM49.52-158.52c-.26,1.64-.64,3.19-1.05,4.88,3.98-.16,7.84-.7,11.65-1.68,1.18-.3,2.15-.69,3.28-1.14,1.27-.51,2.95.49,2.95,1.97l-.04,20.48c-.01,6.77-3.91,12.86-9.55,16.5.46,1.59,1.19,3.08,2.24,4.33l4.81.04c.55,0,1.05.05,1.6.12,4.37.52,8.37,2.26,11.85,4.99,5.45-10.54,6.62-23.09,3.87-34.43-2.83-11.68-10.25-22.73-21.42-27.73-7.87-3.52-16.79-3.38-24.54.36-3.34,1.61-6.36,3.77-9.02,6.38-13.72,13.45-16.59,36.21-8.69,53.44,3.51-2.04,7.29-3.11,11.25-3.15h4.11c1.07-1.28,1.75-2.75,2.26-4.34-3.57-2.25-6.33-5.43-7.95-9.25-.46-1.09.08-2.12.95-2.77,1.65-1.24,3.07-2.63,4.46-4.15l.39-.43c2.2-2.4,4.02-5.07,5.72-7.84l.21-.33c3.16-5.14,5.09-10.88,6.16-16.83.24-1.33,1.31-2.18,2.64-1.96,1.14.18,2.06,1.29,1.86,2.55ZM116.08-132.26l.14-.33c.95-2.21,1.68-4.48,1.69-6.91l.03-6.41c-.16-.21-.02-.39-.02-.61v-11.65s-11.76,3.38-11.76,3.38c-6.81,1.96-16.59.15-23.22-2.57l.03,5.94c3,7.46,4.27,14.63,4.09,22.68,3.96,4.61,9.89,6.88,15.98,5.97,5.48-.81,10.74-4.21,13.02-9.5ZM125.14-145.92c2.23-1.88,1.78-5.78-.18-7.91-.68-.74-1.5-1.2-2.47-1.1v10.31c.95,0,1.7-.5,2.31-1.01l.34-.29ZM39.2-120.47c4.1,1.93,8.76,1.99,12.93.22,5.82-2.45,9.66-8.21,9.69-14.56v-16.25c-4.9,1.32-9.81,1.91-14.8,2.02-2.39,6.68-5.95,12.71-10.61,17.92-1.35,1.52-2.72,2.86-4.3,4.2,1.63,2.82,4.19,5.15,7.09,6.45ZM86.42-116.43c1.21-1.43,1.89-3.1,2.48-4.8l-2.31-1.63c-.33,2.29-.75,4.38-1.31,6.55.36.05.87.2,1.14-.12ZM110-105.32c.66-.45,1.1-.95,1.57-1.53,1.15-1.4,1.47-3.26.57-4.89-.48-.93-1.15-1.68-1.78-2.53-1.12-1.52-1.87-3.19-2.55-5-4.86,1.7-9.99,1.67-14.8,0-.81,2.45-2.02,4.52-3.6,6.38-.69,1.04-1.28,2.02-1.25,3.28.3,4,5.34,6.3,8.92,6.3h6.69c2.25,0,4.34-.73,6.22-2.02ZM49.06-101.3c2.8,0,6.39-1.6,7.56-4.21.49-1.08.41-2.22-.14-3.27-.35-.5-.61-1.04-1.01-1.52-1.28-1.54-2.18-3.3-2.89-5.24-4.34,1.48-9.01,1.48-13.38,0-.67,1.78-1.44,3.41-2.59,4.86-.3.37-.59.69-.77,1.13-1.12,1.28-1.31,3.04-.45,4.51,1.41,2.38,4.77,3.76,7.49,3.75h6.16ZM83.69-111.18c-1.02,2.28-1.85,4.38-3.04,6.42,4.86,5.47,7.47,12.35,8.07,19.52h53.65c-.48-8.19-4.05-16.51-10.51-21.74-3.25-2.62-7.08-4.3-11.25-4.66-1.24-.11-2.37-.07-3.63-.05.72,3.25-.31,6.05-2.44,8.43-.17.18-.26.3-.45.47-2.66,2.41-6.04,3.86-9.69,4.01-2.51.11-4.89.05-7.4.02-3.47-.04-6.7-1.23-9.41-3.34-1.11-.94-2.05-1.96-2.75-3.22-1.07-1.79-1.28-3.71-1.15-5.85ZM61.34-108.58c.4,2.31-.07,4.34-1.21,6.13-.56.91-1.24,1.61-2.03,2.35-2.59,2.16-5.79,3.37-9.2,3.36l-6.6-.03c-3.18-.01-6.12-1.29-8.54-3.29-2.45-2.12-3.94-5.12-3.28-8.53-4.22-.34-8.33.82-11.83,3.21-6.5,4.42-10.33,12.28-10.98,20.13h76.47c-.64-7.26-3.86-14.37-9.43-18.97l-1.34-.99c-3.49-2.5-7.74-3.73-12.03-3.37Z"/>
      <path class="st5" d="M108.65-131.95c-.11,1.34-.74,2.44-1.71,3.3-2.39,2.13-6.27,2.52-9.28,1.84-2.59-.58-5.15-2.22-5.45-5.08-.14-1.34.74-2.48,2.06-2.61,1.27-.12,2.41.85,2.5,2.2.04.69,3.41,2,6.39.71.27-.12.81-.34.89-.64.09-1.32,1.07-2.35,2.38-2.31,1.32.04,2.32,1.16,2.2,2.59Z"/>
      <path class="st5" d="M96.03-148.14c.46.31.84.98.88,1.55.2,2.77-1.94,5.08-4.61,5.3-2.74.22-5.15-1.82-5.41-4.59-.13-1.38.69-2.54,2.04-2.68,1.26-.12,2.45.83,2.48,2.18,0,.31.24.51.52.49.86-.05,0-1.52,1.62-2.39.79-.42,1.67-.39,2.47.15Z"/>
      <path class="st5" d="M109.39-146.18c.03-1.38,1.05-2.43,2.36-2.4,1.31.03,2.29,1.12,2.23,2.48-.13,2.74-2.36,4.81-5.04,4.82-2.69,0-4.95-2.16-5.01-4.92-.03-1.35.95-2.35,2.22-2.38,1.25-.04,2.31.96,2.33,2.27,0,.24.23.36.4.4.13.04.51-.02.52-.27Z"/>
      <path class="st5" d="M52.17-129.52c.74,2.18-1.25,3.78-3.25,4.31-2.04.54-4.17.52-6.19-.05-1.52-.42-2.99-1.41-3.24-3.08-.17-1.14.5-2.17,1.5-2.52,1.1-.38,2.26.09,2.83,1.18,1.34.41,2.81.4,4.16,0,.45-.86,1.25-1.35,2.16-1.31.85.03,1.72.57,2.02,1.46Z"/>
      <path class="st5" d="M53.67-140.29c.97.13.14-1.35,1.41-2.2.74-.5,1.56-.65,2.4-.25.69.33,1.25,1.02,1.28,1.94.07,2.78-2.11,5.02-4.81,5.13-2.75.11-5.11-2.02-5.23-4.82-.04-1.03.49-1.91,1.36-2.28,1.81-.77,2.87.95,2.88.72v.19c.02-.64.17,1.49.71,1.56Z"/>
    </g>
  </g>
  <g id="yqPFq1.tif">
    <g>
      <path class="st5" d="M345.26,121.39v15.79h-117.47c-1.83-1.01-3.11-2.59-3.06-4.87.18-3.65-.2-7.21.16-10.78.58-5.77,3.59-10.61,8.85-13.54-5.75-3.8-8.11-10.59-5.97-16.96,1.99-5.93,7.69-10.02,14.34-9.81,2.05-6.55,7.92-10.48,14.55-10.4,2.01-6.52,7.88-10.46,14.49-10.36,1.92-6.32,7.63-10.38,13.97-10.33,6.25.05,11.86,4.08,13.75,10.33,6.72-.13,12.53,3.95,14.52,10.39,6.72-.16,12.5,3.93,14.52,10.36,6.72-.21,12.44,3.98,14.4,9.99,2.06,6.35-.41,13.02-5.99,16.79,5.02,2.94,8.93,7.81,8.93,13.39ZM285.97,69.88c1.53-4.13,4.72-7,8.8-8.64-1.52-4.37-5.55-7.01-9.88-6.96-4.22.05-8.15,2.66-9.64,6.97,4.1,1.63,7.25,4.52,8.79,8.56.22.57.28,1.04.85,1.08.69.05.81-.28,1.08-1.01ZM271.48,80.17c1.56-4.08,4.73-6.97,8.78-8.55-1.49-4.28-5.44-6.95-9.72-6.97s-8.34,2.68-9.78,6.97c4.18,1.65,7.35,4.66,8.83,8.74.2.56.42.87.97.87s.68-.44.92-1.06ZM300.41,80.44c1.5-4.17,4.68-7.16,8.86-8.81-1.44-4.29-5.48-6.99-9.78-6.97-4.28.02-8.22,2.69-9.72,6.97,4.12,1.6,7.32,4.58,8.82,8.65.2.53.33.97.88.96.46-.01.72-.2.94-.8ZM255.98,94.4c.84-6.02,4.4-10.4,9.79-12.43-1.62-4.41-5.63-7.02-9.97-6.94-4.24.08-8.19,2.8-9.57,7.01,5.66,1.98,9.03,6.83,9.74,12.37ZM285.01,93.5c1.43-5.6,4.58-9.67,9.79-11.47-1.49-4.28-5.49-7.05-9.87-7.02-4.33.04-8.23,2.79-9.7,7.02,5.27,1.81,8.42,6.01,9.78,11.47ZM314.04,94.4c.83-6.02,4.4-10.41,9.79-12.42-1.61-4.39-5.64-7.03-9.96-6.95-4.27.08-8.21,2.78-9.58,7.01,5.66,1.99,9.02,6.83,9.74,12.36ZM251.71,97.12c.51-3.73-1.04-7.2-3.7-9.37-2.75-2.24-6.41-2.99-9.84-1.84-5,1.68-7.84,6.69-6.83,11.85.94,4.82,5.31,8.44,10.41,8.3,4.91-.13,9.25-3.74,9.96-8.94ZM269.46,85.46c-5.89.6-9.84,5.86-9.23,11.45.61,5.56,5.65,9.59,11.12,9.11,5.76-.5,9.96-5.56,9.42-11.24-.53-5.57-5.44-9.93-11.32-9.32ZM298.62,85.45c-5.92.52-9.91,5.75-9.38,11.3.53,5.63,5.53,9.7,11.02,9.29,5.79-.44,10.08-5.49,9.55-11.21-.51-5.55-5.35-9.89-11.19-9.38ZM338.79,97.21c.6-4.14-1.23-7.92-4.41-10.08-3.24-2.19-7.38-2.37-10.87-.41-4.35,2.45-6.33,7.57-4.76,12.32,1.46,4.42,5.85,7.45,10.68,7.03,4.62-.4,8.64-3.88,9.36-8.86ZM262.7,107.98c-2.88-2.12-4.81-4.43-5.81-7.45-.16-.46-.51-.7-.9-.7s-.74.24-.9.71c-1.01,3.11-3.08,5.45-5.86,7.49,3.05,1.64,5.01,3.81,6.81,6.57,1.71-3,3.84-4.85,6.66-6.62ZM291.75,107.97c-2.98-2.08-4.94-4.56-5.94-7.73-.42-.55-1.17-.55-1.59,0-1.01,3.24-3.11,5.74-5.97,7.76,2.97,1.67,5.02,3.74,6.78,6.62,1.72-2.91,3.83-4.9,6.73-6.65ZM320.76,107.99c-2.89-2.14-4.82-4.43-5.82-7.45-.15-.47-.5-.71-.89-.71s-.75.23-.91.7c-.99,3.11-3.08,5.46-5.85,7.49,2.92,1.66,4.96,3.62,6.72,6.58,1.75-2.8,3.8-4.87,6.75-6.61ZM253.91,133.03v-10.19c.01-7.23-6.05-13.09-13.36-12.54-6.23.47-11.44,5.56-11.46,11.8l-.03,10.95h24.85ZM282.94,132.99v-10.89c-.39-6.53-5.64-11.65-12.14-11.86-7.14-.11-12.77,5.73-12.75,12.87l.04,9.94,24.85-.05ZM311.97,133.02l-.02-10.52c-.01-6.75-5.65-12.24-12.41-12.25-6.68,0-12.42,5.37-12.42,12.09v10.7s24.84-.02,24.84-.02ZM340.98,133.03l-.04-10.93c-.02-6.29-5.23-11.28-11.46-11.83-7.31-.47-13.38,5.3-13.37,12.58l.02,10.19h24.85Z"/>
      <path class="st5" d="M287.09,37.45c0,1.36-.88,2.2-1.96,2.26-1.01.06-2.14-.7-2.15-1.93l-.08-17.59c-1.49.7-3.46,4.51-5.55,2.31-.8-.84-.78-2.13.08-2.99l6.05-6.04c.86-.86,2.23-.86,3.08,0l6.06,6.04c.88.87.89,2.14.19,2.94-.79.91-2.09.91-3.01.14-.91-.76-1.49-1.75-2.66-2.39l-.04,17.26Z"/>
      <path class="st5" d="M328.54,60.45c0,1.33-1.08,2.08-2.1,2.06-1.09-.02-2.02-.87-2.02-2.11l-.03-17.57c-1.57.96-3.38,4.52-5.5,2.53-.78-.73-.94-2.07-.06-2.95l6.14-6.15c.9-.9,2.24-.81,3.11.05l5.95,5.94c.84.84,1.02,2.03.29,2.94s-2.02,1.03-2.99.23c-.91-.75-1.46-1.75-2.7-2.4l-.08,17.43Z"/>
      <path class="st5" d="M245.62,60.29c0,1.46-1.06,2.29-2.25,2.21-1.16-.08-1.91-1.07-1.91-2.37l-.04-17.11c-1.63.7-3.26,4.33-5.44,2.36-.85-.77-.94-2.13-.06-3.01l6.05-6.06c.87-.87,2.21-.94,3.11-.05l6.04,6.03c.87.87.92,2.13.16,2.96-2.06,2.28-4.13-1.5-5.62-2.42l-.03,17.45Z"/>
    </g>
  </g>
  <g id="_x33_2V8PR">
    <g>
      <path class="st5" d="M298-139.24c-8.93-3.83-10.36,5.79-12.78,6.18-.59.09-2.3-.38-2.11-1.4,1.38-7.44,9.04-11.37,15.98-8.54,5.64,2.31,11.82,3.62,17.94,2.71,3.31-.49,6.35.8,9.39.54,2.76-.23,4.99-2.34,7.96-.26,3.02,2.12,5.68,4.99,6.91,8.69,1.24,3.72-.57,6.79-4.53,8.35l5.16,13.77c1.48,3.93-.49,8.15-4.02,10.31l-25.33,15.5c-1.02.62-2.56.32-3.02,1.14-1.09,1.91.44,5.3-1.02,6.74-.57.57-1.48.66-2.16.36-2.22-.97-.26-5.91-1.52-8.05-4.93-3.01-6.81-8.46-3.5-13.83-7.51-6.34-13.07,6.83-28.21-.95-2.53-1.3-5.52-1.12-8.05.48,2.17,5.52.51,10.53-4.08,13.78-1.3,2.01.65,7.88-1.57,8.62-.83.27-2.4.2-2.51-1.04l-.59-6.32c-4-.16-6.99-1.76-9.05-4.81l-17.5-26.05c-2.58-3.84-2.97-7.87-.86-12.09l12.97-25.9c4.28-8.55,14.98-10.49,23.47-7.03,15.7,6.39,24.04-3.83,27.19-1.98.75.44,1.28,2.31.11,2.96-10.35,5.67-18.39,6.58-29.64,2.35-6.8-2.56-14.81-.42-18.15,6.33l-12.86,26.01c-1.16,2.34-.57,4.72.81,6.76l18.06,26.86c1.95,2.9,5.88,3.31,8.54,1.51,2.5-1.7,3.79-5.39,1.85-8.31l-16.29-24.55,9.5-19.65c.58-1.21,1.82-1.61,2.83-1.13.97.46,1.24,1.75.67,2.91l-8.56,17.48,13.24,19.86c4.19-1.94,8.43-2.56,12.3-.53,13.85,7.28,16.84-7.12,29.55,1.65l17.36-10.54c-.54-3.74-5.73-10.37-2.6-11.97.8-.41,2.15-.09,2.62,1.16,1.54,4.07,3.43,7.79,4.65,12.37l-20.56,12.84c-2.53,1.58-2.94,4.67-1.73,6.86,1.28,2.3,4.42,3.54,6.95,1.98l25.29-15.57c4.99-3.08-2.52-14.55-3.97-19.48-11.46-3.44-8.04-12.78-9.03-13.65-2.38-2.12-12.25,2.25-25.5-3.44ZM337.49-129.37c-.44-3.39-3.36-6.93-6.36-7.51-1.83-.36-3.05,1.99-3.39,3.15-.93,3.08,2.37,7.82,5.82,7.5,1.27-.12,4.26-.62,3.94-3.13Z"/>
      <path class="st5" d="M272.14-194.71c10.43-1.99,19.74,4.94,21.57,14.63,1.9,10.07-4.66,19.71-14.88,21.59-9.61,1.77-19.19-4.46-21.27-14.32-2.05-9.68,3.93-19.87,14.58-21.9ZM271.44-190.52c-8.26,2.5-12.08,11.11-9.63,18.41,2.54,7.55,10.46,11.59,17.79,9.45,7.88-2.3,12.21-10.4,9.93-18.08-2.21-7.44-9.98-12.23-18.08-9.78Z"/>
      <path class="st5" d="M309.65-173.92c9.07-.49,15.98,6.46,16.55,14.53.64,9.04-6.12,16.39-14.82,16.9-8.54.5-15.91-5.92-16.61-14.4-.71-8.61,5.6-16.52,14.88-17.03ZM307.69-169.72c-6.84,1.71-10.34,8.51-8.66,14.62,1.68,6.15,7.98,9.83,13.93,8.49,6.59-1.49,10.46-7.77,9.08-14.19-1.31-6.1-7.52-10.63-14.35-8.92Z"/>
      <path class="st5" d="M280.16-131.71c8.61-1.6,16.12,4.23,17.48,12.15,1.37,8-3.98,15.64-11.86,17.13-8.15,1.54-15.97-3.6-17.55-11.89-1.46-7.65,3.29-15.78,11.93-17.39ZM279.49-127.49c-6.37,2.13-9,8.84-6.91,14.33,2.11,5.54,8.16,8.35,13.49,6.67,6.04-1.9,9.18-8.15,7.35-13.83-1.82-5.66-7.78-9.23-13.94-7.18Z"/>
      <path class="st5" d="M271.31-84c.21,3.17.79,8.83-1.6,9.03-.97.08-1.99-.38-2.08-1.72-.21-3.19-.81-8.78,1.56-9.05,1.02-.11,2.02.37,2.11,1.73Z"/>
      <path class="st5" d="M298.16-84c.2,3.36.79,8.8-1.61,9.03-.96.09-1.98-.39-2.07-1.71-.21-3.15-.8-8.77,1.55-9.05,1.03-.12,2.05.37,2.13,1.73Z"/>
    </g>
  </g>
  <g id="ViAgwP">
    <g>
      <path class="st5" d="M86.12,130.67c-.01,2.75-1.5,5.13-3.61,6.61-3.54,2.48-8.18,1.38-10.56-2.35-1.35,2.04-3.4,3.38-5.63,3.62-4.83.52-8.61-3.75-8.61-8.12l-.02-69.04c0-1.45-.41-3.51-1.87-3.93-.73-.21-1.52-.14-2.17.31l-6.52,4.6c-.03.32-.31.25-.47.36l-8.45,5.97c3.06,1.68,4.9,4.73,4.9,8.19,0,.78-.61,1.3-1.28,1.36s-1.46-.45-1.47-1.29c-.03-3.35-2.56-6.36-6.05-6.45-4.11-.11-6.89,2.68-6.89,6.75l.02,59.85c0,.86-.47,1.36-1.23,1.48-.57.09-1.53-.3-1.53-1.17l.02-60.95c0-2.84,1.57-5.24,3.61-6.96-1.9-1.4-2.78-3.63-2.46-5.91.37-2.6,1.85-4.72,3.96-6.28l23.01-17.11c1.06-.38,2.2-.95,3.26-.97l4.92-.12c-1.66-2.45-2.75-5.07-3.05-7.95-.91-8.85,6.38-16.21,15.16-15.48,8.57.71,14.63,8.99,12.42,17.55-.53,2.06-1.37,3.98-2.69,5.87l5.5.1c2.49.05,4.6,1.55,6.07,3.65,1.59-.61,3.17-.66,4.78-.24l3.89,1.03c2.21.58,8.45.31,10.01-.26,1.81-.66,3.61-.53,5.04.96,1.29,1.35,2.1,3.25,2.13,5.25l.16,14.45c.03,2.92-1.89,5.33-4.86,5.86,1.4,10.75,3.73,21.14,7,31.35.51,1.6,1.31,2.86,2.2,4.19s.62,3.08-.58,4.16c-2.14,1.92-6.45,2.67-9.37,3.2v19.26c0,1.65-.59,3.04-1.57,4.28-.12.35-.36.42-.61.64-2.92,2.55-7.34,2.27-9.84-.89-1.95,2.47-5.12,3.23-7.91,2.09-2.78-1.14-4.15-3.84-4.14-6.92l.05-18.44c-1.65-.23-3.03-.55-4.6-1.04l-.08,18.91ZM76.78,41.03l.59-.34c3.53-2,5.49-6.07,5.81-10.18.54-6.85-5.16-12.5-11.89-12.12-6.58.37-11.59,6.4-10.51,13.08.54,3.33,2.2,6.32,4.74,8.49,3.22,2.74,7.56,3.15,11.25,1.06ZM83.4,68.24c-1.39-.19-2.39-.47-3.36-1.18-2.3-1.65-3.42-4.51-2.73-7.27.81-3.24,4.1-4.97,7.23-3.78,3.04,1.16,4.8,4.35,4.27,7.56-.28,1.68-1.2,2.97-2.62,3.91l.02,12.76c0,1.22.63,2.31,1.48,3.06,1.25,1.09,2.93,1.07,4.21,0,.81-.77,1.47-1.85,1.47-3.06v-11.13c-1.74-1.21-2.72-3.01-2.7-5,.02-2,.98-3.79,2.73-4.94l-.04-11.35c0-1.43-.7-2.71-1.49-3.8-1.16-1.43-2.78-2.15-4.62-2.14l-6.96.04c-5.06,4.38-11.72,4.36-16.69-.02l-7,.04c-.87,0-1.58.51-2.47.71l-23.1,17.23c-1.26.94-2.04,2.31-2.37,3.75-.48,2.08.83,3.88,2.91,4.18,1.81.27,3.5-.32,5.01-1.39l15.52-10.96c2.4-1.69,5.76-1.03,7.24,1.44.71,1.19,1.1,2.51,1.1,3.97l.03,69.37c0,1.92.97,3.61,2.4,4.68,1.72,1.28,3.96,1.14,5.58-.24,1.3-1.1,2.08-2.71,2.09-4.51l.04-36.43c0-.92.89-1.31,1.59-1.2.74.11,1.15.67,1.15,1.52v36.18c0,1.57.66,2.93,1.65,4.01,1.73,1.9,4.53,2.08,6.44.35,1.21-1.09,1.98-2.62,1.98-4.37v-62.02ZM111.5,58.36c-.42-4.16-.71-7.91-.81-11.83-2.87.37-5.58.27-8.31-.21l-3.9-1.05c-.94-.15-1.85-.34-2.76.14.36,1.26.46,2.43.47,3.69v9.28s15.32-.02,15.32-.02ZM96.05,67.11l19.15-.02c1.42,0,2.47-1.59,2.46-2.89l-.14-14.47c-.02-1.8-1.37-4.61-2.91-3.91-.7.32-1.17.87-1.13,1.69.19,3.74.38,7.4.9,11.11.07.48.71,1.02.39,1.57-.19.33-.38.92-1.03.92l-17.72.09c-1.56,0-2.58,1.58-2.58,2.93s.96,2.99,2.62,2.99ZM86.1,62.91c.2-1.72-.72-3.39-2.19-4.15-.85-.44-1.79-.51-2.62-.02-.61.36-1.19,1.01-1.36,1.9-.37,1.9.7,3.85,2.5,4.59.86.35,1.75.23,2.53-.29.53-.36,1.02-1.1,1.13-2.02ZM96.53,110.39c3.09.16,5.95.48,8.99.43,4.02-.06,7.91-.55,11.81-1.37,1.03-.22,5.01-1.22,5.22-2.37-1.06-1.51-1.99-3.06-2.58-4.9-3.38-10.51-5.75-21.18-7.19-32.28h-16.59s-.03,10.24-.03,10.24c-.09,2.02-.89,3.84-2.36,5.18-1.87,1.61-4.24,2.02-6.68.94-.18,1.77-.86,3.35-.86,5.12l-.08,17.32c3.35,1.55,6.72,1.5,10.36,1.69ZM101.43,131.97v-18.51s-7.88-.42-7.88-.42v18.99c.09,2.22,1.83,3.86,3.94,3.86,2.07,0,3.89-1.64,3.94-3.93ZM112.06,132.04l-.03-18.91c-2.76.34-5.2.52-7.84.45v18.47c.09,2.21,1.84,3.88,3.93,3.86,2.1-.02,3.86-1.64,3.94-3.86Z"/>
      <path class="st5" d="M95.94,27.44c-2.64,4.46.44,9.83,4.84,11.64,2.65,1.09,5.56.72,7.78-1.06,2.59-2.08,4.05-5.32,3.57-8.63-.13-.88.24-1.67,1.13-1.8.77-.12,1.5.4,1.62,1.33.64,4.81-1.65,9.7-5.89,12.16-2.97,1.72-6.34,1.3-9.55.38l-1.33-.38c-8.46-2.43-11.23-13.5-7.2-21.3,4.03-7.8,13.76-10.74,21.44-6.49,7.71,4.27,10.39,14.03,5.85,21.75-.68,1.15-1.8,3.05-3.21,2.05-.45-.32-.82-1.27-.39-1.77,5.12-6.15,3.6-15.2-3.13-19.33-6.75-4.14-15.67-1.21-18.63,6.26.39.21.77.07,1,.25,3.9,3.52,8.91,5.41,14.2,4.93.83-.08,1.42.59,1.45,1.29.03.73-.47,1.39-1.29,1.46-4.25.39-8.39-.51-12.26-2.73ZM93.55,25.85l-1.42-1.13c-.26,1.65-.35,3.19.11,4.73.36-1.33.69-2.39,1.31-3.6Z"/>
    </g>
  </g>
  <g id="NNvlIG.tif">
    <g>
      <path class="st5" d="M696.51-76.8h-62.15v-7.31c0-3.92,1.36-15.1,2.45-19.57,2.39-9.77,11.34-16.84,21.28-15.37.04-.8.5-2.11-.13-2.65-4.05-3.46-6.37-8.2-6.64-13.58-.12-2.35.18-4.64-.15-7-.48-3.37-1.38-6.85-.39-10.22,1.29-4.39,4.86-7.5,8.88-9.45,5.2-2.51,10.82-3.49,16.41-2.17,4.99,1.18,4.22,4.67,6.11,6.05,2.43,1.77,4.14,4.31,4.69,7.31.7,3.85-2.33,7.15-2.58,8.54-.42,2.38-.05,4.77-.21,7.18-.36,5.58-2.89,10.5-7.31,13.85-.35.67-.09,1.7.25,2.41,1.18-.6,2.33-.58,3.66-.48,8.93.71,15.86,7.27,17.85,15.99,1.59,6.93,1.93,13.82,2.14,20.98.11,3.58-1.64,4.48-4.19,5.49ZM681.1-146.2c.76-.8,1.46-2.13,1.41-3.4-.07-2.03-1.43-3.76-2.99-4.94-3.61-2.72-1.65-4.72-4.82-5.38-6.87-1.42-17.04,1.77-19.58,8.3-.67,1.73-.17,3.62-.12,5.43,1.73-.1,2.48-3.36,5.25-1.51,2.59,1.73,5.71,2.26,8.84,2.15,7.63-.27,8.64-4.76,12-.65ZM679.66-141.12c-.03-.68-1.28-2.03-1.98-1.86-6.51,2.2-12.35,2.82-18.64-.29l-3.29,1.96c-.25,6.16-.21,11.76,4.88,16.01,4.21,3.51,9.97,3.5,14.18-.01,4.98-4.16,5.13-9.67,4.85-15.8ZM673.14-116.05c-.43-1.19-.48-2.01-.94-2.9-3.22,1.02-6.32.81-9.5-.08-.41,1.13-.55,1.97-.77,3.02l5.41,4,5.79-4.04ZM687.69-96.15l-.02,14.63h8.58c-.12-7.16-.47-13.85-1.97-20.6-1.6-7.21-7.34-12.61-14.83-12.79l-10.64,7.32c-.78.54-1.84.75-2.66.16l-10.4-7.49c-7.44.26-13.12,5.5-14.74,12.63-1.55,6.79-1.92,13.57-1.99,20.77h8.53s0-14.79,0-14.79c0-1.42.89-2.43,2.2-2.44,1.13,0,2.19.78,2.2,2.13l.11,15.16,31.18-.04.05-15.1c0-1.42,1.24-2.27,2.41-2.15,1.24.12,2,1.07,2,2.58Z"/>
      <path class="st5" d="M771.46-76.8h-57.89c-2.54-1.01-4.28-1.93-4.18-5.49.2-7.07.55-13.88,2.09-20.75,2.25-10.04,10.94-17.34,21.34-16.07.2-.63.61-1.99.03-2.49-4.11-3.59-6.52-8.44-6.7-13.98-.08-2.24.19-4.43-.13-6.66-.48-3.4-1.4-6.93-.37-10.34,1.3-4.3,4.8-7.37,8.74-9.31,5.18-2.55,10.79-3.53,16.38-2.28,5.22,1.18,3.94,4.3,6.65,6.41,2.77,2.16,4.56,5.43,4.37,8.94-.14,2.49-1.89,4.21-2.57,6.47-1,3.34,2.14,13.58-7.54,21.14-.59.46-.04,1.97.24,2.36,1.08-.48,1.98-.52,3.14-.46,8.58.45,15.61,6.44,17.96,14.67,1.3,4.53,1.9,8.99,2.17,13.69l.35,6.17c.24,4.1.43,6.17-4.08,7.96ZM756-146.17c.76-.97,1.49-2.37,1.34-3.72-.23-2.04-1.56-3.58-3.08-4.74-3.47-2.65-1.61-4.63-4.62-5.26-4.55-.96-9.09-.1-13.28,1.97-4.88,2.41-7.85,6.11-6.43,11.75,1.93-.44,2.48-3.31,5.23-1.49,2.53,1.68,5.54,2.19,8.58,2.12,7.71-.16,8.8-4.84,12.25-.63ZM754.45-141.38c-.07-.66-1.24-1.52-1.9-1.65-6.26,2.26-12.44,2.86-18.62-.21l-3.34,1.92c-.28,6.24-.19,11.98,5.09,16.19,3.94,3.14,9.22,3.29,13.3.31,5.33-3.91,6.15-10.25,5.46-16.57ZM747.99-116.04c-.44-1.3-.48-1.93-.94-2.88-3.17.9-6.25.9-9.52-.18-.36,1.11-.57,2.09-.76,3.13l5.45,3.96,5.77-4.04ZM762.53-96.3v14.77s8.54,0,8.54,0c-.08-7.18-.45-13.96-1.99-20.76-1.63-7.2-7.48-12.54-14.86-12.61l-10.5,7.26c-1.09.75-2.17.67-3.22-.09l-9.91-7.18c-7.45.21-13.2,5.59-14.79,12.78-1.5,6.75-1.86,13.46-1.97,20.61l8.54.07.07-15.16c0-1.33,1.06-2.16,2.25-2.13,1.05.03,2.11.85,2.12,2.16l.06,15.11h31.17s.21-15.66.21-15.66c.02-1.31,1.71-1.77,2.65-1.54,1.02.25,1.64,1.15,1.64,2.37Z"/>
      <path class="st5" d="M715.28-188.45l-9.03-.02c-2.16,0-3.92,1.37-4.44,3.31-.53,2.01.4,4.12,2.36,5.14,1.05.54,1.4,1.71,1.01,2.79-.32.89-1.58,1.73-2.77,1.2-3.78-1.68-5.78-5.71-5.01-9.72.74-3.82,3.93-6.78,8.18-7.19,3.33-.33,6.84-.35,10.17,0,4.41.47,7.64,3.66,8.19,7.73.56,4.14-1.85,8.15-5.9,9.54-1.21.41-2.38-.31-2.74-1.28-.45-1.21.14-2.43,1.4-2.92,2.03-.8,3.17-2.76,2.84-4.88-.3-1.89-1.91-3.69-4.27-3.7Z"/>
      <path class="st5" d="M708.31-176.44c1.15-5.07-4.96-4.49-3.83-7.78.39-1.13,1.61-1.84,2.87-1.33,4.01,1.61,6.17,5.86,5.3,10-.86,4.04-4.46,7.02-8.81,7.02h-8.86c-4.35,0-7.91-3.02-8.74-7.09-.85-4.17,1.36-8.46,5.48-10.01,1.19-.45,2.37.06,2.86,1.19.39.91.07,2.3-1.13,2.82-2.07.89-3.29,2.84-2.88,5.08.36,1.93,2.16,3.6,4.42,3.6l9.15-.02c2.13,0,3.75-1.6,4.18-3.47Z"/>
      <path class="st5" d="M669.95-183.16c-.28,3.06-.02,5.91-.13,8.89-.05,1.29-1.02,2.2-2.13,2.22-1.2.02-2.25-.86-2.25-2.19v-11.29c.02-1.17.99-2.03,2.12-2.03l10.98-.03c1.41,0,2.4.95,2.4,2.21,0,1.24-.99,2.23-2.4,2.2h-8.6Z"/>
      <path class="st5" d="M744.67-174.55c0,1.47-.91,2.53-2.28,2.5-1.44-.03-2.2-1.29-2.17-2.8.06-2.79.07-5.44-.02-8.28l-8.66-.02c-1.41,0-2.4-.95-2.4-2.22,0-1.26.98-2.22,2.41-2.21l10.97.03c1.32,0,2.14,1.06,2.14,2.32l.02,10.68Z"/>
    </g>
  </g>
  <g>
    <polygon class="st1" points="1072.17 981.3 1066.98 981.3 1063.31 986.8 1062.09 996.57 1057.2 1002.38 1048.65 1011.85 1039.48 1025.6 1025.43 1035.37 1044.07 1048.2 1068.2 1068.06 1077.67 1068.06 1095.09 1063.17 1103.95 1047.9 1098.14 1032.32 1107 1029.87 1118.61 1024.68 1115.25 1010.32 1107 1008.18 1098.75 1004.51 1088.06 1000.24 1081.34 982.82 1077.37 988.32 1072.17 981.3"/>
    <polygon class="st2" points="1081.34 982.82 1088.67 972.74 1072.02 960.52 1072.02 946.16 1064.23 935.77 1055.98 935.77 1044.68 933.94 1044.68 949.52 1038.87 952.88 1037.65 961.13 1023.9 961.44 1015.65 975.19 1009.24 984.35 1016.88 994.43 1010.46 1008.49 1017.18 1014.9 1017.18 1029.57 1025.43 1035.37 1039.48 1025.6 1048.65 1011.85 1057.2 1002.38 1062.09 996.57 1063.31 986.8 1066.98 981.3 1072.17 981.3 1077.37 988.32 1081.34 982.82"/>
    <polygon class="st4" points="1044.68 933.94 1033.68 897.28 1036.73 887.2 1033.68 876.81 1036.12 871.92 1036.73 865.51 1027.57 858.17 1033.68 854.81 1040.1 843.51 1046.51 827.32 1043.46 821.51 1046.51 810.51 1053.54 808.68 1059.65 794.63 1069.73 782.1 1072.02 766.52 1111.28 783.94 1147.64 766.52 1147.64 795.54 1142.44 803.49 1146.11 810.82 1153.75 829.46 1153.75 835.57 1146.41 834.34 1146.41 845.34 1133.89 857.56 1132.67 862.45 1127.78 866.42 1125.94 872.23 1127.47 881.7 1138.78 892.7 1128.69 900.03 1126.25 907.97 1107 891.78 1095.7 900.95 1104.86 916.83 1105.17 920.5 1098.45 915.31 1094.78 912.56 1088.67 918.97 1095.39 929.36 1100.28 931.5 1100.59 923.25 1105.17 929.66 1111.28 932.72 1121.97 933.94 1121.97 945.86 1130.83 950.74 1143.05 952.27 1143.05 958.38 1141.22 962.66 1143.97 972.74 1115.25 1010.32 1107 1008.18 1088.06 1000.24 1081.34 982.82 1088.67 972.74 1072.02 960.52 1072.02 946.16 1064.23 935.77 1055.98 935.77 1044.68 933.94"/>
    <polygon class="st4" points="1010.46 1008.49 984.49 996.57 967.08 984.66 964.33 977.94 939.58 970.3 902.92 951.05 885.81 947.38 869.31 933.94 841.51 918.97 813.41 905.22 820.74 893.31 832.04 885.98 838.76 888.42 845.48 889.95 854.65 904.92 861.07 907.06 865.95 903.7 869.92 912.56 879.09 903.7 895.59 901.56 903.23 899.42 909.34 901.86 911.93 894.84 919.11 895.45 924.92 884.14 925.22 867.65 932.25 867.65 936.83 861.23 942.94 859.7 950.58 861.54 956.69 859.7 957.91 867.65 963.72 869.17 972.58 866.42 978.99 870.4 978.99 858.17 990.91 871.92 989.99 880.17 1001.3 884.75 1008.02 879.87 1014.13 879.56 1017.49 883.53 1023.9 881.7 1027.57 889.64 1033.68 897.28 1044.68 933.94 1044.68 949.52 1038.87 952.88 1037.65 961.13 1023.9 961.44 1015.65 975.19 1009.24 984.35 1016.88 994.43 1010.46 1008.49"/>
    <polygon class="st1" points="813.41 905.22 805.46 892.09 795.38 884.14 790.49 873.14 773.38 867.65 755.97 844.12 752 834.04 745.28 834.04 749.25 826.4 741.61 816.32 750.16 816.32 751.39 798.91 748.94 785.46 757.19 773.85 769.11 766.52 777.51 768.05 777.51 779.96 772.47 786.07 777.51 790.66 788.05 791.88 790.49 798.91 786.21 804.1 787.13 819.07 797.82 820.9 802.41 826.71 811.88 829.46 811.27 847.18 814.63 850.23 813.41 854.51 816.46 858.17 822.57 855.12 828.68 863.06 832.65 872.53 834.79 878.34 832.04 885.98 820.74 893.31 813.41 905.22"/>
    <polygon class="st1" points="777.51 768.05 788.2 751.86 793.55 743.3 800.57 736.28 811.88 725.58 810.04 713.67 813.41 709.39 818.29 712.75 834.79 709.39 846.4 715.81 843.04 722.53 840.9 734.14 848.23 738.72 851.9 751.86 855.26 766.52 847.93 768.05 847.93 774.77 844.87 777.82 834.79 779.35 836.01 786.68 826.24 784.85 821.35 788.21 825.93 794.93 830.51 816.32 831.12 822.74 821.35 827.93 811.88 829.46 802.41 826.71 797.82 820.9 787.13 819.07 786.21 804.1 790.49 798.91 788.05 791.88 777.51 790.66 772.47 786.07 777.51 779.96 777.51 768.05"/>
    <polygon class="st1" points="846.4 715.81 852.21 722.53 858.62 728.03 875.12 725.28 880.62 743.3 892.53 750.94 897.73 772.94 910.86 785.16 914.22 791.27 906.59 791.27 894.98 787.6 887.64 780.88 880.31 782.71 880.31 795.85 886.73 812.96 897.42 835.87 896.81 851.45 899.25 855.12 894.67 863.98 897.42 869.48 909.34 862.76 920.03 861.84 925.83 858.17 935.55 863.02 932.25 867.65 925.22 867.65 924.92 884.14 919.11 895.45 911.93 894.84 909.34 901.86 903.23 899.42 895.59 901.56 879.09 903.7 869.92 912.56 865.95 903.7 861.07 907.06 854.65 904.92 845.48 889.95 838.76 888.42 832.04 885.98 834.79 878.34 832.65 872.53 828.68 863.06 822.57 855.12 816.46 858.17 813.41 854.51 814.63 850.23 811.27 847.18 811.88 829.46 821.35 827.93 831.12 822.74 830.51 816.32 825.93 794.93 821.35 788.21 826.24 784.85 836.01 786.68 834.79 779.35 844.87 777.82 847.93 774.77 847.93 768.05 855.26 766.52 851.9 751.86 848.23 738.72 840.9 734.14 843.04 722.53 846.4 715.81"/>
    <polygon class="st1" points="914.22 791.27 921.86 793.41 929.04 789.13 939.89 791.27 954.25 798.29 966.77 806.24 972.58 809.6 976.85 822.12 970.13 839.84 965.86 844.43 952.72 850.84 956.69 859.7 950.58 861.54 942.94 859.7 936.83 861.23 935.55 863.02 925.83 858.17 920.03 861.84 909.34 862.76 897.42 869.48 894.67 863.98 899.25 855.12 896.81 851.45 897.42 835.87 886.73 812.96 880.31 795.85 880.31 782.71 887.64 780.88 894.98 787.6 906.59 791.27 914.22 791.27"/>
    <polygon class="st4" points="875.12 725.28 884.9 723.44 893.45 717.94 893.45 709.39 901.09 695.95 897.42 691.06 888.1 688.31 893.14 683.12 897.12 683.12 901.09 672.73 914.84 670.28 926.44 666.62 932.25 672.73 943.86 673.34 948.75 676.7 957.61 669.98 969.52 668.45 969.52 677.01 963.11 684.95 960.05 695.95 960.36 708.17 970.74 715.81 975.33 726.5 981.44 728.33 986.63 736.89 984.8 747.27 993.66 756.44 1008.63 757.66 1029.1 766.52 1061.48 772.63 1058.73 764.08 1072.02 766.52 1069.73 782.1 1059.65 794.63 1053.54 808.68 1046.51 810.51 1043.46 821.51 1046.51 827.32 1040.1 843.51 1033.68 854.81 1027.57 858.17 1036.73 865.51 1036.12 871.92 1033.68 876.81 1036.73 887.2 1033.68 897.28 1027.57 889.64 1023.9 881.7 1017.49 883.53 1014.13 879.56 1008.02 879.87 1001.3 884.75 989.99 880.17 990.91 871.92 978.99 858.17 978.99 870.4 972.58 866.42 963.72 869.17 957.91 867.65 956.69 859.7 952.72 850.84 965.86 844.43 970.13 839.84 976.85 822.12 972.58 809.6 954.25 798.29 939.89 791.27 929.04 789.13 921.86 793.41 914.22 791.27 910.86 785.16 897.73 772.94 892.53 750.94 880.62 743.3 875.12 725.28"/>
    <polygon class="st1" points="969.52 668.45 976.85 655.62 973.19 644.93 989.07 650.73 1005.27 640.34 1020.54 636.07 1041.62 619.88 1045.59 607.35 1045.59 601.54 1057.81 592.07 1057.81 652.57 1063.92 648.59 1072.02 656.84 1077.37 656.84 1094.17 648.59 1116.17 650.43 1130.22 672.12 1151.61 712.45 1161.99 733.53 1164.44 742.69 1158.94 750.02 1148.86 757.05 1147.64 766.52 1111.28 783.94 1072.02 766.52 1058.73 764.08 1061.48 772.63 1029.1 766.52 1008.63 757.66 993.66 756.44 984.8 747.27 986.63 736.89 981.44 728.33 975.33 726.5 970.74 715.81 960.36 708.17 960.05 695.95 963.11 684.95 969.52 677.01 969.52 668.45"/>
    <polygon class="st0" points="748.94 785.46 735.5 770.8 733.67 759.19 726.33 754 712.89 728.94 704.03 722.53 700.37 706.03 700.37 701.14 694.26 693.2 697.92 689.84 690.9 679.45 681.12 675.48 675.31 678.23 666.76 675.48 670.43 666.62 654.54 633.93 657.59 624.76 659.12 619.14 663.7 619.88 664.32 624.46 661.57 629.65 667.68 632.1 670.12 640.04 676.23 640.34 688.15 628.74 694.26 622.01 700.06 616.21 709.53 616.21 716.56 626.9 727.86 655.93 732.14 671.81 739.47 686.17 745.89 689.53 747.72 700.84 758.11 712.14 766.36 712.14 779.8 717.33 778.27 724.67 786.21 736.58 782.24 742.39 790.49 748.19 788.2 751.86 777.51 768.05 769.11 766.52 757.19 773.85 748.94 785.46"/>
    <polygon class="st4" points="675.31 678.23 683.72 683.27 690.44 694.42 695.48 708.32 696.24 715.81 688.15 722.68 691.2 724.21 697.16 720.39 704.03 722.53 700.37 706.03 700.37 701.14 694.26 693.2 697.92 689.84 690.9 679.45 681.12 675.48 675.31 678.23"/>
    <polygon class="st4" points="727.86 655.93 741.61 659.06 745.35 649.66 758.64 646.68 780.87 645.08 788.2 640.96 804.24 639.81 811.27 634.31 825.55 642.79 839.98 645.08 844.8 654.7 850.53 654.7 853.05 651.72 873.41 650.12 880.54 638.89 889.25 638.44 897.73 648.52 897.73 660.2 895.89 665.24 901.09 672.73 897.12 683.12 893.14 683.12 888.1 688.31 897.42 691.06 901.09 695.95 893.45 709.39 893.45 717.94 884.9 723.44 875.12 725.28 858.62 728.03 852.21 722.53 846.4 715.81 834.79 709.39 818.29 712.75 813.41 709.39 810.04 713.67 811.88 725.58 800.57 736.28 793.55 743.3 790.49 748.19 782.24 742.39 786.21 736.58 778.27 724.67 779.8 717.33 766.36 712.14 758.11 712.14 747.72 700.84 745.89 689.53 739.47 686.17 732.14 671.81 727.86 655.93"/>
    <polygon class="st4" points="714.55 623.84 722.52 618.27 731.15 612.31 738.94 612.31 744.44 619.88 763.22 619.88 771.02 616.21 766.2 602.92 768.72 593.75 797.14 589.86 807.68 582.76 814.47 584.59 826.7 582.76 838.84 575.19 844.11 584.13 846.63 595.82 848.92 611.86 848.92 620.79 859.46 625.6 855.26 630.19 839.98 645.08 825.55 642.79 811.27 634.31 804.24 639.81 788.2 640.96 780.87 645.08 758.64 646.68 745.35 649.66 741.61 659.06 727.86 655.93 716.56 626.9 714.55 623.84"/>
    <polygon class="st4" points="606.27 539.68 610.85 551.14 617.73 556.41 616.58 560.76 621.85 567.63 630.79 586.65 633.31 595.13 643.85 621.48 654.54 633.93 657.59 624.76 659.12 619.14 663.7 619.88 664.32 624.46 661.57 629.65 667.68 632.1 670.12 640.04 676.23 640.34 688.15 628.74 694.26 622.01 700.06 616.21 705.25 616.21 705.25 610.25 707.09 604.98 696.78 585.28 707.09 569.01 708.23 558.47 714.55 552.05 694.03 537.85 683.72 514.47 672.95 499.58 665.38 493.62 664.24 487.44 648.66 490.41 641.1 500.04 634.68 507.83 628.72 522.95 613.6 530.97 606.27 539.68"/>
    <polygon class="st2" points="683.72 514.47 693.8 516.54 697.69 511.95 701.13 517.91 705.94 519.06 709.84 516.77 723.81 519.06 735.96 517.22 737.33 506.45 741.46 508.06 745.58 520.2 750.85 523.87 755.66 519.06 760.93 527.76 762.54 536.93 767.12 543.8 767.12 552.74 771.93 557.55 776.74 563.89 785.68 558.93 798.05 550.91 804.7 538.76 812.03 527.76 826.01 518.83 836.55 518.37 839.3 522.26 834.03 530.28 831.51 544.26 829.67 559.84 832.88 567.63 838.84 575.19 826.7 582.76 814.47 584.59 807.68 582.76 797.14 589.86 768.72 593.75 766.2 602.92 771.02 616.21 763.22 619.88 744.44 619.88 738.94 612.31 731.15 612.31 722.52 618.27 714.55 623.84 709.53 616.21 705.25 616.21 705.25 610.25 707.09 604.98 696.78 585.28 707.09 569.01 708.23 558.47 714.55 552.05 694.03 537.85 683.72 514.47"/>
    <polygon class="st3" points="755.66 519.06 766.66 515.7 778.27 502.56 787 510.81 783.77 497.37 792.33 490.03 805.46 490.03 814.47 484.23 830.82 478.73 836.32 469.56 833.26 444.82 844.87 447.57 869.31 457.04 877.56 469.56 885.51 472.01 881.84 481.94 889.48 485.45 896.81 506.45 904.45 507.75 907.81 519.06 922.47 531.28 930.11 546.55 915.14 560.3 920.95 563.89 934.39 560.91 948.75 566.41 962.5 568.85 969.52 584.74 973.57 594.52 1018.1 596.96 1033.07 586.57 1052.93 569.47 1060.26 563.89 1063.62 566.72 1058.73 575.19 1063.62 581.69 1057.81 592.07 1045.59 601.54 1045.59 607.35 1041.62 619.88 1020.54 636.07 1005.27 640.34 989.07 650.73 973.19 644.93 976.85 655.62 969.52 668.45 957.61 669.98 948.75 676.7 943.86 673.34 932.25 672.73 926.44 666.62 914.84 670.28 901.09 672.73 895.89 665.24 897.73 660.2 897.73 648.52 889.25 638.44 880.54 638.89 873.41 650.12 853.05 651.72 850.53 654.7 844.8 654.7 839.98 645.08 855.26 630.19 859.46 625.6 848.92 620.79 848.92 611.86 846.63 595.82 844.11 584.13 838.84 575.19 832.88 567.63 829.67 559.84 831.51 544.26 834.03 530.28 839.3 522.26 836.55 518.37 826.01 518.83 812.03 527.76 804.7 538.76 798.05 550.91 785.68 558.93 776.74 563.89 771.93 557.55 767.12 552.74 767.12 543.8 762.54 536.93 760.93 527.76 755.66 519.06"/>
    <polygon class="st4" points="606.27 539.68 601.69 519.97 593.74 512.95 590.99 500.73 568.38 482.7 553.41 456.73 547.3 439.93 553.41 432.29 563.19 428.93 567.16 441.15 563.19 448.48 576.79 454.9 582.74 459.48 583.97 470.17 594.35 463.15 606.27 460.7 623.38 468.65 629.79 472.92 635.29 467.73 644.46 467.73 648.43 457.04 656.37 454.9 648.73 439.01 642.01 428.93 658.82 428.93 661.87 436.87 667.07 441.15 663.4 446.34 667.07 455.51 673.48 458.57 673.48 465.29 673.48 472.01 678.67 481.48 678.67 487.44 683.72 490.95 695.78 490.64 706.48 499.81 709.84 516.77 705.94 519.06 701.13 517.91 697.69 511.95 693.8 516.54 683.72 514.47 672.95 499.58 665.38 493.62 664.24 487.44 648.66 490.41 641.1 500.04 634.68 507.83 628.72 522.95 613.6 530.97 606.27 539.68"/>
    <polygon class="st2" points="658.82 428.93 653.93 421.29 656.37 409.38 662.18 403.27 671.04 408.16 679.59 403.27 687.84 393.8 686.01 377.91 667.98 371.49 658.51 357.75 656.37 340.64 662.18 336.67 670.88 343.08 678.67 346.14 686.31 355 704.95 353.77 709.84 364.47 714.55 372.72 725.42 373.63 731.83 366.61 737.94 366.61 744.67 375.47 752.91 378.52 761.51 375.16 774.61 378.22 782.55 385.85 784.38 397.77 782.85 410.6 777.66 421.29 771.86 421.9 761.51 411.52 751.08 420.38 749.55 444.82 758.72 472.92 767.88 487.44 767.58 496.14 761.51 506.45 755.66 519.06 750.85 523.87 745.58 520.2 741.46 508.06 737.33 506.45 735.96 517.22 723.81 519.06 709.84 516.77 706.48 499.81 695.78 490.64 683.72 490.95 678.67 487.44 678.67 481.48 673.48 472.01 673.48 465.29 673.48 458.57 667.07 455.51 663.4 446.34 667.07 441.15 661.87 436.87 658.82 428.93"/>
    <polygon class="st4" points="547.3 439.93 531.72 419.15 514.92 405.71 494.76 396.55 503.01 379.44 510.95 368.44 528.97 364.16 529.58 349.19 537.22 351.02 542.11 357.44 544.55 365.38 557.08 370.58 571.75 373.33 571.75 379.13 567.47 380.66 568.08 385.85 559.22 392.27 560.14 401.43 566.86 412.74 575.41 413.65 568.08 424.04 568.38 428.93 563.19 428.93 553.41 432.29 547.3 439.93"/>
    <polygon class="st4" points="494.76 396.55 463.29 382.49 460.54 370.88 466.04 365.69 472.45 368.13 479.48 362.33 476.12 347.05 460.54 332.08 460.54 323.22 465.73 319.56 451.37 299.7 453.82 278.31 466.65 264.87 473.07 269.76 488.65 270.68 497.81 261.82 499.34 272.81 505.75 273.43 499.95 282.59 503.62 287.48 511.87 285.65 515.53 277.7 522.25 275.56 533.56 283.81 540.58 287.17 547.3 285.03 556.47 291.14 556.47 299.7 561.05 307.34 570.52 314.06 561.36 323.53 563.19 332.39 566.55 338.5 562.27 346.75 559.22 356.52 564.11 366.3 557.08 370.58 544.55 365.38 542.11 357.44 537.22 351.02 529.58 349.19 528.97 364.16 510.95 368.44 503.01 379.44 494.76 396.55"/>
    <polygon class="st1" points="466.65 264.87 477.95 249.59 485.59 241.96 499.34 236.15 508.81 224.85 514 231.26 514 244.86 517.98 251.43 514.61 259.07 497.81 261.82 488.65 270.68 473.07 269.76 466.65 264.87"/>
    <polygon class="st4" points="570.52 314.06 584.88 315.59 588.85 299.7 601.07 293.89 606.27 307.03 606.27 319.86 605.05 329.18 609.32 340.94 604.44 351.02 598.02 362.02 609.32 380.05 620.93 384.02 623.07 392.27 636.82 404.18 640.79 414.57 642.01 428.93 648.73 439.01 656.37 454.9 648.43 457.04 644.46 467.73 635.29 467.73 629.79 472.92 623.38 468.65 606.27 460.7 594.35 463.15 583.97 470.17 582.74 459.48 576.79 454.9 563.19 448.48 567.16 441.15 563.19 428.93 568.38 428.93 568.08 424.04 575.41 413.65 566.86 412.74 560.14 401.43 559.22 392.27 568.08 385.85 567.47 380.66 571.75 379.13 571.75 373.33 557.08 370.58 564.11 366.3 559.22 356.52 562.27 346.75 566.55 338.5 563.19 332.39 561.36 323.53 570.52 314.06"/>
    <polygon class="st1" points="601.07 293.89 606.73 286.87 602.6 276.79 610.85 260.29 610.85 252.96 618.49 247.76 618.49 228.82 623.38 224.85 628.57 232.79 631.63 222.4 643.24 206.21 650.87 202.24 653.93 216.29 660.04 233.71 660.04 245.93 666.15 252.65 664.93 266.09 663.4 286.87 653.93 303.67 653.93 318.03 656.37 325.67 662.18 336.67 656.37 340.64 658.51 357.75 667.98 371.49 686.01 377.91 687.84 393.8 679.59 403.27 671.04 408.16 662.18 403.27 656.37 409.38 653.93 421.29 658.82 428.93 642.01 428.93 640.79 414.57 636.82 404.18 623.07 392.27 620.93 384.02 609.32 380.05 598.02 362.02 604.44 351.02 609.32 340.94 605.05 329.18 606.27 319.86 606.27 307.03 601.07 293.89"/>
    <polygon class="st1" points="650.87 202.24 703.73 182.99 748.94 156.11 775.22 124.34 787 82.17 799.05 82.17 795.38 64.45 784.38 52.23 774.61 36.35 790.49 40.01 799.05 36.35 816.16 44.9 824.71 44.9 829.6 51.62 847.32 63.84 854.04 88.9 890.09 107.23 898.03 119.29 898.03 131.67 915.75 135.94 921.86 151.83 916.36 160.39 930.42 171.38 965.86 168.94 987.85 164.66 997.63 154.28 1016.57 164.66 1036.73 160.39 1044.68 156.72 1070.34 173.22 1089.89 184.22 1053.84 239.82 1055.68 244.71 1068.51 247.76 1074.62 245.32 1083.78 254.48 1096 270.68 1088.67 275.26 1074.01 267.31 1048.34 266.09 1039.79 278.31 1009.85 283.2 985.41 283.2 960.97 302.75 932.86 320.47 926.75 349.19 913.31 375.47 918.2 394.56 909.64 402.96 896.2 408.46 879.09 428.93 886.42 444.82 869.31 457.04 844.87 447.57 833.26 444.82 836.32 469.56 830.82 478.73 814.47 484.23 805.46 490.03 792.33 490.03 783.77 497.37 787 510.81 778.27 502.56 766.66 515.7 755.66 519.06 761.51 506.45 767.58 496.14 767.88 487.44 758.72 472.92 749.55 444.82 751.08 420.38 761.51 411.52 771.86 421.9 777.66 421.29 782.85 410.6 784.38 397.77 782.55 385.85 774.61 378.22 761.51 375.16 752.91 378.52 744.67 375.47 737.94 366.61 731.83 366.61 725.42 373.63 714.55 372.72 709.84 364.47 704.95 353.77 686.31 355 678.67 346.14 670.88 343.08 662.18 336.67 656.37 325.67 653.93 318.03 653.93 303.67 663.4 286.87 664.93 266.09 666.15 252.65 660.04 245.93 660.04 233.71 653.93 216.29 650.87 202.24"/>
  </g>
</svg>